<svg width="75" height="64" viewBox="0 0 75 64" fill="none" xmlns="http://www.w3.org/2000/svg">
<path d="M15.8324 56.5077H19.2401C19.2034 56.8509 19.1298 57.5251 18.8846 58.0032C18.1123 59.6579 16.335 60.5773 12.9641 60.5773C10.2673 60.5773 8.51439 59.9031 7.57054 58.7632C6.92086 58.0031 6.58984 56.949 6.58984 55.6006C6.58984 54.3748 6.89635 53.3574 7.50919 52.6096C8.48988 51.3839 10.255 50.6484 13.0253 50.6484C16.8007 50.6484 18.3698 51.9968 18.946 53.431C19.142 53.9335 19.2034 54.4974 19.2156 54.8038H15.8079C15.7955 54.5832 15.7098 54.3012 15.5627 54.0928C15.2072 53.5781 14.4227 53.1981 12.9886 53.1981C11.6892 53.1981 10.7454 53.529 10.3163 54.2032C10.0957 54.5342 10.0099 55.0245 10.0099 55.6374C10.0099 56.2993 10.1202 56.7529 10.3531 57.0838C10.8312 57.7947 11.8977 58.0644 13.0008 58.0644C14.2879 58.0644 15.2071 57.807 15.6117 57.2186C15.7589 57.0102 15.8201 56.7651 15.8324 56.5077Z" fill="#697077"/>
<path d="M29.7671 57.8652V60.4271H20.5859V50.8047H23.9078V57.8652H29.7671Z" fill="#697077"/>
<path d="M41.2076 60.4271V58.0368H34.3064V56.7865H40.9257V54.4452H34.3064V53.2072H41.1218V50.8047H31.0703V60.4271H41.2076Z" fill="#697077"/>
<path fill-rule="evenodd" clip-rule="evenodd" d="M51.3073 58.6497H46.1099L45.2151 60.4271H41.7461L46.8822 50.8047H50.8414L55.6957 60.4271H52.1531L51.3073 58.6497ZM47.1886 56.4924H50.2656L49.1132 54.1633L48.7699 53.293L48.4022 54.1756L47.1886 56.4924Z" fill="#697077"/>
<path fill-rule="evenodd" clip-rule="evenodd" d="M68.0174 53.7343C68.0174 52.864 67.8091 52.2388 67.3674 51.7853C66.7916 51.1724 65.7982 50.8047 64.2791 50.8047H56.6172V60.4271H59.8907V57.0317H62.869L65.259 60.4271H68.9125L66.0075 56.5046C66.6566 56.4065 67.1841 56.0143 67.5265 55.5484C67.8332 55.1194 68.0174 54.482 68.0174 53.7343ZM64.8298 54.0407C64.8298 54.2001 64.8057 54.3963 64.7199 54.5433C64.5974 54.7885 64.2791 54.8866 63.7515 54.8866H59.9022V53.1336H63.6898C64.2048 53.1336 64.5482 53.2195 64.7199 53.5381C64.8057 53.6607 64.8298 53.8569 64.8298 54.0407Z" fill="#697077"/>
<path d="M49.9432 6.98513C49.9432 7.14456 49.9191 7.34064 49.8332 7.48773C49.7108 7.7329 49.3915 7.83099 48.8646 7.83099H45.0156V6.07812H48.8033C49.3182 6.07812 49.6616 6.16387 49.8332 6.48263C49.9191 6.60522 49.9432 6.8013 49.9432 6.98513Z" fill="#697077"/>
<path d="M59.5234 9.4337H62.6002L61.4476 7.10463L61.1042 6.23438L60.7368 7.11698L59.5234 9.4337Z" fill="#697077"/>
<path fill-rule="evenodd" clip-rule="evenodd" d="M0.989245 6.95754C1.38613 3.04962 4.68652 0 8.69918 0H66.5007C70.7811 0 74.2504 3.46975 74.2504 7.74996V56.25C74.2504 60.5302 70.7811 64 66.5007 64H8.69918C4.41897 64 0.949219 60.5302 0.949219 56.25V7.74996C0.949219 7.48241 0.962818 7.21814 0.989245 6.95754ZM2.56377 21.6765L28.6117 30.486C29.3213 29.766 30.287 29.1402 31.4486 28.6525C31.7157 28.5404 31.9913 28.4364 32.2743 28.3407L21.4144 17.322H29.9152L34.6874 27.7552C35.3176 27.6563 35.9655 27.5933 36.6222 27.5681C36.8407 27.5598 37.0591 27.5555 37.2772 27.5555V17.322H44.639L39.8668 27.7554C40.6019 27.8708 41.3156 28.0354 41.9933 28.2476C42.8654 28.5208 43.6593 28.8666 44.3519 29.2724L64.7521 17.322H72.6359V21.4581L42.774 31.5576C42.1463 30.9206 41.2103 30.4071 40.0842 30.0818C38.9583 29.7566 37.693 29.6342 36.4482 29.7301C35.2035 29.8261 34.0354 30.1362 33.0915 30.621C32.1477 31.106 31.4704 31.744 31.1455 32.4543C30.8205 33.1647 30.8625 33.9155 31.266 34.612C31.6696 35.3084 32.4166 35.9192 33.4126 36.3669C34.4086 36.8145 35.6089 37.0791 36.8617 37.1272C37.5578 37.1539 38.2528 37.1132 38.9195 37.0085C39.4524 36.9248 39.9677 36.8003 40.4507 36.6369L50.3475 46.6781H43.3431L39.8663 39.0783C38.1681 39.3448 36.382 39.3443 34.6874 39.0784L31.2112 46.6781H24.207L32.2742 38.4929C31.5189 38.2374 30.8218 37.9245 30.2018 37.5614L14.6391 46.6781H2.56377V45.1572L28.6116 36.3475C28.0123 35.7394 27.6016 35.0704 27.4047 34.3716C27.1719 33.5455 27.2447 32.7028 27.612 31.8998L2.56377 27.9681V21.6765ZM72.6359 45.3754L37.2772 33.4167L72.6359 38.9668V45.3754ZM72.6359 48.2926H2.56377V56.25C2.56377 59.6385 5.31064 62.3853 8.69918 62.3853H66.5007C69.889 62.3853 72.6359 59.6385 72.6359 56.25V48.2926ZM19.7596 9.65256V3.74424H16.4744V9.3583C16.4744 10.3635 15.5428 11.0377 13.9739 11.0377C12.3313 11.0377 11.4364 10.388 11.4364 9.34605V3.74424H8.11451V9.34605C8.11451 12.2634 10.5049 13.5015 13.839 13.5015C17.4061 13.5015 19.7596 12.2512 19.7596 9.65256ZM30.8231 13.3667V10.8047H24.9638V3.74424H21.642V13.3667H30.8231ZM40.6954 3.74424V6.15904H36.6259V13.3667H33.2671V6.15904H29.2098V3.74424H40.6954ZM53.1281 6.67388C53.1281 5.80362 52.9198 5.17844 52.479 4.72484C51.9032 4.112 50.9098 3.74424 49.3897 3.74424H41.7287V13.3667H45.0015V9.97123H47.9802L50.3706 13.3667H54.0231L51.1181 9.44414C51.7682 9.34605 52.2948 8.95379 52.6381 8.48804C52.9448 8.05908 53.1281 7.42165 53.1281 6.67388ZM63.643 11.5893H58.4453L57.5512 13.3667H54.082L59.2179 3.74424H63.1771L68.0314 13.3667H64.4888L63.643 11.5893Z" fill="#697077"/>
</svg>
