<svg width="157" height="64" viewBox="0 0 157 64" fill="none" xmlns="http://www.w3.org/2000/svg">
<path d="M78.6538 20.3641C79.3208 20.3548 79.888 20.2301 79.8788 19.5444V19.4416C79.888 18.759 79.3208 18.6343 78.6538 18.625C77.9838 18.6343 77.4165 18.759 77.4259 19.4416V19.5444C77.4165 20.2301 77.9838 20.3548 78.6538 20.3641Z" fill="#697077"/>
<path d="M54.268 18.9834C54.268 18.7839 54.1091 18.625 53.9096 18.625H51.918V19.3387H53.9096C54.0093 19.3387 54.0934 19.3044 54.1621 19.2359C54.2337 19.1641 54.268 19.0801 54.268 18.9834Z" fill="#697077"/>
<path d="M65.4789 18.6172L66.0525 19.8546H64.9023L65.4789 18.6172Z" fill="#697077"/>
<path d="M91.0648 18.6172L91.6385 19.8546H90.4883L91.0648 18.6172Z" fill="#697077"/>
<path d="M50.3251 44.6728L49.4774 42.8438L48.625 44.6728H50.3251Z" fill="#697077"/>
<path d="M70.3291 44.149C70.3291 44.771 69.9743 45.2824 69.3478 45.2824H66.7031V43.0156H69.3478C69.9743 43.0156 70.3291 43.5224 70.3291 44.149Z" fill="#697077"/>
<path d="M77.0282 42.8438L77.876 44.6728H76.1758L77.0282 42.8438Z" fill="#697077"/>
<path d="M87.3308 42.8594C87.6257 42.8594 87.8606 43.0944 87.8606 43.3893C87.8606 43.532 87.8099 43.6565 87.704 43.7624C87.6026 43.8638 87.4783 43.9145 87.3308 43.9145H84.3867V42.8594H87.3308Z" fill="#697077"/>
<path d="M97.0684 44.149C97.0684 44.771 96.7131 45.2824 96.0864 45.2824H93.4414V43.0156H96.0864C96.7131 43.0156 97.0684 43.5224 97.0684 44.149Z" fill="#697077"/>
<path d="M39.1295 32.6021L36.0569 25.5078H30.7852V37.3316H34.6259V30.9453L37.3973 37.3316H40.8316L43.6332 30.9453V37.3316H47.4589V25.5078H42.3528L39.1295 32.6021Z" fill="#697077"/>
<path d="M63.1361 37.3316V34.3944H54.6561V32.8581H62.7897V29.9813H54.6561V28.46H63.0307V25.5078H50.6797V37.3316H63.1361Z" fill="#697077"/>
<path d="M66.3724 35.2378C67.5472 36.7592 69.6408 37.5123 72.1562 37.5123C74.0452 37.5123 75.4298 37.1286 76.3945 36.5202C76.5604 36.4154 76.714 36.304 76.8556 36.1868L76.9611 37.3315H80.1994V30.3276H72.337V32.8731H76.5394C76.5208 32.9936 76.4566 33.1828 76.3642 33.363C76.3066 33.4755 76.238 33.5845 76.1628 33.6714C75.726 34.1835 74.5662 34.6354 73.06 34.6354C71.4935 34.6354 70.4843 34.2287 69.9421 33.5961C69.5806 33.1292 69.3697 32.4664 69.3697 31.4723C69.3697 30.4331 69.5806 29.7251 69.9873 29.2583C70.5747 28.5955 71.5688 28.3093 73.0298 28.3093C74.3403 28.3093 75.244 28.6105 75.6658 28.9871C75.9369 29.213 76.1477 29.5294 76.1929 29.7402H80.094C80.0885 29.6012 80.0685 29.4313 80.035 29.2504C79.9776 28.9413 79.8806 28.5998 79.7475 28.3244C78.8137 26.4265 76.6447 25.2969 72.9546 25.2969C69.7463 25.2969 67.5924 26.2759 66.4025 27.752C65.6193 28.7611 65.2578 30.0264 65.2578 31.4422C65.2578 33.0087 65.6796 34.3492 66.3724 35.2378Z" fill="#697077"/>
<path d="M69.8594 31.4701C69.8594 30.4872 70.0603 29.9189 70.3552 29.5793C70.7986 29.0802 71.6078 28.7969 73.0297 28.7969C74.294 28.7969 75.0505 29.0924 75.3393 29.3503L75.3456 29.3558L75.352 29.3612C75.4513 29.4439 75.5421 29.5459 75.6108 29.6453C75.6786 29.7435 75.7058 29.8117 75.7125 29.8356H71.847V33.3607H75.7818C75.6409 33.52 75.3384 33.7187 74.8579 33.8784C74.3795 34.0373 73.7657 34.1433 73.0598 34.1433C71.5715 34.1433 70.7344 33.7581 70.3218 33.2843C70.0521 32.9307 69.8594 32.3885 69.8594 31.4701Z" fill="#697077"/>
<path d="M90.4347 29.8672L89.3125 32.0096H91.4949L90.4347 29.8672Z" fill="#697077"/>
<path fill-rule="evenodd" clip-rule="evenodd" d="M93.561 35.1475L94.6005 37.3316H98.9536L92.9883 25.5078H88.1236L81.8125 37.3316H86.0751L87.1746 35.1475H93.561ZM88.5001 32.4966L89.9913 29.6499L90.4431 28.5655L90.8649 29.6348L92.281 32.4966H88.5001Z" fill="#697077"/>
<path fill-rule="evenodd" clip-rule="evenodd" d="M124.995 57.8082H124.988C124.904 57.8082 124.82 57.8078 124.736 57.8069V57.8082H32.6073C24.4775 57.8082 17.2257 54.0489 12.4956 48.1739H26.0695V46.4534H11.2237C9.00901 43.1828 7.52497 39.3771 7.00591 35.2706H26.0695V33.5502H6.84646C6.81612 33.0379 6.80078 32.5216 6.80078 32.0017C6.80078 28.5958 7.46053 25.3442 8.65933 22.3673H26.0695V20.6469H9.42667C11.2504 16.9307 13.9414 13.7173 17.236 11.2706H109.623C110.775 10.4152 112 9.6535 113.288 8.99673C112.941 9.17372 112.599 9.35821 112.261 9.5501H19.874C23.6311 7.41473 27.9767 6.19531 32.6071 6.19531H124.736V6.19653C124.823 6.19568 124.909 6.19531 124.995 6.19531C139.247 6.19531 150.801 17.7492 150.801 32.0017C150.801 46.2542 139.247 57.8082 124.995 57.8082ZM134.59 44.1053C135.746 40.6243 136.435 36.4898 136.435 32.0017C136.435 27.8178 135.835 23.9411 134.819 20.6146C134.694 20.2084 134.564 19.8105 134.428 19.4212C134.201 18.7728 133.957 18.1485 133.699 17.5502C133.35 16.7423 132.975 15.9818 132.576 15.2738C130.694 11.9333 128.547 10.1343 126.543 9.52859V17.5502H131.813C132.259 18.5015 132.666 19.5373 133.026 20.6469H126.543V30.4533H134.686C134.705 30.9636 134.715 31.4799 134.715 32.0017C134.715 32.5236 134.705 33.0399 134.686 33.5501H126.543V43.3566H133.024C132.666 44.4662 132.259 45.502 131.813 46.4533H126.543V54.475C128.547 53.8694 130.694 52.0703 132.576 48.7297C132.975 48.0217 133.351 47.2612 133.699 46.4533C134.02 45.7096 134.318 44.9256 134.59 44.1053ZM138.053 20.6469C138.879 23.6362 139.39 26.9507 139.506 30.4533H147.652C147.412 26.898 146.354 23.567 144.666 20.6469H138.053ZM142.513 17.5502H137.041C136.048 14.9478 134.794 12.6842 133.347 10.8774C136.944 12.3008 140.09 14.6159 142.513 17.5502ZM123.447 9.52826V17.5502H116.29C116.638 16.7423 117.013 15.9818 117.413 15.2738C119.294 11.9328 121.443 10.1335 123.447 9.52826ZM116.642 10.8773C115.194 12.6841 113.941 14.9477 112.948 17.5502H107.475C109.898 14.6158 113.045 12.3006 116.642 10.8773ZM111.935 20.6469H102.026V22.3673H104.424C103.259 24.8502 102.53 27.5784 102.336 30.4533H110.482C110.599 26.9507 111.109 23.6362 111.935 20.6469ZM123.447 20.6469H115.161C114.276 23.5514 113.71 26.8739 113.582 30.4533H123.447V20.6469ZM139.506 33.5501C139.39 37.0527 138.879 40.3672 138.053 43.3566H144.666C146.354 40.4365 147.412 37.1054 147.652 33.5501H139.506ZM115.161 43.3566C114.276 40.4521 113.71 37.1295 113.582 33.5501H123.447V43.3566H115.161ZM111.935 43.3566C111.109 40.3672 110.599 37.0527 110.482 33.5501H102.336C102.576 37.1054 103.634 40.4365 105.323 43.3566H111.935ZM137.041 46.4533C136.048 49.0556 134.794 51.3192 133.348 53.1259C136.944 51.7026 140.09 49.3875 142.513 46.4533H137.041ZM116.29 46.4533H123.447V54.4753C121.443 53.8701 119.294 52.0708 117.413 48.7297C117.013 48.0217 116.638 47.2612 116.29 46.4533ZM112.948 46.4533L102.026 46.4534V48.1738H109.051C111.205 50.2975 113.78 51.994 116.642 53.1262C115.194 51.3194 113.941 49.0558 112.948 46.4533ZM78.654 17.2983C77.077 17.3014 75.7866 17.7564 75.7929 19.3429V19.6483C75.7866 21.2317 77.077 21.6898 78.654 21.6929C80.228 21.6898 81.5184 21.2317 81.5121 19.6483V19.3429C81.5121 17.7595 80.2311 17.2983 78.654 17.2983ZM29.6587 17.4011V21.59H31.2919V17.4011H29.6587ZM36.2444 19.6203L34.4055 17.4011H32.1584V21.59H33.7916V19.0313L36.0418 21.59H37.8807V17.4011H36.2444V19.6203ZM42.0229 18.7351V21.5963H40.3898V18.7351H38.448V17.4074H43.9646V18.7351H42.0229ZM44.5132 21.5963H49.4159V20.521H46.1463V19.985H49.4159V19.0156H46.1463V18.4795H49.4159V17.4074H44.5132V21.5963ZM50.2854 21.5931V17.4042H54.3216C55.1849 17.395 55.9174 18.1211 55.9049 18.9876C55.9049 19.3024 55.8207 19.5891 55.6524 19.8447C55.4873 20.0971 55.266 20.2904 54.9917 20.4182L55.9049 21.5931H54.1658L53.3772 20.5709H51.9186V21.5931H50.2854ZM60.499 19.6203L58.6601 17.4011H56.4129V21.59H58.0462V19.0313L60.2964 21.59H62.1353V17.4011H60.499V19.6203ZM64.0989 21.5963H62.26L64.5072 17.4074H66.4489L68.6961 21.5963H66.8572L66.5268 20.8794H64.4293L64.0989 21.5963ZM71.1894 21.5963V18.7351H73.1312V17.4074H67.6146V18.7351H69.5563V21.5963H71.1894ZM73.6797 21.59V17.4011H75.3129V21.59H73.6797ZM84.2486 17.4011L86.0875 19.6203V17.4011H87.7238V21.59H85.8849L83.6347 19.0313V21.59H82.0015V17.4011H84.2486ZM87.8485 21.5963H89.6873L90.0178 20.8794H92.1151L92.4461 21.5963H94.2845L92.0379 17.4074H90.0957L87.8485 21.5963ZM94.4125 21.59V17.4011H96.0456V20.2623H99.3151V21.59H94.4125ZM33.8905 42.4823C33.1394 42.4823 32.218 42.593 32.218 43.0859C32.218 43.3578 32.969 43.3946 33.9411 43.4406L33.9518 43.4412C35.6789 43.5287 38.0969 43.6512 38.0924 45.2006C38.0924 46.9699 36.0651 47.3892 33.8905 47.3892C31.7204 47.3846 29.9189 47.122 29.6885 45.2006H32.218C32.4944 45.6799 33.1348 45.8042 33.8905 45.8042C34.6415 45.8042 35.563 45.6799 35.563 45.2006C35.563 44.9289 34.8119 44.8874 33.8398 44.8414L33.829 44.8408C32.1019 44.7533 29.6839 44.6308 29.6885 43.0859C29.6885 41.3167 31.7158 40.8928 33.8905 40.8928C36.0605 40.9066 37.862 41.1508 38.0924 43.0859H35.563C35.2864 42.5975 34.6461 42.4823 33.8905 42.4823ZM43.4507 43.0168V47.2463H41.0365V43.0168H38.1661V41.0541H46.3211V43.0168H43.4507ZM44.7177 47.2463H47.4361L47.9244 46.1867H51.0252L51.5136 47.2463H54.232L50.91 41.0541H48.0396L44.7177 47.2463ZM57.7428 41.0448L60.4612 44.3253V41.0448H62.88V47.2372H60.1617L56.8351 43.4545V47.2372H54.4209V41.0448H57.7428ZM64.2898 41.0541V47.2463H69.8003C71.5004 47.2694 72.7628 45.8319 72.7489 44.1502C72.7628 42.4593 71.5004 41.031 69.8003 41.0541H64.2898ZM74.9882 47.2463H72.2698L75.5918 41.0541H78.4622L81.784 47.2463H79.0656L78.5772 46.1867H75.4765L74.9882 47.2463ZM81.9729 41.0495V47.2418H84.3872V45.7305H86.5435L87.709 47.2418H90.28L88.93 45.5048C89.3355 45.3158 89.6626 45.0303 89.9068 44.657C90.1556 44.2793 90.28 43.8553 90.28 43.39C90.2984 42.1091 89.2157 41.0357 87.9394 41.0495H81.9729ZM91.031 47.2463V41.0541H96.5411C98.2415 41.031 99.5038 42.4593 99.4906 44.1502C99.5038 45.8319 98.2415 47.2694 96.5411 47.2463H91.031ZM47.95 37.8249H43.1446V33.2846L41.1529 37.8249H37.0773L35.117 33.3079V37.8249H30.2966V25.0214H36.3798L39.1415 31.3978L42.0386 25.0214H47.95V37.8249ZM63.6258 37.8249H50.1898V25.0214H63.5205V28.9533H55.1458V29.4949H63.2795V33.3514H55.1458V33.9081H63.6258V37.8249ZM80.6929 37.8249H76.5179L76.4478 37.0647C75.4012 37.6591 73.9844 38.0056 72.1598 38.0056C69.5643 38.0056 67.2929 37.2293 65.989 35.5418C65.2133 34.5464 64.7716 33.0913 64.7716 31.4457C64.7716 29.9465 65.1551 28.5684 66.0191 27.4552L66.0219 27.4516L66.0247 27.4481C67.3372 25.8199 69.6564 24.8106 72.9582 24.8106C76.7318 24.8106 79.137 25.9703 80.1906 28.1116L80.1915 28.1133L80.1922 28.115C80.4372 28.6223 80.5697 29.2927 80.5869 29.7241L80.5917 29.8413H80.6929V37.8249ZM87.4804 35.6408L86.3809 37.8249H80.9999L87.8337 25.0214H93.2947L99.7532 37.8249H94.2944L93.2561 35.6408H87.4804ZM29.5965 53.5931H99.7035V51.8726H29.5965V53.5931Z" fill="#697077"/>
<path fill-rule="evenodd" clip-rule="evenodd" d="M32.6055 0H124.993C142.666 0 156.993 14.3268 156.993 32C156.993 49.6732 142.666 64 124.993 64H32.6055C14.9323 64 0.605469 49.6732 0.605469 32C0.605469 14.3268 14.9323 0 32.6055 0ZM32.6055 3.09683C16.6427 3.09683 3.7023 16.0372 3.7023 32C3.7023 47.9628 16.6427 60.9033 32.6055 60.9033H124.993C140.955 60.9033 153.895 47.9628 153.895 32C153.895 16.0372 140.955 3.09683 124.993 3.09683H32.6055Z" fill="#697077"/>
</svg>
