<svg width="80" height="64" viewBox="0 0 80 64" fill="none" xmlns="http://www.w3.org/2000/svg">
<path d="M26.0835 21.9474C26.0835 21.777 26.0835 19.2969 26.0835 19.2969H24.6098C24.6098 19.2969 24.6098 21.7385 24.6098 21.8156C24.6098 22.2664 24.1919 22.5689 23.488 22.5689C22.7511 22.5689 22.3497 22.2774 22.3497 21.81C22.3497 21.733 22.3497 19.2969 22.3497 19.2969H20.8594C20.8594 19.2969 20.8594 21.612 20.8594 21.81C20.8594 23.1188 21.9317 23.6742 23.4275 23.6742C25.0278 23.6742 26.0835 23.1133 26.0835 21.9474Z" fill="#697077"/>
<path d="M31.0446 23.6137V22.4644H28.4161V19.2969H26.9258V23.6137H31.0446Z" fill="#697077"/>
<path d="M35.473 20.3803V19.2969H30.3203V20.3803H32.1405V23.6137H33.6472V20.3803H35.473Z" fill="#697077"/>
<path d="M37.4536 23.6137V19.2969H35.9414V23.6137H37.4536Z" fill="#697077"/>
<path d="M44.3922 23.6137V19.2969H42.528L41.3512 21.887L40.2294 19.2969H38.3047V23.6137H39.707V21.2821L40.7188 23.6137H41.9727L42.9954 21.2821V23.6137H44.3922Z" fill="#697077"/>
<path d="M46.7272 22.8163H49.0588L49.4384 23.6137H51.0276L48.8499 19.2969H47.0737L44.7695 23.6137H46.3257L46.7272 22.8163ZM48.5914 21.8484H47.2112L47.7555 20.8091L47.9205 20.4133L48.0745 20.8036L48.5914 21.8484Z" fill="#697077"/>
<path d="M55.7033 20.3803V19.2969H50.5508V20.3803H52.371V23.6137H53.8778V20.3803H55.7033Z" fill="#697077"/>
<path d="M60.7148 23.6137V22.5414H57.6198V21.9804H60.5884V20.9301H57.6198V20.3747H60.6767V19.2969H56.168V23.6137H60.7148Z" fill="#697077"/>
<path d="M32.096 25.9062H30.6717C30.6717 25.9062 29.7423 28.6228 29.7423 28.6888C29.7423 28.6228 28.8734 25.9062 28.8734 25.9062H27.3282C27.3282 25.9062 26.4648 28.6228 26.4648 28.6888C26.4648 28.6228 25.53 25.9062 25.53 25.9062H23.9297L25.5465 30.2231H27.1577C27.1577 30.2231 28.0266 27.644 28.0321 27.5725C28.0376 27.644 28.901 30.2231 28.901 30.2231H30.5177L32.096 25.9062Z" fill="#697077"/>
<path d="M34.0435 30.2231V25.9062H32.5312V30.2231H34.0435Z" fill="#697077"/>
<path d="M39.9263 30.2231V25.9062H38.5185V28.2544L36.4454 25.9062H34.8945V30.2231H36.3134V27.8199L38.4526 30.2231H39.9263Z" fill="#697077"/>
<path d="M45.8168 30.2231V25.9062H44.4091V28.2544L42.3359 25.9062H40.7852V30.2231H42.2039V27.8199L44.3431 30.2231H45.8168Z" fill="#697077"/>
<path d="M51.2275 30.2231V29.1507H48.1315V28.5898H51.101V27.5395H48.1315V26.9841H51.189V25.9062H46.6797V30.2231H51.2275Z" fill="#697077"/>
<path d="M57.0401 27.2205C57.0401 26.8301 56.9462 26.5496 56.7482 26.3462C56.4898 26.0712 56.0446 25.9062 55.3623 25.9062H51.9258V30.2231H53.3941V28.6999H54.7304L55.803 30.2231H57.4417L56.1386 28.4633C56.4294 28.4193 56.6665 28.2434 56.8198 28.0345C56.9573 27.842 57.0401 27.556 57.0401 27.2205ZM55.6106 27.358C55.6106 27.4296 55.5995 27.5175 55.5603 27.5835C55.5055 27.6934 55.3623 27.7375 55.1263 27.7375H53.3995V26.9511H55.0984C55.3299 26.9511 55.4843 26.9895 55.5603 27.1326C55.5995 27.1875 55.6106 27.2755 55.6106 27.358Z" fill="#697077"/>
<path d="M26.7013 34.4688C26.7013 34.3982 26.7013 32.3594 26.7013 32.3594H26.1864C26.1864 32.3594 26.1864 34.3898 26.1864 34.4356C26.1864 34.9255 25.7255 35.2038 25.0611 35.2038C24.2763 35.2038 23.8901 34.9048 23.8901 34.4314C23.8901 34.3857 23.8901 32.3594 23.8901 32.3594H23.3711C23.3711 32.3594 23.3711 34.3359 23.3711 34.4148C23.3711 35.2785 24.0438 35.6605 25.0404 35.6605C26.0701 35.6605 26.7013 35.2536 26.7013 34.4688Z" fill="#697077"/>
<path d="M30.3943 35.619V35.1415H28.1479V32.3594H27.6289V35.619H30.3943Z" fill="#697077"/>
<path d="M33.346 32.8327V32.3594H29.8828V32.8327H31.3528V35.619H31.876V32.8327H33.346Z" fill="#697077"/>
<path d="M37.0364 33.2812C37.0364 33.0486 36.9866 32.8784 36.8994 32.7413C36.7457 32.5129 36.4509 32.3594 35.961 32.3594H33.8516V35.619H34.3623V34.2445H35.8488L36.7582 35.619H37.3561L36.372 34.1573C36.6211 34.1283 36.8163 33.9871 36.9201 33.8044C36.9949 33.6798 37.0364 33.4971 37.0364 33.2812ZM36.5215 33.3226C36.5215 33.414 36.5008 33.5262 36.4634 33.6009C36.397 33.7213 36.2433 33.7836 35.9942 33.7877H34.3664C34.3664 33.7795 34.3664 32.8245 34.3664 32.8245H35.8987C36.2101 32.8245 36.3762 32.8992 36.4634 33.0403C36.5008 33.1068 36.5215 33.2188 36.5215 33.3226Z" fill="#697077"/>
<path d="M38.5144 34.8134H40.545L40.9602 35.619H41.5166L39.8639 32.3594H39.2535L37.5469 35.619H38.0908L38.5144 34.8134ZM40.329 34.3525H38.7387L39.3988 33.1026L39.5442 32.7995L39.6895 33.1026L40.329 34.3525Z" fill="#697077"/>
<path d="M46.7834 35.3076C46.9121 35.158 46.9703 34.9463 46.9703 34.7179C46.9703 34.502 46.908 34.286 46.7792 34.1532C46.6505 34.0287 46.4429 33.9249 46.2145 33.9041C46.3474 33.8833 46.4512 33.8003 46.5218 33.713C46.6339 33.5843 46.7003 33.3767 46.7003 33.1691C46.7003 32.9489 46.6339 32.7496 46.4927 32.6126C46.3391 32.459 46.0775 32.3594 45.7121 32.3594H43.5195V35.619H45.874C46.3142 35.619 46.6214 35.5069 46.7834 35.3076ZM46.1646 33.2729C46.1646 33.4182 46.119 33.5469 46.0401 33.6216C45.9612 33.7089 45.8283 33.7462 45.6871 33.7462H44.0261V32.8078H45.5916C45.7826 32.8078 45.9279 32.8451 46.0276 32.9365C46.1148 33.0195 46.1646 33.14 46.1646 33.2729ZM46.3307 34.9919C46.2269 35.1083 46.0484 35.1664 45.7868 35.1664H44.0261V34.1989H45.7993C46.0401 34.1989 46.2062 34.2487 46.3059 34.3442C46.3972 34.4314 46.4346 34.5435 46.4346 34.6723C46.4346 34.8051 46.4055 34.9172 46.3307 34.9919Z" fill="#697077"/>
<path d="M50.7388 35.619V35.1415H48.2059V34.2113H50.6391V33.738H48.2059V32.8327H50.7097V32.3594H47.6992V35.619H50.7388Z" fill="#697077"/>
<path d="M54.7968 34.6545C54.7968 34.123 54.4445 33.8489 53.5765 33.7493C53.4308 33.7286 53.1151 33.6954 52.9449 33.6746C52.1393 33.579 51.8944 33.4711 51.8944 33.1929C51.8944 32.923 52.1643 32.7693 52.9781 32.7693C53.609 32.7693 53.9333 32.8939 54.0955 33.1181C54.1414 33.1804 54.166 33.2552 54.1783 33.3133H54.7342C54.7185 33.2178 54.6805 33.0849 54.6223 32.9769C54.3986 32.5908 53.9378 32.3125 52.9781 32.3125C51.8321 32.3084 51.3587 32.7237 51.3587 33.2386C51.3587 33.7534 51.7283 34.015 52.6875 34.1272C52.8536 34.1479 53.1484 34.1811 53.2938 34.1978C54.0374 34.2891 54.27 34.4013 54.27 34.7127C54.27 34.9992 54.0038 35.2068 53.1525 35.2068C52.455 35.2068 52.0812 35.0822 51.9317 34.8414C51.8861 34.775 51.857 34.6712 51.8529 34.6006H51.3047C51.3172 34.75 51.3587 34.912 51.4334 35.0407C51.6494 35.4352 52.156 35.6636 53.1359 35.6636C54.3069 35.6636 54.7968 35.2857 54.7968 34.6545Z" fill="#697077"/>
<path d="M58.5176 32.8327V32.3594H55.0547V32.8327H56.5244V35.619H57.0479V32.8327H58.5176Z" fill="#697077"/>
<path d="M21.903 38.452C21.903 38.1198 21.8365 37.8955 21.7243 37.7253C21.5666 37.4802 21.2593 37.3516 20.7236 37.3516H18.6641V40.6112H19.1789V39.5481C19.1789 39.5481 20.6323 39.5481 20.7029 39.5481C21.2053 39.544 21.55 39.4278 21.7327 39.162C21.8489 39 21.903 38.7675 21.903 38.452ZM21.3797 38.452C21.3797 38.618 21.3631 38.7426 21.3091 38.8257C21.2136 38.9792 21.0184 39.0748 20.6157 39.0748C20.5783 39.0748 19.1789 39.0748 19.1789 39.0748V37.8166H20.6323C21.0102 37.8166 21.2053 37.9038 21.3091 38.074C21.3589 38.1487 21.3797 38.2859 21.3797 38.452Z" fill="#697077"/>
<path d="M25.6607 40.6112V40.1337H23.1277V39.2035H25.561V38.7301H23.1277V37.8249H25.6316V37.3516H22.6211V40.6112H25.6607Z" fill="#697077"/>
<path d="M29.6224 38.2733C29.6224 38.0408 29.5726 37.8706 29.4854 37.7335C29.3317 37.5051 29.0369 37.3516 28.5469 37.3516H26.4375V40.6112H26.9482V39.2367H28.4348L29.3442 40.6112H29.9422L28.958 39.1495C29.2072 39.1205 29.4024 38.9792 29.5062 38.7966C29.5809 38.672 29.6224 38.4893 29.6224 38.2733ZM29.1075 38.3148C29.1075 38.4062 29.0867 38.5184 29.0494 38.5931C28.9829 38.7135 28.8292 38.7758 28.5801 38.7799H26.9524C26.9524 38.7716 26.9524 37.8166 26.9524 37.8166H28.4846C28.796 37.8166 28.9621 37.8914 29.0494 38.0325C29.0867 38.099 29.1075 38.211 29.1075 38.3148Z" fill="#697077"/>
<path d="M33.4726 37.8249V37.3516H30.5742V40.6112H31.0891V39.2243H33.3647V38.7384H31.0891V37.8249H33.4726Z" fill="#697077"/>
<path d="M35.8328 37.2969C35.1393 37.2969 34.6618 37.4671 34.3212 37.8243C34.0348 38.1024 33.9102 38.4887 33.9102 38.9744C33.9102 39.506 34.0721 39.9046 34.3711 40.1745C34.6909 40.4943 35.1808 40.6603 35.8328 40.6603C36.5055 40.6603 37.0286 40.4943 37.3401 40.1578C37.61 39.8838 37.7512 39.4935 37.7512 38.9703C37.7512 38.4637 37.6307 38.0775 37.3442 37.8035C37.0162 37.463 36.5262 37.2969 35.8328 37.2969ZM35.8328 40.1953C35.376 40.1953 35.0521 40.0956 34.8071 39.8963C34.558 39.6929 34.4375 39.3814 34.4375 38.9827C34.4375 38.609 34.5413 38.2976 34.7407 38.1107C34.9691 37.8948 35.3178 37.7661 35.8286 37.7661C36.3559 37.7661 36.684 37.8907 36.9289 38.1066C37.1366 38.2893 37.2279 38.6132 37.2279 38.9786C37.2279 39.3481 37.1325 39.6638 36.9207 39.8547C36.6757 40.0831 36.3311 40.1953 35.8328 40.1953Z" fill="#697077"/>
<path d="M41.6497 38.2733C41.6497 38.0408 41.5998 37.8706 41.5127 37.7335C41.359 37.5051 41.0642 37.3516 40.5743 37.3516H38.4648V40.6112H38.9756V39.2367H40.4621L41.3715 40.6112H41.9694L40.9853 39.1495C41.2344 39.1205 41.4296 38.9792 41.5334 38.7966C41.6082 38.672 41.6497 38.4893 41.6497 38.2733ZM41.1348 38.3148C41.1348 38.4062 41.1141 38.5184 41.0767 38.5931C41.0103 38.7135 40.8566 38.7758 40.6075 38.7799H38.9797C38.9797 38.7716 38.9797 37.8166 38.9797 37.8166H40.512C40.8234 37.8166 40.9895 37.8914 41.0767 38.0325C41.1141 38.099 41.1348 38.211 41.1348 38.3148Z" fill="#697077"/>
<path d="M46.6169 40.6112V37.3516H45.9443L44.603 40.034L43.2867 37.3516H42.6016V40.6112H43.0957V38.1031L44.3248 40.6112H44.8646L46.1228 38.1031V40.6112H46.6169Z" fill="#697077"/>
<path d="M48.073 39.8056H50.1036L50.5188 40.6112H51.0752L49.4225 37.3516H48.8121L47.1055 40.6112H47.6494L48.073 39.8056ZM49.8876 39.3447H48.2973L48.9574 38.0948L49.1028 37.7917L49.2481 38.0948L49.8876 39.3447Z" fill="#697077"/>
<path d="M54.8168 40.6112V37.3516H54.3224V39.8845L52.1637 37.3516H51.5781V40.6112H52.0806V38.0616L54.2564 40.6112H54.8168Z" fill="#697077"/>
<path d="M59.2951 39.398H58.7549C58.7381 39.5475 58.6799 39.697 58.5759 39.8091C58.3522 40.0707 57.9954 40.1828 57.4473 40.1828C56.9865 40.1828 56.4921 40.054 56.255 39.7177C56.1308 39.56 56.0514 39.3274 56.0514 38.9786C56.0514 38.6672 56.1062 38.4346 56.2259 38.2768C56.425 37.9571 56.8444 37.791 57.435 37.791C58.0077 37.791 58.369 37.9487 58.5602 38.1689C58.6676 38.2851 58.7303 38.4222 58.7504 38.5841H59.2906C59.2739 38.4014 59.2157 38.1854 59.0915 38.0028C58.8253 37.6083 58.3354 37.2969 57.4384 37.2969C56.5838 37.2969 56.0726 37.5709 55.7897 37.982C55.6073 38.2186 55.5156 38.5509 55.5156 38.9744C55.5156 39.4478 55.6286 39.7967 55.8232 40.0416C56.1062 40.4278 56.6498 40.6603 57.4719 40.6603C58.3153 40.6603 58.8175 40.407 59.0669 40.0043C59.2079 39.8091 59.2783 39.5765 59.2951 39.398Z" fill="#697077"/>
<path d="M63.0128 40.6112V40.1337H60.4793V39.2035H62.9133V38.7301H60.4793V37.8249H62.9837V37.3516H59.9727V40.6112H63.0128Z" fill="#697077"/>
<path d="M25.0369 43.8516L25.6579 45.7629H27.6676L26.0418 46.9442L26.6628 48.8554L25.0369 47.6742L23.411 48.8554L24.0321 46.9442L22.4062 45.7629H24.4159L25.0369 43.8516Z" fill="#697077"/>
<path d="M32.2078 43.8516L32.8414 45.7628H34.8921L33.2331 46.9441L33.8668 48.8554L32.2078 47.6741L30.5488 48.8554L31.1824 46.9441L29.5234 45.7628H31.5741L32.2078 43.8516Z" fill="#697077"/>
<path d="M39.3172 43.8516L39.9509 45.7628H42.0015L40.3425 46.9441L40.9763 48.8554L39.3172 47.6741L37.6582 48.8554L38.2918 46.9441L36.6328 45.7628H38.6835L39.3172 43.8516Z" fill="#697077"/>
<path d="M46.4304 43.8516L47.0641 45.7628H49.1148L47.4558 46.9441L48.0894 48.8554L46.4304 47.6741L44.7714 48.8554L45.4051 46.9441L43.7461 45.7628H45.7968L46.4304 43.8516Z" fill="#697077"/>
<path d="M53.5995 43.8516L54.2203 45.7628H56.2303L54.6039 46.9441L55.2247 48.8554L53.5995 47.6741L51.9735 48.8554L52.5946 46.9441L50.9688 45.7628H52.9784L53.5995 43.8516Z" fill="#697077"/>
<path d="M28.5202 11.6094L28.9898 13.0545H30.5093L29.28 13.9476L29.7496 15.3927L28.5202 14.4996L27.291 15.3927L27.7605 13.9476L26.5312 13.0545H28.0508L28.5202 11.6094Z" fill="#697077"/>
<path d="M33.9398 11.6016L34.419 13.0467H35.9694L34.7151 13.9398L35.1941 15.3849L33.9398 14.4917L32.6854 15.3849L33.1646 13.9398L31.9102 13.0467H33.4607L33.9398 11.6016Z" fill="#697077"/>
<path d="M39.3187 11.6016L39.7978 13.0467H41.3483L40.094 13.9398L40.573 15.3849L39.3187 14.4917L38.0643 15.3849L38.5435 13.9398L37.2891 13.0467H38.8396L39.3187 11.6016Z" fill="#697077"/>
<path d="M44.6976 11.6016L45.1767 13.0467H46.7272L45.4729 13.9398L45.952 15.3849L44.6976 14.4917L43.4432 15.3849L43.9224 13.9398L42.668 13.0467H44.2185L44.6976 11.6016Z" fill="#697077"/>
<path d="M50.1179 11.6016L50.5874 13.0467H52.1069L50.8777 13.9398L51.3472 15.3849L50.1179 14.4917L48.8886 15.3849L49.3582 13.9398L48.1289 13.0467H49.6483L50.1179 11.6016Z" fill="#697077"/>
<path fill-rule="evenodd" clip-rule="evenodd" d="M6.87757 37.6125C4.80539 24.6478 10.853 11.8208 22.96 6.3125L23.0718 6.55813C11.0866 12.0109 5.08894 24.7124 7.144 37.5698C9.41762 51.7944 20.893 60.3254 34.9456 60.7367L34.9376 61.0065C20.7755 60.592 9.17456 51.9838 6.87757 37.6125Z" fill="#697077"/>
<path d="M20.3347 9.62272C18.0973 9.67372 15.4787 10.9354 13.9336 12.768C15.1727 13.9186 17.1663 13.4933 18.6011 13.2579C20.6488 12.9221 22.8263 12.2716 24.7585 11.3507C23.9641 9.65951 21.8239 9.58882 20.3347 9.62272Z" fill="#697077"/>
<path d="M18.5756 6.86989C17.2504 8.93424 15.671 10.9859 13.9523 12.7927C12.5143 11.4429 13.3823 9.19653 13.9692 7.79961C15.0323 5.26839 17.5813 3.0856 20.2462 1.96875C20.9776 3.63278 19.389 5.60283 18.5756 6.86989Z" fill="#697077"/>
<path d="M13.8577 15.415C11.7627 16.1597 9.96247 18.256 9.05859 20.3607C10.565 21.0611 12.2776 20.0496 13.5304 19.3761C15.2507 18.4513 17.0058 17.1753 18.3867 15.6986C17.139 14.3821 15.2445 14.9222 13.8577 15.415Z" fill="#697077"/>
<path d="M11.3205 13.352C10.8619 15.7064 10.0931 18.1468 9.08327 20.3711C7.32071 19.5398 7.38782 17.159 7.46332 15.6438C7.59217 13.0577 9.03898 10.1086 11.0533 8.23438C12.2865 9.55647 11.6127 11.8521 11.3205 13.352Z" fill="#697077"/>
<path d="M9.83012 22.8903C8.08444 24.2674 7.02632 26.8195 6.78125 29.0985C8.43264 29.2881 9.75261 27.7853 10.7348 26.7542C12.072 25.3504 13.3378 23.5896 14.1417 21.7475C12.5675 20.8887 10.9672 21.9932 9.83012 22.8903Z" fill="#697077"/>
<path d="M6.80244 21.7252C7.11372 24.1028 7.11439 26.6751 6.80299 29.0991C4.88249 28.8632 4.24549 26.5573 3.86922 25.1107C3.21958 22.6137 3.65514 19.3884 4.92063 16.9609C6.50211 17.8364 6.60356 20.2054 6.80244 21.7252Z" fill="#697077"/>
<path d="M8.45757 31.0443C7.07619 33.0678 6.59042 36.239 7.21165 38.7878C9.03708 38.3556 9.94196 36.289 10.6686 34.8294C11.6342 32.8895 12.4504 30.6264 12.7425 28.4061C10.7626 27.994 9.36749 29.7113 8.45757 31.0443Z" fill="#697077"/>
<path d="M4.83234 30.8415C5.90858 33.3332 6.74848 36.0757 7.23996 38.7834C5.14642 39.2332 3.63966 37.0348 2.7643 35.5772C1.20586 32.9824 0.751853 29.3854 1.32275 26.2812C3.23889 26.6655 4.17655 29.3236 4.83234 30.8415Z" fill="#697077"/>
<path d="M9.42532 39.8528C8.68363 42.3075 9.19916 45.6446 10.7009 47.9523C12.3512 46.8779 12.5796 44.5131 12.8134 42.8175C13.1218 40.58 13.267 38.1014 12.8839 35.7812C10.7731 36.0507 9.92072 38.2129 9.42532 39.8528Z" fill="#697077"/>
<path d="M5.75704 40.9025C7.60887 43.0274 9.31708 45.4501 10.7259 47.9354C8.8152 49.1282 6.57312 47.4986 5.21333 46.3454C2.80101 44.2997 1.23463 40.8228 0.863281 37.5448C2.87081 37.2751 4.63997 39.6206 5.75704 40.9025Z" fill="#697077"/>
<path d="M13.3177 48.204C13.4769 51.0612 15.3371 54.0594 17.814 55.766C19.0101 54.1283 18.2604 51.6192 17.8523 49.8677C17.303 47.5095 16.5428 45.0539 15.413 42.875C13.4428 43.9161 13.2129 46.3223 13.3177 48.204Z" fill="#697077"/>
<path d="M9.98655 50.6228C12.67 52.1139 15.3457 53.8734 17.8335 55.7457C16.3437 57.7076 13.3657 56.9253 11.5197 56.2947C8.2666 55.1835 5.36638 52.2541 3.85156 48.9995C5.77218 48.0102 8.40138 49.742 9.98655 50.6228Z" fill="#697077"/>
<path d="M20.9583 55.1858C22.5688 58.125 26.239 60.0425 29.6953 60.5041C30.0673 58.3673 27.7552 56.2516 26.4953 54.8676C24.7015 52.8971 22.8323 50.8522 20.7367 49.1484C19.1666 50.9714 19.9967 53.4309 20.9583 55.1858Z" fill="#697077"/>
<path d="M18.6613 58.9064C22.3223 59.287 26.0454 59.835 29.7043 60.4668C29.355 63.1629 25.0766 63.598 23.1342 63.7572C19.1517 64.0836 14.7215 62.4827 11.6367 59.7878C13.1689 57.9849 16.7111 58.7037 18.6613 58.9064Z" fill="#697077"/>
<path d="M25.7094 4.04958C23.2515 4.75079 20.3744 6.08104 18.9531 8.53665C21.533 8.25545 24.0686 7.33748 26.5482 6.63807C29.3257 5.85454 32.2503 5.26855 34.9395 4.18705C31.9944 3.0088 28.5228 3.24693 25.7094 4.04958Z" fill="#697077"/>
<path fill-rule="evenodd" clip-rule="evenodd" d="M73.2623 37.5698C75.317 24.7124 69.3195 12.0111 57.3345 6.55813L57.4464 6.3125C69.5532 11.8209 75.6011 24.6478 73.5285 37.6125C71.2322 51.9838 59.6308 60.592 45.4688 61.0065L45.4609 60.7367C59.5134 60.3254 70.9883 51.7944 73.2623 37.5698Z" fill="#697077"/>
<path d="M60.0722 9.62272C62.3092 9.67372 64.9277 10.9354 66.4735 12.768C65.2342 13.9186 63.2399 13.4933 61.8059 13.2579C59.7579 12.9221 57.5801 12.2716 55.6484 11.3507C56.4426 9.65951 58.5823 9.58882 60.0722 9.62272Z" fill="#697077"/>
<path d="M61.8312 6.86989C63.1567 8.93424 64.736 10.9859 66.4541 12.7927C67.8925 11.4429 67.0245 9.19653 66.4373 7.79961C65.3747 5.26839 62.8256 3.0856 60.1601 1.96875C59.4286 3.63278 61.0181 5.60283 61.8312 6.86989Z" fill="#697077"/>
<path d="M66.5484 15.415C68.6434 16.1597 70.4431 18.256 71.3469 20.3607C69.8402 21.0611 68.1278 20.0496 66.875 19.3761C65.1548 18.4513 63.3998 17.1753 62.0195 15.6986C63.2667 14.3821 65.1615 14.9222 66.5484 15.415Z" fill="#697077"/>
<path d="M69.0848 13.352C69.5434 15.7064 70.3118 18.1468 71.3218 20.3711C73.0846 19.5398 73.0175 17.159 72.9414 15.6438C72.8128 13.0577 71.3666 10.1086 69.3521 8.23438C68.1184 9.55647 68.7928 11.8521 69.0848 13.352Z" fill="#697077"/>
<path d="M70.5764 22.8903C72.3224 24.2674 73.3806 26.8195 73.6255 29.0985C71.9746 29.2881 70.6547 27.7853 69.6726 26.7542C68.3349 25.3504 67.0687 23.5896 66.2656 21.7475C67.8394 20.8887 69.44 21.9932 70.5764 22.8903Z" fill="#697077"/>
<path d="M73.6014 21.7252C73.2893 24.1026 73.2893 26.6751 73.6003 29.0991C75.5208 28.8632 76.1583 26.5573 76.5341 25.1107C77.184 22.6137 76.7478 19.3884 75.4827 16.9609C73.9011 17.8364 73.7994 20.2054 73.6014 21.7252Z" fill="#697077"/>
<path d="M71.9491 31.0443C73.3305 33.0678 73.8159 36.239 73.1952 38.7878C71.3697 38.3556 70.4648 36.2891 69.7378 34.8294C68.7725 32.8895 67.956 30.6264 67.6641 28.4061C69.6438 27.994 71.0398 29.7113 71.9491 31.0443Z" fill="#697077"/>
<path d="M75.575 30.8415C74.499 33.3332 73.659 36.0757 73.168 38.7834C75.2607 39.2332 76.7674 37.0348 77.6432 35.5772C79.2013 32.9824 79.6554 29.3854 79.085 26.2812C77.1689 26.6655 76.2305 29.3236 75.575 30.8415Z" fill="#697077"/>
<path d="M70.9812 39.8528C71.7228 42.3075 71.2082 45.6446 69.7061 47.9523C68.0562 46.8779 67.8269 44.5131 67.5932 42.8175C67.2856 40.58 67.1402 38.1014 67.5227 35.7812C69.6334 36.0507 70.4857 38.2129 70.9812 39.8528Z" fill="#697077"/>
<path d="M74.6482 40.9025C72.797 43.0275 71.089 45.4501 69.6797 47.9354C71.5901 49.1282 73.8328 47.4986 75.1929 46.3454C77.6044 44.2997 79.1715 40.8228 79.5428 37.5448C77.5351 37.2751 75.7656 39.6206 74.6482 40.9025Z" fill="#697077"/>
<path d="M67.0887 48.204C66.9299 51.0612 65.0698 54.0594 62.5934 55.766C61.3966 54.1283 62.1471 51.6193 62.5542 49.8677C63.1034 47.5095 63.864 45.0539 64.9937 42.875C66.9646 43.9161 67.1939 46.3223 67.0887 48.204Z" fill="#697077"/>
<path d="M70.4207 50.6228C67.7373 52.1139 65.0618 53.8734 62.5742 55.7457C64.0641 57.7076 67.0416 56.9253 68.8872 56.2947C72.1409 55.1835 75.0413 52.2541 76.5557 48.9995C74.6352 48.0102 72.0056 49.742 70.4207 50.6228Z" fill="#697077"/>
<path d="M59.4452 55.1858C57.8345 58.125 54.1647 60.0425 50.708 60.5041C50.336 58.3673 52.6479 56.2516 53.9085 54.8676C55.7015 52.8971 57.5706 50.8522 59.6667 49.1484C61.2371 50.9714 60.406 53.4309 59.4452 55.1858Z" fill="#697077"/>
<path d="M61.7461 58.9064C58.0852 59.287 54.3627 59.835 50.7031 60.4668C51.0526 63.1629 55.3313 63.598 57.2731 63.7572C61.2562 64.0836 65.6866 62.4827 68.7704 59.7878C67.2391 57.9849 63.6968 58.7037 61.7461 58.9064Z" fill="#697077"/>
<path d="M54.695 4.04958C57.1524 4.75079 60.0304 6.08104 61.4509 8.53665C58.8716 8.25545 56.3359 7.33748 53.8561 6.63807C51.0786 5.85454 48.154 5.26855 45.4648 4.18705C48.41 3.0088 51.8816 3.24693 54.695 4.04958Z" fill="#697077"/>
<path d="M41.8022 2.78277L40.541 0L39.3036 2.73099L36.4258 0.946718L38.275 4.8328H42.874L44.6564 0.946718L41.8022 2.78277Z" fill="#697077"/>
<path d="M42.8445 5.4375H38.2383V6.11723H42.8445V5.4375Z" fill="#697077"/>
<path d="M40.8705 58.0156L41.6128 60.2999H44.0146L42.0715 61.7116L42.8136 63.9958L40.8705 62.5841L38.9274 63.9958L39.6697 61.7116L37.7266 60.2999H40.1284L40.8705 58.0156Z" fill="#697077"/>
</svg>
