<svg width="134" height="64" viewBox="0 0 134 64" fill="none" xmlns="http://www.w3.org/2000/svg">
<path d="M121.054 4.51861C122.299 6.37909 123.494 8.67421 122.906 11.1338C120.879 9.97314 119.247 8.07813 117.954 6.20735C116.652 4.32401 115.299 2.32132 114.836 0C117.394 0.654234 119.684 2.47034 121.054 4.51861Z" fill="#697077"/>
<path d="M11.1142 11.1276C10.5281 8.66755 11.7254 6.37333 12.9725 4.51392C14.3454 2.46686 16.636 0.652417 19.1941 0C18.7294 2.32087 17.3749 4.3228 16.0711 6.20493C14.7761 8.0748 13.1428 9.9686 11.1142 11.1276Z" fill="#697077"/>
<path d="M9.32785 15.8472C9.78536 13.899 9.77521 11.7662 9.33966 9.93891C8.95666 8.33301 8.39935 6.06287 6.56507 5.29688C5.23177 7.43556 4.69581 10.348 5.47287 12.5303C6.03472 14.1088 7.04515 16.1958 9.14067 16.5188C11.0635 16.9621 13.0079 15.9364 14.5436 15.0895C16.2511 14.148 17.9236 12.65 18.9398 10.8692C17.0757 9.92831 14.9528 10.6919 13.3556 11.4237C11.634 12.2125 10.0525 13.9051 9.32785 15.8472Z" fill="#697077"/>
<path d="M46.6486 17.7186V7.9375H43.3092V11.5011H38.3003V7.9375H34.9609V17.7186H38.3003V14.1676H43.3092V17.7186H46.6486Z" fill="#697077"/>
<path d="M57.72 7.9375H61.4081L56.175 14.4915V17.7186H52.8232V14.5039L47.6523 7.9375H51.4525L54.5427 11.8499L57.72 7.9375Z" fill="#697077"/>
<path fill-rule="evenodd" clip-rule="evenodd" d="M73.0363 8.77225C73.6968 9.29564 74.0705 10.1804 74.0705 11.4637C74.0705 12.5103 73.8089 13.2953 73.3105 13.8436C72.6376 14.6161 71.5287 14.9649 70.0834 14.9775C69.6348 14.9899 65.7971 14.9775 65.7971 14.9775V17.7186H62.4453V7.9375H70.0335C71.3791 7.9375 72.4009 8.21161 73.0363 8.77225ZM70.5568 12.2238C70.6566 12.0493 70.7064 11.825 70.7064 11.5135C70.7064 11.1896 70.644 10.9155 70.5319 10.766C70.3201 10.4545 69.9213 10.3049 69.2734 10.3049H65.7722V12.6972H69.2484C69.9463 12.6972 70.3575 12.5353 70.5568 12.2238Z" fill="#697077"/>
<path d="M85.7103 15.2889V17.7186H75.4062V7.9375H85.624V10.3797H78.6956V11.6382H85.4241V14.0179H78.6956V15.2889H85.7103Z" fill="#697077"/>
<path fill-rule="evenodd" clip-rule="evenodd" d="M98.2196 8.9343C98.6694 9.39529 98.8799 10.0307 98.8799 10.9155C98.8799 11.6756 98.6936 12.3234 98.3816 12.7596C98.0333 13.233 97.4972 13.6318 96.8369 13.7314L99.7901 17.7186H96.0767L93.6475 14.2672H90.6202V17.7186H87.293V7.9375H95.0802C96.6249 7.9375 97.635 8.31126 98.2196 8.9343ZM95.5285 11.7378C95.6163 11.5883 95.6405 11.3889 95.6405 11.227C95.6405 11.0401 95.6163 10.8407 95.5285 10.716C95.3543 10.3921 95.006 10.3049 94.482 10.3049H90.6323V12.0867H94.5441C95.0802 12.0867 95.4043 11.9871 95.5285 11.7378Z" fill="#697077"/>
<path d="M83.9275 29.9859C83.9275 27.7501 82.5071 26.5751 79.1941 26.216C78.6556 26.1507 77.0726 25.9875 76.077 25.9059C73.5147 25.6284 72.7478 25.4817 72.7478 24.8288C72.7478 24.2413 73.3516 23.9639 75.6526 23.9639C77.2847 23.9639 78.1987 24.2739 78.5576 24.7472C78.7372 24.9757 78.8025 25.1552 78.8188 25.3348H83.519C83.47 24.943 83.3069 24.3881 83.0456 23.8986C82.1971 22.2665 80.157 20.9609 75.767 20.9609C70.8219 20.9609 68.1129 22.7072 68.1129 24.9921C68.1129 27.1952 69.6468 28.4845 73.7921 28.8599C74.2609 28.9 75.2675 28.9951 76.0917 29.073L76.1425 29.0778L76.1518 29.0787L76.1554 29.079L76.5993 29.121C78.7698 29.3495 79.3574 29.4963 79.3574 30.1819C79.3574 30.8182 78.7861 31.1609 76.3871 31.1609C74.5266 31.1609 73.4332 30.8835 73.0414 30.4102C72.8783 30.2144 72.764 29.9206 72.7314 29.7248H68.0312C68.0802 30.0512 68.1618 30.5735 68.3412 30.9978C69.141 32.793 71.23 34.1639 76.077 34.1639C81.2831 34.1639 83.9275 32.6951 83.9275 29.9859Z" fill="#697077"/>
<path fill-rule="evenodd" clip-rule="evenodd" d="M50.6065 32.662C51.0961 32.0908 51.3409 31.2257 51.3409 30.3445C51.3409 29.5938 51.1451 28.8756 50.7371 28.4024C50.2474 27.7658 49.3824 27.3089 48.4686 27.1947C49.0888 27.1131 49.6762 26.7868 50.0189 26.3624C50.4433 25.8564 50.6391 25.171 50.6391 24.3387C50.6391 23.5063 50.3943 22.772 49.8395 22.2171C49.2193 21.5806 48.0932 21.1562 46.3307 21.1562H35.2656V33.9676H46.6407C48.4522 33.9676 49.8558 33.5758 50.6065 32.662ZM46.1021 25.1057C46.1021 25.4159 46.0042 25.677 45.8411 25.8564C45.6125 26.0686 45.1882 26.1502 44.6333 26.1502H39.5415V24.0612H44.5191C45.1393 24.0612 45.5636 24.1429 45.792 24.355C46.0042 24.5345 46.1021 24.7956 46.1021 25.1057ZM46.5918 30.7199C46.3307 30.9646 45.8736 31.0626 45.1066 31.0626H39.5415V28.9247H45.1556C45.8736 28.9247 46.2979 29.0225 46.5427 29.2347C46.7386 29.4305 46.8201 29.6754 46.8201 30.0017C46.8201 30.3119 46.7549 30.5566 46.5918 30.7199Z" fill="#697077"/>
<path d="M66.7076 30.7852V33.9676H53.2109V21.1562H66.5934V24.355H57.5193V26.0033H66.3323V29.1205H57.5193V30.7852H66.7076Z" fill="#697077"/>
<path d="M99.8068 24.3714V21.1562H84.5156V24.3714H89.9176V33.9676H94.3882V24.3714H99.8068Z" fill="#697077"/>
<path d="M99.4206 45.3063H98.7012L98.6497 44.6136C98.4301 44.9642 97.9652 45.3851 96.9838 45.3851C95.3255 45.3851 94.5547 44.3855 94.5547 41.8336C94.5547 39.8606 95.0454 38.2734 97.0702 38.2734C98.8254 38.2734 99.36 39.4223 99.3857 40.6587H98.5089C98.4831 39.8519 98.1227 39.1065 97.0883 39.1065C95.8435 39.1065 95.483 39.8519 95.483 41.8601C95.483 43.9559 95.9313 44.6136 97.1065 44.6136C97.9304 44.6136 98.4119 44.1576 98.571 43.6139V42.3073H96.7991V41.5092H99.4115V43.5262C99.4115 44.1288 99.4175 44.772 99.4191 45.0953L99.4206 45.2492V45.3063Z" fill="#697077"/>
<path fill-rule="evenodd" clip-rule="evenodd" d="M35.4314 43.5593H37.8868L38.3953 45.3044H39.3249L37.2904 38.3594H36.1592L33.9844 45.3044H34.9052L35.4314 43.5593ZM37.6675 42.7789H35.6681C35.6681 42.7789 36.5362 39.9729 36.5538 39.9115C36.5625 39.8676 36.7029 39.245 36.7029 39.245L36.8 39.7056L36.8432 39.9115C36.852 39.9553 37.6675 42.7789 37.6675 42.7789Z" fill="#697077"/>
<path d="M45.9784 38.3594H46.8203L45.1805 45.3044H44.1369C44.1369 45.3044 42.9706 39.9027 42.9706 39.6747C42.9618 39.9027 41.7692 45.3044 41.7692 45.3044H40.7258L39.0859 38.3594H40.0329C40.0329 38.3594 41.3044 43.8575 41.3044 44.0768C41.3044 43.8575 42.4708 38.3594 42.4708 38.3594H43.5143C43.5143 38.3594 44.6805 43.8663 44.6805 44.0768C44.6805 43.8663 45.9784 38.3594 45.9784 38.3594Z" fill="#697077"/>
<path fill-rule="evenodd" clip-rule="evenodd" d="M50.4218 43.5593H47.9664L47.4403 45.3044H46.5195L48.6943 38.3594H49.8255L51.86 45.3044H50.9305L50.4218 43.5593ZM48.2033 42.7789H50.2026C50.2026 42.7789 49.3871 39.9553 49.3783 39.9115L49.312 39.5955L49.2379 39.245C49.2379 39.245 49.0977 39.8676 49.0889 39.9115C49.0714 39.9729 48.2033 42.7789 48.2033 42.7789Z" fill="#697077"/>
<path fill-rule="evenodd" clip-rule="evenodd" d="M55.2389 38.3594C56.3087 38.3594 56.8875 38.8591 56.8875 40.3148C56.8875 41.5513 56.4227 41.9634 55.9404 42.1037L57.2734 45.3044H56.3087L55.0723 42.2792H53.3887V45.3044H52.5117V38.3594H55.2389ZM55.1075 41.4899C55.8002 41.4899 55.9667 41.1303 55.9667 40.3412C55.9667 39.4467 55.7037 39.1749 55.0635 39.1749H53.3974V41.4899H55.1075Z" fill="#697077"/>
<path fill-rule="evenodd" clip-rule="evenodd" d="M62.7266 41.7179C62.7266 43.3578 62.6039 44.0241 62.2532 44.524C61.9024 45.0064 61.35 45.3044 60.4554 45.3044H58.0703V38.3594H60.3941C61.2711 38.3594 61.955 38.6224 62.2707 39.096C62.6215 39.6045 62.7266 40.2359 62.7266 41.7179ZM60.2714 44.4801C60.8063 44.4801 61.2535 44.3399 61.4814 44.0329C61.7271 43.6997 61.7972 43.0244 61.7972 41.7179C61.7972 40.6218 61.7357 40.0342 61.4814 39.6571C61.2447 39.3327 60.7887 39.1923 60.2538 39.1923H58.956V44.4801H60.2714Z" fill="#697077"/>
<path d="M71.9784 38.3594H72.8203L71.1805 45.3044H70.1369C70.1369 45.3044 68.9706 39.9027 68.9706 39.6747C68.9618 39.9027 67.7692 45.3044 67.7692 45.3044H66.7258L65.0859 38.3594H66.0329C66.0329 38.3594 67.3044 43.8575 67.3044 44.0768C67.3044 43.8575 68.4707 38.3594 68.4707 38.3594H69.5143C69.5143 38.3594 70.6805 43.8663 70.6805 44.0768C70.6805 43.8663 71.9784 38.3594 71.9784 38.3594Z" fill="#697077"/>
<path d="M74.3729 38.3594V45.3044H73.4609V38.3594H74.3729Z" fill="#697077"/>
<path d="M80.0789 38.3594V45.3044H79.0704L76.4835 39.9202V45.3044H75.6328V38.3594H76.694L79.2194 43.6646V38.3594H80.0789Z" fill="#697077"/>
<path d="M85.7661 38.3594V45.3044H84.7575L82.171 39.9202V45.3044H81.3203V38.3594H82.3815L84.9074 43.6646V38.3594H85.7661Z" fill="#697077"/>
<path d="M87.9195 38.3594V45.3044H87.0078V38.3594H87.9195Z" fill="#697077"/>
<path d="M93.6261 38.3594V45.3044H92.6175L90.0308 39.9202V45.3044H89.1797V38.3594H90.2413L92.7674 43.6646V38.3594H93.6261Z" fill="#697077"/>
<path d="M45.3006 58.999L44.2958 55.9062L43.2909 58.999H40.0391L42.6698 60.9105L41.665 64.0033L44.2958 62.0918L46.9267 64.0033L45.9217 60.9105L48.5526 58.999H45.3006Z" fill="#697077"/>
<path d="M56.9238 58.999L55.8984 55.9062L54.873 58.999H51.5547L54.2393 60.9104L53.2139 64.0032L55.8984 62.0918L58.583 64.0032L57.5576 60.9104L60.2421 58.999H56.9238Z" fill="#697077"/>
<path d="M68.4316 58.999L67.4062 55.9062L66.3808 58.999H63.0625L65.747 60.9104L64.7216 64.0032L67.4062 62.0918L70.0907 64.0032L69.0653 60.9104L71.7499 58.999H68.4316Z" fill="#697077"/>
<path d="M79.9433 58.999L78.9179 55.9062L77.8925 58.999H74.5742L77.2587 60.9104L76.2333 64.0032L78.9179 62.0918L81.6024 64.0032L80.577 60.9104L83.2616 58.999H79.9433Z" fill="#697077"/>
<path d="M91.5229 58.999L90.5188 55.9062L89.5132 58.999H86.2617L88.8923 60.9104L87.8882 64.0032L90.5188 62.0918L93.1494 64.0032L92.1438 60.9104L94.7759 58.999H91.5229Z" fill="#697077"/>
<path d="M3.40738 21.1063C4.353 22.5489 5.81624 24.356 7.94977 24.3045C9.88991 24.4014 11.5661 23.0773 12.8861 21.9722C14.3077 20.7821 15.5908 19.0415 16.1325 17.1598C14.1482 16.5825 12.2483 17.652 10.8316 18.6608C9.35214 19.7144 8.21434 21.6426 7.96991 23.6224C7.95159 21.6389 7.41472 19.5903 6.54922 17.9401C5.75793 16.4314 4.65528 14.3921 2.68803 13.9844C1.91295 16.3319 2.16025 19.2042 3.40738 21.1063Z" fill="#697077"/>
<path d="M8.58289 32.078C6.60277 32.4098 4.67127 31.1966 3.41686 29.7695C1.80187 27.9322 0.840962 25.4675 1.03693 23C3.07111 23.0516 4.61175 24.81 5.75045 26.1397C6.97683 27.5718 7.98166 29.4559 8.4637 31.3995C8.25168 29.4625 8.90198 27.371 10.1091 26.0785C11.2743 24.8309 12.9066 23.4713 14.9374 23.6895C14.8937 25.6536 13.9091 27.5248 12.8937 28.9263C11.9472 30.2323 10.4891 31.8478 8.58289 32.078Z" fill="#697077"/>
<path d="M4.92437 38.602C6.74805 39.7893 8.95988 40.9645 11.2844 40.0751C13.1914 39.4004 14.4038 37.4809 15.1495 35.719C15.9394 33.8521 16.4671 31.6995 16.1018 29.6562C14.0063 29.8422 12.2686 31.3415 11.3457 33.1717C10.3809 35.085 10.1958 37.3624 10.937 39.3685C9.84188 37.3047 8.24037 35.6349 6.54391 34.092C5.00176 32.6895 2.78039 31.212 0.542969 31.4899C0.968675 34.256 2.65666 37.1257 4.92437 38.602Z" fill="#697077"/>
<path d="M15.9835 47.5524C17.7781 46.4796 18.5004 44.2222 18.7955 42.2878C19.1137 40.2017 19.1001 37.9009 18.2337 35.9219C16.1516 36.5034 14.7225 38.3774 14.2506 40.4299C13.752 42.5984 14.1727 44.9096 15.3855 46.756C13.7734 44.9064 11.6297 43.3792 9.57536 42.3084C7.591 41.274 5.15655 40.0264 2.77344 40.7799C3.92259 43.5844 6.38081 46.1956 9.10528 47.2757C11.2152 48.112 13.782 48.939 15.9835 47.5524Z" fill="#697077"/>
<path d="M24.488 48.28C24.7514 50.2936 24.7439 52.8475 23.1806 54.3974C21.227 56.397 18.2036 56.0112 15.8716 55.5712C12.741 54.9801 9.21692 52.8449 7.32812 50.0019C9.63491 48.7317 12.4561 49.5442 14.7399 50.2019L14.8703 50.2393C17.4195 50.9728 20.1361 52.154 22.4081 53.7681C20.595 52.1298 19.274 49.7252 19.2093 47.3015C19.1511 45.1337 20.0921 42.8145 22.1169 41.7812C23.5304 43.6366 24.1924 46.0186 24.488 48.28Z" fill="#697077"/>
<path d="M33.5644 60.0975C34.7157 57.906 33.575 55.3339 32.6661 53.4328C31.5914 51.1854 30.1232 48.895 28.0219 47.25C26.0042 48.9889 26.1961 51.4769 26.796 53.6392C27.5093 56.2103 29.9822 58.402 32.543 59.6509C29.5772 58.5449 26.3383 57.8812 23.2568 57.6852L22.9446 57.6651C20.469 57.5038 17.2461 57.2939 15.2734 59.1056C18.2561 61.6412 22.4927 63.1041 26.2267 63.0281C28.729 62.9772 32.1622 62.6812 33.5644 60.0975Z" fill="#697077"/>
<path d="M124.686 15.8553C123.963 13.9118 122.382 12.2172 120.662 11.4268C119.064 10.6938 116.942 9.92885 115.078 10.8681C116.093 12.6497 117.763 14.1488 119.47 15.0917C121.004 15.9395 122.947 16.9666 124.87 16.5251C126.966 16.2041 127.98 14.1175 128.543 12.539C129.323 10.3577 128.79 7.44473 127.459 5.30469C125.623 6.06963 125.063 8.33915 124.68 9.9449C124.242 11.7727 124.23 13.9062 124.686 15.8553Z" fill="#697077"/>
<path d="M123.182 18.6632C124.66 19.7172 125.794 21.6443 126.038 23.6228C126.059 21.6404 126.598 19.5938 127.465 17.9452C128.257 16.4369 129.362 14.3985 131.329 13.9922C132.102 16.3405 131.852 19.2126 130.603 21.1137C129.658 22.5537 128.195 24.357 126.065 24.3086C124.122 24.4078 122.444 23.0806 121.124 21.9732C119.703 20.7818 118.422 19.0404 117.883 17.1584C119.867 16.5823 121.766 17.6533 123.182 18.6632Z" fill="#697077"/>
<path d="M125.535 31.409C125.752 29.4703 125.104 27.3744 123.895 26.0794C122.732 24.8309 121.101 23.47 119.07 23.6867C119.111 25.6508 120.094 27.5229 121.109 28.9251C122.054 30.2313 123.509 31.8468 125.414 32.0796C127.395 32.415 129.329 31.2024 130.586 29.7755C132.202 27.9396 133.165 25.4756 132.973 23.0078C130.937 23.0581 129.396 24.8151 128.255 26.1439C127.026 27.5768 126.019 29.4631 125.535 31.409Z" fill="#697077"/>
<path d="M122.653 33.1753C123.617 35.0897 123.8 37.3676 123.056 39.373C124.153 37.3096 125.756 35.6408 127.454 34.099C128.997 32.6975 131.221 31.222 133.457 31.5014C133.03 34.2674 131.339 37.1359 129.07 38.6103C127.247 39.7946 125.037 40.9674 122.716 40.0816C120.806 39.4081 119.593 37.4846 118.848 35.7197C118.059 33.8523 117.533 31.6994 117.901 29.6562C119.996 29.8439 121.733 31.3445 122.653 33.1753Z" fill="#697077"/>
<path d="M118.604 46.7538C119.816 44.9093 120.238 42.6004 119.743 40.4329C119.274 38.3799 117.846 36.5049 115.763 35.9219C114.896 37.9 114.88 40.2006 115.195 42.2872C115.489 44.2178 116.207 46.4706 117.991 47.5474C120.195 48.9449 122.768 48.1183 124.88 47.2824C127.606 46.2043 130.067 43.5949 131.218 40.7909C128.836 40.036 126.401 41.2818 124.415 42.3146C122.362 43.3833 120.217 44.9073 118.604 46.7538Z" fill="#697077"/>
<path d="M109.494 48.2707C109.229 50.2838 109.234 52.8376 110.797 54.3888C112.747 56.39 115.772 56.0062 118.104 55.5678C121.236 54.9791 124.761 52.8462 126.653 50.0048C124.348 48.7332 121.525 49.5432 119.241 50.1991L119.11 50.2367C116.561 50.9679 113.844 52.1467 111.571 53.7584C113.385 52.1214 114.707 49.7188 114.774 47.296C114.834 45.1284 113.895 42.8084 111.872 41.7734C110.456 43.6277 109.793 46.0095 109.494 48.2707Z" fill="#697077"/>
<path d="M107.744 63.0214C105.243 62.9685 101.809 62.67 100.41 60.0852L100.39 60.0497C99.2727 57.8649 100.409 55.3112 101.314 53.4214C102.391 51.1747 103.861 48.8853 105.963 47.2422C107.981 48.9824 107.785 51.4703 107.184 53.632C106.468 56.2026 103.993 58.3928 101.431 59.6396C104.398 58.5359 107.637 57.8746 110.719 57.6807L111.032 57.6607C113.508 57.5014 116.731 57.2942 118.701 59.107C115.716 61.64 111.479 63.1001 107.744 63.0214Z" fill="#697077"/>
</svg>
