<svg width="135" height="64" viewBox="0 0 135 64" fill="none" xmlns="http://www.w3.org/2000/svg">
<path d="M7.03858 12.6476C6.16313 10.4226 6.54318 7.86435 7.3496 5.71271C8.19804 3.44863 9.67542 1.19074 11.8835 0C11.9931 2.3859 11.2642 4.74314 10.4679 6.86873C9.75173 8.78059 8.873 10.8174 7.42194 12.3986C7.19898 13.5966 7.02811 14.7914 6.90794 15.9806C7.38887 14.7243 8.16869 13.5791 9.14171 12.6583C10.3944 11.4727 12.2579 10.5578 14.0072 11.0988C13.4948 13.0325 12.327 14.886 10.9439 16.1863C9.85522 17.2098 8.41811 18.5212 6.72536 18.5728C6.65563 20.3229 6.69504 22.057 6.83904 23.7675C7.07785 22.5157 7.58951 21.337 8.32882 20.4592C9.34442 19.253 10.8503 17.7793 12.7734 18.0259C12.6684 19.9829 11.8878 21.9881 10.8007 23.4948C9.9368 24.6921 8.79638 26.2182 7.17762 26.6124C7.43683 28.2932 7.79787 29.9461 8.25592 31.5635C8.26033 30.3251 8.53387 29.1095 9.07653 28.1346C9.8413 26.7597 11.0325 25.0452 12.9578 24.9111C13.24 26.8311 12.8576 28.93 12.0862 30.5993C11.4697 31.9336 10.6477 33.6352 9.14943 34.3392C9.7786 36.0794 10.5231 37.7709 11.3768 39.4036C11.0771 37.9964 11.0891 36.5135 11.4438 35.1793C11.9326 33.3399 13.1459 31.4078 15.0939 30.8471C15.7825 32.8777 15.6875 35.144 15.2875 37.208C14.9583 38.9074 14.3115 40.9033 12.8615 42.0072C13.8094 43.5369 14.8581 45.0051 16.0017 46.402C15.3873 45.032 15.0819 43.5336 15.2458 42.1618C15.4844 40.1634 16.046 38.0256 18.0872 36.9601C19.2453 38.9582 19.5136 41.1998 19.612 43.4139C19.6915 45.2038 19.4337 47.4115 18.1906 48.8677C19.558 50.2894 21.0334 51.62 22.6093 52.847C21.5919 51.5419 20.8795 50.0103 20.7286 48.4958C20.5156 46.3558 20.6197 44.0001 22.5188 42.4297C24.1429 44.1261 25.1121 46.6243 25.5871 48.7941C26.0071 50.7126 26.4456 52.9833 25.4456 54.8713C27.4511 56.1804 29.5922 57.3338 31.8558 58.3105C30.263 57.1755 28.9591 55.6182 28.3379 54.0103C27.5239 51.9026 27.0204 49.3912 28.606 47.2803C30.7305 48.6411 32.292 50.9628 33.5221 53.0803C34.5777 54.8972 35.6703 57.4049 35.1282 59.5688C36.3815 59.9941 37.6672 60.3675 38.9836 60.6861L38.9053 61.0093C37.584 60.6894 36.2933 60.3147 35.0349 59.8882C34.1533 62.4937 31.2651 63.3544 28.9293 63.7344C25.6013 64.2758 21.6385 63.2268 18.7973 61.1134C20.2969 58.9942 23.3565 58.7792 25.6636 58.617L25.6936 58.6149C28.221 58.4373 30.9546 58.6746 33.4962 59.335C30.5601 58.2173 27.8127 56.8119 25.2794 55.1598L25.242 55.2188C23.8538 57.4698 21.0666 57.5576 18.8789 57.4152C15.9102 57.222 12.4828 55.417 10.4992 52.9218C12.365 51.2847 15.1209 51.7429 17.2563 52.0979L17.2666 52.0995C19.6499 52.4957 22.2542 53.36 24.4403 54.6908C24.2321 54.5268 24.0283 54.3533 23.8302 54.1714C21.7048 52.656 19.7442 50.9609 17.965 49.1127C17.9443 49.1334 17.9234 49.1539 17.9023 49.1743C16.1723 50.9146 13.6528 50.4589 11.6865 49.8925C9.05517 49.1346 6.32628 46.8481 5.01854 44.2231C7.04506 43.0876 9.46789 44.0233 11.3524 44.7634C13.4208 45.5757 15.6093 46.8752 17.292 48.5317C17.1185 48.3129 16.953 48.0843 16.7966 47.8477C15.2325 46.0824 13.8256 44.1922 12.5887 42.1981L12.5266 42.2369C10.5696 43.4999 8.35224 42.5853 6.59486 41.6859C4.21213 40.4665 2.29737 37.7865 1.47001 35.1509C3.58375 34.4739 5.67214 35.8027 7.29558 36.8551C9.07116 38.006 10.8697 39.6475 12.1043 41.53C12.0136 41.3445 11.9291 41.1549 11.8513 40.9617C10.6651 38.8922 9.65736 36.7196 8.84158 34.4659L8.79955 34.4802L8.7961 34.4814C7.01667 35.1579 5.03508 34.1062 3.74319 32.9528C1.94763 31.3499 0.68206 28.8856 0.385373 26.4781C2.2406 26.2377 3.98848 27.6731 5.18349 28.8973C6.55903 30.3063 7.7936 31.9717 8.55261 33.8214C8.49721 33.6205 8.44967 33.4164 8.40971 33.2102C7.71905 31.0924 7.19581 28.9082 6.85089 26.6753L6.82402 26.6786L6.81493 26.6801C4.93366 26.9941 3.19432 25.5639 2.15516 24.1758C0.697218 22.228 -0.0543525 19.5322 0.134023 17.0888C2.00799 17.2198 3.43493 19.0026 4.36026 20.4447C5.43126 22.1142 6.31939 24.0036 6.70841 25.9802C6.69656 25.8229 6.68953 25.6648 6.68705 25.5061C6.40138 23.2335 6.29955 20.9143 6.3927 18.5664L6.38733 18.5662C4.47464 18.4973 3.06107 16.7214 2.33127 15.1462C1.28701 12.892 1.11889 10.0427 1.81589 7.64138C3.63887 8.15304 4.65516 10.2442 5.25501 11.8538C5.94664 13.7098 6.42936 15.7339 6.43322 17.7464C6.53271 16.058 6.73307 14.3563 7.03858 12.6476Z" fill="#697077"/>
<path d="M44.7083 8.48438V16.5455C44.7083 20.091 41.4972 21.7969 36.6305 21.7969C32.0815 21.7969 28.8203 20.1078 28.8203 16.1274V8.48438H33.3526V16.1274C33.3526 17.549 34.5734 18.4353 36.8145 18.4353C38.9552 18.4353 40.2263 17.5155 40.2263 16.1441V8.48438H44.7083Z" fill="#697077"/>
<path d="M59.8038 18.1175V21.6129H47.2773V8.48438H51.8096V18.1175H59.8038Z" fill="#697077"/>
<path d="M73.2722 11.7791V8.48438H57.6016V11.7791H63.1373V21.6129H67.7198V11.7791H73.2722Z" fill="#697077"/>
<path fill-rule="evenodd" clip-rule="evenodd" d="M89.3502 9.82243C89.9524 10.4412 90.2377 11.2942 90.2377 12.4815C90.2377 13.5017 89.9869 14.3714 89.568 14.9566C89.0994 15.5922 88.3801 16.1274 87.4941 16.2612L91.4586 21.6129H86.4743L83.2126 16.9803H79.1491V21.6129H74.6836V8.48438H85.1363C87.2102 8.48438 88.5648 8.98611 89.3502 9.82243ZM85.7385 13.5854C85.8556 13.3846 85.8887 13.117 85.8887 12.8997C85.8887 12.6487 85.8556 12.3811 85.7385 12.214C85.5042 11.7791 85.0357 11.6621 84.3329 11.6621H79.1657V14.0536H84.4169C85.1363 14.0536 85.5717 13.9198 85.7385 13.5854Z" fill="#697077"/>
<path fill-rule="evenodd" clip-rule="evenodd" d="M97.4921 19.188H104.583L105.737 21.6129H110.571L103.948 8.48438H98.5463L91.5391 21.6129H96.2712L97.4921 19.188ZM103.161 16.2444H98.9638L100.62 13.0836L101.122 11.8794L101.59 13.0668L103.161 16.2444Z" fill="#697077"/>
<path fill-rule="evenodd" clip-rule="evenodd" d="M88.8713 24.0859C86.0657 24.0859 84.5898 25.4157 84.5898 27.3698C84.5898 29.5753 86.1387 30.6941 88.8713 30.6941C91.8796 30.6941 93.1446 29.3968 93.1446 27.3698C93.1446 25.3103 91.717 24.0859 88.8713 24.0859ZM88.8713 29.0644C87.2742 29.0644 86.8112 28.4077 86.8112 27.3941C86.8112 26.3969 87.3142 25.7401 88.8631 25.7401C90.558 25.7401 90.9384 26.4779 90.9384 27.3941C90.9384 28.3672 90.4767 29.0644 88.8713 29.0644Z" fill="#697077"/>
<path d="M80.4338 30.5955V26.8253H76.2014V28.1956H78.4636C78.4474 28.301 78.3663 28.5037 78.2608 28.6252C78.0258 28.901 77.4014 29.1442 76.5905 29.1442C75.7473 29.1442 75.2041 28.9252 74.9123 28.5847C74.7177 28.3334 74.6041 27.9766 74.6041 27.4415C74.6041 26.882 74.7177 26.501 74.9365 26.2497C75.2528 25.8929 75.7879 25.7388 76.5744 25.7388C77.2798 25.7388 77.7663 25.9009 77.9934 26.1036C78.1393 26.2253 78.2527 26.3956 78.2771 26.509H80.3771C80.3691 26.3063 80.3042 25.9821 80.1906 25.747C79.6879 24.7253 78.5203 24.1172 76.5339 24.1172C74.8068 24.1172 73.6474 24.6441 73.0069 25.4388C72.5852 25.9821 72.3906 26.6631 72.3906 27.4253C72.3906 28.2686 72.6176 28.9901 72.9906 29.4686C73.623 30.2875 74.7501 30.6928 76.1041 30.6928C77.2961 30.6928 78.1149 30.4091 78.6339 29.9794L78.6906 30.5955H80.4338Z" fill="#697077"/>
<path d="M58.343 26.7436C59.9889 26.9219 60.6943 27.5058 60.6943 28.6166C60.6943 29.9625 59.3808 30.6922 56.7942 30.6922C54.3861 30.6922 53.3484 30.0112 52.9509 29.1193C52.8618 28.9085 52.8213 28.649 52.7969 28.4868H55.1321C55.1483 28.5841 55.2051 28.73 55.2861 28.8273C55.4807 29.0625 56.0239 29.2003 56.9483 29.2003C58.1403 29.2003 58.424 29.03 58.424 28.7139C58.424 28.3732 58.1321 28.3004 57.0537 28.1868C56.624 28.1463 55.9429 28.0814 55.6592 28.0571C53.5997 27.8705 52.8375 27.23 52.8375 26.1355C52.8375 25.0003 54.1834 24.1328 56.6402 24.1328C58.8213 24.1328 59.8348 24.7814 60.2565 25.5923C60.3862 25.8355 60.4672 26.1111 60.4916 26.3057H58.1564C58.1483 26.2165 58.1159 26.1274 58.0267 26.0138C57.8483 25.7787 57.3942 25.6247 56.5834 25.6247C55.4402 25.6247 55.1402 25.7625 55.1402 26.0543C55.1402 26.3787 55.5214 26.4517 56.7942 26.5895C57.2888 26.6301 58.0754 26.7111 58.343 26.7436Z" fill="#697077"/>
<path fill-rule="evenodd" clip-rule="evenodd" d="M35.0678 24.7776C35.4975 25.1181 35.7407 25.6938 35.7407 26.5289C35.7407 27.2101 35.5705 27.7208 35.2461 28.0775C34.8083 28.5802 34.0866 28.8073 33.1462 28.8155C32.8542 28.8236 30.3569 28.8155 30.3569 28.8155V30.5992H28.1758V24.2344H33.1136C33.9894 24.2344 34.6543 24.4127 35.0678 24.7776ZM33.4543 27.0235C33.519 26.9101 33.5516 26.764 33.5516 26.5613C33.5516 26.3506 33.5109 26.1721 33.438 26.0749C33.3002 25.8721 33.0407 25.7749 32.6191 25.7749H30.3406V27.3316H32.6028C33.0569 27.3316 33.3245 27.2262 33.4543 27.0235Z" fill="#697077"/>
<path fill-rule="evenodd" clip-rule="evenodd" d="M43.7202 24.883C44.0122 25.183 44.15 25.5965 44.15 26.1721C44.15 26.6667 44.0283 27.0884 43.8256 27.3721C43.5987 27.6802 43.25 27.9397 42.8202 28.0046L44.7419 30.5992H42.3257L40.7445 28.3533H38.7742V30.5992H36.6094V24.2344H41.677C42.6824 24.2344 43.3392 24.4776 43.7202 24.883ZM41.9689 26.7074C42.0257 26.6101 42.0418 26.4803 42.0418 26.3749C42.0418 26.2533 42.0257 26.1235 41.9689 26.0425C41.8554 25.8316 41.6284 25.7749 41.2879 25.7749H38.7824V26.9343H41.3284C41.677 26.9343 41.8879 26.8694 41.9689 26.7074Z" fill="#697077"/>
<path d="M52.1429 30.5992V29.0182H47.5781V28.1911H51.9565V26.6425H47.5781V25.8235H52.0862V24.2344H45.4375V30.5992H52.1429Z" fill="#697077"/>
<path d="M68.5856 25.8316V24.2344H60.9883V25.8316H63.672V30.5992H65.8936V25.8316H68.5856Z" fill="#697077"/>
<path d="M71.5071 24.2344V30.5992H69.2773V24.2344H71.5071Z" fill="#697077"/>
<path d="M83.7106 24.2344V30.5992H81.4805V24.2344H83.7106Z" fill="#697077"/>
<path d="M101.746 24.2344V28.1424C101.746 29.8614 100.189 30.6885 97.8298 30.6885C95.6249 30.6885 94.043 29.8695 94.043 27.9397V24.2344H96.2409V27.9397C96.2409 28.6289 96.8321 29.0587 97.9193 29.0587C98.957 29.0587 99.573 28.6127 99.573 27.9479V24.2344H101.746Z" fill="#697077"/>
<path d="M110.503 28.6166C110.503 27.5058 109.797 26.9219 108.152 26.7436C107.883 26.7111 107.098 26.6301 106.603 26.5895C105.33 26.4517 104.948 26.3787 104.948 26.0543C104.948 25.7625 105.249 25.6247 106.392 25.6247C107.203 25.6247 107.657 25.7787 107.835 26.0138C107.925 26.1274 107.956 26.2165 107.965 26.3057H110.3C110.276 26.1111 110.194 25.8355 110.065 25.5923C109.643 24.7814 108.63 24.1328 106.449 24.1328C103.992 24.1328 102.645 25.0003 102.645 26.1355C102.645 27.23 103.409 27.8705 105.468 28.0571L105.6 28.0688L105.82 28.089L106.862 28.1868C107.941 28.3004 108.232 28.3732 108.232 28.7139C108.232 29.03 107.949 29.2003 106.757 29.2003C105.833 29.2003 105.29 29.0625 105.094 28.8273C105.014 28.73 104.956 28.5841 104.941 28.4868H102.605C102.63 28.649 102.67 28.9085 102.76 29.1193C103.157 30.0112 104.194 30.6922 106.603 30.6922C109.19 30.6922 110.503 29.9625 110.503 28.6166Z" fill="#697077"/>
<path fill-rule="evenodd" clip-rule="evenodd" d="M53.8019 33.0312C51.9786 33.0312 51.0195 33.8955 51.0195 35.1655C51.0195 36.5988 52.026 37.326 53.8019 37.326C55.757 37.326 56.579 36.4829 56.579 35.1655C56.579 33.8271 55.6516 33.0312 53.8019 33.0312ZM53.8019 36.2668C52.7638 36.2668 52.4634 35.8399 52.4634 35.1812C52.4634 34.5332 52.7901 34.1062 53.7967 34.1062C54.898 34.1062 55.1457 34.5858 55.1457 35.1812C55.1457 35.8136 54.8453 36.2668 53.8019 36.2668Z" fill="#697077"/>
<path d="M43.664 35.9766C43.664 35.2547 43.2055 34.8751 42.1357 34.7593C41.9618 34.7382 41.4507 34.6855 41.1292 34.6592C40.3019 34.5695 40.0542 34.5221 40.0542 34.3114C40.0542 34.1216 40.2492 34.0321 40.9923 34.0321C41.5192 34.0321 41.8142 34.1321 41.9303 34.2849C41.9881 34.3588 42.0092 34.4167 42.0146 34.4747H43.5322C43.5164 34.3482 43.4637 34.169 43.3794 34.011C43.1053 33.484 42.4466 33.0625 41.029 33.0625C39.4325 33.0625 38.5577 33.6262 38.5577 34.364C38.5577 35.0755 39.053 35.4918 40.3914 35.6129C40.576 35.6288 41.0186 35.671 41.2979 35.6973C41.9988 35.771 42.1884 35.8185 42.1884 36.0398C42.1884 36.2453 42.004 36.356 41.2294 36.356C40.6286 36.356 40.2755 36.2664 40.149 36.1136C40.0964 36.0503 40.0595 35.9555 40.049 35.8923H38.5312C38.5471 35.9977 38.5734 36.1662 38.6314 36.3033C38.8897 36.8829 39.5642 37.3255 41.1292 37.3255C42.8103 37.3255 43.664 36.8514 43.664 35.9766Z" fill="#697077"/>
<path fill-rule="evenodd" clip-rule="evenodd" d="M33.1398 36.0919C33.1398 36.3764 33.0607 36.6558 32.9026 36.8401C32.6602 37.1353 32.207 37.2617 31.6222 37.2617H27.9492V33.125H31.522C32.0911 33.125 32.4548 33.2621 32.655 33.4676C32.8342 33.6467 32.9133 33.8839 32.9133 34.1526C32.9133 34.4214 32.85 34.6427 32.713 34.806C32.6022 34.9432 32.4126 35.0484 32.2124 35.0749C32.5074 35.1117 32.7867 35.2593 32.9448 35.4647C33.0765 35.6176 33.1398 35.8495 33.1398 36.0919ZM31.3639 34.6427C31.4166 34.5847 31.4483 34.5004 31.4483 34.4004C31.4483 34.3002 31.4166 34.2158 31.3481 34.158C31.2744 34.0893 31.1373 34.063 30.937 34.063H29.3299V34.7376H30.974C31.1531 34.7376 31.2902 34.7112 31.3639 34.6427ZM31.1268 36.3238C31.3744 36.3238 31.522 36.2921 31.6063 36.2131C31.659 36.1604 31.6801 36.0814 31.6801 35.9812C31.6801 35.8758 31.6537 35.7968 31.5905 35.7336C31.5115 35.6651 31.3744 35.6334 31.1426 35.6334H29.3299V36.3238H31.1268Z" fill="#697077"/>
<path d="M38.1041 36.2342V37.2617H33.7461V33.125H38.0671V34.158H35.1372V34.6902H37.9828V35.6967H35.1372V36.2342H38.1041Z" fill="#697077"/>
<path d="M48.7891 33.125V34.1632H47.0396V37.2617H45.5959V34.1632H43.8516V33.125H48.7891Z" fill="#697077"/>
<path d="M61.402 33.125V34.1737H58.5934V34.7586H61.2703V35.7968H58.5934V37.2617H57.1758V33.125H61.402Z" fill="#697077"/>
<path d="M68.543 34.1632V33.125H63.6055V34.1632H65.3498V37.2617H66.7937V34.1632H68.543Z" fill="#697077"/>
<path d="M73.9273 33.125V37.2617H72.515V35.7599H70.3966V37.2617H68.9844V33.125H70.3966V34.6321H72.515V33.125H73.9273Z" fill="#697077"/>
<path d="M79.1236 37.2617V36.2342H76.1567V35.6967H79.0023V34.6902H76.1567V34.158H79.0867V33.125H74.7656V37.2617H79.1236Z" fill="#697077"/>
<path d="M87.859 33.125H89.2232L87.7115 37.2617H86.1627C86.1627 37.2617 85.3345 34.7903 85.329 34.7217C85.3248 34.7903 84.4911 37.2617 84.4911 37.2617H82.9477L81.3984 33.125H82.9312C82.9312 33.125 83.8283 35.7282 83.8283 35.7915C83.8283 35.7282 84.6551 33.125 84.6551 33.125H86.1365C86.1365 33.125 86.9688 35.7282 86.9688 35.7915C86.9688 35.7282 87.859 33.125 87.859 33.125Z" fill="#697077"/>
<path fill-rule="evenodd" clip-rule="evenodd" d="M91.9307 33.0312C90.1075 33.0312 89.1484 33.8955 89.1484 35.1655C89.1484 36.5988 90.1544 37.326 91.9307 37.326C93.8861 37.326 94.7074 36.4829 94.7074 35.1655C94.7074 33.8271 93.78 33.0312 91.9307 33.0312ZM91.9307 36.2668C90.893 36.2668 90.5926 35.8399 90.5926 35.1812C90.5926 34.5332 90.9192 34.1062 91.9251 34.1062C93.0276 34.1062 93.2742 34.5858 93.2742 35.1812C93.2742 35.8136 92.9738 36.2668 91.9307 36.2668Z" fill="#697077"/>
<path fill-rule="evenodd" clip-rule="evenodd" d="M99.9266 33.5467C100.115 33.7417 100.205 34.0104 100.205 34.3845C100.205 34.706 100.126 34.9799 99.9941 35.1645C99.8466 35.3647 99.6206 35.5334 99.3409 35.5754L100.589 37.2617H99.0198L97.9918 35.8021H96.7116V37.2617H95.3047V33.125H98.5981C99.2513 33.125 99.6785 33.2832 99.9266 33.5467ZM98.7883 34.7323C98.8241 34.6691 98.8352 34.5847 98.8352 34.5162C98.8352 34.4371 98.8241 34.353 98.7883 34.3002C98.7139 34.1632 98.5665 34.1263 98.3446 34.1263H96.7172V34.8799H98.3708C98.5981 34.8799 98.7346 34.8377 98.7883 34.7323Z" fill="#697077"/>
<path d="M104.99 37.2617V36.1604H102.471V33.125H101.043V37.2617H104.99Z" fill="#697077"/>
<path fill-rule="evenodd" clip-rule="evenodd" d="M110.574 35.1169C110.574 35.7599 110.51 36.1077 110.322 36.4344C110.036 36.956 109.473 37.2617 108.477 37.2617H105.547V33.125H108.445C109.436 33.125 110.021 33.4043 110.311 33.8839C110.516 34.2054 110.574 34.5478 110.574 35.1169ZM108.208 36.2447C108.656 36.2447 108.909 36.1393 109.062 35.9075C109.157 35.7651 109.183 35.4332 109.183 35.1434C109.178 34.8799 109.146 34.6006 109.062 34.4741C108.898 34.2264 108.652 34.1369 108.219 34.1369H106.959V36.2447H108.208Z" fill="#697077"/>
<path d="M54.0477 57.3828H51.8641C51.8641 57.3828 50.4393 61.5479 50.4393 61.649C50.4393 61.5479 49.1071 57.3828 49.1071 57.3828H46.7379C46.7379 57.3828 45.4142 61.5479 45.4142 61.649C45.4142 61.5479 43.9809 57.3828 43.9809 57.3828H41.5273L44.0061 64.0013H46.4765C46.4765 64.0013 47.8086 60.0471 47.817 59.9375C47.8256 60.0471 49.1492 64.0013 49.1492 64.0013H51.6279L54.0477 57.3828Z" fill="#697077"/>
<path d="M57.0374 64.0013V57.3828H54.7188V64.0013H57.0374Z" fill="#697077"/>
<path d="M66.0544 57.3828V64.0013H63.7947L60.515 60.3169V64.0013H58.3398V57.3828H60.7173L63.8959 60.983V57.3828H66.0544Z" fill="#697077"/>
<path d="M75.0857 64.0013V57.3828H72.9273V60.983L69.7487 57.3828H67.3711V64.0013H69.5463V60.3169L72.8261 64.0013H75.0857Z" fill="#697077"/>
<path d="M83.3796 62.3572V64.0013H76.4062V57.3828H83.3203V59.0353H78.6322V59.8869H83.1853V61.4973H78.6322V62.3572H83.3796Z" fill="#697077"/>
<path fill-rule="evenodd" clip-rule="evenodd" d="M92.2901 59.3979C92.2901 58.7993 92.1468 58.3693 91.8437 58.0574C91.4468 57.6358 90.7647 57.3828 89.7188 57.3828H84.4492V64.0013H86.7009V61.6658H88.75L90.394 64.0013H92.9061L90.908 61.3034C91.3545 61.2359 91.7169 60.9661 91.9539 60.6457C92.1634 60.3507 92.2901 59.9122 92.2901 59.3979ZM90.0977 59.6087C90.0977 59.7183 90.0812 59.8532 90.0219 59.9543C89.9379 60.123 89.7188 60.1904 89.3563 60.1904H86.7092V58.9848H89.3136C89.6678 58.9848 89.9048 59.0437 90.0219 59.263C90.0812 59.3473 90.0977 59.4822 90.0977 59.6087Z" fill="#697077"/>
<path d="M47.3151 45.7048L46.4008 42.8906L45.4864 45.7048H42.5273L44.9212 47.444L44.0069 50.2582L46.4008 48.519L48.7946 50.2582L47.8803 47.444L50.2741 45.7048H47.3151Z" fill="#697077"/>
<path d="M56.9563 42.8906L57.8894 45.7048H60.9088L58.4661 47.4441L59.3991 50.2582L56.9563 48.519L54.5137 50.2582L55.4467 47.4441L53.0039 45.7048H56.0233L56.9563 42.8906Z" fill="#697077"/>
<path d="M68.362 45.7048L67.4291 42.8906L66.4961 45.7048H63.4766L65.9194 47.4441L64.9863 50.2582L67.4291 48.519L69.8718 50.2582L68.9387 47.4441L71.3816 45.7048H68.362Z" fill="#697077"/>
<path d="M77.9016 42.8906L78.8347 45.7048H81.8541L79.4114 47.4441L80.3445 50.2582L77.9016 48.519L75.459 50.2582L76.392 47.4441L73.9492 45.7048H76.9687L77.9016 42.8906Z" fill="#697077"/>
<path d="M89.3745 45.7048L88.4595 42.8906L87.5445 45.7048H84.5859L86.9796 47.4441L86.0659 50.2582L88.4595 48.519L90.8532 50.2582L89.9395 47.4441L92.3332 45.7048H89.3745Z" fill="#697077"/>
<path d="M127.762 12.7104C128.637 10.4855 128.256 7.92698 127.45 5.77535C126.601 3.5114 125.124 1.25324 122.917 0.0625C122.806 2.44854 123.535 4.80564 124.332 6.93123C125.048 8.84295 125.926 10.8797 127.377 12.4607C127.6 13.6584 127.771 14.8529 127.891 16.0419C127.41 14.7861 126.632 13.6415 125.659 12.721C124.406 11.5352 122.542 10.6205 120.793 11.1615C121.306 13.095 122.473 14.9487 123.856 16.249C124.945 17.2724 126.382 18.5837 128.074 18.6354C128.145 20.3856 128.105 22.1199 127.96 23.8305C127.722 22.5788 127.21 21.4 126.47 20.5222C125.455 19.3159 123.949 17.8424 122.026 18.0889C122.131 20.046 122.912 22.0511 124 23.5578C124.862 24.7552 126.003 26.2814 127.622 26.6756C127.363 28.3561 127.002 30.0088 126.543 31.626C126.539 30.3877 126.266 29.1722 125.724 28.1972C124.959 26.8225 123.767 25.1078 121.842 24.9738C121.559 26.8937 121.942 28.9926 122.714 30.6619C123.33 31.9963 124.153 33.6978 125.65 34.4019C125.021 36.1423 124.277 37.8342 123.422 39.4671C123.723 38.0595 123.71 36.5764 123.356 35.2418C122.867 33.4024 121.654 31.4701 119.706 30.9096C119.017 32.9405 119.112 35.2065 119.513 37.2705C119.842 38.97 120.488 40.9659 121.938 42.0699C120.99 43.6004 119.941 45.0692 118.796 46.4668C119.412 45.0963 119.717 43.5971 119.553 42.2247C119.314 40.2261 118.754 38.0883 116.713 37.0231C115.554 39.0213 115.285 41.2629 115.187 43.4769C115.107 45.267 115.365 47.4748 116.609 48.9311C115.241 50.3524 113.766 51.6826 112.191 52.9093C113.208 51.6042 113.921 50.0728 114.071 48.5584C114.285 46.4185 114.181 44.0629 112.281 42.4924C110.658 44.1887 109.688 46.6869 109.213 48.8567C108.793 50.7751 108.355 53.0459 109.354 54.9339C107.349 56.2433 105.208 57.3969 102.944 58.3739C104.536 57.2387 105.84 55.6811 106.462 54.0729C107.276 51.9654 107.779 49.4538 106.194 47.343C104.069 48.7038 102.508 51.0253 101.277 53.1429C100.222 54.96 99.1292 57.4678 99.6721 59.6317C98.4181 60.057 97.1324 60.4304 95.8164 60.749L95.895 61.0722C97.2151 60.7523 98.5063 60.3776 99.7644 59.9511C100.646 62.5564 103.535 63.4174 105.87 63.7973C109.198 64.3388 113.162 63.2898 116.003 61.1763C114.502 59.0571 111.443 58.8421 109.136 58.6799L109.106 58.6779C106.579 58.5002 103.845 58.7375 101.304 59.398C104.239 58.2803 106.987 56.8747 109.521 55.2225L109.555 55.2776C110.943 57.5323 113.732 57.6205 115.92 57.478C118.89 57.2848 122.317 55.4798 124.3 52.9846C122.434 51.3478 119.68 51.8057 117.544 52.1605L117.533 52.1625C115.15 52.5585 112.547 53.4224 110.361 54.7527C110.569 54.5889 110.772 54.4156 110.97 54.2339C113.095 52.7188 115.055 51.0239 116.834 49.176C116.859 49.2007 116.884 49.2249 116.908 49.249C118.639 50.9758 121.151 50.5203 123.114 49.9551C125.746 49.1972 128.474 46.9107 129.782 44.2857C127.755 43.1502 125.332 44.0858 123.448 44.826C121.377 45.6391 119.188 46.94 117.504 48.5988C117.677 48.3797 117.844 48.1506 118.001 47.9136C119.565 46.1474 120.973 44.2561 122.211 42.2607L122.265 42.2939L122.278 42.3026C124.234 43.561 126.45 42.6472 128.205 41.7485C130.588 40.5291 132.503 37.8491 133.33 35.2135C131.216 34.5365 129.129 35.8653 127.505 36.9177C125.728 38.0693 123.928 39.7119 122.693 41.5958C122.784 41.4099 122.87 41.2198 122.948 41.0261C124.135 38.9559 125.142 36.7828 125.958 34.5285L126.001 34.5428L126.007 34.5456C127.786 35.219 129.767 34.168 131.058 33.0154C132.852 31.4125 134.118 28.9482 134.415 26.5407C132.56 26.3004 130.811 27.7357 129.616 28.9598C128.241 30.3698 127.005 32.0362 126.246 33.8875C126.302 33.6854 126.351 33.4803 126.39 33.2729C127.081 31.1551 127.605 28.9711 127.949 26.7384L128.001 26.7453C129.875 27.0488 131.609 25.6227 132.645 24.2384C134.103 22.2906 134.854 19.5948 134.665 17.1513C132.793 17.2825 131.365 19.0651 130.44 20.5073C129.368 22.1776 128.48 24.0681 128.091 26.046C128.103 25.8878 128.11 25.7288 128.113 25.5692C128.398 23.2964 128.5 20.9771 128.407 18.6292C130.321 18.5621 131.739 16.785 132.469 15.2091C133.512 12.9551 133.68 10.1056 132.984 7.70443C131.161 8.21609 130.144 10.307 129.545 11.9166C128.853 13.7725 128.371 15.797 128.367 17.8094C128.267 16.1211 128.066 14.4192 127.762 12.7104Z" fill="#697077"/>
</svg>
