<svg width="67" height="62" viewBox="0 0 67 62" fill="none" xmlns="http://www.w3.org/2000/svg">
<path d="M21.1209 31.3748C17.8554 31.3775 14.7153 30.1126 12.3582 27.8501C10.0038 25.5877 8.61627 22.5005 8.48532 19.238C8.46024 18.6222 8.93948 18.104 9.55524 18.0789C10.171 18.0566 10.6892 18.5358 10.7143 19.1488C10.8564 22.7041 12.804 25.9417 15.8773 27.7332C18.9505 29.5219 22.7259 29.6222 25.8882 27.9951C29.0506 26.3651 31.1654 23.2361 31.4942 19.6946C31.5722 19.1011 32.1044 18.6776 32.7006 18.7305C33.2969 18.7862 33.7427 19.3017 33.7121 19.898C33.4223 23.0353 31.9679 25.9525 29.6414 28.0757C27.3121 30.1989 24.272 31.3775 21.1209 31.3748Z" fill="#004AAD"/>
<path d="M25.8184 35.9772C25.3392 35.9772 24.9129 35.6707 24.7596 35.2193C24.1299 33.3135 23.9544 31.2879 24.2469 29.304C24.3333 28.6938 24.8989 28.2703 25.5091 28.3595C26.1165 28.4459 26.54 29.0115 26.4536 29.6217C26.2084 31.26 26.3533 32.9345 26.8716 34.5088C27.0666 35.0911 26.7545 35.7208 26.175 35.9215C26.058 35.9577 25.9382 35.9772 25.8184 35.9772Z" fill="#004AAD"/>
<path d="M16.4266 35.9779C16.0672 35.9779 15.7328 35.8052 15.5239 35.5154C15.3121 35.2228 15.2564 34.8495 15.3706 34.5095C15.8889 32.9353 16.031 31.2607 15.7886 29.6224C15.7384 29.327 15.8081 29.0233 15.9864 28.7781C16.1619 28.5357 16.4294 28.3741 16.7276 28.3323C17.0257 28.2878 17.3266 28.3686 17.5662 28.5497C17.8031 28.7336 17.9591 29.0038 17.9925 29.3048C18.2851 31.2885 18.1096 33.3142 17.4799 35.22C17.3266 35.6714 16.9031 35.9751 16.4266 35.9779Z" fill="#004AAD"/>
<path d="M21.1243 45.0706C20.7064 45.0706 20.3247 44.8366 20.1352 44.4688L15.4404 35.3744H15.4376C15.1952 34.8339 15.4181 34.1987 15.9447 33.9256C16.4685 33.6553 17.1149 33.8392 17.4159 34.3519L21.1216 41.529L24.8245 34.3519L24.8217 34.3491C25.1059 33.803 25.7774 33.5885 26.3263 33.8699C26.8724 34.1541 27.087 34.8256 26.8056 35.3745L22.1135 44.4689L22.1107 44.4661C21.9213 44.8366 21.5395 45.0678 21.1243 45.0706Z" fill="#004AAD"/>
<path d="M9.52227 20.5093H9.51391H9.51669C9.04581 20.5066 8.63066 20.2084 8.47466 19.7654L6.52426 14.2486H6.52147C6.31529 13.6774 6.19827 13.0784 6.17597 12.4709C6.12861 11.0611 6.4351 7.58103 10.1408 5.70866C10.6229 5.46347 11.208 5.59442 11.5339 6.02351L13.3729 8.41971C13.6069 8.72341 13.6682 9.1302 13.5345 9.48963C13.1667 10.4063 12.6401 11.2477 11.9797 11.9806C11.8906 12.0781 11.7986 12.1617 11.7178 12.2369L11.6927 12.262C11.6147 12.4013 11.1912 13.2984 11.3166 16.4664C11.35 17.2577 11.2219 18.0491 10.9432 18.7929L10.5727 19.7848C10.4111 20.2223 9.99039 20.5121 9.52227 20.5093ZM10.3582 8.16884C8.68637 9.37251 8.35762 11.0944 8.39664 12.4012C8.41057 12.7773 8.48301 13.1507 8.6084 13.5046L9.05977 14.7779C9.11549 12.6659 9.46656 11.2951 10.1074 10.6821L10.1855 10.6097C10.244 10.5539 10.3025 10.501 10.3415 10.4564V10.4536C10.6758 10.0914 10.96 9.68185 11.1885 9.2444L10.3582 8.16884Z" fill="#004AAD"/>
<path d="M32.5064 21.1106C32.1358 21.1106 31.7876 20.9267 31.5814 20.6202C30.5003 19.0209 30.6953 15.6495 30.9099 13.7828C30.9461 13.4958 30.9405 13.2032 30.8959 12.9163C30.4278 10.2024 26.2847 10.7764 26.2429 10.782H26.2123C23.9526 11.0634 21.679 11.2138 19.3998 11.2278C14.0753 11.2278 12.1721 10.2024 11.9161 10.0464C11.7963 9.974 11.6932 9.87926 11.6096 9.76781L9.7651 7.38559C9.65365 7.24071 9.57842 7.07074 9.54777 6.88964C9.07132 4.06439 10.1273 2.48176 11.0969 1.65428C13.0474 -0.0063101 16.636 -0.418659 21.7798 0.439492C24.4992 0.915943 27.1796 1.58745 29.8014 2.45395C29.9407 2.50131 30.0744 2.55704 30.2054 2.62112C31.9133 3.45702 33.3567 4.74706 34.3848 6.34639C36.0454 8.91535 36.5079 12.0805 35.6553 15.0199V15.0171C35.1008 16.909 34.3792 18.7452 33.5015 20.5088C33.3204 20.8599 32.9694 21.0884 32.5765 21.1135L32.5064 21.1106ZM27.1679 8.49405C29.4499 8.49405 32.5398 9.31875 33.0971 12.5453C33.1779 13.0412 33.189 13.5427 33.1277 14.0415C33.0469 14.7381 32.9996 15.4152 32.9884 16.0365C33.1723 15.5183 33.3562 14.9666 33.5178 14.3982V14.401C34.6434 10.5308 32.8352 6.41005 29.227 4.61829C29.1852 4.59878 29.1434 4.57928 29.0988 4.56813C24.6408 3.0691 15.4459 0.881886 12.5542 3.35056C11.8187 3.98025 11.5428 4.93034 11.7183 6.25383L13.2229 8.20424C13.9669 8.50515 17.3744 9.59735 25.9507 8.5776C26.3548 8.51909 26.7611 8.49405 27.1679 8.49405Z" fill="#004AAD"/>
<path d="M9.25122 61.2963C8.63824 61.2963 8.13672 60.7976 8.13672 60.1818V50.6809C8.13672 50.0651 8.63824 49.5664 9.25122 49.5664C9.86699 49.5664 10.3657 50.0651 10.3657 50.6809V60.1818C10.3657 60.4772 10.2487 60.7614 10.0397 60.9704C9.83077 61.1793 9.54937 61.2963 9.25122 61.2963Z" fill="#004AAD"/>
<path d="M32.9934 61.2963C32.3776 61.2963 31.8789 60.7976 31.8789 60.1818V50.6809C31.8789 50.0651 32.3776 49.5664 32.9934 49.5664C33.6092 49.5664 34.1079 50.0651 34.1079 50.6809V60.1818C34.1079 60.4772 33.9909 60.7614 33.7819 60.9704C33.573 61.1794 33.2888 61.2963 32.9934 61.2963Z" fill="#004AAD"/>
<path d="M41.1311 61.9989H1.1145C0.498742 61.9989 0 61.5001 0 60.8844V48.143C0.00557288 44.3258 1.52129 40.6678 4.22121 37.9673C6.92113 35.2674 10.5795 33.7517 14.3969 33.7461H16.4281C17.0439 33.7461 17.5426 34.2448 17.5426 34.8606C17.5426 35.4764 17.0439 35.9751 16.4281 35.9751H14.3969C11.1704 35.9779 8.07764 37.2624 5.79828 39.5443C3.51634 41.8235 2.23186 44.9162 2.22908 48.1429V59.7702H40.0167V48.1429C40.0111 44.9165 38.7294 41.8237 36.4475 39.5443C34.1655 37.2624 31.0727 35.9779 27.846 35.9751H25.8176C25.2018 35.9751 24.7031 35.4764 24.7031 34.8606C24.7031 34.2448 25.2018 33.7461 25.8176 33.7461H27.8488H27.846C31.6632 33.7489 35.3241 35.2674 38.0245 37.9673C40.7216 40.6672 42.2402 44.3256 42.2458 48.143V60.8844C42.2458 61.1797 42.1259 61.4639 41.917 61.6729C41.708 61.8819 41.4265 61.9989 41.1311 61.9989Z" fill="#004AAD"/>
<path d="M52.0663 28.3446C51.7459 28.3446 51.4422 28.2081 51.2304 27.9685L46.4074 22.5436H43.0193C40.7346 22.5408 38.8817 20.6879 38.8789 18.4032L38.8817 4.14039C38.8817 1.85568 40.7346 0.0027818 43.0221 0H62.1723C64.457 0.0027868 66.3099 1.8529 66.3127 4.14039V18.4032C66.3099 20.6907 64.457 22.5408 62.1723 22.5436H57.7254L52.8996 27.9712V27.9685C52.6879 28.2081 52.3839 28.3446 52.0663 28.3446ZM43.019 2.22918C41.9658 2.23197 41.1104 3.08455 41.1076 4.14056V18.4034C41.1104 19.4594 41.9658 20.312 43.019 20.3148H46.9058C47.2263 20.3148 47.53 20.4513 47.7417 20.6909L52.0688 25.5529L56.3931 20.6909C56.6048 20.4513 56.9085 20.3148 57.229 20.3175H62.1746H62.1718C63.2278 20.3147 64.0832 19.4594 64.0832 18.4034V4.14056C64.0804 3.08455 63.225 2.22918 62.1718 2.22918H43.019Z" fill="#004AAD"/>
<path d="M59.8041 7.7876H45.3879C44.775 7.7876 44.2734 7.28886 44.2734 6.6731C44.2734 6.05734 44.775 5.55859 45.3879 5.55859H59.8041C60.4199 5.55859 60.9186 6.05734 60.9186 6.6731C60.9186 7.28886 60.4199 7.7876 59.8041 7.7876Z" fill="#004AAD"/>
<path d="M59.8041 12.3892H45.3879C44.775 12.3892 44.2734 11.8876 44.2734 11.2747C44.2734 10.6589 44.775 10.1602 45.3879 10.1602H59.8041C60.4199 10.1602 60.9186 10.6589 60.9186 11.2747C60.9186 11.8876 60.4199 12.3892 59.8041 12.3892Z" fill="#004AAD"/>
<path d="M59.8041 16.9868H45.3879C44.775 16.9868 44.2734 16.4881 44.2734 15.8723C44.2734 15.2566 44.775 14.7578 45.3879 14.7578H59.8041C60.4199 14.7578 60.9186 15.2566 60.9186 15.8723C60.9186 16.4881 60.4199 16.9868 59.8041 16.9868Z" fill="#004AAD"/>
</svg>
