<svg width="62" height="62" viewBox="0 0 62 62" fill="none" xmlns="http://www.w3.org/2000/svg">
<path fill-rule="evenodd" clip-rule="evenodd" d="M61.9996 30.9998C61.9996 48.1095 48.1095 61.9996 30.9998 61.9996C26.775 61.9996 22.5966 61.136 18.7239 59.4664L11.5585 61.8845C10.892 62.1081 10.1569 62.004 9.58115 61.5988C9.00323 61.1958 8.65337 60.5426 8.63566 59.8384L8.4563 52.2789C3.03355 46.5329 0 38.9225 0 30.9998C0 13.8901 13.8901 0 30.9998 0C48.1095 0 61.9996 13.8901 61.9996 30.9998ZM57.5711 30.9998C57.5711 16.3347 45.6649 4.42854 30.9998 4.42854C16.3347 4.42854 4.42854 16.3347 4.42854 30.9998C4.42854 38.0478 7.2296 44.808 12.2139 49.7901C12.6169 50.1931 12.8472 50.7356 12.8627 51.3047L12.9911 56.7252L18.1305 54.9914C18.6685 54.8098 19.2575 54.8431 19.7734 55.0822C23.2897 56.7208 27.1204 57.5711 30.9998 57.5711C45.6649 57.5711 57.5711 45.6649 57.5711 30.9998ZM26.3742 43.6322L11.729 39.7086C10.5488 39.3919 9.84687 38.1763 10.1635 36.9961C10.4801 35.8159 11.6958 35.1139 12.876 35.4306L14.9928 35.9974C15.8498 32.6804 17.5038 26.29 18.6331 22.0718C20.5307 14.9906 27.8223 10.7813 34.9036 12.6789C34.9412 12.6878 34.9766 12.6967 35.0121 12.7077C42.0291 14.6497 46.1875 21.9036 44.2987 28.9494L40.5743 42.8528L42.8196 43.4529C43.9998 43.7695 44.7017 44.9851 44.3851 46.1653C44.0684 47.3456 42.8528 48.0475 41.6726 47.7308L37.8485 46.7056C36.9783 49.8432 33.7366 51.6988 30.5879 50.8552C27.4393 50.0116 25.5593 46.7831 26.3742 43.6322ZM36.2963 41.7058L40.0207 27.8024C41.2873 23.0816 38.4796 18.2213 33.7588 16.9547C29.0357 15.6904 24.1754 18.4958 22.9111 23.2188C21.7796 27.4415 20.1211 33.8473 19.2708 37.1444L36.2963 41.7058ZM30.6544 44.7792C30.4706 45.5675 30.9467 46.3669 31.7349 46.5772C32.5232 46.7898 33.3336 46.3358 33.5706 45.5608L30.6544 44.7792Z" fill="#005B1A"/>
</svg>
