<svg width="87" height="62" viewBox="0 0 87 62" fill="none" xmlns="http://www.w3.org/2000/svg">
<path fill-rule="evenodd" clip-rule="evenodd" d="M64.7619 57.5872C64.3612 58.1825 63.5487 58.3398 62.9496 57.9391C62.3543 57.5347 62.197 56.7222 62.5977 56.1269C64.8593 52.7832 66.2146 48.9117 66.5292 44.8861C66.5292 44.8187 66.533 44.7513 66.5442 44.6877C66.9823 38.517 64.9528 32.425 60.909 27.7445L60.8454 27.6733V27.6696C55.5809 21.63 47.5869 18.7057 39.6674 19.9227C31.7482 21.1395 25.0008 26.3254 21.7887 33.6682C18.5761 41.0069 19.3474 49.4841 23.8293 56.1268C24.2337 56.7221 24.0765 57.5347 23.4811 57.939C22.882 58.3396 22.0695 58.1824 21.6652 57.587C19.3625 54.1797 17.9059 50.2744 17.4116 46.1928H11.0426C10.3387 48.9486 7.68025 50.7384 4.86454 50.3565C2.04509 49.9784 -0.0442437 47.552 0.00071184 44.7064C0.0493884 41.8645 2.2136 39.5056 5.04426 39.2172C7.87119 38.9289 10.4698 40.8048 11.0876 43.5794H17.2207C17.1009 37.6297 19.0217 31.8219 22.6612 27.1155L19.3774 23.6969H18.0669C17.5689 25.6478 16.0599 27.1829 14.1167 27.7146C12.1771 28.2463 10.099 27.6921 8.67617 26.2693C7.62024 25.2171 7.02863 23.7906 7.02863 22.3003C7.02863 20.8138 7.62024 19.3872 8.67617 18.3352C10.1252 16.8936 12.2408 16.3544 14.2027 16.9272C16.1648 17.4964 17.6625 19.0914 18.108 21.0834H18.6172V17.1518C17.932 16.9309 17.3067 16.549 16.7976 16.036H16.7901C15.9364 15.1823 15.4571 14.0215 15.4571 12.8121C15.4571 11.6027 15.9364 10.4457 16.7901 9.58828H16.7976C17.6512 8.73459 18.8083 8.25533 20.0139 8.25533C21.2233 8.25533 22.3804 8.7346 23.2341 9.58828C24.0877 10.4457 24.5707 11.6027 24.5707 12.8121C24.5707 14.0215 24.0877 15.1823 23.2341 16.036C22.6799 16.5902 21.9909 16.9945 21.2346 17.2043V21.8697L24.3686 25.1272C24.9003 24.5693 25.4582 24.0376 26.0423 23.5246C30.4268 19.6605 35.9833 17.3915 41.8208 17.0806V11.0448C39.8663 10.543 38.3349 9.03405 37.8032 7.0908C37.2715 5.14756 37.8219 3.06944 39.2447 1.64284C41.4389 -0.547614 44.9923 -0.547614 47.1826 1.64284C48.6316 3.09187 49.1746 5.2112 48.6017 7.17688C48.0289 9.14266 46.4338 10.6404 44.4343 11.0859V17.0693C50.3315 17.3426 55.9588 19.6192 60.3892 23.5245C60.9171 23.9888 61.4226 24.4681 61.9019 24.9698L65.0171 21.8545V17.1592L65.0209 17.1555C64.3319 16.9346 63.7066 16.5526 63.1974 16.0396H63.1899C62.3362 15.1859 61.8533 14.0252 61.8533 12.8158C61.8533 11.6064 62.3363 10.4493 63.1899 9.59192H63.1974C64.0474 8.73822 65.2082 8.25897 66.4138 8.25897C67.6232 8.25897 68.7803 8.73824 69.6339 9.59192H69.6377C70.4914 10.4494 70.9744 11.6064 70.9744 12.8158C70.9744 14.0252 70.4914 15.186 69.6377 16.0396H69.6339C69.076 16.5938 68.3908 16.9982 67.6345 17.2079V21.087H68.316C68.7616 19.0876 70.2592 17.4888 72.225 16.9196C74.1945 16.3467 76.3138 16.8896 77.7628 18.3387C78.8187 19.3909 79.4103 20.8174 79.4103 22.3076C79.4103 23.7941 78.8187 25.2207 77.7628 26.2728C76.3399 27.6994 74.2582 28.2536 72.3111 27.7181C70.3678 27.1864 68.8551 25.6513 68.3571 23.6967H66.8669L63.6281 26.9356C67.3573 31.6721 69.3269 37.5543 69.207 43.5787H75.1718C75.4002 42.5378 75.9244 41.5868 76.6769 40.8341C77.7291 39.7782 79.1556 39.1866 80.6459 39.1866C82.1324 39.1866 83.559 39.7782 84.6111 40.8341C86.8053 43.0246 86.8053 46.5779 84.6111 48.772C83.5589 49.8242 82.1324 50.4157 80.6459 50.4157C79.1556 50.4157 77.729 49.8241 76.6769 48.772C75.9655 48.0606 75.4601 47.1731 75.2092 46.2034H69.0199C68.5257 50.2846 67.0691 54.1899 64.7627 57.5937L64.7619 57.5872ZM43.2167 26.6896C41.2136 26.6896 39.3302 28.015 37.8212 30.2167C39.5773 30.6997 41.3933 30.9468 43.213 30.9468V30.9543V30.9506C45.0364 30.9506 46.8525 30.7035 48.6085 30.2167C47.0996 28.0113 45.2162 26.6896 43.213 26.6896L43.2167 26.6896ZM36.5144 32.5494C35.788 34.1669 35.2564 35.8631 34.9269 37.6042H51.5029C51.1772 35.8631 50.6455 34.1669 49.9192 32.5494C47.7475 33.2122 45.4859 33.5529 43.2131 33.5529V33.5604V33.5566C40.9403 33.5566 38.6825 33.2197 36.5108 32.5494L36.5144 32.5494ZM34.5524 40.2177C34.4663 41.1351 34.4176 42.0786 34.4176 43.0409C34.4176 44.0444 34.47 45.0441 34.5711 46.0401H51.8622C51.9633 45.0441 52.0158 44.0444 52.012 43.0409C52.012 42.0824 51.9671 41.1351 51.8772 40.2177H34.5524ZM34.9643 48.6537C35.2975 50.3761 35.8367 52.0535 36.5669 53.6448C40.8952 52.2893 45.5382 52.2893 49.8666 53.6448C50.5968 52.0497 51.1322 50.376 51.4655 48.6537H34.9643ZM37.8998 55.9737C39.3975 58.1118 41.2547 59.396 43.2205 59.396C45.1862 59.396 47.0434 58.1155 48.5411 55.9737L48.5374 55.9775C45.0589 54.9965 41.3783 54.9965 37.8995 55.9775L37.8998 55.9737ZM35.2863 29.3254C35.4847 29.0071 35.6906 28.7001 35.9041 28.408C35.4959 28.6102 35.099 28.8311 34.7134 29.0707C34.9043 29.1606 35.0953 29.243 35.29 29.3254H35.2863ZM50.5328 28.4155C50.7462 28.7075 50.9522 29.0146 51.1506 29.3328C51.3416 29.2505 51.5325 29.1643 51.7272 29.0782C51.3416 28.8423 50.9409 28.6214 50.5328 28.4155ZM52.375 31.6468H52.3713C53.21 33.5527 53.8091 35.5558 54.1573 37.6078H58.643C57.8305 35.3014 56.5087 33.2083 54.7789 31.4784C54.5505 31.25 54.3146 31.0291 54.075 30.8157C53.5171 31.1152 52.9479 31.3923 52.3714 31.6432L52.375 31.6468ZM54.5056 40.225C54.5879 41.1461 54.6291 42.0896 54.6291 43.0482C54.6291 44.0666 54.5805 45.0701 54.4906 46.0474H59.2982L59.2945 46.0436C59.6502 44.1191 59.6614 42.1495 59.3282 40.2213L54.5056 40.225ZM54.1274 48.6609V48.6572C53.7642 50.6941 53.1576 52.6823 52.3152 54.5732C52.8693 54.8203 53.416 55.0862 53.9589 55.3782C54.2435 55.1311 54.5168 54.8765 54.7826 54.6106H54.7789C56.4638 52.9257 57.7631 50.8925 58.5793 48.6572L54.1274 48.6609ZM51.0758 56.8796C50.8998 57.1567 50.7201 57.4188 50.5329 57.6772C50.8886 57.4974 51.2368 57.3065 51.5775 57.1006C51.409 57.0257 51.2405 56.947 51.0757 56.8759L51.0758 56.8796ZM35.8963 57.6772C35.7129 57.4226 35.5294 57.1567 35.3572 56.8796C35.1887 56.9508 35.0202 57.0257 34.8554 57.1043C35.1962 57.3065 35.5444 57.4975 35.9 57.6809L35.8963 57.6772ZM34.1178 54.5694C33.2753 52.6785 32.665 50.6903 32.3055 48.6534H27.8461C28.6661 50.8924 29.9654 52.9219 31.6504 54.6068C31.9162 54.8726 32.1896 55.1272 32.4741 55.3744C33.0133 55.0823 33.5636 54.8128 34.1178 54.5694ZM31.9461 46.0399C31.8487 45.0627 31.8076 44.0629 31.8076 43.0407C31.8076 42.0822 31.8487 41.1386 31.9311 40.2175H27.1009C26.7677 42.1421 26.7789 44.1154 27.1346 46.0362L31.9461 46.0399ZM32.2756 37.604H32.2718C32.6238 35.5484 33.2229 33.5489 34.0579 31.6393C33.4813 31.3884 32.9159 31.1113 32.3543 30.8118C32.1146 31.0252 31.8788 31.2461 31.6503 31.4745C29.9242 33.2044 28.6025 35.2975 27.7863 37.6039L32.2756 37.604ZM56.6321 29.6286V29.6249C53.4382 26.4385 49.2146 24.4914 44.7174 24.1357C40.2168 23.7763 35.7386 25.0344 32.0839 27.6816C28.4294 30.3288 25.8384 34.1892 24.775 38.5735C24.7675 38.5959 24.7638 38.6184 24.76 38.6409L24.7563 38.6446C24.0599 41.5988 24.0748 44.6804 24.8012 47.6272C24.8087 47.6534 24.8125 47.6796 24.8199 47.7058L24.8237 47.7095C26.2203 53.195 29.9945 57.7704 35.1165 60.1859C40.2349 62.601 46.1656 62.6047 51.288 60.1971C56.414 57.7858 60.192 53.214 61.6 47.7323C61.6112 47.6911 61.6225 47.6462 61.6337 47.605L61.63 47.6012C63.2213 41.1498 61.3229 34.335 56.6275 29.6286L56.6321 29.6286ZM15.6325 22.462V22.3946C15.6325 22.3534 15.6325 22.3123 15.6399 22.2711L15.6325 22.14C15.5688 20.9568 14.8125 19.9234 13.7079 19.504C12.6034 19.0809 11.3528 19.3468 10.514 20.1817H10.5103C9.34586 21.3575 9.34586 23.252 10.514 24.424V24.4315V24.4278C11.3565 25.2665 12.6071 25.5323 13.7154 25.1055C14.8199 24.6787 15.5725 23.6453 15.6362 22.462L15.6325 22.462ZM8.60444 44.8008C8.60444 43.3705 7.59346 42.1387 6.18939 41.8615C4.78906 41.5807 3.3849 42.3333 2.83824 43.6551C2.29158 44.9731 2.75212 46.4969 3.94277 47.2908C5.12973 48.0883 6.71352 47.9311 7.7245 46.9201C8.28988 46.3585 8.60444 45.5946 8.60444 44.8008ZM68.356 12.8134C68.3598 12.2966 68.1538 11.8024 67.7869 11.4392C67.0268 10.6828 65.7949 10.6828 65.0348 11.4392C64.2747 12.1993 64.2747 13.4311 65.0348 14.1875C65.7949 14.9439 67.0268 14.9439 67.7869 14.1875C68.1538 13.8243 68.356 13.3301 68.356 12.8134ZM76.7919 22.3014V22.3051C76.7957 21.5076 76.4812 20.7437 75.9195 20.1821C75.0621 19.3284 73.774 19.0739 72.6545 19.5381C71.5387 20.0024 70.8086 21.0957 70.8086 22.3051C70.8086 23.5183 71.5387 24.6078 72.6545 25.0722C73.7741 25.5364 75.0621 25.2856 75.9195 24.4281V24.4206V24.4244C76.4812 23.8627 76.7994 23.0989 76.7994 22.3051L76.7919 22.3014ZM83.644 44.7974L83.6477 44.8011C83.6477 44.0036 83.3332 43.2397 82.7678 42.6781V42.6706V42.6744C81.5958 41.5061 79.6975 41.5099 78.5292 42.6781C77.361 43.8539 77.361 45.7484 78.5292 46.9242C79.7012 48.0924 81.5958 48.0924 82.7678 46.9242C83.3294 46.3625 83.6477 45.5987 83.6477 44.8049L83.644 44.7974ZM21.96 12.8137C21.96 12.297 21.7578 11.8028 21.3908 11.4396C20.627 10.6832 19.3989 10.6832 18.635 11.4396C17.8749 12.1997 17.8749 13.4315 18.635 14.1879C19.3989 14.9442 20.627 14.9442 21.3908 14.1879C21.754 13.8247 21.96 13.3305 21.96 12.8137ZM46.212 5.60973C46.212 4.81219 45.8975 4.04836 45.3358 3.48675C44.1638 2.31475 42.2655 2.31475 41.0935 3.48675C40.3859 4.19442 40.0788 5.20915 40.2735 6.19386C40.4682 7.17483 41.1422 7.99486 42.0671 8.38048C42.9919 8.76241 44.0478 8.65756 44.8828 8.10341C45.714 7.54551 46.2157 6.60943 46.2157 5.60967L46.212 5.60973Z" fill="#004AAD"/>
</svg>
