<svg width="53" height="62" viewBox="0 0 53 62" fill="none" xmlns="http://www.w3.org/2000/svg">
<path d="M12.9643 39.8906H11.0411C9.6165 39.8906 9.6165 42.0275 11.0411 42.0275H12.9643C14.389 42.0275 14.389 39.8906 12.9643 39.8906Z" fill="#005B1A"/>
<path d="M45.8729 31.4141C38.3225 31.4141 18.5203 31.4141 11.0411 31.4141C9.6165 31.4141 9.6165 33.551 11.0411 33.551C18.5203 33.551 38.3225 33.551 45.8729 33.551C47.2975 33.551 47.2975 31.4141 45.8729 31.4141Z" fill="#005B1A"/>
<path d="M45.8729 26.9258H11.0411C9.6165 26.9258 9.6165 29.0627 11.0411 29.0627H45.8729C47.2975 29.0627 47.2975 26.9258 45.8729 26.9258Z" fill="#005B1A"/>
<path d="M11.0411 23.0783H20.4436C21.8682 23.0783 21.8682 20.9414 20.4436 20.9414H11.0411C9.6165 20.9414 9.6165 23.0783 11.0411 23.0783Z" fill="#005B1A"/>
<path d="M11.0411 19.2346H20.4436C21.8682 19.2346 21.8682 17.0977 20.4436 17.0977H11.0411C9.6165 17.0977 9.6165 19.2346 11.0411 19.2346Z" fill="#005B1A"/>
<path d="M44.9466 0H7.05184C3.13415 0 0 3.13415 0 7.05184C0 10.186 2.13692 12.8928 4.98615 13.8188V55.9161C4.98615 56.4859 5.48476 56.9845 6.05461 56.9845H33.4784C34.8318 60.0475 37.681 61.9707 38.4646 61.9707C39.6043 61.9707 39.9604 60.4748 38.9632 59.9762C34.3332 57.6968 35.7578 54.349 33.051 50.2889C31.9113 48.5793 28.7772 46.3712 25.928 43.0946C25.3581 42.1686 25.4294 40.9576 26.2841 40.1029C26.7827 39.6043 27.5663 39.3193 28.421 39.4618C29.4895 40.1741 34.3332 44.5192 34.3332 44.5192L39.2481 48.0807C40.3878 48.9355 41.6699 47.1547 40.5303 46.3712L38.1796 44.6616H42.6672C45.5164 48.8642 46.1575 49.0779 47.867 56.201C48.5081 58.9078 48.8642 61.1159 48.8642 61.1159C49.0779 62.5405 51.2149 62.1132 51.0012 60.7598C51.0012 60.6885 50.7162 59.1215 50.2889 57.0558H51.0012C51.571 57.0558 52.0696 56.5572 52.0696 55.9873V7.05184C51.9984 3.13415 48.8642 0 44.9466 0ZM2.13692 7.05184C2.13692 4.34507 4.34507 2.13692 7.05184 2.13692H39.8892C37.1824 4.91492 37.1824 9.18876 39.8892 11.9668H7.05184C4.34507 11.9668 2.13692 9.7586 2.13692 7.05184ZM20.3007 39.533H20.4432V42.4535H20.3007L17.8077 40.9576L20.3007 39.533ZM35.7578 37.3961H29.2758L29.1333 37.3249C31.3415 36.4701 33.5496 35.829 34.262 36.2564C34.7606 36.6126 35.2592 37.04 35.7578 37.3961ZM46.5136 42.4535C46.0862 42.4535 42.8096 42.4535 35.3304 42.4535C34.6893 41.8836 33.336 40.6015 31.9826 39.533C43.4507 39.533 33.7633 39.533 46.5136 39.533V42.4535ZM24.076 39.533C23.5774 40.3878 23.3637 41.5987 23.3637 42.4535H22.6514V39.533H24.076ZM24.076 46.2999C23.6486 45.8726 23.3637 45.3027 23.3637 44.6616H24.5746C24.9307 45.0178 25.5006 45.6589 26.7115 46.8698C25.7855 47.2259 24.717 46.941 24.076 46.2999ZM31.5552 52.0696C31.7689 52.5682 32.0538 53.2093 32.41 54.0641C31.7689 53.8504 31.1278 53.5655 30.7004 53.2093C30.9853 52.8532 31.3415 52.497 31.5552 52.0696ZM25.5718 49.1492C26.569 49.2204 27.495 49.0067 28.2786 48.5081L30.0593 50.3601C29.5607 51.6422 28.706 52.3545 27.3526 51.9984C26.1417 51.6422 25.2869 50.4313 25.5718 49.1492ZM45.3027 44.5904H46.8698C47.867 44.5904 48.7218 43.8069 48.7218 42.7384V39.1769C48.7218 38.1796 47.9382 37.3249 46.8698 37.3249H39.2481C38.7495 36.9687 36.2564 35.0455 35.5441 34.4756C32.9086 32.6236 25.8567 36.3276 24.1472 37.3249H20.0158L19.446 37.4673L15.8844 39.533C14.816 40.1741 14.816 41.6699 15.8844 42.311L19.446 44.3767L20.0158 44.5192H21.2267C21.2267 46.015 22.0103 47.5821 23.5061 48.4369C22.7938 51.571 25.4293 54.4915 28.5635 54.0641C28.7772 54.349 29.0621 54.5627 29.347 54.7764H7.12307V14.1037H44.9466C46.2999 14.1037 46.3712 12.038 45.0178 11.9668C37.5386 11.3969 39.1769 1.35338 45.5876 2.20815C48.0807 2.49307 49.8615 4.77246 49.8615 7.26553V54.9188H49.719C48.2944 48.793 47.5821 47.9382 45.3027 44.5904Z" fill="#005B1A"/>
</svg>
