<svg width="62" height="62" viewBox="0 0 62 62" fill="none" xmlns="http://www.w3.org/2000/svg">
<path d="M3 54V61C3 61.2652 3.10536 61.5196 3.29289 61.7071C3.48043 61.8946 3.73478 62 4 62H16C16.2652 62 16.5196 61.8946 16.7071 61.7071C16.8946 61.5196 17 61.2652 17 61V54C16.9963 52.9444 16.6579 51.9172 16.0335 51.066C15.4091 50.2149 14.5309 49.5837 13.5251 49.2631C14.1523 48.4784 14.4959 47.5046 14.5 46.5C14.5 45.3065 14.0259 44.1619 13.182 43.318C12.3381 42.4741 11.1935 42 10 42C8.80653 42 7.66193 42.4741 6.81802 43.318C5.97411 44.1619 5.5 45.3065 5.5 46.5C5.50412 47.5046 5.84768 48.4784 6.47491 49.2631C5.46914 49.5837 4.59093 50.2149 3.96654 51.066C3.34215 51.9172 3.00375 52.9444 3 54ZM10 44C10.4945 44 10.9778 44.1466 11.3889 44.4213C11.8 44.696 12.1205 45.0865 12.3097 45.5433C12.4989 46.0001 12.5484 46.5028 12.452 46.9877C12.3555 47.4727 12.1174 47.9181 11.7678 48.2678C11.4181 48.6174 10.9727 48.8555 10.4877 48.952C10.0028 49.0484 9.50011 48.9989 9.04329 48.8097C8.58648 48.6205 8.19603 48.3001 7.92133 47.8889C7.64662 47.4778 7.5 46.9945 7.5 46.5C7.50078 45.8372 7.76442 45.2018 8.23309 44.7331C8.70176 44.2644 9.3372 44.0008 10 44ZM5 54C5.00087 53.2046 5.31722 52.4421 5.87964 51.8796C6.44206 51.3172 7.20462 51.0009 8 51H12C12.7954 51.0009 13.5579 51.3172 14.1204 51.8796C14.6828 52.4421 14.9991 53.2046 15 54V60H5V54Z" fill="#004AAD"/>
<path d="M24 54V61C24 61.2652 24.1054 61.5196 24.2929 61.7071C24.4804 61.8946 24.7348 62 25 62H37C37.2652 62 37.5196 61.8946 37.7071 61.7071C37.8946 61.5196 38 61.2652 38 61V54C37.9963 52.9444 37.6579 51.9172 37.0335 51.066C36.4091 50.2149 35.5309 49.5837 34.5251 49.2631C35.1523 48.4784 35.4959 47.5046 35.5 46.5C35.5 45.3065 35.0259 44.1619 34.182 43.318C33.3381 42.4741 32.1935 42 31 42C29.8065 42 28.6619 42.4741 27.818 43.318C26.9741 44.1619 26.5 45.3065 26.5 46.5C26.5041 47.5046 26.8477 48.4784 27.4749 49.2631C26.4691 49.5837 25.5909 50.2149 24.9665 51.066C24.3421 51.9172 24.0037 52.9444 24 54ZM31 44C31.4945 44 31.9778 44.1466 32.3889 44.4213C32.8001 44.696 33.1205 45.0865 33.3097 45.5433C33.4989 46.0001 33.5484 46.5028 33.452 46.9877C33.3555 47.4727 33.1174 47.9181 32.7678 48.2678C32.4181 48.6174 31.9727 48.8555 31.4877 48.952C31.0028 49.0484 30.5001 48.9989 30.0433 48.8097C29.5865 48.6205 29.196 48.3001 28.9213 47.8889C28.6466 47.4778 28.5 46.9945 28.5 46.5C28.5008 45.8372 28.7644 45.2018 29.2331 44.7331C29.7018 44.2644 30.3372 44.0008 31 44ZM26 54C26.0009 53.2046 26.3172 52.4421 26.8796 51.8796C27.4421 51.3172 28.2046 51.0009 29 51H33C33.7954 51.0009 34.5579 51.3172 35.1204 51.8796C35.6828 52.4421 35.9991 53.2046 36 54V60H26V54Z" fill="#004AAD"/>
<path d="M45 54V61C45 61.2652 45.1054 61.5196 45.2929 61.7071C45.4804 61.8946 45.7348 62 46 62H58C58.2652 62 58.5196 61.8946 58.7071 61.7071C58.8946 61.5196 59 61.2652 59 61V54C58.9963 52.9444 58.6579 51.9172 58.0335 51.066C57.4091 50.2149 56.5309 49.5837 55.5251 49.2631C56.1523 48.4784 56.4959 47.5046 56.5 46.5C56.5 45.3065 56.0259 44.1619 55.182 43.318C54.3381 42.4741 53.1935 42 52 42C50.8065 42 49.6619 42.4741 48.818 43.318C47.9741 44.1619 47.5 45.3065 47.5 46.5C47.5041 47.5046 47.8477 48.4784 48.4749 49.2631C47.4691 49.5837 46.5909 50.2149 45.9665 51.066C45.3421 51.9172 45.0037 52.9444 45 54ZM52 44C52.4945 44 52.9778 44.1466 53.3889 44.4213C53.8001 44.696 54.1205 45.0865 54.3097 45.5433C54.4989 46.0001 54.5484 46.5028 54.452 46.9877C54.3555 47.4727 54.1174 47.9181 53.7678 48.2678C53.4181 48.6174 52.9727 48.8555 52.4877 48.952C52.0028 49.0484 51.5001 48.9989 51.0433 48.8097C50.5865 48.6205 50.196 48.3001 49.9213 47.8889C49.6466 47.4778 49.5 46.9945 49.5 46.5C49.5008 45.8372 49.7644 45.2018 50.2331 44.7331C50.7018 44.2644 51.3372 44.0008 52 44ZM47 54C47.0009 53.2046 47.3172 52.4421 47.8796 51.8796C48.4421 51.3172 49.2046 51.0009 50 51H54C54.7954 51.0009 55.5579 51.3172 56.1204 51.8796C56.6828 52.4421 56.9991 53.2046 57 54V60H47V54Z" fill="#004AAD"/>
<path d="M41 13V5C40.9984 3.6744 40.4712 2.40353 39.5338 1.46618C38.5965 0.52884 37.3256 0.00155617 36 0H26C24.6744 0.00155617 23.4035 0.52884 22.4662 1.46618C21.5288 2.40353 21.0016 3.6744 21 5V13C21.0016 14.3256 21.5288 15.5965 22.4662 16.5338C23.4035 17.4712 24.6744 17.9984 26 18H36C37.3256 17.9984 38.5965 17.4712 39.5338 16.5338C40.4712 15.5965 40.9984 14.3256 41 13ZM39 13C38.9991 13.7954 38.6828 14.5579 38.1204 15.1204C37.5579 15.6828 36.7954 15.9991 36 16H26C25.2046 15.9991 24.4421 15.6828 23.8796 15.1204C23.3172 14.5579 23.0009 13.7954 23 13V5C23.0009 4.20462 23.3172 3.44206 23.8796 2.87964C24.4421 2.31722 25.2046 2.00087 26 2H36C36.7954 2.00087 37.5579 2.31722 38.1204 2.87964C38.6828 3.44206 38.9991 4.20462 39 5V13Z" fill="#004AAD"/>
<path d="M57 13H47C45.6744 13.0016 44.4035 13.5288 43.4662 14.4662C42.5288 15.4035 42.0016 16.6744 42 18V26C42.0016 27.3256 42.5288 28.5965 43.4662 29.5338C44.4035 30.4712 45.6744 30.9984 47 31H57C58.3256 30.9984 59.5965 30.4712 60.5338 29.5338C61.4712 28.5965 61.9984 27.3256 62 26V18C61.9984 16.6744 61.4712 15.4035 60.5338 14.4662C59.5965 13.5288 58.3256 13.0016 57 13ZM60 26C59.9991 26.7954 59.6828 27.5579 59.1204 28.1204C58.5579 28.6828 57.7954 28.9991 57 29H47C46.2046 28.9991 45.4421 28.6828 44.8796 28.1204C44.3172 27.5579 44.0009 26.7954 44 26V18C44.0009 17.2046 44.3172 16.4421 44.8796 15.8796C45.4421 15.3172 46.2046 15.0009 47 15H57C57.7954 15.0009 58.5579 15.3172 59.1204 15.8796C59.6828 16.4421 59.9991 17.2046 60 18V26Z" fill="#004AAD"/>
<path d="M5 31H15C16.3256 30.9984 17.5965 30.4712 18.5338 29.5338C19.4712 28.5965 19.9984 27.3256 20 26V18C19.9984 16.6744 19.4712 15.4035 18.5338 14.4662C17.5965 13.5288 16.3256 13.0016 15 13H5C3.6744 13.0016 2.40353 13.5288 1.46618 14.4662C0.52884 15.4035 0.00155617 16.6744 0 18V26C0.00155617 27.3256 0.52884 28.5965 1.46618 29.5338C2.40353 30.4712 3.6744 30.9984 5 31ZM2 18C2.00087 17.2046 2.31722 16.4421 2.87964 15.8796C3.44206 15.3172 4.20462 15.0009 5 15H15C15.7954 15.0009 16.5579 15.3172 17.1204 15.8796C17.6828 16.4421 17.9991 17.2046 18 18V26C17.9991 26.7954 17.6828 27.5579 17.1204 28.1204C16.5579 28.6828 15.7954 28.9991 15 29H5C4.20462 28.9991 3.44206 28.6828 2.87964 28.1204C2.31722 27.5579 2.00087 26.7954 2 26V18Z" fill="#004AAD"/>
<path d="M35.1509 7.06734L32.9145 6.72555L31.9052 4.57516C31.8246 4.40322 31.6966 4.25781 31.5362 4.15595C31.3759 4.05409 31.1899 4 31 4C30.81 4 30.624 4.05409 30.4637 4.15595C30.3034 4.25781 30.1754 4.40322 30.0947 4.57516L29.0854 6.72555L26.8491 7.06734C26.6674 7.09505 26.4968 7.17232 26.3561 7.29066C26.2155 7.40901 26.1102 7.56384 26.0518 7.73815C25.9934 7.91245 25.9842 8.09948 26.0252 8.27868C26.0662 8.45787 26.1558 8.62229 26.2842 8.75387L27.9316 10.4423L27.541 12.8388C27.5107 13.0241 27.5331 13.2141 27.6058 13.3872C27.6785 13.5603 27.7984 13.7094 27.9518 13.8175C28.1053 13.9256 28.2861 13.9883 28.4735 13.9985C28.6609 14.0087 28.8474 13.9658 29.0117 13.875L31 12.7758L32.9883 13.875C33.1525 13.9658 33.339 14.0087 33.5264 13.9985C33.7139 13.9883 33.8947 13.9256 34.0481 13.8175C34.2016 13.7094 34.3215 13.5603 34.3941 13.3872C34.4668 13.2141 34.4893 13.0241 34.459 12.8388L34.0683 10.4423L35.7158 8.75387C35.8442 8.62229 35.9338 8.45787 35.9748 8.27868C36.0158 8.09948 36.0066 7.91245 35.9482 7.73815C35.8898 7.56384 35.7845 7.40901 35.6438 7.29066C35.5031 7.17232 35.3326 7.09505 35.1509 7.06734ZM32.2842 9.40719C32.1748 9.51919 32.0933 9.65532 32.0463 9.80459C31.9992 9.95386 31.9878 10.1121 32.0132 10.2666L32.1538 11.1284L31.4839 10.7583C31.3358 10.6763 31.1693 10.6333 31 10.6333C30.8307 10.6333 30.6642 10.6763 30.5161 10.7583L29.8462 11.1284L29.9868 10.2666C30.0121 10.1121 30.0008 9.95386 29.9537 9.80459C29.9066 9.65532 29.8251 9.51919 29.7158 9.40719L29.0747 8.74996L29.915 8.62203C30.0774 8.59714 30.2311 8.53267 30.3627 8.43431C30.4943 8.33595 30.5996 8.20672 30.6694 8.05803L31 7.35348L31.3305 8.05807C31.4004 8.20676 31.5057 8.33599 31.6373 8.43435C31.7688 8.53271 31.9226 8.59718 32.0849 8.62207L32.9253 8.75L32.2842 9.40719Z" fill="#004AAD"/>
<path d="M9.48325 26.8562C9.63934 26.9507 9.81834 27.0007 10.0008 27.0007C10.1833 27.0007 10.3623 26.9507 10.5184 26.8562C12.1668 25.8591 16.0008 23.2165 16.0008 20.2248C16.0176 19.4985 15.7788 18.7893 15.3262 18.221C14.8736 17.6527 14.2359 17.2612 13.5243 17.1149C12.9166 16.9683 12.2835 16.9619 11.673 17.0963C11.0625 17.2307 10.4907 17.5025 10.0008 17.8908C9.51087 17.5025 8.93892 17.2308 8.32836 17.0964C7.7178 16.962 7.08465 16.9683 6.4769 17.1149C5.76531 17.2613 5.12766 17.6527 4.67515 18.221C4.22264 18.7894 3.98399 19.4985 4.00083 20.2248C4.00083 23.2165 7.83483 25.8591 9.48325 26.8562ZM6.95493 19.0573C7.10982 19.0197 7.2687 19.001 7.42808 19.0017C7.76501 18.9888 8.09924 19.0664 8.39595 19.2266C8.69266 19.3868 8.941 19.6235 9.11508 19.9123C9.20828 20.0634 9.3386 20.1882 9.49364 20.2747C9.64867 20.3613 9.82327 20.4067 10.0008 20.4067C10.1784 20.4067 10.353 20.3613 10.508 20.2747C10.663 20.1882 10.7934 20.0634 10.8866 19.9123C11.1094 19.5591 11.4388 19.2859 11.8271 19.1322C12.2154 18.9785 12.6425 18.9523 13.0467 19.0573C13.3214 19.1008 13.5704 19.2438 13.7464 19.4591C13.9223 19.6745 14.0129 19.947 14.0008 20.2248C14.0008 21.6198 12.0672 23.4728 10.0008 24.82C7.93442 23.4729 6.00083 21.6198 6.00083 20.2248C5.98876 19.947 6.07934 19.6745 6.2553 19.4592C6.43126 19.2439 6.68029 19.1008 6.95493 19.0573Z" fill="#004AAD"/>
<path d="M51 23.5859L48.707 21.2929L47.293 22.707L50.293 25.707C50.3858 25.7998 50.496 25.8735 50.6173 25.9238C50.7387 25.9741 50.8687 25.9999 51 25.9999C51.1313 25.9999 51.2613 25.9741 51.3827 25.9238C51.504 25.8735 51.6142 25.7998 51.707 25.707L57.707 19.707L56.293 18.293L51 23.5859Z" fill="#004AAD"/>
<path d="M32 24H30V26H32V24Z" fill="#004AAD"/>
<path d="M32 20H30V22H32V20Z" fill="#004AAD"/>
<path d="M32 28H30V30H32V28Z" fill="#004AAD"/>
<path d="M32 32H30V34H32V32Z" fill="#004AAD"/>
<path d="M32 36H30V38H32V36Z" fill="#004AAD"/>
<path d="M53 33H51V35H53V33Z" fill="#004AAD"/>
<path d="M53 37H51V39H53V37Z" fill="#004AAD"/>
<path d="M11 33H9V35H11V33Z" fill="#004AAD"/>
<path d="M11 37H9V39H11V37Z" fill="#004AAD"/>
</svg>
