<svg width="62" height="62" viewBox="0 0 62 62" fill="none" xmlns="http://www.w3.org/2000/svg">
<path d="M31 0C13.9061 0 0 13.9061 0 31C0 48.0939 13.9061 62 31 62C48.0939 62 62 48.0939 62 31C62 13.9061 48.0939 0 31 0ZM31 58.9C15.6166 58.9 3.1 46.3834 3.1 31C3.1 15.6166 15.6166 3.1 31 3.1C46.3834 3.1 58.9 15.6166 58.9 31C58.9 46.3834 46.3834 58.9 31 58.9Z" fill="#005B1A"/>
<path d="M13.9123 12.6442C13.6111 12.3414 13.1207 12.3354 12.8164 12.6381C11.5434 13.8975 10.3991 15.2946 9.41371 16.7886C9.17758 17.1458 9.27597 17.6272 9.63319 17.8618C9.76488 17.9496 9.91322 17.9905 10.06 17.9905C10.3113 17.9905 10.558 17.8678 10.7064 17.6423C11.6343 16.2376 12.7105 14.9238 13.9063 13.7401C14.2105 13.4388 14.2136 12.9484 13.9123 12.6442Z" fill="#005B1A"/>
<path d="M8.80729 19.2962C8.42887 19.1116 7.95964 19.2675 7.77043 19.652C6.782 21.6727 6.063 23.813 5.63161 26.0154C5.54987 26.4347 5.82384 26.8419 6.24465 26.9252C6.2946 26.9342 6.34455 26.9388 6.3945 26.9388C6.75778 26.9388 7.08171 26.683 7.15436 26.3121C7.557 24.2429 8.23361 22.2313 9.163 20.3331C9.3507 19.9486 9.19176 19.4839 8.80729 19.2962Z" fill="#005B1A"/>
<path d="M54.8966 38.6369C54.4924 38.4976 54.0519 38.7065 53.9066 39.1091C53.1528 41.2404 52.1008 43.2581 50.7809 45.1048C50.5326 45.4544 50.6129 45.9373 50.961 46.187C51.0987 46.2839 51.2562 46.3308 51.4121 46.3308C51.6528 46.3308 51.8919 46.2173 52.0433 46.0069C53.4465 44.0407 54.5651 41.8943 55.3688 39.6268C55.5111 39.2226 55.2992 38.7807 54.8966 38.6369Z" fill="#005B1A"/>
<path d="M36.5983 12.578C36.1094 11.8742 35.1452 11.6986 34.4413 12.186C33.7375 12.6734 33.5619 13.6391 34.0493 14.343C37.4505 19.2548 39.2472 25.0159 39.2472 31.0009C39.2472 36.986 37.4505 42.747 34.0493 47.6589C33.5619 48.3628 33.7375 49.3285 34.4413 49.8159C34.7107 50.0021 35.018 50.0914 35.3223 50.0914C35.8142 50.0914 36.2971 49.8583 36.5983 49.4238C40.3598 43.9897 42.3472 37.6202 42.3472 31.0009C42.3472 24.3816 40.3598 18.0121 36.5983 12.578Z" fill="#005B1A"/>
<path d="M39.5312 8.67427C38.8273 9.16168 38.6517 10.1274 39.1391 10.8313C43.2563 16.78 45.433 23.755 45.433 31.0024C45.433 38.2499 43.2563 45.2249 39.1391 51.1736C38.6517 51.8775 38.8273 52.8432 39.5312 53.3306C39.8006 53.5168 40.1079 53.6061 40.4121 53.6061C40.9041 53.6061 41.3869 53.373 41.6881 52.9386C46.1656 46.4691 48.533 38.8841 48.533 31.0024C48.533 23.1208 46.1656 15.5357 41.6881 9.06631C41.1992 8.36246 40.235 8.18687 39.5312 8.67427Z" fill="#005B1A"/>
<path d="M26.4186 19.606C25.9312 18.9022 24.967 18.7251 24.2616 19.214C23.5578 19.7014 23.3822 20.6671 23.8696 21.371C25.8389 24.2121 26.8788 27.5407 26.8788 30.9964C26.8788 34.4521 25.8389 37.7807 23.8696 40.6219C23.3822 41.3257 23.5578 42.2914 24.2616 42.7788C24.5311 42.965 24.8383 43.0543 25.1426 43.0543C25.6345 43.0543 26.1174 42.8212 26.4186 42.3868C28.7481 39.0249 29.9788 35.0848 29.9788 30.9964C29.9788 26.908 28.7481 22.9679 26.4186 19.606Z" fill="#005B1A"/>
<path d="M31.5045 16.0943C31.0171 15.3905 30.0529 15.2134 29.3476 15.7023C28.6437 16.1897 28.4681 17.1554 28.9555 17.8593C31.6423 21.7388 33.0621 26.2813 33.0621 30.9979C33.0621 35.7145 31.6423 40.2571 28.9555 44.1366C28.4681 44.8405 28.6437 45.8062 29.3476 46.2936C29.617 46.4798 29.9243 46.5691 30.2285 46.5691C30.7205 46.5691 31.2033 46.336 31.5045 45.9015C34.5516 41.5013 36.1621 36.3472 36.1621 30.9979C36.1621 25.6486 34.5516 20.4946 31.5045 16.0943Z" fill="#005B1A"/>
<path d="M14.1366 26.2133C13.4328 26.7007 13.2572 27.6665 13.7446 28.3703C14.285 29.1499 14.5695 30.0581 14.5695 30.9996C14.5695 31.9411 14.285 32.8508 13.7461 33.6273C13.2572 34.3312 13.4328 35.2969 14.1351 35.7843C14.4045 35.972 14.7133 36.0613 15.0176 36.0613C15.508 36.0613 15.9924 35.8282 16.2921 35.3953C17.1927 34.0965 17.6695 32.5753 17.6695 30.9996C17.6695 29.4253 17.1942 27.9056 16.2936 26.6054C15.8062 25.9015 14.842 25.7259 14.1366 26.2133Z" fill="#005B1A"/>
<path d="M21.3835 23.09C20.8945 22.3877 19.9303 22.209 19.2265 22.698C18.5226 23.1854 18.347 24.1511 18.8344 24.8549C20.0908 26.6698 20.7553 28.795 20.7553 30.9989C20.7553 33.2044 20.0908 35.3296 18.8344 37.1444C18.347 37.8483 18.5226 38.814 19.2265 39.3014C19.4959 39.4876 19.8032 39.5769 20.1074 39.5769C20.5994 39.5769 21.0822 39.3438 21.3835 38.9094C23.0001 36.5723 23.8553 33.8371 23.8553 30.9989C23.8553 28.1608 23.0001 25.4271 21.3835 23.09Z" fill="#005B1A"/>
</svg>
