<svg width="65" height="53" viewBox="0 0 65 53" fill="none" xmlns="http://www.w3.org/2000/svg">
<path d="M61.0645 8.31641C62.1079 8.3152 63.1082 7.90017 63.846 7.16238C64.5838 6.42458 64.9988 5.42426 65 4.38086V1.58789C64.9999 1.35224 64.9062 1.12628 64.7396 0.959653C64.5729 0.793024 64.347 0.699353 64.1113 0.699219H0.888672C0.653286 0.699353 0.427558 0.792814 0.260972 0.959114C0.0943865 1.12541 0.000537679 1.35098 0 1.58637L0 4.37934C0.00120959 5.42274 0.416235 6.42306 1.15403 7.16085C1.89183 7.89865 2.89215 8.31367 3.93555 8.31488H6.85547V16.9548H0.904414C0.668724 16.9548 0.442686 17.0484 0.276028 17.2151C0.10937 17.3818 0.0157422 17.6078 0.0157422 17.8435V51.415C0.0158767 51.6506 0.109548 51.8766 0.276177 52.0432C0.442806 52.2098 0.668765 52.3035 0.904414 52.3036H64.1113C64.347 52.3035 64.5729 52.2098 64.7396 52.0432C64.9062 51.8766 64.9999 51.6506 65 51.415V17.8455C65 17.6098 64.9064 17.3838 64.7397 17.2171C64.5731 17.0505 64.347 16.9568 64.1113 16.9568H58.1445V8.31641H61.0645ZM1.77734 4.38086V2.47504H63.2227V4.38086C63.222 4.95304 62.9944 5.5016 62.5898 5.9062C62.1852 6.31079 61.6366 6.53839 61.0645 6.53906H3.93555C3.36336 6.53839 2.81481 6.31079 2.41021 5.9062C2.00561 5.5016 1.77802 4.95304 1.77734 4.38086ZM14.4407 16.9548V8.31641H50.5588V16.9548H14.4407ZM8.63281 8.31641H12.6633V16.9548H8.63281V8.31641ZM1.79309 18.7322H36.7011V50.5263H1.79309V18.7322ZM63.2227 50.5283H38.4785V18.7322H63.2227V50.5283ZM56.3672 16.9548H52.3362V8.31641H56.3672V16.9548Z" fill="#004AAD"/>
<path d="M31.3549 25.7916C30.6163 25.0546 29.6155 24.6406 28.5721 24.6406C27.5286 24.6406 26.5278 25.0546 25.7893 25.7916L22.0964 29.4839L15.8549 28.0392C15.1202 27.8672 14.3538 27.8861 13.6284 28.0939C12.903 28.3017 12.2429 28.6916 11.7107 29.2264L10.3218 30.6158C10.2195 30.7181 10.1437 30.8439 10.1011 30.9822C10.0584 31.1204 10.0501 31.267 10.077 31.4092C10.1039 31.5514 10.1651 31.6849 10.2553 31.798C10.3454 31.9112 10.4619 32.0006 10.5945 32.0585L16.8106 34.7723L14.0334 37.549L8.5998 38.0522C8.39344 38.0704 8.19995 38.1602 8.05289 38.3061L5.36148 40.9975C5.2521 41.1071 5.17322 41.2433 5.13264 41.3927C5.09207 41.5421 5.09121 41.6995 5.13014 41.8494C5.16908 41.9992 5.24646 42.1363 5.35463 42.2471C5.46281 42.3578 5.59803 42.4384 5.74691 42.4809L12.3368 44.3588C13.5329 44.6985 14.798 44.713 16.0015 44.4005C17.205 44.0881 18.3034 43.4601 19.1831 42.5814L33.0347 28.7288C33.2013 28.5621 33.2948 28.336 33.2948 28.1004C33.2948 27.8647 33.2013 27.6387 33.0347 27.472L31.3549 25.7916ZM17.9278 41.323C17.2719 41.9785 16.4531 42.4471 15.5557 42.6806C14.6583 42.914 13.7149 42.9038 12.8228 42.651L7.68675 41.189L9.08324 39.7925L14.5168 39.2893C14.7233 39.2703 14.9167 39.1795 15.0632 39.0328L18.9886 35.1074C19.0909 35.0051 19.1667 34.8793 19.2094 34.7411C19.252 34.6028 19.2603 34.4562 19.2334 34.314C19.2065 34.1719 19.1453 34.0384 19.0552 33.9252C18.965 33.8121 18.8485 33.7227 18.7159 33.6647L12.4998 30.9505L12.967 30.4833C13.2863 30.1618 13.6827 29.9277 14.1184 29.8032C14.554 29.6787 15.0143 29.6681 15.4553 29.7723L22.1757 31.3268C22.3226 31.3611 22.4759 31.3573 22.6209 31.3157C22.766 31.2741 22.898 31.1961 23.0044 31.0891L27.0456 27.0479C27.4508 26.644 27.9996 26.4171 28.5718 26.4171C29.144 26.4171 29.6928 26.644 30.098 27.0479L31.1497 28.1001L17.9278 41.323Z" fill="#004AAD"/>
<path d="M40.7617 21.9082V25.5645C40.7617 25.8001 40.8553 26.0262 41.022 26.1928C41.1887 26.3595 41.4147 26.4531 41.6504 26.4531H60.0469C60.2826 26.4531 60.5086 26.3595 60.6753 26.1928C60.842 26.0262 60.9356 25.8001 60.9356 25.5645V21.9082C60.9356 21.6725 60.842 21.4465 60.6753 21.2798C60.5086 21.1132 60.2826 21.0195 60.0469 21.0195H41.6504C41.4147 21.0195 41.1887 21.1132 41.022 21.2798C40.8553 21.4465 40.7617 21.6725 40.7617 21.9082ZM42.5391 22.7969H59.1582V24.6758H42.5391V22.7969Z" fill="#004AAD"/>
<path d="M60.0508 28.2812H41.6543C41.4186 28.2812 41.1926 28.3749 41.0259 28.5415C40.8593 28.7082 40.7656 28.9342 40.7656 29.1699V32.8262C40.7656 33.0619 40.8593 33.2879 41.0259 33.4546C41.1926 33.6212 41.4186 33.7148 41.6543 33.7148H60.0508C60.2865 33.7148 60.5125 33.6212 60.6792 33.4546C60.8459 33.2879 60.9395 33.0619 60.9395 32.8262V29.1699C60.9395 28.9342 60.8459 28.7082 60.6792 28.5415C60.5125 28.3749 60.2865 28.2812 60.0508 28.2812ZM59.1621 31.9375H42.543V30.0586H59.1621V31.9375Z" fill="#004AAD"/>
<path d="M60.0508 35.5469H41.6543C41.4186 35.547 41.1927 35.6407 41.0261 35.8073C40.8594 35.9739 40.7658 36.1999 40.7656 36.4355V40.0918C40.7656 40.3275 40.8593 40.5535 41.0259 40.7202C41.1926 40.8868 41.4186 40.9805 41.6543 40.9805H60.0508C60.2865 40.9805 60.5125 40.8868 60.6792 40.7202C60.8459 40.5535 60.9395 40.3275 60.9395 40.0918V36.4355C60.9394 36.1999 60.8457 35.9739 60.6791 35.8073C60.5124 35.6407 60.2865 35.547 60.0508 35.5469ZM59.1621 39.2031H42.543V37.3242H59.1621V39.2031Z" fill="#004AAD"/>
<path d="M60.0508 42.8086H41.6543C41.4186 42.8086 41.1926 42.9022 41.0259 43.0689C40.8593 43.2355 40.7656 43.4616 40.7656 43.6973V47.3535C40.7658 47.5892 40.8594 47.8151 41.0261 47.9818C41.1927 48.1484 41.4186 48.2421 41.6543 48.2422H60.0508C60.2865 48.2421 60.5124 48.1484 60.6791 47.9818C60.8457 47.8151 60.9394 47.5892 60.9395 47.3535V43.6973C60.9395 43.4616 60.8459 43.2355 60.6792 43.0689C60.5125 42.9022 60.2865 42.8086 60.0508 42.8086ZM59.1621 46.4648H42.543V44.5859H59.1621V46.4648Z" fill="#004AAD"/>
</svg>
