<svg width="65" height="65" viewBox="0 0 65 65" fill="none" xmlns="http://www.w3.org/2000/svg">
<rect width="65" height="65" fill="#1E1E1E"/>
<rect id="Rectangle 6667361" x="-10838" y="-3782" width="33224" height="11071" fill="black"/>
<g id="About Us" clip-path="url(#clip0_0_1)">
<rect width="1920" height="5487" transform="translate(-355 -1248)" fill="white"/>
<g id="Viss Category">
<g id="Card">
<g id="01">
<rect id="Rectangle 872" x="-39.5" y="-39.5" width="409" height="314" rx="19.5" stroke="#004AAD"/>
<g id="044-suitcase">
<g id="Group">
<path id="Vector" d="M10.3309 52.9864H5.83984V49.0996C5.83984 48.8639 5.74622 48.6379 5.57956 48.4712C5.4129 48.3046 5.18686 48.2109 4.95117 48.2109C4.71548 48.2109 4.48944 48.3046 4.32279 48.4712C4.15613 48.6379 4.0625 48.8639 4.0625 49.0996V53.873C4.0625 54.1087 4.15613 54.3348 4.32279 54.5014C4.48944 54.6681 4.71548 54.7617 4.95117 54.7617H10.3309C10.5666 54.7617 10.7927 54.6681 10.9593 54.5014C11.126 54.3348 11.2196 54.1087 11.2196 53.873C11.2196 53.6374 11.126 53.4113 10.9593 53.2447C10.7927 53.078 10.5666 52.9844 10.3309 52.9844V52.9864Z" fill="#004AAD"/>
<path id="Vector_2" d="M60.0497 48.2109C59.933 48.2109 59.8174 48.2338 59.7095 48.2784C59.6017 48.3231 59.5037 48.3885 59.4212 48.4711C59.3386 48.5536 59.2732 48.6516 59.2285 48.7594C59.1839 48.8673 59.1609 48.9829 59.161 49.0996V52.9864H54.6699C54.4342 52.9864 54.2082 53.08 54.0415 53.2467C53.8749 53.4133 53.7812 53.6394 53.7812 53.8751C53.7812 54.1108 53.8749 54.3368 54.0415 54.5035C54.2082 54.6701 54.4342 54.7637 54.6699 54.7637H60.0497C60.1664 54.7638 60.282 54.7409 60.3898 54.6962C60.4977 54.6516 60.5957 54.5861 60.6782 54.5036C60.7608 54.4211 60.8262 54.3231 60.8708 54.2152C60.9155 54.1074 60.9384 53.9918 60.9384 53.8751V49.1016C60.9387 48.9847 60.916 48.8689 60.8714 48.7609C60.8269 48.6528 60.7615 48.5545 60.6789 48.4718C60.5964 48.389 60.4983 48.3234 60.3903 48.2786C60.2823 48.2339 60.1666 48.2109 60.0497 48.2109Z" fill="#004AAD"/>
<path id="Vector_3" d="M64.1113 19.3256H54.6152L51.1042 6.82426C51.0518 6.63769 50.9398 6.47336 50.7853 6.3563C50.6308 6.23924 50.4424 6.17585 50.2486 6.17578H14.7499C14.5561 6.17585 14.3676 6.23924 14.2132 6.3563C14.0587 6.47336 13.9467 6.63769 13.8943 6.82426L10.3827 19.3256H0.888672C0.653245 19.3256 0.427439 19.419 0.260824 19.5853C0.0942094 19.7517 0.000403589 19.9773 0 20.2127L0 54.3829C0.00134403 55.561 0.469914 56.6904 1.30291 57.5234C2.13591 58.3564 3.26532 58.825 4.44336 58.8263H60.5566C61.7347 58.825 62.8641 58.3564 63.6971 57.5234C64.5301 56.6904 64.9987 55.561 65 54.3829V20.2127C64.9997 19.9773 64.906 19.7515 64.7393 19.5852C64.5727 19.4188 64.3468 19.3255 64.1113 19.3256ZM15.4233 7.95313H49.5767L52.7704 19.3256H49.3426L47.257 11.9024C47.2047 11.7158 47.0929 11.5515 46.9385 11.4344C46.7841 11.3173 46.5956 11.2539 46.4019 11.2539H18.5981C18.4043 11.254 18.2158 11.3174 18.0614 11.4344C17.9069 11.5515 17.7949 11.7158 17.7425 11.9024L15.6574 19.3256H12.2286L15.4233 7.95313ZM47.4967 19.3256H17.5038L19.2715 13.0313H45.7285L47.4967 19.3256ZM1.77734 21.1029H63.2227V31.8416C63.2219 32.5485 62.9407 33.2261 62.4409 33.7259C61.9411 34.2257 61.2635 34.5069 60.5566 34.5077H4.44336C3.73654 34.5069 3.05889 34.2257 2.55909 33.7259C2.05929 33.2261 1.77815 32.5485 1.77734 31.8416V21.1029ZM44.7383 36.283V41.5134H41.4375V36.283H44.7383ZM23.5625 36.283V41.5134H20.2617V36.283H23.5625ZM63.2227 54.3845C63.2219 55.0913 62.9407 55.7689 62.4409 56.2687C61.9411 56.7685 61.2635 57.0497 60.5566 57.0505H4.44336C3.73654 57.0497 3.05889 56.7685 2.55909 56.2687C2.05929 55.7689 1.77815 55.0913 1.77734 54.3845V35.3923C2.54755 35.9673 3.48218 36.2796 4.44336 36.283H18.4844V42.4041C18.4844 42.6398 18.578 42.8659 18.7447 43.0325C18.9113 43.1992 19.1374 43.2928 19.373 43.2928H24.4512C24.6868 43.2927 24.9128 43.199 25.0794 43.0324C25.246 42.8658 25.3397 42.6398 25.3398 42.4041V36.2825H39.6602V42.4041C39.6602 42.6398 39.7538 42.8659 39.9204 43.0325C40.0871 43.1992 40.3131 43.2928 40.5488 43.2928H45.627C45.8626 43.2927 46.0886 43.199 46.2552 43.0324C46.4218 42.8658 46.5155 42.6398 46.5156 42.4041V36.2825H60.5566C61.5178 36.2788 62.4523 35.9666 63.2227 35.3918V54.3845Z" fill="#004AAD"/>
</g>
</g>
</g>
</g>
</g>
</g>
<defs>
<clipPath id="clip0_0_1">
<rect width="1920" height="5487" fill="white" transform="translate(-355 -1248)"/>
</clipPath>
</defs>
</svg>
