<svg width="569" height="569" viewBox="0 0 569 569" fill="none" xmlns="http://www.w3.org/2000/svg">
<path d="M490.172 212.237C487.162 202.449 483.23 192.968 478.428 183.923C453.665 137.903 410.239 103.182 362.739 82.6415C325.026 66.3567 278.391 57.8445 238.378 72.5133C218.145 79.9331 199.095 94.1353 188.25 113.083C174.116 137.823 175.447 168.424 164.226 194.427C155.122 215.469 132.499 228.112 114.769 241.085C87.1041 261.251 59.849 285.092 50.2556 319.198C37.4645 364.661 41.2541 418.784 67.1436 459.217C86.4896 489.385 119.605 498.444 153.78 499.047C186.03 499.627 225.473 491.479 255.574 506.194C306.852 531.23 374.517 559.338 431.895 539.526C491.071 519.099 520.056 479.314 528.625 427.706C537.194 376.098 513.581 333.104 506.047 292.284C501.359 266.463 498.252 237.956 490.172 212.237Z" fill="#407BFF"/>
<path opacity="0.8" d="M490.172 212.237C487.162 202.449 483.23 192.968 478.428 183.923C453.665 137.903 410.239 103.182 362.739 82.6415C325.026 66.3567 278.391 57.8445 238.378 72.5133C218.145 79.9331 199.095 94.1353 188.25 113.083C174.116 137.823 175.447 168.424 164.226 194.427C155.122 215.469 132.499 228.112 114.769 241.085C87.1041 261.251 59.849 285.092 50.2556 319.198C37.4645 364.661 41.2541 418.784 67.1436 459.217C86.4896 489.385 119.605 498.444 153.78 499.047C186.03 499.627 225.473 491.479 255.574 506.194C306.852 531.23 374.517 559.338 431.895 539.526C491.071 519.099 520.056 479.314 528.625 427.706C537.194 376.098 513.581 333.104 506.047 292.284C501.359 266.463 498.252 237.956 490.172 212.237Z" fill="white"/>
<path d="M58.7319 367.187C58.4361 363.898 58.3678 360.871 58.3336 358.185C58.3336 356.661 58.3336 355.284 58.3336 353.998C59.4716 353.03 64.2171 349.104 65.5258 346.453C66.8345 343.801 67.7221 340.194 66.3338 337.417C66.0348 336.755 65.6007 336.162 65.0593 335.678C64.5179 335.193 63.8812 334.827 63.1901 334.603C62.4989 334.379 61.7685 334.302 61.0459 334.377C60.3232 334.452 59.6242 334.678 58.9937 335.039C55.3179 337.315 55.0107 345.178 56.0007 348.968C56.0804 349.298 58.0036 354.259 58.0605 354.214L58.1402 354.157C58.0833 355.397 58.0264 356.729 58.0036 358.174C58.0036 360.86 58.0036 363.864 58.2085 367.21C58.2085 367.756 58.2881 368.348 58.3336 368.905C58.7433 369.52 58.9709 369.918 58.9709 369.918C58.9254 368.996 58.8116 368.063 58.7319 367.187Z" fill="#BABABA"/>
<path d="M46.9096 358.845C41.9707 359.653 41.3334 364.285 45.9423 367.244C49.8456 369.747 56.5143 369.918 58.4603 369.918C58.4603 369.576 58.4603 369.235 58.3806 368.905C56.5143 366.049 50.9609 358.174 46.9096 358.845Z" fill="#BABABA"/>
<path d="M145.178 337.11C140.819 336.973 136.222 343.278 134.936 346.942C134.822 347.261 133.707 352.427 133.798 352.416H133.889C133.149 353.406 132.375 354.475 131.613 355.67C130.111 357.878 128.438 360.382 126.81 363.227L126.241 364.217C126.162 365.013 126.093 365.491 126.093 365.491L125.706 365.173C124.332 367.615 123.082 370.126 121.962 372.695C120.346 376.328 119.059 380.098 118.116 383.961C118.116 383.961 118.116 384.052 118.116 384.098C118.025 382.823 117.638 379.261 117.581 378.999C116.728 375.176 112.858 368.268 108.477 367.801C107.759 367.741 107.035 367.834 106.355 368.075C105.676 368.316 105.055 368.699 104.535 369.199C104.015 369.698 103.607 370.303 103.339 370.973C103.071 371.642 102.949 372.361 102.981 373.082C102.981 376.166 105.507 379.068 107.84 380.832C110.48 382.834 117.433 384.439 117.979 384.564C117.124 388.53 116.531 392.549 116.204 396.593C115.999 398.949 115.874 401.327 115.772 403.728C115.647 402.59 115.544 401.634 115.51 401.452C114.657 397.64 110.787 390.732 106.406 390.266C105.688 390.205 104.965 390.298 104.286 390.539C103.607 390.78 102.987 391.164 102.467 391.663C101.948 392.163 101.542 392.768 101.275 393.438C101.008 394.107 100.888 394.826 100.921 395.546C100.921 398.63 103.447 401.52 105.78 403.296C108.113 405.071 114.053 406.584 115.624 406.949C115.624 407.87 115.556 408.781 115.533 409.703C115.408 414.107 115.294 418.499 115.066 422.812C114.987 424.326 114.85 425.817 114.713 427.307C114.611 426.329 114.52 425.509 114.486 425.384C113.644 421.572 109.763 414.664 105.382 414.198C104.663 414.135 103.94 414.227 103.26 414.467C102.579 414.708 101.959 415.091 101.439 415.591C100.92 416.091 100.513 416.697 100.247 417.368C99.9809 418.038 99.8614 418.758 99.8966 419.478C99.8966 422.562 102.412 425.453 104.745 427.228C107.077 429.003 112.449 430.357 114.304 430.813C114.179 431.859 114.053 432.906 113.905 433.931C114.565 434.124 115.237 434.283 115.931 434.42C116.181 432.44 116.375 430.426 116.534 428.389C118.15 428.844 123.931 430.38 126.776 429.959C129.621 429.538 133.172 428.206 134.617 425.498C134.974 424.866 135.195 424.167 135.266 423.445C135.338 422.723 135.258 421.994 135.032 421.304C134.806 420.615 134.439 419.98 133.954 419.44C133.469 418.901 132.877 418.468 132.216 418.169C128.165 416.462 121.587 420.662 119.083 423.609C118.935 423.791 117.376 426.113 116.546 427.399C116.648 425.908 116.75 424.428 116.796 422.926C116.944 418.568 116.955 414.152 116.978 409.76C116.978 408.405 116.978 407.062 116.978 405.72C117.558 405.89 124.386 407.859 127.618 407.381C130.497 406.96 134.014 405.629 135.459 402.932C135.817 402.299 136.039 401.599 136.111 400.876C136.182 400.153 136.102 399.423 135.875 398.733C135.647 398.043 135.279 397.408 134.792 396.869C134.304 396.33 133.71 395.899 133.047 395.603C129.007 393.896 122.429 398.084 119.925 401.031C119.743 401.259 117.513 404.593 116.989 405.469C116.989 402.51 117.103 399.563 117.285 396.661C117.52 392.742 118.006 388.842 118.742 384.985C119.015 385.065 126.139 387.147 129.439 386.669C132.318 386.248 135.846 384.906 137.28 382.209C137.637 381.577 137.858 380.877 137.929 380.155C138 379.433 137.921 378.704 137.695 378.015C137.469 377.325 137.102 376.691 136.617 376.151C136.132 375.611 135.54 375.178 134.879 374.88C130.839 373.173 124.25 377.372 121.746 380.319C121.553 380.547 119.163 384.143 118.765 384.871C118.765 384.644 118.833 384.405 118.878 384.189C119.728 380.353 120.92 376.602 122.44 372.979C123.248 370.965 124.136 369.099 125.046 367.289C126.332 367.813 132.25 370.146 135.288 370.043C138.327 369.941 141.855 369.008 143.584 366.481C144.011 365.894 144.309 365.224 144.46 364.514C144.611 363.804 144.611 363.071 144.461 362.361C144.311 361.651 144.013 360.98 143.588 360.392C143.163 359.805 142.619 359.312 141.991 358.948C138.156 356.808 131.135 360.245 128.335 362.897C128.187 363.033 126.799 364.683 125.798 365.89C126.219 365.082 126.64 364.24 127.061 363.477C128.631 360.598 130.247 358.06 131.692 355.83C132.523 354.567 133.308 353.44 134.048 352.416C135.562 352.279 141.695 351.63 144.29 350.14C146.885 348.649 149.582 346.191 149.98 343.141C150.089 342.425 150.048 341.695 149.862 340.996C149.675 340.297 149.346 339.644 148.895 339.077C148.444 338.511 147.881 338.044 147.242 337.706C146.602 337.367 145.899 337.164 145.178 337.11Z" fill="#BABABA"/>
<path d="M85.3525 431.062C85.6484 431.642 85.9329 432.2 86.2174 432.815L88.1633 432.177C87.4236 430.709 86.6612 429.241 85.8873 427.796C87.4692 427.284 93.0909 425.383 95.2303 423.437C97.3698 421.491 99.5433 418.419 99.2475 415.358C99.1988 414.632 99.0002 413.924 98.6644 413.278C98.3285 412.633 97.8626 412.064 97.2959 411.607C96.7293 411.151 96.0743 410.816 95.3721 410.626C94.6699 410.435 93.9358 410.391 93.2161 410.498C88.9372 411.295 85.8191 418.464 85.3866 422.322C85.3866 422.573 85.3866 425.383 85.3866 426.874C84.6355 425.577 83.9072 424.268 83.1106 422.971C80.8346 419.215 78.3993 415.494 75.9867 411.773L73.8018 408.359C74.3708 408.188 81.0964 406.083 83.4975 403.887C85.637 401.952 87.8106 398.879 87.5147 395.818C87.4677 395.092 87.2702 394.383 86.9349 393.736C86.5995 393.09 86.1336 392.52 85.5666 392.063C84.9995 391.607 84.3438 391.273 83.6409 391.082C82.938 390.892 82.2033 390.85 81.4833 390.959C77.2044 391.756 74.0863 398.925 73.6538 402.783C73.6538 403.079 73.6538 407.119 73.6538 408.154C72.0493 405.628 70.4788 403.101 69.0336 400.552C67.066 397.119 65.3176 393.566 63.7988 389.912C64.0605 389.832 71.0933 387.636 73.5514 385.417C75.6909 383.482 77.8644 380.41 77.5686 377.337C77.5201 376.611 77.3215 375.904 76.9855 375.259C76.6495 374.614 76.1834 374.045 75.6165 373.59C75.0496 373.134 74.3944 372.801 73.6923 372.612C72.9901 372.422 72.2563 372.381 71.5372 372.489C67.2583 373.286 64.1402 380.455 63.7077 384.313C63.7077 384.62 63.7077 388.967 63.7077 389.764C63.6281 389.548 63.5143 389.332 63.4346 389.127C62.0205 385.435 60.9315 381.628 60.1799 377.747C59.7361 375.607 59.4402 373.536 59.1899 371.51C60.5441 371.249 66.712 369.94 69.1587 368.188C71.6054 366.435 73.9952 363.636 74.0408 360.608C74.0712 359.881 73.9506 359.155 73.6864 358.477C73.4222 357.798 73.0203 357.182 72.506 356.666C71.9917 356.151 71.3761 355.748 70.6981 355.482C70.0202 355.217 69.2945 355.094 68.567 355.123C64.2198 355.442 60.3279 362.213 59.463 366.003C59.463 366.207 59.1671 368.358 59.0078 369.929H58.4502C58.6664 372.455 58.9736 375.118 59.4744 377.895C60.1383 381.854 61.1552 385.747 62.5128 389.525C62.5248 389.57 62.544 389.612 62.5697 389.65C61.7845 388.626 59.5085 385.838 59.315 385.644C56.5042 382.902 49.5055 379.215 45.659 381.218C45.0302 381.573 44.4836 382.058 44.0554 382.64C43.6271 383.222 43.3268 383.887 43.1742 384.594C43.0215 385.3 43.0201 386.03 43.1698 386.737C43.3196 387.444 43.6172 388.111 44.0431 388.694C45.7728 391.278 49.4258 392.347 52.3277 392.541C55.6052 392.78 62.2283 390.265 62.7518 390.094C64.225 393.911 65.951 397.625 67.9183 401.212C69.0563 403.318 70.2512 405.4 71.4916 407.471C70.7861 406.606 70.1488 405.833 70.0464 405.742C67.2469 402.988 60.2368 399.3 56.3904 401.303C55.7598 401.659 55.2117 402.144 54.7823 402.727C54.3529 403.309 54.052 403.977 53.8993 404.684C53.7466 405.392 53.7456 406.124 53.8965 406.832C54.0473 407.54 54.3465 408.208 54.7744 408.791C56.4928 411.375 60.1572 412.433 63.0591 412.638C65.961 412.843 71.6965 410.817 73.21 410.248C73.6994 411.033 74.1659 411.83 74.6553 412.615C76.9313 416.393 79.3211 420.16 81.4833 423.915C82.2457 425.247 82.9627 426.578 83.6682 427.91C83.0423 427.136 82.5302 426.499 82.4278 426.408C79.617 423.665 72.6069 419.978 68.7718 421.981C68.142 422.335 67.5944 422.819 67.165 423.401C66.7356 423.982 66.4342 424.648 66.2805 425.354C66.1267 426.06 66.1243 426.791 66.2732 427.498C66.4221 428.205 66.719 428.873 67.1445 429.457C68.8629 432.041 72.5272 433.11 75.4291 433.315C78.331 433.52 83.5431 431.699 85.3525 431.062Z" fill="#BABABA"/>
<path d="M123.658 349.241C119.322 346.749 115.897 349.947 117.604 355.147C119.06 359.597 124.216 364.001 125.672 365.162L126.207 364.206C126.571 360.746 127.197 351.267 123.658 349.241Z" fill="#BABABA"/>
<path d="M386.137 529.807C381.334 529.932 376.68 537.204 375.53 541.346C375.474 541.562 375.098 543.827 374.848 545.545C377.124 545.75 379.4 545.909 381.676 546.023C383.23 545.65 384.724 545.06 386.114 544.271C388.788 542.529 391.69 539.559 391.895 536.157C391.973 535.353 391.882 534.543 391.628 533.777C391.374 533.01 390.962 532.306 390.42 531.708C389.878 531.11 389.217 530.632 388.479 530.305C387.742 529.977 386.944 529.808 386.137 529.807Z" fill="#BABABA"/>
<path d="M344.69 465.442C339.159 465.442 337.657 470.403 342.175 474.432C345.987 477.846 353.236 479.2 355.353 479.542L355.455 478.404C353.919 474.933 349.231 465.373 344.69 465.442Z" fill="#BABABA"/>
<path d="M433.75 528.988C434.25 528.361 434.615 527.636 434.819 526.86C435.024 526.084 435.064 525.274 434.938 524.481C434.811 523.688 434.521 522.931 434.085 522.257C433.649 521.583 433.078 521.007 432.407 520.567C428.299 518.006 420.378 521.432 417.147 524.209C416.896 524.413 413.892 527.679 413.164 528.544C413.721 525.312 414.302 522.115 415.03 518.974C415.96 514.726 417.169 510.545 418.649 506.456C418.933 506.592 426.33 510.109 430.029 510.166C433.238 510.166 437.312 509.358 439.349 506.672C439.849 506.045 440.214 505.32 440.418 504.544C440.623 503.768 440.663 502.957 440.537 502.165C440.41 501.372 440.12 500.615 439.684 499.941C439.248 499.267 438.677 498.691 438.006 498.251C433.898 495.69 425.977 499.116 422.746 501.892C422.484 502.109 419.252 505.614 418.706 506.296C418.797 506.057 418.854 505.807 418.945 505.568C420.541 501.533 422.495 497.648 424.782 493.96C426.012 491.912 427.309 490.023 428.618 488.27C429.926 489.067 435.98 492.64 439.303 493.05C442.626 493.46 446.643 493.05 448.965 490.615C449.531 490.047 449.972 489.368 450.26 488.62C450.548 487.872 450.677 487.072 450.637 486.271C450.597 485.47 450.391 484.687 450.03 483.971C449.67 483.255 449.163 482.623 448.544 482.114C444.732 479.11 436.481 481.647 432.953 484.037C432.76 484.174 430.962 485.721 429.665 486.859C430.256 486.051 430.871 485.209 431.451 484.447C433.67 481.579 435.867 479.098 437.835 476.913C438.973 475.684 440.009 474.637 440.999 473.579C442.683 473.693 449.489 474.057 452.55 472.907C455.611 471.758 459.014 469.493 459.935 466.25C460.177 465.484 460.257 464.675 460.17 463.876C460.082 463.077 459.83 462.305 459.429 461.608C459.028 460.912 458.486 460.306 457.839 459.83C457.191 459.354 456.452 459.017 455.668 458.842C450.945 457.92 444.834 464.008 442.82 467.786C442.649 468.116 440.544 473.545 440.612 473.556H440.714C439.747 474.501 438.712 475.536 437.608 476.686C435.594 478.836 433.329 481.238 431.042 484.105L430.256 485.084C430.029 485.938 429.881 486.438 429.881 486.438C429.881 486.438 429.733 486.29 429.505 486.029C427.696 488.305 425.852 490.831 424.111 493.574C421.715 497.258 419.654 501.151 417.955 505.204C417.955 505.204 417.955 505.306 417.955 505.352C418.08 503.941 418.285 499.992 418.262 499.662C418.011 495.349 414.984 487.144 410.296 485.869C409.522 485.68 408.717 485.658 407.934 485.804C407.151 485.95 406.408 486.261 405.755 486.716C405.101 487.171 404.552 487.761 404.144 488.445C403.736 489.129 403.478 489.892 403.388 490.683C402.887 494.097 405.095 497.636 407.337 499.98C409.863 502.621 417.169 505.579 417.75 505.818C416.116 509.994 414.766 514.275 413.71 518.632C413.084 521.159 412.572 523.742 411.991 526.325C412.06 525.108 412.105 524.049 412.094 523.867C411.832 519.554 408.816 511.349 404.128 510.075C403.355 509.881 402.549 509.856 401.766 510C400.982 510.143 400.238 510.453 399.584 510.908C398.93 511.363 398.38 511.952 397.973 512.637C397.565 513.321 397.308 514.085 397.22 514.877C396.719 518.291 398.927 521.841 401.169 524.186C403.411 526.53 409.624 529.204 411.263 529.876L410.683 532.857C409.909 536.943 409.146 541.017 408.304 545.034L410.353 544.749C411.058 540.914 411.707 537.045 412.344 533.176C412.583 531.708 412.845 530.251 413.107 528.783C413.698 529.068 420.811 532.402 424.418 532.459C427.639 532.516 431.713 531.674 433.75 528.988Z" fill="#BABABA"/>
<path d="M430.085 468.298C425.783 464.827 421.504 467.718 422.449 473.681C423.268 478.802 428.139 484.492 429.504 486.017L430.255 485.072C431.302 481.374 433.578 471.132 430.085 468.298Z" fill="#BABABA"/>
<path d="M356.195 476.548C356.445 472.918 356.9 469.595 357.333 466.67C357.583 465.009 357.845 463.507 358.107 462.118C359.563 461.276 365.379 457.805 367.268 455.142C369.157 452.479 370.75 448.701 369.726 445.435C369.514 444.661 369.143 443.94 368.637 443.318C368.131 442.695 367.501 442.185 366.787 441.82C366.072 441.455 365.29 441.243 364.489 441.197C363.688 441.151 362.886 441.273 362.135 441.555C357.72 443.41 356.024 451.922 356.445 456.223C356.445 456.599 357.708 462.346 357.788 462.312L357.879 462.255C357.595 463.598 357.31 465.043 357.037 466.625C356.536 469.549 356.013 472.861 355.683 476.514C355.626 477.117 355.569 477.754 355.523 478.38C355.853 479.131 356.047 479.598 356.047 479.598C356.024 478.574 356.07 477.527 356.195 476.548Z" fill="#BABABA"/>
<path d="M357.561 538.08C356.605 538.402 355.761 538.989 355.126 539.773C354.491 540.556 354.092 541.505 353.977 542.507C359.86 543.645 365.743 544.589 371.616 545.215C368.998 541.687 362.068 536.578 357.561 538.08Z" fill="#BABABA"/>
<path d="M398.892 535.999C398.119 535.806 397.313 535.78 396.53 535.924C395.746 536.067 395.002 536.377 394.348 536.832C393.694 537.287 393.144 537.876 392.737 538.561C392.329 539.245 392.072 540.009 391.984 540.801C391.793 542.67 392.191 544.552 393.122 546.184C397.424 546.093 401.695 545.808 405.936 545.33C404.673 541.325 402.203 536.92 398.892 535.999Z" fill="#BABABA"/>
<path d="M372.934 541.688C371.102 537.205 369.099 532.71 367.13 528.226C366.527 526.86 365.935 525.483 365.344 524.106C365.992 524.015 373.697 522.889 376.724 520.92C379.398 519.179 382.3 516.208 382.505 512.806C382.58 512.009 382.49 511.205 382.239 510.445C381.989 509.685 381.583 508.985 381.049 508.39C380.514 507.794 379.862 507.316 379.133 506.985C378.404 506.654 377.615 506.478 376.815 506.467C372.012 506.581 367.358 513.864 366.209 517.995C366.118 518.314 365.412 522.729 365.298 523.856C363.99 520.829 362.715 517.802 361.588 514.752C360.034 510.667 358.745 506.485 357.731 502.234C358.026 502.234 366.072 501.096 369.111 499.047C371.773 497.306 374.687 494.325 374.892 490.934C374.967 490.136 374.877 489.332 374.626 488.571C374.376 487.811 373.97 487.11 373.436 486.513C372.902 485.917 372.249 485.438 371.521 485.105C370.792 484.773 370.002 484.596 369.202 484.583C364.399 484.709 359.745 491.98 358.595 496.123C358.504 496.441 357.753 501.198 357.685 502.063C357.628 501.824 357.537 501.574 357.48 501.323C356.584 497.038 356.066 492.681 355.932 488.305C355.819 485.892 355.853 483.582 355.932 481.34C357.446 481.283 364.399 480.93 367.381 479.44C370.362 477.949 373.446 475.377 374.015 472.031C374.177 471.244 374.173 470.432 374.004 469.646C373.835 468.86 373.505 468.118 373.034 467.466C372.564 466.814 371.963 466.268 371.27 465.861C370.576 465.454 369.806 465.195 369.008 465.101C364.217 464.68 358.766 471.394 357.184 475.343C357.105 475.559 356.467 477.869 356.046 479.554L355.42 479.462C355.216 482.251 355.09 485.152 355.159 488.293C355.196 492.727 355.627 497.148 356.445 501.506V501.653C355.773 500.402 353.77 496.965 353.588 496.715C351.005 493.232 344.006 487.986 339.466 489.5C338.72 489.782 338.042 490.219 337.475 490.781C336.909 491.343 336.467 492.017 336.179 492.761C335.89 493.505 335.761 494.301 335.8 495.098C335.839 495.894 336.045 496.674 336.404 497.386C337.827 500.493 341.639 502.302 344.769 503.076C348.296 503.895 355.955 502.336 356.57 502.211C357.512 506.631 358.744 510.983 360.257 515.241C361.133 517.733 362.089 520.214 363.068 522.684C362.453 521.625 361.93 520.669 361.805 520.556C359.221 517.062 352.223 511.827 347.682 513.341C346.938 513.624 346.261 514.06 345.696 514.621C345.13 515.182 344.689 515.855 344.401 516.598C344.112 517.34 343.983 518.135 344.021 518.93C344.058 519.726 344.263 520.504 344.621 521.216C346.043 524.334 349.844 526.132 352.985 526.906C356.126 527.68 362.715 526.45 364.445 526.109C364.832 527.054 365.207 527.998 365.583 528.943C367.46 533.495 369.361 537.99 371.079 542.474C371.443 543.429 371.785 544.385 372.126 545.33L374.402 545.558C373.936 544.237 373.458 542.963 372.934 541.688Z" fill="#BABABA"/>
<path d="M370.008 183.923L370.759 188.418L375.766 188.862L377.268 184.606C378.91 184.459 380.527 184.107 382.082 183.559L385.246 186.768L389.593 184.253L388.398 179.929C389.656 178.858 390.777 177.635 391.732 176.287L396.148 177.107L398.276 172.555L394.805 169.698C395.217 168.099 395.427 166.456 395.431 164.805L399.55 162.938L398.674 157.988L394.122 157.635C393.544 156.113 392.78 154.668 391.846 153.334L394.19 149.374L390.64 145.823L386.657 148.19C384.361 146.64 381.769 145.582 379.044 145.083L377.906 140.531H372.876L371.738 145.083C370.168 145.374 368.639 145.855 367.186 146.517L363.601 143.41L359.481 146.29L361.177 150.728C360.07 151.855 359.104 153.112 358.298 154.472L353.564 153.982L351.845 158.705L355.76 161.357C355.577 162.459 355.485 163.574 355.487 164.691C355.487 165.169 355.487 165.636 355.487 166.102L351.379 168.378L352.676 173.226L357.331 173.169C358.022 174.619 358.882 175.982 359.891 177.232L357.877 181.42L361.723 184.64L365.524 182.08M386.395 158.614C387.742 161.01 388.263 163.783 387.877 166.505C387.491 169.227 386.22 171.746 384.26 173.673C382.3 175.601 379.76 176.829 377.032 177.17C374.304 177.51 371.54 176.943 369.167 175.556C366.794 174.169 364.943 172.039 363.9 169.496C362.858 166.952 362.681 164.136 363.398 161.482C364.116 158.829 365.686 156.485 367.868 154.812C370.05 153.14 372.721 152.233 375.47 152.23C376.072 152.229 376.673 152.274 377.268 152.366M381.513 153.778C382.476 154.31 383.364 154.968 384.153 155.735" stroke="black" stroke-miterlimit="10"/>
<path d="M381.866 440.247L382.617 444.742L387.624 445.186L389.126 440.93C390.768 440.783 392.385 440.431 393.94 439.883L397.104 443.092L401.451 440.577L400.313 436.253C401.571 435.182 402.691 433.959 403.647 432.611L408.063 433.431L410.191 428.879L406.777 426.022C407.188 424.424 407.399 422.78 407.403 421.129L411.522 419.263L410.646 414.312L406.094 413.96C405.521 412.435 404.756 410.989 403.818 409.658L406.162 405.698L402.612 402.147L398.629 404.514C396.333 402.964 393.74 401.906 391.015 401.407L389.877 396.855H384.847L383.709 401.407C382.139 401.698 380.61 402.179 379.157 402.841L375.539 399.769L371.419 402.648L373.115 407.086C372.008 408.214 371.041 409.471 370.235 410.83L365.501 410.341L363.783 415.063L367.698 417.715C367.514 418.817 367.423 419.932 367.425 421.049C367.425 421.527 367.425 421.994 367.425 422.46L363.316 424.736L364.614 429.584L369.268 429.527C369.96 430.977 370.819 432.341 371.829 433.59L369.849 437.801L373.695 441.021L377.428 438.358M398.299 414.893C399.645 417.289 400.166 420.062 399.78 422.784C399.394 425.506 398.123 428.025 396.163 429.952C394.203 431.879 391.663 433.108 388.936 433.448C386.208 433.789 383.444 433.221 381.07 431.834C378.697 430.447 376.846 428.318 375.804 425.774C374.761 423.231 374.585 420.415 375.302 417.761C376.019 415.107 377.59 412.763 379.771 411.091C381.953 409.419 384.625 408.511 387.374 408.509C387.976 408.507 388.577 408.553 389.172 408.645M393.416 410.056C394.379 410.589 395.267 411.247 396.057 412.014" stroke="black" stroke-miterlimit="10"/>
<path d="M406.262 130.005L406.922 131.735C406.592 132.065 406.274 132.418 405.967 132.77M404.294 135.046C404.203 135.183 404.123 135.32 404.043 135.456L399.309 134.978L397.591 139.689L401.506 142.341C401.319 143.443 401.223 144.558 401.221 145.675C401.221 146.153 401.221 146.62 401.221 147.086L397.102 149.362L398.41 154.21H403.065C403.749 155.667 404.609 157.035 405.625 158.284L403.611 162.461L407.457 165.693L411.19 163.018C412.602 163.832 414.107 164.47 415.674 164.919L416.425 169.414L421.421 169.846L422.934 165.59C424.576 165.447 426.193 165.099 427.748 164.555L430.9 167.753L435.247 165.249L434.109 160.925C435.365 159.851 436.485 158.628 437.444 157.283L441.859 158.091L443.987 153.539L440.516 150.671C440.922 149.075 441.133 147.436 441.142 145.789L445.262 143.911L444.385 138.973L439.833 138.62C439.253 137.095 438.489 135.646 437.557 134.307L439.902 130.358L436.351 126.807L432.368 129.174C430.077 127.615 427.483 126.556 424.755 126.068L423.617 121.516H418.598L417.46 126.068C415.892 126.363 414.363 126.845 412.908 127.502L409.312 124.395L405.204 127.274L405.728 128.64M433.438 148.259C433.268 149.083 433.013 149.888 432.675 150.66M431.731 152.424C430.114 154.965 427.634 156.838 424.748 157.698C421.862 158.559 418.762 158.35 416.017 157.11C413.272 155.87 411.066 153.682 409.804 150.947C408.542 148.212 408.308 145.114 409.146 142.221C409.984 139.328 411.837 136.833 414.365 135.196C416.893 133.558 419.927 132.887 422.91 133.306C425.892 133.724 428.624 135.204 430.604 137.474C432.584 139.744 433.679 142.652 433.688 145.664C433.688 145.967 433.688 146.275 433.688 146.586" stroke="black" stroke-miterlimit="10"/>
<path d="M106.094 284.83L102.327 292.648L109.519 298.679L116.484 293.683C119.125 295.21 121.947 296.403 124.882 297.234L126.271 305.632L135.625 306.452L138.436 298.486C141.507 298.212 144.531 297.554 147.438 296.528L153.332 302.526L161.458 297.837L159.182 289.757C161.537 287.746 163.635 285.453 165.429 282.929L173.68 284.443L177.651 275.942L171.176 270.593C171.931 267.617 172.313 264.559 172.314 261.489L180.007 257.984L178.38 248.744L169.89 248.084C168.805 245.24 167.38 242.539 165.646 240.038L170.015 232.641L163.381 226.006L155.927 230.433C151.646 227.521 146.799 225.543 141.702 224.629L139.551 216.117H130.163L128.001 224.675C125.093 225.231 122.262 226.133 119.568 227.361L112.854 221.557L105.172 226.94L108.336 235.236C106.272 237.344 104.465 239.689 102.953 242.223L94.1109 241.313L90.9017 250.132L98.2191 255.094C97.8714 257.154 97.6963 259.24 97.6956 261.33C97.6956 262.218 97.7297 263.094 97.798 263.959L90.0938 268.26L92.5291 277.364L101.235 277.262C102.197 279.313 103.34 281.274 104.649 283.123M127.113 239.287C128.135 238.928 129.181 238.639 130.242 238.422M136.023 237.967C141.756 238.231 147.192 240.593 151.298 244.602C155.405 248.611 157.895 253.99 158.296 259.715C158.697 265.44 156.981 271.112 153.474 275.655C149.967 280.198 144.913 283.294 139.273 284.355C133.633 285.417 127.8 284.369 122.882 281.412C117.963 278.454 114.303 273.793 112.596 268.314C110.888 262.835 111.253 256.919 113.621 251.692C115.989 246.464 120.195 242.288 125.44 239.958" stroke="black" stroke-miterlimit="10"/>
<path d="M226.324 259.567L217.016 253.559" stroke="#263238" stroke-width="3" stroke-linecap="round" stroke-linejoin="round"/>
<path d="M242.495 241.495L240.082 239.48" stroke="#263238" stroke-width="3" stroke-linecap="round" stroke-linejoin="round"/>
<path d="M215.321 294.481L196.055 289.656" stroke="#263238" stroke-width="3" stroke-linecap="round" stroke-linejoin="round"/>
<path d="M319.447 412.902C319.305 412.9 319.163 412.881 319.026 412.845C318.582 412.729 318.201 412.443 317.967 412.048C317.376 411.013 317.057 410.455 321.859 404.947C311.504 411.286 310.4 411.024 309.797 410.876C309.324 410.737 308.919 410.429 308.659 410.011C307.703 408.361 307.521 408.031 326.684 392.35C323.612 394.341 320.414 396.481 317.58 398.37C300.715 409.624 295.469 412.822 293.148 412.287C292.866 412.223 292.601 412.102 292.368 411.932C292.135 411.762 291.94 411.546 291.793 411.297C290.769 409.522 290.769 409.522 313.415 393.158L317.899 389.926C315.282 391.667 312.676 393.442 310.286 395.069C292.465 407.189 284.351 412.424 281.312 411.741C280.995 411.67 280.697 411.531 280.438 411.335C280.179 411.139 279.965 410.889 279.81 410.603C278.672 408.68 278.445 408.247 311.378 385.874L268.066 410.91C267.68 411.125 267.226 411.18 266.8 411.063C266.374 410.946 266.012 410.666 265.79 410.284C265.028 408.964 265.619 407.348 268.749 404.594C263.764 407.462 260.874 408.612 259.451 408.282C259.155 408.213 258.876 408.087 258.63 407.909C258.384 407.731 258.175 407.506 258.018 407.246C257.073 405.607 257.437 404.094 269.489 395.991C257.062 403.764 252.475 406.051 250.689 405.63C250.423 405.568 250.173 405.452 249.954 405.289C249.735 405.127 249.551 404.921 249.414 404.685C248.584 403.263 249.357 402.751 252.214 400.862L258.507 396.754L268.134 390.529C257.528 396.037 255.935 395.661 255.047 395.445C254.748 395.377 254.466 395.249 254.218 395.069C253.969 394.889 253.76 394.661 253.602 394.398C253.392 394.012 253.339 393.561 253.453 393.137C253.568 392.713 253.841 392.35 254.217 392.122C287.617 372.321 339.18 340.559 351.607 330.055C339.214 335.689 302.161 358.699 281.051 371.843C253.864 388.742 253.739 388.708 252.601 388.412C252.366 388.359 252.143 388.26 251.948 388.119C251.752 387.978 251.587 387.799 251.463 387.593C250.541 386 250.586 384.975 261.466 378.238C256.458 380.594 253.158 381.652 251.702 381.311C251.383 381.236 251.083 381.097 250.82 380.901C250.558 380.705 250.339 380.457 250.177 380.173C249.959 379.795 249.895 379.347 249.999 378.923C250.103 378.499 250.366 378.132 250.734 377.897C284.442 356.423 331.862 326.016 351.208 313.168C345.826 315.91 338.599 319.996 330.565 324.809C324.067 328.986 316.363 333.845 307.247 339.512C295.207 347.012 283.031 354.443 272.891 360.588C248.401 376.042 248.106 375.974 246.911 375.678C246.676 375.621 246.454 375.519 246.259 375.376C246.063 375.234 245.898 375.054 245.773 374.847C245.563 374.462 245.509 374.01 245.624 373.586C245.738 373.162 246.012 372.799 246.387 372.571C253.761 368.19 261.898 363.308 270.342 358.187L274.78 355.387C257.096 365.504 247.32 369.931 244.441 369.225C244.108 369.16 243.793 369.025 243.516 368.829C243.24 368.633 243.008 368.38 242.837 368.087C241.778 366.267 243.28 363.945 255.753 355.797C247.707 360.702 244.521 362.158 243.167 361.828C242.908 361.77 242.665 361.659 242.451 361.503C242.238 361.346 242.059 361.147 241.926 360.918C241.209 359.678 240.629 358.642 248.959 352.599C244.475 354.875 241.642 355.797 240.288 355.467C239.98 355.4 239.69 355.271 239.436 355.087C239.181 354.903 238.968 354.668 238.808 354.397C238.694 354.202 238.62 353.985 238.59 353.76C238.561 353.535 238.577 353.307 238.637 353.089C238.757 352.652 239.043 352.281 239.434 352.053C276.362 331.057 332.283 297.805 349.308 284.388C330.633 294.698 279.15 324.923 243.224 346.226C243.029 346.341 242.815 346.416 242.592 346.447C242.368 346.478 242.141 346.464 241.923 346.407C241.705 346.35 241.501 346.251 241.322 346.114C241.143 345.978 240.992 345.807 240.879 345.612C240.705 345.299 240.596 344.955 240.558 344.599C240.521 344.242 240.557 343.883 240.663 343.541C241.297 342.098 242.255 340.82 243.463 339.808C240.811 340.889 239.036 341.287 238.023 341.037C237.708 340.96 237.412 340.82 237.154 340.624C236.895 340.428 236.68 340.182 236.521 339.899C235.497 338.135 237.454 336.77 240.413 334.71C242.689 333.174 245.909 331.046 250.416 328.223C258.826 322.966 270.365 316.001 282.587 308.638C296.323 300.354 312.642 290.51 325.603 282.362C297.87 298.294 254.194 323.808 233.221 336.075C232.823 336.301 232.354 336.362 231.912 336.246C231.695 336.189 231.491 336.089 231.314 335.952C231.136 335.816 230.987 335.645 230.876 335.45C230 333.925 229.738 333.481 244.817 323.99C238.911 327.233 235.178 328.633 233.277 328.189C232.919 328.114 232.579 327.965 232.281 327.752C231.983 327.538 231.734 327.265 231.548 326.949C230.41 324.991 230.41 324.991 257.79 309.093C270.456 301.742 285.569 292.957 299.475 284.513C311.151 276.752 320.289 270.857 327.219 266.76C330.855 264.342 334.305 261.656 337.541 258.726C323.327 265.11 267.201 299.045 231.707 321.122C231.324 321.364 230.86 321.443 230.418 321.343C229.977 321.242 229.593 320.971 229.351 320.587C229.11 320.204 229.031 319.74 229.131 319.299C229.231 318.857 229.503 318.473 229.886 318.232L240.902 311.222C231.798 315.899 228.384 316.684 226.984 316.331C226.667 316.257 226.368 316.118 226.107 315.922C225.847 315.726 225.63 315.478 225.471 315.193C225.25 314.816 225.185 314.367 225.289 313.942C225.393 313.518 225.658 313.15 226.028 312.917L250.279 297.372C230.455 308.57 228.851 308.172 227.872 307.921C227.612 307.861 227.366 307.748 227.151 307.589C226.936 307.431 226.755 307.23 226.62 307C226.407 306.618 226.349 306.169 226.457 305.746C226.565 305.322 226.831 304.957 227.2 304.724C252.76 288.917 289.074 266.032 310.274 251.681C293.148 261.548 268.169 276.205 250.598 286.538L231.013 297.918C226.666 300.456 224.56 301.696 223.434 302.265L223.138 302.448C222.353 302.823 222.159 302.766 221.829 302.675C221.508 302.589 221.219 302.412 220.997 302.164C220.776 301.916 220.631 301.609 220.582 301.28C220.532 300.952 220.58 300.616 220.718 300.314C220.857 300.011 221.081 299.756 221.363 299.58C248.47 282.817 288.505 257.553 306.439 245.126C296.892 250.657 282.632 259.75 271.161 267.09C239.002 287.574 229.226 293.469 226.393 292.763C226.123 292.699 225.869 292.582 225.646 292.417C225.424 292.253 225.236 292.046 225.095 291.807C224.39 290.567 223.878 289.691 234.563 281.986C231.65 283.272 229.681 283.762 228.532 283.488C228.207 283.415 227.9 283.276 227.63 283.08C227.36 282.885 227.133 282.636 226.962 282.35C226.75 281.97 226.692 281.523 226.797 281.1C226.903 280.678 227.165 280.311 227.531 280.074C248.527 266.862 280.436 246.151 291.406 237.582C281.802 242.282 260.84 255.79 248.504 263.687C228.35 276.535 227.599 276.854 226.313 276.535C226.077 276.481 225.855 276.379 225.659 276.236C225.464 276.093 225.299 275.913 225.175 275.705C224.264 274.146 223.468 272.757 243.201 259.192C240.765 260.74 238.273 262.344 235.724 263.983C235.513 264.154 235.267 264.274 235.002 264.335C234.738 264.397 234.463 264.397 234.199 264.336C233.975 264.282 233.764 264.183 233.58 264.044C233.396 263.905 233.242 263.729 233.129 263.528C231.912 261.423 233.664 259.613 247.514 248.996C247.26 248.942 247.02 248.835 246.81 248.682C246.6 248.529 246.425 248.333 246.296 248.108C246.085 247.716 246.035 247.256 246.156 246.828C246.277 246.399 246.56 246.034 246.945 245.809C247.264 245.634 247.629 245.559 247.992 245.593C249.792 244.548 251.535 243.408 253.215 242.179C258.769 238.276 260.339 237.343 261.693 237.627C261.958 237.685 262.207 237.797 262.427 237.955C262.646 238.114 262.83 238.316 262.968 238.549C263.947 240.256 263.184 241.28 253.864 248.495C256.458 246.89 259.133 245.229 261.83 243.59C288.14 227.499 290.177 227.977 291.418 228.273C291.691 228.331 291.948 228.447 292.174 228.612C292.399 228.776 292.588 228.986 292.727 229.229C292.941 229.609 293.001 230.057 292.895 230.48C292.789 230.903 292.525 231.27 292.158 231.505C279.321 239.471 265.984 248.097 254.797 255.551C280.766 238.97 293.25 231.653 296.766 232.54C297.071 232.608 297.359 232.738 297.612 232.922C297.864 233.106 298.076 233.34 298.234 233.61C299.316 235.488 300.101 236.853 264.174 260.501L259.008 263.915C266.245 259.363 273.574 254.583 279.492 250.714C302.536 235.761 306.269 233.564 308.01 233.974C308.249 234.037 308.472 234.146 308.668 234.297C308.863 234.447 309.026 234.636 309.148 234.85C309.366 235.229 309.429 235.676 309.325 236.1C309.222 236.524 308.958 236.892 308.59 237.126C286.308 251.329 253.761 272.53 237.67 283.921C246.319 278.823 258.575 271.005 269.25 264.199C303.082 242.577 314.121 236.034 317.239 236.785C317.518 236.852 317.78 236.974 318.011 237.144C318.242 237.314 318.436 237.528 318.582 237.775C319.413 239.22 320.016 240.244 300.226 253.457C327.959 237.365 328.494 237.525 329.37 237.729C329.593 237.787 329.802 237.888 329.986 238.026C330.169 238.165 330.324 238.339 330.44 238.537C331.578 240.506 332.386 241.951 280.061 275.386C276.26 277.821 272.447 280.245 268.681 282.612C289.392 270.367 314.075 255.3 332.773 243.624C332.968 243.505 333.186 243.425 333.412 243.39C333.639 243.355 333.87 243.365 334.093 243.419C334.54 243.534 334.925 243.82 335.163 244.216C335.971 245.627 334.776 246.492 333.512 247.357C332.739 247.892 331.601 248.666 330.098 249.633C327.345 251.465 323.27 254.185 318.013 257.599C309.159 263.369 296.789 271.369 281.244 281.383C266.268 291.022 251.178 300.729 240.834 307.341C254.501 300.115 281.085 284.501 332.295 251.784C339.669 247.084 339.669 247.084 340.42 247.232C340.645 247.287 340.857 247.387 341.043 247.526C341.228 247.665 341.384 247.84 341.501 248.04C341.922 248.768 342.161 249.178 340.796 250.395C338.975 251.989 334.446 254.947 324.113 261.662C338.747 253.639 340.113 253.969 341 254.196C341.259 254.255 341.502 254.365 341.716 254.522C341.929 254.679 342.108 254.878 342.241 255.107C342.855 256.176 343.003 257.462 340.727 260.012C341.625 259.731 342.575 259.661 343.504 259.807C343.875 259.884 344.226 260.038 344.534 260.26C344.842 260.481 345.1 260.765 345.291 261.093C346.429 263.05 346.998 264.051 313.188 285.378C348.989 264.643 349.342 264.734 350.196 264.962C350.415 265.018 350.62 265.117 350.8 265.254C350.98 265.391 351.13 265.562 351.242 265.758C352.38 267.648 350.332 269.548 345.439 273.121C342.286 275.397 337.837 278.402 331.874 282.225C351.755 269.81 356.739 267.238 358.514 267.67C358.766 267.731 359.002 267.842 359.209 267.997C359.416 268.151 359.59 268.346 359.721 268.569C359.835 268.763 359.909 268.978 359.938 269.201C359.967 269.423 359.951 269.65 359.891 269.867C359.834 270.086 359.732 270.292 359.594 270.472C359.455 270.652 359.281 270.802 359.083 270.914C347.476 277.491 335.675 284.296 324.272 291.011L312.459 298.476C289.233 313.179 272.288 323.751 260.396 330.67C256.629 333.253 253.409 335.552 250.825 337.498C261.409 331.239 279.435 320.599 297.483 310.072C354.383 276.774 355.248 277.013 356.329 277.298C356.552 277.355 356.761 277.456 356.945 277.595C357.129 277.733 357.283 277.907 357.399 278.106C357.564 278.397 357.668 278.718 357.705 279.051C357.742 279.383 357.712 279.72 357.615 280.04C357.28 281.142 356.636 282.126 355.76 282.874C359.664 280.928 362.11 280.131 363.317 280.416C363.61 280.483 363.887 280.61 364.129 280.788C364.372 280.966 364.576 281.192 364.728 281.451C365.638 283.022 364.364 283.875 361.553 285.742C359.857 286.88 357.354 288.462 353.883 290.624L353.211 291.045C358.514 288.507 362.236 287.312 364.102 287.767C364.483 287.846 364.844 288.003 365.161 288.228C365.478 288.453 365.746 288.742 365.945 289.076C367.516 291.796 365.945 293.526 310.422 326.368C287.105 340.263 256.299 358.471 247.901 365.299C252.532 363.672 264.072 358.096 292.749 340.741C316.124 326.596 341.865 310.084 354.201 302.152C362.77 296.655 362.759 296.667 363.522 296.849C363.975 296.964 364.364 297.255 364.603 297.657C365.297 298.863 366.002 300.081 356.637 307.056C357.959 306.459 359.412 306.208 360.859 306.328C361.177 306.403 361.477 306.543 361.739 306.739C362.002 306.935 362.221 307.182 362.384 307.466C363.385 309.207 363.385 309.207 344.972 321.27C335.868 327.21 323.236 335.415 307.304 345.657C291.941 355.535 276.453 365.447 265.847 372.218C287.332 360.702 327.595 335.165 345.507 323.808C361.439 313.737 361.439 313.737 362.304 313.953C362.527 314.01 362.736 314.111 362.92 314.25C363.103 314.388 363.258 314.562 363.374 314.761C364.591 316.877 362.657 319.882 355.169 325.447C355.388 325.415 355.61 325.415 355.829 325.447C356.107 325.513 356.37 325.635 356.601 325.805C356.831 325.975 357.025 326.19 357.171 326.437C358.366 328.508 359.721 330.852 309.216 362.477C323.737 353.532 338.804 344.019 350.969 336.132C351.164 336.006 351.382 335.92 351.611 335.88C351.84 335.841 352.075 335.848 352.301 335.903C352.527 335.957 352.739 336.057 352.925 336.196C353.111 336.336 353.266 336.511 353.382 336.713C354.213 338.169 353.063 338.989 351.106 340.354C349.968 341.162 348.25 342.346 345.996 343.848C343.743 345.35 340.944 347.262 337.564 349.447C342.275 347.057 345.188 346.09 346.668 346.454C346.989 346.526 347.291 346.665 347.556 346.861C347.82 347.057 348.041 347.306 348.204 347.592C349.16 349.242 348.944 349.868 337.427 357.311C339.851 356.275 341.57 355.899 342.673 356.173C343.016 356.246 343.34 356.391 343.624 356.596C343.908 356.802 344.146 357.065 344.323 357.367C345.666 359.643 344.653 360.713 313.814 379.388C304.983 384.736 293.865 391.462 284.863 397.266L345.416 362.318C345.609 362.203 345.824 362.129 346.047 362.099C346.27 362.07 346.497 362.086 346.713 362.147C347.148 362.263 347.52 362.545 347.749 362.932C348.591 364.4 347.396 365.277 345.416 366.733C344.221 367.609 342.469 368.85 340.056 370.511C335.561 373.629 329.313 377.851 322.701 382.335C314.997 387.547 305.301 394.113 297.358 399.633C301.011 397.22 304.812 394.637 308.192 392.338C325.797 380.366 333.228 375.575 336.13 376.213C336.434 376.279 336.721 376.408 336.974 376.59C337.226 376.772 337.439 377.004 337.598 377.271C338.588 379.001 338.633 379.08 318.445 393.704C333.091 383.962 337.882 381.186 340.067 381.675C340.349 381.739 340.614 381.86 340.847 382.03C341.08 382.201 341.275 382.417 341.422 382.665C342.218 384.054 342.218 384.054 332.033 392.372C328.96 394.876 324.693 398.358 320.847 401.579C323.965 399.656 327.401 397.471 330.667 395.354C330.862 395.227 331.081 395.141 331.309 395.102C331.538 395.062 331.773 395.07 331.999 395.124C332.225 395.179 332.437 395.278 332.623 395.418C332.809 395.557 332.964 395.733 333.08 395.934C333.717 397.072 333.478 397.3 331.145 399.803C329.245 401.84 327.618 403.627 326.241 405.152C336.574 398.995 336.949 399.098 337.678 399.28C337.899 399.337 338.106 399.439 338.288 399.577C338.47 399.716 338.622 399.89 338.736 400.088C338.85 400.282 338.924 400.496 338.954 400.719C338.984 400.942 338.969 401.168 338.911 401.385C338.853 401.602 338.752 401.806 338.615 401.984C338.477 402.161 338.305 402.31 338.11 402.421C337.945 402.52 337.764 402.59 337.575 402.626C336.062 403.309 327.652 408.259 320.243 412.743C319.994 412.856 319.721 412.911 319.447 412.902ZM335.868 401.715C336.049 402.021 336.319 402.263 336.642 402.409C336.322 402.259 336.053 402.017 335.868 401.715ZM293.853 384.338C284.021 390.472 274.348 396.617 268.043 400.998C274.905 396.913 284.874 390.335 293.853 384.338ZM336.175 354.033C325.012 360.224 306.952 371.854 293.227 380.719C298.28 377.567 304.038 374.005 310.582 369.976C319.595 364.434 329.302 358.471 336.175 354.033ZM335.447 361.999C329.382 365.231 320.175 371.103 311.196 376.964L312.141 376.395C320.528 371.297 329.632 365.777 335.447 361.976V361.999ZM279.492 336.44C271.981 341.14 265.153 345.566 259.463 349.367C265.358 345.601 272.345 341.083 279.492 336.44ZM360.506 291.682C357.206 292.82 350.207 296.007 335.402 304.894C320.596 313.782 302.707 325.469 286.775 335.825C279.822 340.377 273.972 344.132 269.033 347.296C278.615 341.401 291.486 333.697 308.681 323.523C329.609 311.108 353.006 297.27 360.506 291.682ZM349.82 325.071L347.407 326.607C339.441 331.668 331.897 336.428 324.773 340.889C334.275 335.176 343.254 329.589 349.82 325.071ZM274.348 317.503C263.912 323.808 253.773 330.021 247.036 334.266C250.45 332.525 254.558 330.192 259.201 327.438C263.764 324.331 268.874 320.974 274.348 317.503ZM301.068 287.437C296.698 290.351 292.397 293.241 288.368 295.938C280.402 301.31 273.324 305.998 267.19 310.027L273.46 306.157C296.505 291.955 329.78 271.426 339.567 263.983C335.947 265.601 332.438 267.456 329.063 269.537C325.171 272.256 320.221 275.522 313.95 279.483C309.865 282.043 305.529 284.706 301.068 287.415V287.437Z" fill="#407BFF"/>
<g opacity="0.4">
<path d="M319.447 412.902C319.305 412.9 319.163 412.881 319.026 412.845C318.582 412.729 318.201 412.443 317.967 412.048C317.376 411.013 317.057 410.455 321.859 404.947C311.504 411.286 310.4 411.024 309.797 410.876C309.324 410.737 308.919 410.429 308.659 410.011C307.703 408.361 307.521 408.031 326.684 392.35C323.612 394.341 320.414 396.481 317.58 398.37C300.715 409.624 295.469 412.822 293.148 412.287C292.866 412.223 292.601 412.102 292.368 411.932C292.135 411.762 291.94 411.546 291.793 411.297C290.769 409.522 290.769 409.522 313.415 393.158L317.899 389.926C315.282 391.667 312.676 393.442 310.286 395.069C292.465 407.189 284.351 412.424 281.312 411.741C280.995 411.67 280.697 411.531 280.438 411.335C280.179 411.139 279.965 410.889 279.81 410.603C278.672 408.68 278.445 408.247 311.378 385.874L268.066 410.91C267.68 411.125 267.226 411.18 266.8 411.063C266.374 410.946 266.012 410.666 265.79 410.284C265.028 408.964 265.619 407.348 268.749 404.594C263.764 407.462 260.874 408.612 259.451 408.282C259.155 408.213 258.876 408.087 258.63 407.909C258.384 407.731 258.175 407.506 258.018 407.246C257.073 405.607 257.437 404.094 269.489 395.991C257.062 403.764 252.475 406.051 250.689 405.63C250.423 405.568 250.173 405.452 249.954 405.289C249.735 405.127 249.551 404.921 249.414 404.685C248.584 403.263 249.357 402.751 252.214 400.862L258.507 396.754L268.134 390.529C257.528 396.037 255.935 395.661 255.047 395.445C254.748 395.377 254.466 395.249 254.218 395.069C253.969 394.889 253.76 394.661 253.602 394.398C253.392 394.012 253.339 393.561 253.453 393.137C253.568 392.713 253.841 392.35 254.217 392.122C287.617 372.321 339.18 340.559 351.607 330.055C339.214 335.689 302.161 358.699 281.051 371.843C253.864 388.742 253.739 388.708 252.601 388.412C252.366 388.359 252.143 388.26 251.948 388.119C251.752 387.978 251.587 387.799 251.463 387.593C250.541 386 250.586 384.975 261.466 378.238C256.458 380.594 253.158 381.652 251.702 381.311C251.383 381.236 251.083 381.097 250.82 380.901C250.558 380.705 250.339 380.457 250.177 380.173C249.959 379.795 249.895 379.347 249.999 378.923C250.103 378.499 250.366 378.132 250.734 377.897C284.442 356.423 331.862 326.016 351.208 313.168C345.826 315.91 338.599 319.996 330.565 324.809C324.067 328.986 316.363 333.845 307.247 339.512C295.207 347.012 283.031 354.443 272.891 360.588C248.401 376.042 248.106 375.974 246.911 375.678C246.676 375.621 246.454 375.519 246.259 375.376C246.063 375.234 245.898 375.054 245.773 374.847C245.563 374.462 245.509 374.01 245.624 373.586C245.738 373.162 246.012 372.799 246.387 372.571C253.761 368.19 261.898 363.308 270.342 358.187L274.78 355.387C257.096 365.504 247.32 369.931 244.441 369.225C244.108 369.16 243.793 369.025 243.516 368.829C243.24 368.633 243.008 368.38 242.837 368.087C241.778 366.267 243.28 363.945 255.753 355.797C247.707 360.702 244.521 362.158 243.167 361.828C242.908 361.77 242.665 361.659 242.451 361.503C242.238 361.346 242.059 361.147 241.926 360.918C241.209 359.678 240.629 358.642 248.959 352.599C244.475 354.875 241.642 355.797 240.288 355.467C239.98 355.4 239.69 355.271 239.436 355.087C239.181 354.903 238.968 354.668 238.808 354.397C238.694 354.202 238.62 353.985 238.59 353.76C238.561 353.535 238.577 353.307 238.637 353.089C238.757 352.652 239.043 352.281 239.434 352.053C276.362 331.057 332.283 297.805 349.308 284.388C330.633 294.698 279.15 324.923 243.224 346.226C243.029 346.341 242.815 346.416 242.592 346.447C242.368 346.478 242.141 346.464 241.923 346.407C241.705 346.35 241.501 346.251 241.322 346.114C241.143 345.978 240.992 345.807 240.879 345.612C240.705 345.299 240.596 344.955 240.558 344.599C240.521 344.242 240.557 343.883 240.663 343.541C241.297 342.098 242.255 340.82 243.463 339.808C240.811 340.889 239.036 341.287 238.023 341.037C237.708 340.96 237.412 340.82 237.154 340.624C236.895 340.428 236.68 340.182 236.521 339.899C235.497 338.135 237.454 336.77 240.413 334.71C242.689 333.174 245.909 331.046 250.416 328.223C258.826 322.966 270.365 316.001 282.587 308.638C296.323 300.354 312.642 290.51 325.603 282.362C297.87 298.294 254.194 323.808 233.221 336.075C232.823 336.301 232.354 336.362 231.912 336.246C231.695 336.189 231.491 336.089 231.314 335.952C231.136 335.816 230.987 335.645 230.876 335.45C230 333.925 229.738 333.481 244.817 323.99C238.911 327.233 235.178 328.633 233.277 328.189C232.919 328.114 232.579 327.965 232.281 327.752C231.983 327.538 231.734 327.265 231.548 326.949C230.41 324.991 230.41 324.991 257.79 309.093C270.456 301.742 285.569 292.957 299.475 284.513C311.151 276.752 320.289 270.857 327.219 266.76C330.855 264.342 334.305 261.656 337.541 258.726C323.327 265.11 267.201 299.045 231.707 321.122C231.324 321.364 230.86 321.443 230.418 321.343C229.977 321.242 229.593 320.971 229.351 320.587C229.11 320.204 229.031 319.74 229.131 319.299C229.231 318.857 229.503 318.473 229.886 318.232L240.902 311.222C231.798 315.899 228.384 316.684 226.984 316.331C226.667 316.257 226.368 316.118 226.107 315.922C225.847 315.726 225.63 315.478 225.471 315.193C225.25 314.816 225.185 314.367 225.289 313.942C225.393 313.518 225.658 313.15 226.028 312.917L250.279 297.372C230.455 308.57 228.851 308.172 227.872 307.921C227.612 307.861 227.366 307.748 227.151 307.589C226.936 307.431 226.755 307.23 226.62 307C226.407 306.618 226.349 306.169 226.457 305.746C226.565 305.322 226.831 304.957 227.2 304.724C252.76 288.917 289.074 266.032 310.274 251.681C293.148 261.548 268.169 276.205 250.598 286.538L231.013 297.918C226.666 300.456 224.56 301.696 223.434 302.265L223.138 302.448C222.353 302.823 222.159 302.766 221.829 302.675C221.508 302.589 221.219 302.412 220.997 302.164C220.776 301.916 220.631 301.609 220.582 301.28C220.532 300.952 220.58 300.616 220.718 300.314C220.857 300.011 221.081 299.756 221.363 299.58C248.47 282.817 288.505 257.553 306.439 245.126C296.892 250.657 282.632 259.75 271.161 267.09C239.002 287.574 229.226 293.469 226.393 292.763C226.123 292.699 225.869 292.582 225.646 292.417C225.424 292.253 225.236 292.046 225.095 291.807C224.39 290.567 223.878 289.691 234.563 281.986C231.65 283.272 229.681 283.762 228.532 283.488C228.207 283.415 227.9 283.276 227.63 283.08C227.36 282.885 227.133 282.636 226.962 282.35C226.75 281.97 226.692 281.523 226.797 281.1C226.903 280.678 227.165 280.311 227.531 280.074C248.527 266.862 280.436 246.151 291.406 237.582C281.802 242.282 260.84 255.79 248.504 263.687C228.35 276.535 227.599 276.854 226.313 276.535C226.077 276.481 225.855 276.379 225.659 276.236C225.464 276.093 225.299 275.913 225.175 275.705C224.264 274.146 223.468 272.757 243.201 259.192C240.765 260.74 238.273 262.344 235.724 263.983C235.513 264.154 235.267 264.274 235.002 264.335C234.738 264.397 234.463 264.397 234.199 264.336C233.975 264.282 233.764 264.183 233.58 264.044C233.396 263.905 233.242 263.729 233.129 263.528C231.912 261.423 233.664 259.613 247.514 248.996C247.26 248.942 247.02 248.835 246.81 248.682C246.6 248.529 246.425 248.333 246.296 248.108C246.085 247.716 246.035 247.256 246.156 246.828C246.277 246.399 246.56 246.034 246.945 245.809C247.264 245.634 247.629 245.559 247.992 245.593C249.792 244.548 251.535 243.408 253.215 242.179C258.769 238.276 260.339 237.343 261.693 237.627C261.958 237.685 262.207 237.797 262.427 237.955C262.646 238.114 262.83 238.316 262.968 238.549C263.947 240.256 263.184 241.28 253.864 248.495C256.458 246.89 259.133 245.229 261.83 243.59C288.14 227.499 290.177 227.977 291.418 228.273C291.691 228.331 291.948 228.447 292.174 228.612C292.399 228.776 292.588 228.986 292.727 229.229C292.941 229.609 293.001 230.057 292.895 230.48C292.789 230.903 292.525 231.27 292.158 231.505C279.321 239.471 265.984 248.097 254.797 255.551C280.766 238.97 293.25 231.653 296.766 232.54C297.071 232.608 297.359 232.738 297.612 232.922C297.864 233.106 298.076 233.34 298.234 233.61C299.316 235.488 300.101 236.853 264.174 260.501L259.008 263.915C266.245 259.363 273.574 254.583 279.492 250.714C302.536 235.761 306.269 233.564 308.01 233.974C308.249 234.037 308.472 234.146 308.668 234.297C308.863 234.447 309.026 234.636 309.148 234.85C309.366 235.229 309.429 235.676 309.325 236.1C309.222 236.524 308.958 236.892 308.59 237.126C286.308 251.329 253.761 272.53 237.67 283.921C246.319 278.823 258.575 271.005 269.25 264.199C303.082 242.577 314.121 236.034 317.239 236.785C317.518 236.852 317.78 236.974 318.011 237.144C318.242 237.314 318.436 237.528 318.582 237.775C319.413 239.22 320.016 240.244 300.226 253.457C327.959 237.365 328.494 237.525 329.37 237.729C329.593 237.787 329.802 237.888 329.986 238.026C330.169 238.165 330.324 238.339 330.44 238.537C331.578 240.506 332.386 241.951 280.061 275.386C276.26 277.821 272.447 280.245 268.681 282.612C289.392 270.367 314.075 255.3 332.773 243.624C332.968 243.505 333.186 243.425 333.412 243.39C333.639 243.355 333.87 243.365 334.093 243.419C334.54 243.534 334.925 243.82 335.163 244.216C335.971 245.627 334.776 246.492 333.512 247.357C332.739 247.892 331.601 248.666 330.098 249.633C327.345 251.465 323.27 254.185 318.013 257.599C309.159 263.369 296.789 271.369 281.244 281.383C266.268 291.022 251.178 300.729 240.834 307.341C254.501 300.115 281.085 284.501 332.295 251.784C339.669 247.084 339.669 247.084 340.42 247.232C340.645 247.287 340.857 247.387 341.043 247.526C341.228 247.665 341.384 247.84 341.501 248.04C341.922 248.768 342.161 249.178 340.796 250.395C338.975 251.989 334.446 254.947 324.113 261.662C338.747 253.639 340.113 253.969 341 254.196C341.259 254.255 341.502 254.365 341.716 254.522C341.929 254.679 342.108 254.878 342.241 255.107C342.855 256.176 343.003 257.462 340.727 260.012C341.625 259.731 342.575 259.661 343.504 259.807C343.875 259.884 344.226 260.038 344.534 260.26C344.842 260.481 345.1 260.765 345.291 261.093C346.429 263.05 346.998 264.051 313.188 285.378C348.989 264.643 349.342 264.734 350.196 264.962C350.415 265.018 350.62 265.117 350.8 265.254C350.98 265.391 351.13 265.562 351.242 265.758C352.38 267.648 350.332 269.548 345.439 273.121C342.286 275.397 337.837 278.402 331.874 282.225C351.755 269.81 356.739 267.238 358.514 267.67C358.766 267.731 359.002 267.842 359.209 267.997C359.416 268.151 359.59 268.346 359.721 268.569C359.835 268.763 359.909 268.978 359.938 269.201C359.967 269.423 359.951 269.65 359.891 269.867C359.834 270.086 359.732 270.292 359.594 270.472C359.455 270.652 359.281 270.802 359.083 270.914C347.476 277.491 335.675 284.296 324.272 291.011L312.459 298.476C289.233 313.179 272.288 323.751 260.396 330.67C256.629 333.253 253.409 335.552 250.825 337.498C261.409 331.239 279.435 320.599 297.483 310.072C354.383 276.774 355.248 277.013 356.329 277.298C356.552 277.355 356.761 277.456 356.945 277.595C357.129 277.733 357.283 277.907 357.399 278.106C357.564 278.397 357.668 278.718 357.705 279.051C357.742 279.383 357.712 279.72 357.615 280.04C357.28 281.142 356.636 282.126 355.76 282.874C359.664 280.928 362.11 280.131 363.317 280.416C363.61 280.483 363.887 280.61 364.129 280.788C364.372 280.966 364.576 281.192 364.728 281.451C365.638 283.022 364.364 283.875 361.553 285.742C359.857 286.88 357.354 288.462 353.883 290.624L353.211 291.045C358.514 288.507 362.236 287.312 364.102 287.767C364.483 287.846 364.844 288.003 365.161 288.228C365.478 288.453 365.746 288.742 365.945 289.076C367.516 291.796 365.945 293.526 310.422 326.368C287.105 340.263 256.299 358.471 247.901 365.299C252.532 363.672 264.072 358.096 292.749 340.741C316.124 326.596 341.865 310.084 354.201 302.152C362.77 296.655 362.759 296.667 363.522 296.849C363.975 296.964 364.364 297.255 364.603 297.657C365.297 298.863 366.002 300.081 356.637 307.056C357.959 306.459 359.412 306.208 360.859 306.328C361.177 306.403 361.477 306.543 361.739 306.739C362.002 306.935 362.221 307.182 362.384 307.466C363.385 309.207 363.385 309.207 344.972 321.27C335.868 327.21 323.236 335.415 307.304 345.657C291.941 355.535 276.453 365.447 265.847 372.218C287.332 360.702 327.595 335.165 345.507 323.808C361.439 313.737 361.439 313.737 362.304 313.953C362.527 314.01 362.736 314.111 362.92 314.25C363.103 314.388 363.258 314.562 363.374 314.761C364.591 316.877 362.657 319.882 355.169 325.447C355.388 325.415 355.61 325.415 355.829 325.447C356.107 325.513 356.37 325.635 356.601 325.805C356.831 325.975 357.025 326.19 357.171 326.437C358.366 328.508 359.721 330.852 309.216 362.477C323.737 353.532 338.804 344.019 350.969 336.132C351.164 336.006 351.382 335.92 351.611 335.88C351.84 335.841 352.075 335.848 352.301 335.903C352.527 335.957 352.739 336.057 352.925 336.196C353.111 336.336 353.266 336.511 353.382 336.713C354.213 338.169 353.063 338.989 351.106 340.354C349.968 341.162 348.25 342.346 345.996 343.848C343.743 345.35 340.944 347.262 337.564 349.447C342.275 347.057 345.188 346.09 346.668 346.454C346.989 346.526 347.291 346.665 347.556 346.861C347.82 347.057 348.041 347.306 348.204 347.592C349.16 349.242 348.944 349.868 337.427 357.311C339.851 356.275 341.57 355.899 342.673 356.173C343.016 356.246 343.34 356.391 343.624 356.596C343.908 356.802 344.146 357.065 344.323 357.367C345.666 359.643 344.653 360.713 313.814 379.388C304.983 384.736 293.865 391.462 284.863 397.266L345.416 362.318C345.609 362.203 345.824 362.129 346.047 362.099C346.27 362.07 346.497 362.086 346.713 362.147C347.148 362.263 347.52 362.545 347.749 362.932C348.591 364.4 347.396 365.277 345.416 366.733C344.221 367.609 342.469 368.85 340.056 370.511C335.561 373.629 329.313 377.851 322.701 382.335C314.997 387.547 305.301 394.113 297.358 399.633C301.011 397.22 304.812 394.637 308.192 392.338C325.797 380.366 333.228 375.575 336.13 376.213C336.434 376.279 336.721 376.408 336.974 376.59C337.226 376.772 337.439 377.004 337.598 377.271C338.588 379.001 338.633 379.08 318.445 393.704C333.091 383.962 337.882 381.186 340.067 381.675C340.349 381.739 340.614 381.86 340.847 382.03C341.08 382.201 341.275 382.417 341.422 382.665C342.218 384.054 342.218 384.054 332.033 392.372C328.96 394.876 324.693 398.358 320.847 401.579C323.965 399.656 327.401 397.471 330.667 395.354C330.862 395.227 331.081 395.141 331.309 395.102C331.538 395.062 331.773 395.07 331.999 395.124C332.225 395.179 332.437 395.278 332.623 395.418C332.809 395.557 332.964 395.733 333.08 395.934C333.717 397.072 333.478 397.3 331.145 399.803C329.245 401.84 327.618 403.627 326.241 405.152C336.574 398.995 336.949 399.098 337.678 399.28C337.899 399.337 338.106 399.439 338.288 399.577C338.47 399.716 338.622 399.89 338.736 400.088C338.85 400.282 338.924 400.496 338.954 400.719C338.984 400.942 338.969 401.168 338.911 401.385C338.853 401.602 338.752 401.806 338.615 401.984C338.477 402.161 338.305 402.31 338.11 402.421C337.945 402.52 337.764 402.59 337.575 402.626C336.062 403.309 327.652 408.259 320.243 412.743C319.994 412.856 319.721 412.911 319.447 412.902ZM335.868 401.715C336.049 402.021 336.319 402.263 336.642 402.409C336.322 402.259 336.053 402.017 335.868 401.715ZM293.853 384.338C284.021 390.472 274.348 396.617 268.043 400.998C274.905 396.913 284.874 390.335 293.853 384.338ZM336.175 354.033C325.012 360.224 306.952 371.854 293.227 380.719C298.28 377.567 304.038 374.005 310.582 369.976C319.595 364.434 329.302 358.471 336.175 354.033ZM335.447 361.999C329.382 365.231 320.175 371.103 311.196 376.964L312.141 376.395C320.528 371.297 329.632 365.777 335.447 361.976V361.999ZM279.492 336.44C271.981 341.14 265.153 345.566 259.463 349.367C265.358 345.601 272.345 341.083 279.492 336.44ZM360.506 291.682C357.206 292.82 350.207 296.007 335.402 304.894C320.596 313.782 302.707 325.469 286.775 335.825C279.822 340.377 273.972 344.132 269.033 347.296C278.615 341.401 291.486 333.697 308.681 323.523C329.609 311.108 353.006 297.27 360.506 291.682ZM349.82 325.071L347.407 326.607C339.441 331.668 331.897 336.428 324.773 340.889C334.275 335.176 343.254 329.589 349.82 325.071ZM274.348 317.503C263.912 323.808 253.773 330.021 247.036 334.266C250.45 332.525 254.558 330.192 259.201 327.438C263.764 324.331 268.874 320.974 274.348 317.503ZM301.068 287.437C296.698 290.351 292.397 293.241 288.368 295.938C280.402 301.31 273.324 305.998 267.19 310.027L273.46 306.157C296.505 291.955 329.78 271.426 339.567 263.983C335.947 265.601 332.438 267.456 329.063 269.537C325.171 272.256 320.221 275.522 313.95 279.483C309.865 282.043 305.529 284.706 301.068 287.415V287.437Z" fill="white"/>
</g>
<path d="M295.276 230.502H294.514C253.25 231.264 222.149 262.833 222.149 301.672C222.13 313.271 224.959 324.697 230.388 334.948C232.664 340.353 238.172 353.588 243.623 370.704C248.675 386.499 251.315 402.397 251.315 404.844C251.315 405.071 251.315 405.31 251.315 405.572C251.293 406.286 251.413 406.998 251.671 407.664C251.928 408.331 252.316 408.939 252.813 409.453C253.31 409.966 253.905 410.375 254.562 410.655C255.22 410.934 255.927 411.079 256.641 411.08H330.543C331.258 411.079 331.965 410.934 332.622 410.655C333.28 410.375 333.875 409.966 334.371 409.453C334.868 408.939 335.256 408.331 335.514 407.664C335.771 406.998 335.892 406.286 335.869 405.572C335.869 405.31 335.869 405.071 335.869 404.844C335.869 402.442 338.509 386.545 343.55 370.704C349.013 353.634 354.464 340.353 356.785 334.948C362.461 324.21 365.295 312.199 365.018 300.057C364.741 287.915 361.362 276.045 355.204 265.577C349.045 255.11 340.31 246.391 329.831 240.252C319.352 234.113 307.476 230.756 295.333 230.502H295.276Z" stroke="#263238" stroke-width="2" stroke-linecap="round" stroke-linejoin="round"/>
<path d="M320.21 241.928C318.149 241.003 316.037 240.197 313.883 239.516" stroke="#263238" stroke-width="3" stroke-linecap="round" stroke-linejoin="round"/>
<path d="M343.928 260C343.928 260 338.124 250.782 325.367 244.512" stroke="#263238" stroke-width="3" stroke-linecap="round" stroke-linejoin="round"/>
<path d="M288.872 378.806V342.253C288.872 342.253 291.682 324.455 282.431 324.455C273.179 324.455 273.884 333.718 284.559 343.676C295.233 353.633 311.62 344.393 313.76 336.563C315.899 328.734 310.198 325.183 306.636 331.579C303.074 337.975 306.636 410.613 306.636 410.613" stroke="#263238" stroke-width="3" stroke-linecap="round" stroke-linejoin="round"/>
<path d="M269.082 212.01L273.02 224.403" stroke="#263238" stroke-width="3" stroke-linecap="round" stroke-linejoin="round"/>
<path d="M365.559 239.037L352.598 249.177" stroke="#263238" stroke-width="3" stroke-linecap="round" stroke-linejoin="round"/>
<path d="M317.503 202.963L312.621 224.403" stroke="#263238" stroke-width="3" stroke-linecap="round" stroke-linejoin="round"/>
<path d="M332.603 416.406H254.548C253.548 416.406 252.738 417.216 252.738 418.216V419.115C252.738 420.114 253.548 420.924 254.548 420.924H332.603C333.602 420.924 334.413 420.114 334.413 419.115V418.216C334.413 417.216 333.602 416.406 332.603 416.406Z" fill="#263238" stroke="#263238" stroke-linecap="round" stroke-linejoin="round"/>
<path d="M332.603 426.58H254.548C253.548 426.58 252.738 427.39 252.738 428.389V429.289C252.738 430.288 253.548 431.098 254.548 431.098H332.603C333.602 431.098 334.413 430.288 334.413 429.289V428.389C334.413 427.39 333.602 426.58 332.603 426.58Z" fill="#263238" stroke="#263238" stroke-linecap="round" stroke-linejoin="round"/>
<path d="M332.603 436.754H254.548C253.548 436.754 252.738 437.564 252.738 438.563V439.462C252.738 440.462 253.548 441.272 254.548 441.272H332.603C333.602 441.272 334.413 440.462 334.413 439.462V438.563C334.413 437.564 333.602 436.754 332.603 436.754Z" fill="#263238" stroke="#263238" stroke-linecap="round" stroke-linejoin="round"/>
<path d="M295.971 446.688H255.891L267.43 462.62C268.419 463.988 269.719 465.101 271.223 465.869C272.726 466.637 274.391 467.036 276.079 467.035H311.357C313.049 467.034 314.716 466.63 316.221 465.859C317.727 465.087 319.028 463.969 320.017 462.597L331.465 446.744L295.971 446.688Z" fill="#263238" stroke="#263238" stroke-linecap="round" stroke-linejoin="round"/>
<path d="M382.014 276.534C382.014 276.534 374.731 284.5 368.768 288.461C362.805 292.421 358.651 297.69 364.125 300.387C367.414 302.003 372.091 299.727 372.091 299.727C372.091 299.727 364.797 301.707 363.476 308.341C362.156 314.976 376.677 312.29 376.677 312.29C376.677 312.29 366.082 319.573 369.394 322.225C372.706 324.877 379.329 322.885 382.64 322.885C385.952 322.885 402.521 312.29 406.538 312.29C410.555 312.29 418.465 320.905 418.465 327.528C418.465 334.151 429.025 333.491 430.379 312.95C431.734 292.409 426.408 275.191 417.793 269.888C409.179 264.585 382.014 276.534 382.014 276.534Z" fill="white" stroke="#263238" stroke-miterlimit="10" stroke-linecap="round"/>
<path d="M378.043 299.033L404.479 289.156C404.479 289.156 416.086 286.641 424.416 300.365" stroke="#263238" stroke-miterlimit="10" stroke-linecap="round"/>
<path d="M382.676 306.987L406.574 303.016C406.574 303.016 417.18 302.356 423.803 314.942" stroke="#263238" stroke-miterlimit="10" stroke-linecap="round"/>
<path d="M411.832 322.886L393.942 326.869L404.537 369.259C404.537 369.259 413.823 387.808 416.463 395.763C419.103 403.718 446.279 430.165 446.279 430.165L478.075 399.689C478.075 399.689 463.508 382.471 462.848 378.488C462.188 374.505 459.525 328.143 459.525 321.52C459.525 314.897 446.279 298.988 446.279 298.988C446.279 298.988 440.839 291.192 438.188 277.946C435.536 264.7 423.394 259.249 416.748 259.909C410.102 260.569 391.951 262.56 384.668 267.875C377.384 273.189 370.75 279.801 377.384 281.792C388.389 285.093 406.392 270.412 415.075 280.563C419.058 285.195 423.758 305.599 424.418 308.296C424.418 308.296 421.106 320.883 411.832 322.863" fill="white"/>
<path d="M411.832 322.886L393.942 326.869L404.537 369.259C404.537 369.259 413.823 387.808 416.463 395.763C419.103 403.718 446.279 430.165 446.279 430.165L478.075 399.689C478.075 399.689 463.508 382.471 462.848 378.488C462.188 374.505 459.525 328.143 459.525 321.52C459.525 314.897 446.279 298.988 446.279 298.988C446.279 298.988 440.839 291.192 438.188 277.946C435.536 264.7 423.394 259.249 416.748 259.909C410.102 260.569 391.951 262.56 384.668 267.875C377.384 273.189 370.75 279.801 377.384 281.792C388.389 285.093 406.392 270.412 415.075 280.563C419.058 285.195 423.758 305.599 424.418 308.296C424.418 308.296 421.106 320.883 411.832 322.863" stroke="#263238" stroke-miterlimit="10" stroke-linecap="round"/>
<path d="M345.121 261.309C345.324 261.096 345.596 260.963 345.888 260.934C346.18 260.905 346.474 260.981 346.714 261.149L349.423 263.027C349.69 263.215 349.872 263.501 349.93 263.823C349.987 264.145 349.916 264.476 349.73 264.745C349.544 265.012 349.26 265.194 348.94 265.251C348.62 265.309 348.29 265.237 348.023 265.053L345.315 263.163C345.048 262.977 344.866 262.693 344.809 262.373C344.751 262.054 344.822 261.724 345.007 261.456C345.039 261.402 345.077 261.353 345.121 261.309Z" fill="#263238" stroke="#263238" stroke-miterlimit="10" stroke-linecap="round"/>
<path d="M348.226 263.493C348.686 263.002 349.308 262.693 349.977 262.624C350.646 262.555 351.318 262.73 351.868 263.118L360.357 267.488L443.705 322.317C444.415 322.81 445.021 323.439 445.489 324.168C445.957 324.896 446.276 325.709 446.429 326.561C446.582 327.413 446.566 328.286 446.382 329.132C446.198 329.977 445.849 330.778 445.355 331.489C444.861 332.199 444.232 332.806 443.503 333.273C442.775 333.741 441.962 334.06 441.11 334.213C440.259 334.367 439.385 334.351 438.539 334.166C437.694 333.982 436.893 333.633 436.182 333.139L355.293 273.462L348.682 267.772C348.378 267.562 348.119 267.293 347.919 266.983C347.719 266.672 347.583 266.325 347.517 265.961C347.452 265.597 347.458 265.225 347.537 264.864C347.616 264.503 347.765 264.161 347.976 263.857C348.047 263.728 348.131 263.606 348.226 263.493Z" fill="#407BFF" stroke="#263238" stroke-miterlimit="10" stroke-linecap="round"/>
<path d="M443.717 322.316L419.66 306.498C417.804 307.036 416.167 308.151 414.986 309.681C413.806 311.212 413.143 313.078 413.094 315.01C413.095 315.391 413.126 315.772 413.185 316.148L436.195 333.127C437.63 334.125 439.403 334.511 441.123 334.202C442.843 333.892 444.37 332.912 445.367 331.477C446.365 330.042 446.751 328.269 446.442 326.549C446.133 324.829 445.152 323.302 443.717 322.305V322.316Z" fill="#263238" stroke="#263238" stroke-miterlimit="10" stroke-linecap="round"/>
<path d="M416.508 395.763C409.225 385.168 399.95 358.004 396.024 352.701C392.098 347.398 381.389 335.631 377.417 323.75C373.446 311.869 370.84 302.356 370.84 292.41C370.84 282.463 379.386 280.756 386.009 291.363C392.633 301.969 400.576 318.254 400.576 318.254C400.576 318.254 405.879 324.877 416.508 322.885" fill="white"/>
<path d="M416.508 395.763C409.225 385.168 399.95 358.004 396.024 352.701C392.098 347.398 381.389 335.631 377.417 323.75C373.446 311.869 370.84 302.356 370.84 292.41C370.84 282.463 379.386 280.756 386.009 291.363C392.633 301.969 400.576 318.254 400.576 318.254C400.576 318.254 405.879 324.877 416.508 322.885" stroke="#263238" stroke-miterlimit="10" stroke-linecap="round"/>
<path d="M379.058 288.268L381.334 292.695C381.334 292.695 380.833 292.695 377.294 294.709C375.182 295.913 373.408 297.632 372.139 299.705C372.139 299.705 368.725 290.168 371.74 287.187C372.473 286.413 373.441 285.905 374.494 285.742C375.422 285.644 376.358 285.834 377.174 286.286C377.99 286.738 378.648 287.43 379.058 288.268Z" fill="white" stroke="#263238" stroke-miterlimit="10" stroke-linecap="round"/>
<path d="M471.134 386.193C471.134 386.193 453.597 391.383 444.493 400.487C438.464 406.631 432.82 413.141 427.594 419.981L443.844 438.826C443.844 438.826 457.5 423.224 466.604 416.066C472.805 411.304 479.318 406.962 486.098 403.07L471.134 386.193Z" fill="white" stroke="#263238" stroke-miterlimit="10" stroke-linecap="round"/>
<path d="M487.417 523.3L436.082 440.772C436.082 440.772 449.078 421.278 460.128 411.537C471.178 401.795 485.471 399.189 485.471 399.189L549.654 460.789" fill="#263238"/>
<path d="M487.417 523.3L436.082 440.772C436.082 440.772 449.078 421.278 460.128 411.537C471.178 401.795 485.471 399.189 485.471 399.189L549.654 460.789" stroke="#263238" stroke-miterlimit="10" stroke-linecap="round"/>
<path d="M388.512 312.37L389.65 312.256" stroke="#263238" stroke-miterlimit="10" stroke-linecap="round"/>
<path d="M378.602 317.878C378.602 317.878 379.205 314.248 386.499 312.723" stroke="#263238" stroke-miterlimit="10" stroke-linecap="round"/>
<path d="M386.52 315.318C386.52 315.318 386.008 316.855 380.898 318.903" stroke="#263238" stroke-miterlimit="10" stroke-linecap="round"/>
<path d="M386.316 310.459C383.759 310.86 381.329 311.846 379.215 313.338" stroke="#263238" stroke-miterlimit="10" stroke-linecap="round"/>
<path d="M226.189 197.273C226.189 197.273 236.932 198.149 243.737 200.413C250.542 202.678 257.234 202.689 255.993 196.749C255.254 193.164 250.588 190.877 250.588 190.877C250.588 190.877 256.631 195.429 262.673 192.391C268.716 189.352 257.677 179.497 257.677 179.497C257.677 179.497 269.945 183.389 270.002 179.144C270.059 174.9 264.426 170.894 262.389 168.276C260.352 165.659 241.825 159.093 239.378 155.963C236.932 152.834 238.855 141.26 244.09 137.186C249.325 133.112 242.292 125.18 225.324 136.72C208.357 148.259 198.012 163.042 199.048 173.136C200.083 183.23 226.189 197.273 226.189 197.273Z" fill="white" stroke="#263238" stroke-miterlimit="10" stroke-linecap="round"/>
<path d="M246.413 186.633L222.379 171.839C222.379 171.839 213.275 164.225 218.965 149.227" stroke="#263238" stroke-miterlimit="10" stroke-linecap="round"/>
<path d="M249.838 178.042L232.063 161.655C232.063 161.655 225.03 153.689 230.925 140.738" stroke="#263238" stroke-miterlimit="10" stroke-linecap="round"/>
<path d="M244.5 145.266L258.611 156.953L285.639 122.552C285.639 122.552 303.05 114.734 307.636 107.758C312.222 100.782 316.126 63.0001 316.126 63.0001L272.438 56.9004C272.438 56.9004 267.988 79.0231 265.28 82.0161C262.571 85.009 219.396 104.355 214.172 108.429C208.949 112.503 204.522 132.714 204.522 132.714C202.193 140.931 199.146 148.928 195.418 156.612C185.461 176.777 187.236 175.23 191.822 180.055C196.408 184.88 207.572 194.689 216.232 197.193C224.892 199.697 235.658 208.641 233.245 197.705C230.764 186.496 206.457 181.773 209.131 168.709C210.349 162.723 223.606 146.461 225.291 144.31C225.291 144.31 237.251 139.201 244.523 145.3" fill="white"/>
<path d="M244.5 145.266L258.611 156.953L285.639 122.552C285.639 122.552 303.05 114.734 307.636 107.758C312.222 100.782 316.126 63.0001 316.126 63.0001L272.438 56.9004C272.438 56.9004 267.988 79.0231 265.28 82.0161C262.571 85.009 219.396 104.355 214.172 108.429C208.949 112.503 204.522 132.714 204.522 132.714C202.193 140.931 199.146 148.928 195.418 156.612C185.461 176.777 187.236 175.23 191.822 180.055C196.408 184.88 207.572 194.689 216.232 197.193C224.892 199.697 235.658 208.641 233.245 197.705C230.764 186.496 206.457 181.773 209.131 168.709C210.349 162.723 223.606 146.461 225.291 144.31C225.291 144.31 237.251 139.201 244.523 145.3" stroke="#263238" stroke-miterlimit="10" stroke-linecap="round"/>
<path d="M236.843 235.738C236.548 235.717 236.271 235.59 236.062 235.381C235.853 235.172 235.726 234.895 235.705 234.6L235.534 231.3C235.512 231.132 235.524 230.961 235.571 230.798C235.617 230.635 235.697 230.483 235.805 230.353C235.913 230.222 236.047 230.115 236.198 230.038C236.349 229.962 236.515 229.918 236.684 229.908C236.853 229.899 237.023 229.924 237.181 229.984C237.34 230.043 237.485 230.134 237.607 230.252C237.729 230.37 237.825 230.512 237.889 230.669C237.954 230.825 237.985 230.994 237.981 231.163L238.163 234.463C238.182 234.786 238.073 235.103 237.86 235.345C237.647 235.588 237.347 235.737 237.025 235.761L236.843 235.738Z" fill="#263238" stroke="#263238" stroke-miterlimit="10" stroke-linecap="round"/>
<path d="M236.706 231.926C236.035 231.866 235.409 231.566 234.942 231.081C234.476 230.596 234.201 229.958 234.168 229.286L232.415 219.897L224.529 120.448C224.435 118.702 225.039 116.99 226.208 115.689C227.376 114.388 229.014 113.605 230.76 113.511C232.506 113.418 234.217 114.022 235.518 115.19C236.819 116.359 237.602 117.996 237.696 119.742L240.245 220.239L239.767 228.99C239.787 229.358 239.734 229.726 239.611 230.073C239.489 230.42 239.299 230.74 239.053 231.014C238.806 231.288 238.508 231.51 238.176 231.669C237.844 231.827 237.483 231.918 237.115 231.937C236.979 231.945 236.842 231.941 236.706 231.926Z" fill="#407BFF" stroke="#263238" stroke-miterlimit="10" stroke-linecap="round"/>
<path d="M224.47 120.447L226.746 149.147C228.307 150.289 230.19 150.905 232.123 150.905C234.057 150.905 235.94 150.289 237.5 149.147C237.803 148.91 238.089 148.652 238.354 148.373L237.637 119.787C237.543 118.041 236.76 116.404 235.459 115.235C234.159 114.067 232.447 113.463 230.701 113.556C228.955 113.65 227.318 114.433 226.149 115.734C224.981 117.035 224.377 118.746 224.47 120.492V120.447Z" fill="#263238" stroke="#263238" stroke-miterlimit="10" stroke-linecap="round"/>
<path d="M307.578 107.713C303.845 120.015 287.367 136.925 284.499 142.888C278.069 156.399 270.628 169.406 262.24 181.797C259.407 186.041 256.345 186.645 254.479 188.169C251.748 190.445 250.348 192.778 245.682 196.397C237.841 202.497 231.241 196.818 235.543 185.086C239.844 173.353 247.742 157.045 247.742 157.045C247.742 157.045 249.722 148.795 241.654 141.648" fill="white"/>
<path d="M307.578 107.713C303.845 120.015 287.367 136.925 284.499 142.888C278.069 156.399 270.628 169.406 262.24 181.797C259.407 186.041 256.345 186.645 254.479 188.169C251.748 190.445 250.348 192.778 245.682 196.397C237.841 202.497 231.241 196.818 235.543 185.086C239.844 173.353 247.742 157.045 247.742 157.045C247.742 157.045 249.722 148.795 241.654 141.648" stroke="#263238" stroke-miterlimit="10" stroke-linecap="round"/>
<path d="M237.274 192.391L239.414 187.93C239.414 187.93 239.721 188.328 243.488 189.876C245.733 190.803 248.175 191.148 250.589 190.877C250.589 190.877 245.161 199.435 240.916 198.9C239.858 198.8 238.864 198.347 238.094 197.614C237.43 196.937 236.995 196.07 236.848 195.134C236.701 194.197 236.85 193.238 237.274 192.391Z" fill="white" stroke="#263238" stroke-miterlimit="10" stroke-linecap="round"/>
<path d="M268.75 21.2474L259.703 80.0023C259.703 80.0023 270.617 89.5956 285.115 92.1789C299.613 94.7622 326.083 98.6769 326.083 98.6769L349.252 21.2246" fill="#263238"/>
<path d="M268.75 21.2474L259.703 80.0023C259.703 80.0023 270.617 89.5956 285.115 92.1789C299.613 94.7622 326.083 98.6769 326.083 98.6769L349.252 21.2246" stroke="#263238" stroke-miterlimit="10" stroke-linecap="round"/>
<path d="M321.417 85.5446C321.417 86.4292 321.155 87.2938 320.664 88.0293C320.172 88.7648 319.474 89.338 318.656 89.6765C317.839 90.015 316.94 90.1036 316.072 89.931C315.205 89.7584 314.408 89.3325 313.783 88.707C313.157 88.0816 312.731 87.2847 312.559 86.4171C312.386 85.5496 312.475 84.6503 312.813 83.8331C313.152 83.0159 313.725 82.3174 314.46 81.826C315.196 81.3346 316.06 81.0723 316.945 81.0723C318.131 81.0723 319.269 81.5435 320.107 82.3822C320.946 83.2209 321.417 84.3585 321.417 85.5446Z" fill="white" stroke="#263238" stroke-width="2" stroke-linecap="round" stroke-linejoin="round"/>
<path d="M247.184 177.881L246.422 177.107" stroke="#263238" stroke-miterlimit="10" stroke-linecap="round"/>
<path d="M257.61 182.331C257.61 182.331 254.378 184.083 248.699 179.27" stroke="#263238" stroke-miterlimit="10" stroke-linecap="round"/>
<path d="M250.727 177.642C250.727 177.642 252.251 177.107 257.008 179.918" stroke="#263238" stroke-miterlimit="10" stroke-linecap="round"/>
<path d="M247.027 180.807C248.913 182.571 251.179 183.879 253.65 184.63" stroke="#263238" stroke-miterlimit="10" stroke-linecap="round"/>
<path d="M250.294 372.32C250.294 372.32 251.33 383.051 253.708 389.822C256.087 396.593 256.223 403.285 250.226 402.135C246.63 401.441 244.274 396.821 244.274 396.821C244.274 396.821 248.906 402.795 245.97 408.872C243.034 414.949 232.997 404.07 232.997 404.07C232.997 404.07 237.071 416.269 232.837 416.394C228.604 416.52 224.496 410.943 221.856 408.952C219.215 406.96 212.365 388.468 209.19 386.124C206.015 383.779 194.487 385.816 190.504 391.108C186.521 396.4 178.441 389.492 189.753 372.297C201.064 355.102 215.665 344.53 225.725 345.486C235.785 346.442 250.294 372.32 250.294 372.32Z" fill="white" stroke="#263238" stroke-miterlimit="10" stroke-linecap="round"/>
<path d="M239.905 392.699L224.747 368.881C224.747 368.881 216.997 359.88 202.078 365.831" stroke="#263238" stroke-miterlimit="10" stroke-linecap="round"/>
<path d="M231.413 396.251L214.764 378.715C214.764 378.715 206.695 371.807 193.836 377.872" stroke="#263238" stroke-miterlimit="10" stroke-linecap="round"/>
<path d="M198.572 391.392L210.452 405.344L176.46 432.815C176.46 432.815 157.888 442.033 150.992 446.79C144.096 451.546 106.439 456.337 106.439 456.337L99.4062 412.866C99.4062 412.866 121.415 407.893 124.328 405.116C127.242 402.339 157.33 366.913 161.279 361.622C165.228 356.33 185.428 351.607 185.428 351.607C185.428 351.607 194.463 348.66 204.557 339.681C214.652 330.702 227.636 333.672 232.529 338.19C237.423 342.708 250.738 355.26 253.366 363.841C255.995 372.421 257.292 381.742 250.806 379.34C240.029 375.346 234.487 352.802 221.445 355.659C215.482 356.967 199.414 370.453 197.297 372.182C197.297 372.182 192.358 384.222 198.572 391.392Z" fill="white" stroke="#263238" stroke-miterlimit="10" stroke-linecap="round"/>
<path d="M288.905 382.368C288.884 382.073 288.757 381.795 288.548 381.586C288.339 381.377 288.062 381.251 287.767 381.23L284.467 381.104C284.305 381.098 284.144 381.124 283.993 381.18C283.842 381.237 283.703 381.322 283.584 381.432C283.466 381.542 283.37 381.674 283.303 381.821C283.236 381.968 283.198 382.126 283.192 382.288C283.186 382.449 283.212 382.61 283.268 382.762C283.325 382.913 283.41 383.052 283.52 383.17C283.63 383.289 283.762 383.384 283.909 383.451C284.056 383.519 284.214 383.556 284.376 383.562L287.676 383.688C287.994 383.697 288.303 383.585 288.54 383.373C288.778 383.161 288.924 382.867 288.951 382.55C288.942 382.487 288.927 382.426 288.905 382.368Z" fill="#263238" stroke="#263238" stroke-miterlimit="10" stroke-linecap="round"/>
<path d="M285.105 382.266C285.032 381.596 284.72 380.975 284.227 380.515C283.734 380.055 283.092 379.788 282.419 379.762L273.008 378.146L173.456 371.739C172.59 371.706 171.727 371.843 170.915 372.143C170.102 372.443 169.357 372.9 168.721 373.488C168.086 374.076 167.572 374.784 167.21 375.57C166.848 376.357 166.644 377.207 166.61 378.072C166.577 378.938 166.714 379.801 167.014 380.613C167.314 381.426 167.771 382.171 168.359 382.806C168.947 383.442 169.655 383.956 170.441 384.318C171.228 384.68 172.078 384.884 172.943 384.917L273.463 385.964L282.203 385.373C282.947 385.4 283.671 385.132 284.217 384.626C284.763 384.121 285.086 383.419 285.116 382.676C285.124 382.539 285.12 382.402 285.105 382.266Z" fill="#407BFF" stroke="#263238" stroke-miterlimit="10" stroke-linecap="round"/>
<path d="M173.457 371.739L202.18 373.594C203.34 375.141 203.977 377.017 204 378.951C204.022 380.884 203.429 382.775 202.305 384.348C202.066 384.65 201.811 384.938 201.542 385.213L172.979 384.917C172.113 384.884 171.263 384.68 170.477 384.318C169.69 383.956 168.983 383.442 168.394 382.806C167.806 382.171 167.349 381.426 167.049 380.613C166.749 379.801 166.612 378.938 166.646 378.072C166.679 377.207 166.883 376.357 167.245 375.57C167.607 374.784 168.121 374.076 168.757 373.488C169.392 372.9 170.137 372.443 170.95 372.143C171.762 371.843 172.625 371.706 173.491 371.739H173.457Z" fill="#263238" stroke="#263238" stroke-miterlimit="10" stroke-linecap="round"/>
<path d="M150.992 446.789C163.192 442.715 186.953 426.612 193.314 424.769C199.676 422.925 215.244 419.989 225.599 412.865C235.955 405.741 243.728 399.733 249.714 391.79C255.7 383.846 249.919 377.348 238.243 381.821C226.567 386.293 210.35 394.475 210.35 394.475C210.35 394.475 202.134 396.569 194.862 388.603" fill="white"/>
<path d="M150.992 446.789C163.192 442.715 186.953 426.612 193.314 424.769C199.676 422.925 215.244 419.989 225.599 412.865C235.955 405.741 243.728 399.733 249.714 391.79C255.7 383.846 249.919 377.348 238.243 381.821C226.567 386.293 210.35 394.475 210.35 394.475C210.35 394.475 202.134 396.569 194.862 388.603" stroke="#263238" stroke-miterlimit="10" stroke-linecap="round"/>
<path d="M245.583 383.505L241.145 385.701C241.145 385.701 241.554 386.009 243.159 389.741C244.132 391.974 244.523 394.417 244.297 396.842C244.297 396.842 252.775 391.289 252.172 387.044C252.055 385.987 251.591 384.998 250.852 384.233C250.161 383.575 249.28 383.15 248.335 383.019C247.389 382.889 246.426 383.059 245.583 383.505Z" fill="white" stroke="#263238" stroke-miterlimit="10" stroke-linecap="round"/>
<path d="M121.972 403.5C121.972 403.5 132.851 418.214 134.638 430.96C135.753 439.492 136.338 448.085 136.39 456.69L103.172 464.656C103.172 464.656 101.67 443.99 98.7111 432.792C96.6276 425.257 94.0424 417.87 90.9727 410.681L121.972 403.5Z" fill="white" stroke="#263238" stroke-miterlimit="10" stroke-linecap="round"/>
<path d="M123.486 429.174C120.527 414.744 110.684 404.059 110.684 404.059L32.082 416.577V505.341L125.079 466.979C125.079 466.979 126.434 443.604 123.486 429.174Z" fill="#263238" stroke="#263238" stroke-miterlimit="10" stroke-linecap="round"/>
<path d="M102.421 467.717C102.434 468.412 102.24 469.094 101.863 469.677C101.485 470.26 100.942 470.717 100.303 470.989C99.6641 471.261 98.9583 471.336 98.2765 471.204C97.5947 471.071 96.9681 470.738 96.477 470.247C95.9859 469.756 95.6529 469.13 95.5207 468.448C95.3885 467.766 95.4632 467.06 95.7352 466.421C96.0072 465.782 96.464 465.239 97.047 464.862C97.63 464.484 98.3126 464.29 99.0069 464.303C99.9069 464.321 100.765 464.686 101.402 465.323C102.038 465.959 102.403 466.817 102.421 467.717Z" fill="white"/>
<path d="M112.187 463.576C112.185 464.264 111.979 464.936 111.595 465.507C111.211 466.078 110.666 466.523 110.03 466.785C109.393 467.047 108.693 467.114 108.019 466.978C107.344 466.843 106.724 466.51 106.239 466.023C105.753 465.535 105.422 464.915 105.289 464.239C105.155 463.564 105.225 462.865 105.489 462.229C105.753 461.593 106.199 461.05 106.771 460.668C107.344 460.286 108.017 460.082 108.705 460.082C109.163 460.082 109.617 460.172 110.04 460.348C110.463 460.524 110.848 460.781 111.171 461.106C111.495 461.431 111.751 461.816 111.925 462.24C112.1 462.663 112.189 463.117 112.187 463.576Z" fill="white"/>
<path d="M223.504 397.036L222.73 396.285" stroke="#263238" stroke-miterlimit="10" stroke-linecap="round"/>
<path d="M228.116 407.404C228.116 407.404 229.823 404.138 224.918 398.527" stroke="#263238" stroke-miterlimit="10" stroke-linecap="round"/>
<path d="M223.335 400.576C223.335 400.576 222.811 402.112 225.667 406.824" stroke="#263238" stroke-miterlimit="10" stroke-linecap="round"/>
<path d="M226.465 396.832C228.263 398.693 229.606 400.944 230.391 403.41" stroke="#263238" stroke-miterlimit="10" stroke-linecap="round"/>
</svg>
