<svg width="569" height="569" viewBox="0 0 569 569" fill="none" xmlns="http://www.w3.org/2000/svg">
<path d="M569 435.172H0V435.456H569V435.172Z" fill="#EBEBEB"/>
<path d="M271.3 384.416H51.5527C49.8293 384.416 48.1765 383.732 46.9579 382.513C45.7393 381.294 45.0547 379.642 45.0547 377.918V69.0309C45.0697 67.3174 45.7609 65.6792 46.9779 64.4729C48.1949 63.2666 49.8391 62.5898 51.5527 62.5898H271.3C272.154 62.5898 272.999 62.7579 273.787 63.0845C274.576 63.411 275.292 63.8897 275.895 64.4931C276.499 65.0965 276.977 65.8128 277.304 66.6012C277.63 67.3895 277.798 68.2345 277.798 69.0878V377.918C277.798 378.772 277.63 379.617 277.304 380.405C276.977 381.193 276.499 381.91 275.895 382.513C275.292 383.116 274.576 383.595 273.787 383.922C272.999 384.248 272.154 384.416 271.3 384.416ZM51.5527 62.8174C49.9057 62.8205 48.327 63.4761 47.1624 64.6407C45.9978 65.8053 45.3422 67.3839 45.3392 69.0309V377.918C45.3422 379.565 45.9978 381.144 47.1624 382.309C48.327 383.473 49.9057 384.129 51.5527 384.132H271.3C272.947 384.129 274.526 383.473 275.691 382.309C276.855 381.144 277.511 379.565 277.514 377.918V69.0309C277.511 67.3839 276.855 65.8053 275.691 64.6407C274.526 63.4761 272.947 62.8205 271.3 62.8174H51.5527Z" fill="#EBEBEB"/>
<path d="M517.449 384.416H297.701C295.978 384.416 294.325 383.732 293.106 382.513C291.888 381.294 291.203 379.642 291.203 377.918V69.0309C291.218 67.3174 291.909 65.6792 293.126 64.4729C294.343 63.2666 295.988 62.5898 297.701 62.5898H517.449C519.172 62.5898 520.825 63.2745 522.044 64.4931C523.262 65.7117 523.947 67.3645 523.947 69.0878V377.918C523.947 379.642 523.262 381.294 522.044 382.513C520.825 383.732 519.172 384.416 517.449 384.416ZM297.701 62.8174C296.054 62.8205 294.475 63.4761 293.311 64.6407C292.146 65.8053 291.491 67.3839 291.488 69.0309V377.918C291.491 379.565 292.146 381.144 293.311 382.309C294.475 383.473 296.054 384.129 297.701 384.132H517.449C519.096 384.129 520.675 383.473 521.839 382.309C523.004 381.144 523.659 379.565 523.662 377.918V69.0309C523.659 67.3839 523.004 65.8053 521.839 64.6407C520.675 63.4761 519.096 62.8205 517.449 62.8174H297.701Z" fill="#EBEBEB"/>
<path d="M569 435.172H0V435.456H569V435.172Z" fill="#EBEBEB"/>
<path d="M511.987 453.482H474.297V453.767H511.987V453.482Z" fill="#EBEBEB"/>
<path d="M376.928 456.576H367.039V456.861H376.928V456.576Z" fill="#EBEBEB"/>
<path d="M473.159 442.92H451.32V443.204H473.159V442.92Z" fill="#EBEBEB"/>
<path d="M108.849 444.832H59.6992V445.117H108.849V444.832Z" fill="#EBEBEB"/>
<path d="M256.221 449.635H149.613V449.919H256.221V449.635Z" fill="#EBEBEB"/>
<path d="M199.968 112.893C206.935 106.129 207.101 94.9978 200.337 88.0304C193.573 81.0631 182.442 80.898 175.475 87.6616C168.508 94.4252 168.342 105.556 175.106 112.524C181.87 119.491 193.001 119.656 199.968 112.893Z" fill="#E0E0E0"/>
<path d="M197.217 116.87C205.994 112.717 209.743 102.235 205.591 93.4578C201.438 84.6803 190.956 80.9313 182.178 85.0841C173.401 89.237 169.652 99.7191 173.805 108.497C177.957 117.274 188.44 121.023 197.217 116.87Z" fill="#F0F0F0"/>
<path d="M202.096 105.412C201.219 107.864 199.635 110.001 197.544 111.553C195.453 113.105 192.948 114.001 190.347 114.13C187.746 114.258 185.166 113.613 182.932 112.274C180.698 110.936 178.911 108.966 177.797 106.612C176.683 104.258 176.292 101.627 176.673 99.0508C177.055 96.4748 178.191 94.0697 179.94 92.1397C181.688 90.2097 183.969 88.8415 186.495 88.208C189.021 87.5745 191.678 87.7043 194.13 88.5809C195.758 89.1629 197.256 90.06 198.537 91.2208C199.819 92.3817 200.859 93.7836 201.599 95.3465C202.339 96.9094 202.763 98.6027 202.849 100.33C202.934 102.057 202.678 103.784 202.096 105.412Z" fill="#E6E6E6"/>
<path d="M196.1 104.355C195.836 103.576 195.334 102.9 194.666 102.421C195.339 102.341 195.975 102.072 196.501 101.645C197.027 101.218 197.421 100.65 197.636 100.008C197.837 99.4877 197.904 98.9252 197.83 98.3723C197.757 97.8194 197.545 97.2939 197.215 96.8443C196.6 96.0259 195.785 95.3794 194.848 94.9666L195.212 93.9538L193.642 93.3962L193.3 94.3407L191.741 93.7831L192.071 92.8386L190.512 92.2696L190.171 93.2141L186.757 92.0078L181.738 106.039L185.152 107.246L184.8 108.247L186.37 108.805L186.723 107.803L188.282 108.372L187.929 109.362L189.499 109.92L189.864 108.884C191.048 109.294 192.321 109.381 193.551 109.135C194.119 108.997 194.643 108.715 195.072 108.317C195.5 107.918 195.819 107.416 195.997 106.859C196.314 106.06 196.351 105.177 196.1 104.355ZM189.135 95.5925L192.322 96.7305C192.972 96.9103 193.554 97.2786 193.995 97.7889C194.137 98 194.229 98.2419 194.261 98.4948C194.293 98.7477 194.266 99.0047 194.18 99.245C194.095 99.4853 193.955 99.7022 193.77 99.8782C193.586 100.054 193.362 100.184 193.118 100.258C192.45 100.381 191.761 100.302 191.138 100.031L187.918 98.8927L189.135 95.5925ZM191.73 106.358C191.024 106.464 190.302 106.37 189.647 106.085L185.858 104.697L187.098 101.283L190.888 102.637C192.618 103.251 193.266 104.139 192.857 105.3C192.778 105.559 192.633 105.794 192.435 105.98C192.237 106.165 191.994 106.296 191.73 106.358Z" fill="white"/>
<path d="M276 109.35V114.607C279.289 114.87 282.412 116.164 284.922 118.306L288.632 114.584C285.129 111.47 280.679 109.626 276 109.35Z" fill="#E6E6E6"/>
<path d="M273.461 145.972C269.739 145.671 266.246 144.057 263.604 141.417C260.963 138.778 259.346 135.286 259.042 131.564H253.773C254.082 136.681 256.254 141.507 259.879 145.131C263.505 148.754 268.333 150.924 273.449 151.229L273.461 145.972Z" fill="#F5F5F5"/>
<path d="M259.042 129.026C259.344 125.302 260.959 121.807 263.601 119.166C266.242 116.524 269.737 114.908 273.461 114.607V109.35C268.341 109.655 263.511 111.825 259.883 115.451C256.255 119.077 254.082 123.906 253.773 129.026H259.042Z" fill="#E0E0E0"/>
<path d="M290.43 116.383L286.709 120.104C288.589 122.308 289.823 124.988 290.276 127.849C290.728 130.709 290.382 133.64 289.274 136.316C288.166 138.992 286.34 141.31 283.997 143.014C281.655 144.718 278.887 145.741 276 145.971V151.228C279.926 150.991 283.705 149.654 286.908 147.371C290.11 145.089 292.606 141.951 294.111 138.318C295.616 134.684 296.068 130.701 295.417 126.822C294.767 122.944 293.038 119.326 290.43 116.383Z" fill="#EBEBEB"/>
<path d="M96.9453 171.634L97.4347 183.321L125.452 175.776L139.324 158.524L154.926 152.663L156.474 156.794L168.309 144.06L150.488 138.336L152.252 143.013L136.684 148.635L123.301 166.285L96.9453 171.634Z" fill="#E6E6E6"/>
<path d="M446.164 183.536C447.958 186.729 448.765 190.381 448.483 194.032C448.202 197.683 446.844 201.168 444.581 204.047C442.319 206.926 439.254 209.07 435.773 210.207C432.292 211.344 428.553 211.424 425.027 210.436C421.501 209.447 418.347 207.436 415.965 204.656C413.582 201.876 412.077 198.451 411.64 194.816C411.203 191.18 411.854 187.497 413.511 184.231C415.167 180.966 417.755 178.264 420.946 176.469C423.066 175.277 425.4 174.514 427.815 174.224C430.229 173.934 432.677 174.122 435.019 174.779C437.361 175.435 439.551 176.546 441.463 178.049C443.375 179.551 444.973 181.416 446.164 183.536Z" fill="#E6E6E6"/>
<path d="M444.599 205.101C452.077 198.125 452.484 186.409 445.509 178.932C438.533 171.454 426.817 171.047 419.34 178.023C411.862 184.998 411.455 196.714 418.431 204.191C425.406 211.669 437.122 212.076 444.599 205.101Z" fill="#F0F0F0"/>
<path d="M444.511 197.314C447.725 190.366 444.699 182.128 437.752 178.913C430.804 175.699 422.566 178.725 419.352 185.672C416.137 192.62 419.163 200.858 426.111 204.073C433.058 207.287 441.296 204.261 444.511 197.314Z" fill="#E6E6E6"/>
<path d="M438.699 191.116C440.667 193.517 439.837 196.339 436.696 198.478L437.834 200.754L435.831 201.892L434.693 199.616C432.888 200.439 430.917 200.829 428.935 200.754L428.445 197.761C430.106 197.864 431.767 197.572 433.293 196.908L431.472 193.494C429.196 194.029 426.602 194.518 424.804 192.356C422.846 189.955 423.666 187.087 426.932 184.959L425.794 182.683L427.797 181.545L429.003 183.821C430.434 183.167 431.982 182.811 433.555 182.774L434.158 185.71C432.868 185.686 431.587 185.938 430.403 186.45L432.303 190.034C434.477 189.5 436.992 189.033 438.699 191.116ZM429.913 190.603L428.366 187.679C427.387 188.521 427.228 189.443 427.74 190.137C428.252 190.831 429.026 190.74 429.913 190.603ZM435.854 193.46C435.584 193.208 435.251 193.035 434.89 192.958C434.529 192.882 434.154 192.906 433.805 193.027L435.285 195.804C436.184 194.951 436.4 194.097 435.854 193.46Z" fill="white"/>
<path d="M368.234 81.5039L350.777 110.477L368.234 121.027V81.5039Z" fill="#F5F5F5"/>
<path d="M350.777 110.476L368.234 102.646V121.025L350.777 110.476Z" fill="#EBEBEB"/>
<path d="M368.234 81.5039L385.691 110.477L368.234 121.027V81.5039Z" fill="#EBEBEB"/>
<path d="M385.691 110.476L368.234 102.646V121.025L385.691 110.476Z" fill="#E0E0E0"/>
<path d="M350.719 115.758L368.289 140.521L368.233 126.227L350.719 115.758Z" fill="#F5F5F5"/>
<path d="M385.746 115.758L368.164 140.521L368.232 126.227L385.746 115.758Z" fill="#EBEBEB"/>
<path d="M126.192 444.832H118.988V445.117H126.192V444.832Z" fill="#EBEBEB"/>
<path d="M286.936 485.936C408.796 485.936 507.583 480.169 507.583 473.054C507.583 465.939 408.796 460.172 286.936 460.172C165.076 460.172 66.2891 465.939 66.2891 473.054C66.2891 480.169 165.076 485.936 286.936 485.936Z" fill="#F5F5F5"/>
<path d="M315.861 472.133H84.2101C79.4612 468.793 76.1103 463.819 74.7982 458.163C73.486 452.507 74.3047 446.566 77.0976 441.476C78.1479 439.417 79.7168 437.668 81.6496 436.4C79.059 431.515 78.2848 425.87 79.4647 420.468C80.671 415.381 84.8816 411.933 89.2287 409.157C86.0106 390.537 89.6493 371.381 99.4707 355.238C109.235 339.374 125.337 329.064 143.045 324.046C142.235 317.254 142.863 310.368 144.887 303.835C146.911 297.302 150.286 291.267 154.793 286.123C159.3 280.979 164.838 276.839 171.048 273.974C177.258 271.108 184.002 269.581 190.841 269.49C191.349 264.669 192.9 260.016 195.386 255.854C197.872 251.692 201.233 248.121 205.236 245.387C209.176 242.707 213.667 240.945 218.378 240.23C223.089 239.515 227.9 239.865 232.457 241.256C233.163 237.842 234.636 234.633 236.766 231.873C238.895 229.113 241.625 226.873 244.748 225.324C247.873 223.85 251.3 223.124 254.755 223.205C258.21 223.286 261.598 224.171 264.651 225.791C273.96 223.15 284.202 228.123 288.424 236.977C292.646 245.831 289.824 257.575 282.029 263.413C290.825 276.523 290.438 297.052 281.096 309.764C286.239 311.152 288.47 318.526 289.232 323.898C291.434 339.51 288.78 355.422 281.63 369.474C291.121 369.019 300.305 376.098 305.961 383.882C308.767 387.833 310.594 392.394 311.293 397.19C311.991 401.986 311.541 406.879 309.978 411.467C315.486 411.125 320.163 415.484 322.872 420.366C324.903 424.42 326.205 428.8 326.718 433.305C326.935 433.755 327.099 434.228 327.207 434.716C330.155 447.666 325.614 463.064 315.861 472.133Z" fill="#407BFF"/>
<g opacity="0.6">
<path d="M315.861 472.133H84.2101C79.4612 468.793 76.1103 463.819 74.7982 458.163C73.486 452.507 74.3047 446.566 77.0976 441.476C78.1479 439.417 79.7168 437.668 81.6496 436.4C79.059 431.515 78.2848 425.87 79.4647 420.468C80.671 415.381 84.8816 411.933 89.2287 409.157C86.0106 390.537 89.6493 371.381 99.4707 355.238C109.235 339.374 125.337 329.064 143.045 324.046C142.235 317.254 142.863 310.368 144.887 303.835C146.911 297.302 150.286 291.267 154.793 286.123C159.3 280.979 164.838 276.839 171.048 273.974C177.258 271.108 184.002 269.581 190.841 269.49C191.349 264.669 192.9 260.016 195.386 255.854C197.872 251.692 201.233 248.121 205.236 245.387C209.176 242.707 213.667 240.945 218.378 240.23C223.089 239.515 227.9 239.865 232.457 241.256C233.163 237.842 234.636 234.633 236.766 231.873C238.895 229.113 241.625 226.873 244.748 225.324C247.873 223.85 251.3 223.124 254.755 223.205C258.21 223.286 261.598 224.171 264.651 225.791C273.96 223.15 284.202 228.123 288.424 236.977C292.646 245.831 289.824 257.575 282.029 263.413C290.825 276.523 290.438 297.052 281.096 309.764C286.239 311.152 288.47 318.526 289.232 323.898C291.434 339.51 288.78 355.422 281.63 369.474C291.121 369.019 300.305 376.098 305.961 383.882C308.767 387.833 310.594 392.394 311.293 397.19C311.991 401.986 311.541 406.879 309.978 411.467C315.486 411.125 320.163 415.484 322.872 420.366C324.903 424.42 326.205 428.8 326.718 433.305C326.935 433.755 327.099 434.228 327.207 434.716C330.155 447.666 325.614 463.064 315.861 472.133Z" fill="white"/>
</g>
<path d="M260.28 206.684L331.872 195.065C332.123 195.027 332.379 195.056 332.615 195.149C332.851 195.242 333.058 195.395 333.216 195.594C333.374 195.792 333.477 196.028 333.515 196.279C333.552 196.53 333.524 196.786 333.431 197.022L306.199 264.244C306.107 264.477 305.955 264.683 305.758 264.838C305.561 264.994 305.326 265.095 305.078 265.131C304.829 265.167 304.576 265.136 304.343 265.042C304.11 264.949 303.906 264.795 303.752 264.597L259.37 208.994C259.213 208.797 259.111 208.562 259.074 208.313C259.037 208.064 259.066 207.81 259.158 207.576C259.251 207.342 259.403 207.136 259.6 206.98C259.797 206.823 260.031 206.721 260.28 206.684Z" fill="#407BFF"/>
<path opacity="0.2" d="M260.28 206.684L331.872 195.065C332.123 195.027 332.379 195.056 332.615 195.149C332.851 195.242 333.058 195.395 333.216 195.594C333.374 195.792 333.477 196.028 333.515 196.279C333.552 196.53 333.524 196.786 333.431 197.022L306.199 264.244C306.107 264.477 305.955 264.683 305.758 264.838C305.561 264.994 305.326 265.095 305.078 265.131C304.829 265.167 304.576 265.136 304.343 265.042C304.11 264.949 303.906 264.795 303.752 264.597L259.37 208.994C259.213 208.797 259.111 208.562 259.074 208.313C259.037 208.064 259.066 207.81 259.158 207.576C259.251 207.342 259.403 207.136 259.6 206.98C259.797 206.823 260.031 206.721 260.28 206.684Z" fill="white"/>
<path d="M265.39 233.802L269.851 228.033L265.971 223.162L259.348 226.235C259.806 227.832 260.577 229.323 261.614 230.622C262.651 231.921 263.934 233.001 265.39 233.802Z" fill="#263238"/>
<path opacity="0.2" d="M265.973 223.162L264.414 223.879C265.327 226.094 266.851 228.004 268.807 229.387L269.854 228.033L265.973 223.162Z" fill="white"/>
<path opacity="0.4" d="M262.752 224.654L261.512 225.235C262.576 227.949 264.436 230.278 266.849 231.915L267.68 230.834C265.653 229.112 263.98 227.013 262.752 224.654Z" fill="white"/>
<path d="M272.4 230.423C270.425 229.341 268.682 227.88 267.274 226.122C265.866 224.364 264.82 222.345 264.195 220.181L305.357 187.338C307.659 185.495 310.303 184.125 313.137 183.309C315.971 182.492 318.939 182.245 321.869 182.581C321.546 185.512 320.646 188.349 319.22 190.929C317.794 193.509 315.871 195.781 313.562 197.614L272.4 230.423Z" fill="#407BFF"/>
<path d="M305.357 187.304L266.562 218.269C268.068 222.505 270.953 226.112 274.756 228.511L313.562 197.546C315.871 195.713 317.794 193.441 319.22 190.86C320.646 188.28 321.546 185.443 321.869 182.513C318.937 182.181 315.968 182.434 313.134 183.256C310.3 184.078 307.656 185.454 305.357 187.304Z" fill="#407BFF"/>
<path opacity="0.5" d="M305.357 187.304L266.562 218.269C268.068 222.505 270.953 226.112 274.756 228.511L313.562 197.546C315.871 195.713 317.794 193.441 319.22 190.86C320.646 188.28 321.546 185.443 321.869 182.513C318.937 182.181 315.968 182.434 313.134 183.256C310.3 184.078 307.656 185.454 305.357 187.304Z" fill="white"/>
<path d="M305.357 187.304L303.582 188.726C305.305 192.837 308.143 196.385 311.776 198.968L313.562 197.546C315.871 195.713 317.794 193.441 319.22 190.86C320.646 188.28 321.547 185.443 321.87 182.513C318.937 182.181 315.968 182.434 313.134 183.256C310.3 184.078 307.657 185.454 305.357 187.304Z" fill="#407BFF"/>
<path opacity="0.2" d="M305.357 187.304L303.582 188.726C305.305 192.837 308.143 196.385 311.776 198.968L313.562 197.546C315.871 195.713 317.794 193.441 319.22 190.86C320.646 188.28 321.547 185.443 321.87 182.513C318.937 182.181 315.968 182.434 313.134 183.256C310.3 184.078 307.657 185.454 305.357 187.304Z" fill="white"/>
<path d="M287.024 259.203L291.485 253.422L287.604 248.562L280.992 251.635C281.448 253.232 282.216 254.723 283.251 256.022C284.287 257.321 285.569 258.402 287.024 259.203Z" fill="#263238"/>
<path opacity="0.2" d="M287.606 248.562L286.059 249.279C286.967 251.494 288.492 253.401 290.451 254.776L291.487 253.422L287.606 248.562Z" fill="white"/>
<path opacity="0.4" d="M284.397 250.053L283.156 250.622C284.212 253.341 286.069 255.674 288.482 257.313L289.324 256.175C287.3 254.473 285.627 252.394 284.397 250.053Z" fill="white"/>
<path d="M294.045 255.823C290.06 253.632 287.109 249.948 285.84 245.581L327.001 212.738C329.304 210.895 331.948 209.526 334.782 208.707C337.616 207.889 340.583 207.639 343.514 207.97C343.185 210.901 342.282 213.737 340.856 216.319C339.431 218.9 337.511 221.175 335.206 223.015L294.045 255.823Z" fill="#407BFF"/>
<path d="M327.001 212.704L288.195 243.657C289.706 247.894 292.595 251.501 296.4 253.899L335.206 222.946C337.511 221.107 339.431 218.831 340.856 216.25C342.282 213.669 343.184 210.832 343.513 207.902C340.58 207.575 337.612 207.831 334.778 208.655C331.944 209.479 329.301 210.855 327.001 212.704Z" fill="#407BFF"/>
<path opacity="0.5" d="M327.001 212.704L288.195 243.657C289.706 247.894 292.595 251.501 296.4 253.899L335.206 222.946C337.511 221.107 339.431 218.831 340.856 216.25C342.282 213.669 343.184 210.832 343.513 207.902C340.58 207.575 337.612 207.831 334.778 208.655C331.944 209.479 329.301 210.855 327.001 212.704Z" fill="white"/>
<path d="M327.002 212.704L325.227 214.115C326.949 218.227 329.787 221.774 333.42 224.357L335.207 222.935C337.512 221.095 339.431 218.82 340.857 216.239C342.282 213.658 343.185 210.821 343.514 207.89C340.58 207.565 337.611 207.823 334.777 208.649C331.944 209.475 329.301 210.853 327.002 212.704Z" fill="#407BFF"/>
<path opacity="0.2" d="M327.002 212.704L325.227 214.115C326.949 218.227 329.787 221.774 333.42 224.357L335.207 222.935C337.512 221.095 339.431 218.82 340.857 216.239C342.282 213.658 343.185 210.821 343.514 207.89C340.58 207.565 337.611 207.823 334.777 208.649C331.944 209.475 329.301 210.853 327.002 212.704Z" fill="white"/>
<path d="M275.495 250.862L282.71 241.553L276.44 233.689L265.754 238.651C266.491 241.229 267.731 243.635 269.403 245.731C271.075 247.827 273.146 249.571 275.495 250.862Z" fill="#263238"/>
<path opacity="0.2" d="M276.441 233.689L273.938 234.827C275.404 238.4 277.86 241.479 281.016 243.704L282.711 241.53L276.441 233.689Z" fill="white"/>
<path opacity="0.4" d="M271.253 236.102L269.238 237.035C270.954 241.418 273.958 245.179 277.853 247.823L279.207 246.07C275.933 243.296 273.231 239.91 271.253 236.102Z" fill="white"/>
<path d="M286.774 245.411C283.584 243.653 280.773 241.282 278.501 238.435C276.23 235.587 274.544 232.319 273.539 228.819L339.987 175.799C343.705 172.827 347.973 170.619 352.547 169.301C357.121 167.983 361.909 167.581 366.639 168.118C366.114 172.847 364.66 177.427 362.359 181.592C360.058 185.758 356.957 189.428 353.233 192.391L286.774 245.411Z" fill="#407BFF"/>
<path d="M340.031 175.799L277.441 225.78C279.847 232.642 284.493 238.495 290.631 242.394L353.278 192.413C357.002 189.45 360.103 185.781 362.404 181.615C364.704 177.449 366.159 172.87 366.683 168.14C361.955 167.6 357.167 167.998 352.594 169.312C348.02 170.627 343.751 172.831 340.031 175.799Z" fill="#407BFF"/>
<path opacity="0.6" d="M340.031 175.799L277.441 225.78C279.847 232.642 284.493 238.495 290.631 242.394L353.278 192.413C357.002 189.45 360.103 185.781 362.404 181.615C364.704 177.449 366.159 172.87 366.683 168.14C361.955 167.6 357.167 167.998 352.594 169.312C348.02 170.627 343.751 172.831 340.031 175.799Z" fill="white"/>
<path d="M340.032 175.799L337.164 178.075C339.938 184.734 344.523 190.482 350.399 194.667L353.278 192.391C357.002 189.428 360.103 185.758 362.404 181.592C364.705 177.427 366.159 172.847 366.684 168.118C361.954 167.581 357.165 167.983 352.592 169.301C348.018 170.619 343.75 172.827 340.032 175.799Z" fill="#407BFF"/>
<path opacity="0.2" d="M340.032 175.799L337.164 178.075C339.938 184.734 344.523 190.482 350.399 194.667L353.278 192.391C357.002 189.428 360.103 185.758 362.404 181.592C364.705 177.427 366.159 172.847 366.684 168.118C361.954 167.581 357.165 167.983 352.592 169.301C348.018 170.619 343.75 172.827 340.032 175.799Z" fill="white"/>
<path d="M337.222 199.538C336.266 200.299 335.107 200.759 333.889 200.861C332.672 200.962 331.452 200.701 330.383 200.11C329.314 199.518 328.445 198.623 327.884 197.538C327.324 196.453 327.097 195.225 327.234 194.012C327.371 192.798 327.864 191.652 328.652 190.718C329.44 189.784 330.486 189.105 331.66 188.766C332.833 188.427 334.081 188.444 335.245 188.813C336.41 189.183 337.438 189.89 338.201 190.844C339.223 192.127 339.694 193.763 339.511 195.393C339.327 197.024 338.504 198.514 337.222 199.538Z" fill="#407BFF"/>
<path d="M328.527 198.559C327.557 197.341 327.082 195.802 327.198 194.249C327.314 192.696 328.012 191.244 329.153 190.184C329.023 190.267 328.897 190.358 328.777 190.457C328.143 190.963 327.615 191.59 327.222 192.301C326.83 193.012 326.582 193.793 326.492 194.6C326.401 195.406 326.471 196.223 326.696 197.003C326.921 197.783 327.298 198.511 327.804 199.145C328.311 199.78 328.938 200.308 329.649 200.7C330.359 201.093 331.141 201.341 331.947 201.431C332.754 201.522 333.571 201.452 334.351 201.227C335.131 201.002 335.859 200.625 336.493 200.118L336.835 199.811C335.547 200.688 333.976 201.046 332.435 200.814C330.895 200.582 329.499 199.777 328.527 198.559Z" fill="#407BFF"/>
<path opacity="0.3" d="M328.527 198.559C327.557 197.341 327.082 195.802 327.198 194.249C327.314 192.696 328.012 191.244 329.153 190.184C329.023 190.267 328.897 190.358 328.777 190.457C328.143 190.963 327.615 191.59 327.222 192.301C326.83 193.012 326.582 193.793 326.492 194.6C326.401 195.406 326.471 196.223 326.696 197.003C326.921 197.783 327.298 198.511 327.804 199.145C328.311 199.78 328.938 200.308 329.649 200.7C330.359 201.093 331.141 201.341 331.947 201.431C332.754 201.522 333.571 201.452 334.351 201.227C335.131 201.002 335.859 200.625 336.493 200.118L336.835 199.811C335.547 200.688 333.976 201.046 332.435 200.814C330.895 200.582 329.499 199.777 328.527 198.559Z" fill="black"/>
<path d="M336.085 198.115C335.409 198.654 334.589 198.981 333.727 199.054C332.865 199.127 332.002 198.943 331.245 198.525C330.488 198.107 329.872 197.473 329.475 196.705C329.079 195.937 328.919 195.068 329.016 194.209C329.113 193.349 329.463 192.538 330.022 191.878C330.58 191.218 331.322 190.738 332.153 190.5C332.984 190.261 333.867 190.275 334.691 190.538C335.514 190.802 336.241 191.304 336.779 191.981C337.139 192.428 337.406 192.942 337.566 193.494C337.725 194.045 337.774 194.622 337.71 195.192C337.645 195.763 337.468 196.315 337.19 196.816C336.911 197.318 336.535 197.759 336.085 198.115Z" fill="white"/>
<path d="M329.824 197.239L337.517 193.381C337.365 192.909 337.134 192.467 336.834 192.072L329.164 195.907C329.31 196.384 329.533 196.834 329.824 197.239Z" fill="#407BFF"/>
<path d="M331.02 198.366L337.712 195.021C337.74 194.748 337.74 194.474 337.712 194.201L330.395 197.866C330.588 198.051 330.798 198.218 331.02 198.366Z" fill="#407BFF"/>
<g opacity="0.7">
<path d="M329.824 197.239L337.517 193.381C337.365 192.909 337.134 192.467 336.834 192.072L329.164 195.907C329.31 196.384 329.533 196.834 329.824 197.239Z" fill="white"/>
<path d="M331.02 198.366L337.712 195.021C337.74 194.748 337.74 194.474 337.712 194.201L330.395 197.866C330.588 198.051 330.798 198.218 331.02 198.366Z" fill="white"/>
</g>
<path d="M412.254 266.68H351.098V471.975H412.254V266.68Z" fill="#407BFF"/>
<path opacity="0.2" d="M368.224 266.656H350.949V471.86H368.224V266.656Z" fill="black"/>
<path d="M135.004 414.881H73.8477V471.986H135.004V414.881Z" fill="#407BFF"/>
<path opacity="0.2" d="M90.5522 414.824H73.2773V471.872H90.5522V414.824Z" fill="black"/>
<path d="M223.789 365.48H162.633V471.974H223.789V365.48Z" fill="#407BFF"/>
<path opacity="0.2" d="M179.486 365.436H162.211V471.873H179.486V365.436Z" fill="black"/>
<path d="M318.902 316.08H257.746V471.975H318.902V316.08Z" fill="#407BFF"/>
<path opacity="0.2" d="M274.736 316.047H257.461V471.873H274.736V316.047Z" fill="black"/>
<path d="M501.039 217.279H439.883V471.975H501.039V217.279Z" fill="#407BFF"/>
<path opacity="0.2" d="M457.158 217.279H439.883V471.873H457.158V217.279Z" fill="black"/>
<path d="M195.646 332.113L190.594 349.354L198.036 351.095L203.704 334.594L195.646 332.113Z" fill="#FF8B7B"/>
<path d="M199.709 349.103L191.186 347.453C191.023 347.429 190.856 347.461 190.713 347.544C190.571 347.626 190.46 347.755 190.4 347.908L187.339 355.078C187.2 355.37 187.181 355.704 187.285 356.01C187.389 356.317 187.609 356.57 187.897 356.717L188.136 356.796C191.231 357.331 194.019 357.672 197.866 358.412C202.418 359.288 201.132 359.653 206.458 360.756C209.655 361.416 211.01 357.616 209.724 357.16C203.647 355.123 203.408 352.984 201.485 350.128C201.051 349.566 200.413 349.198 199.709 349.103Z" fill="#263238"/>
<path d="M155.392 219.576L184.764 237.557L153.992 242.951L155.392 219.576Z" fill="#263238"/>
<path d="M202.472 342.947L191.866 341.047C191.866 341.047 195.815 326.344 200.094 306.247C200.754 303.151 209.277 279.595 209.277 279.595C209.277 279.595 167.171 259.862 166.5 259.645C165.965 259.475 162.517 259.213 157.134 255.002C147.12 247.173 150.306 231.855 150.306 231.855L176.48 232.481C202.028 246.137 224.208 266.087 227.201 274.257C231.411 285.763 202.472 342.947 202.472 342.947Z" fill="#263238"/>
<path d="M97.3778 324.432L79.8867 328.551L82.0603 335.891L99.1986 332.659L97.3778 324.432Z" fill="#FF8B7B"/>
<path d="M84.6095 336.347L81.81 328.085C81.7486 327.932 81.6384 327.803 81.4965 327.719C81.3545 327.634 81.1887 327.599 81.0248 327.618L73.275 328.506C72.9529 328.529 72.653 328.679 72.44 328.921C72.227 329.164 72.1182 329.481 72.137 329.803C72.1262 329.883 72.1262 329.963 72.137 330.042C73.2067 333.001 74.2764 335.596 75.551 339.306C77.0418 343.687 76.0972 342.72 77.827 347.932C78.8284 351.05 82.8228 350.367 82.5611 348.99C81.332 342.708 83.0732 341.445 84.6095 338.361C84.8708 337.715 84.8708 336.993 84.6095 336.347Z" fill="#263238"/>
<path d="M91.3347 335.709L87.75 325.559L143.387 294.548C143.387 294.548 139.757 248.22 139.586 247.503C139.415 246.786 137.993 243.827 138.994 237.056C140.849 224.538 155.711 219.656 155.711 219.656L168.423 246.479C168.423 246.479 162.517 300.853 156.895 307.487C148.986 316.83 91.3347 335.709 91.3347 335.709Z" fill="#263238"/>
<path opacity="0.2" d="M166.502 259.647L157.137 255.004L164.352 277.218L166.502 259.647Z" fill="black"/>
<path d="M188.907 186.722C184.081 187.758 179.234 188.68 174.386 189.579L170.744 190.239L167.501 190.796C166.096 191.096 164.804 191.781 163.768 192.776L158.659 198.011C156.952 199.787 155.245 201.562 153.503 203.303C150.089 206.808 146.562 210.302 143.011 213.738C142.451 214.279 141.709 214.592 140.931 214.616C140.153 214.639 139.393 214.372 138.802 213.865C138.21 213.359 137.828 212.65 137.731 211.878C137.634 211.105 137.829 210.324 138.277 209.687C141.099 205.647 143.967 201.721 146.926 197.715C148.371 195.712 149.85 193.755 151.33 191.798L155.882 185.8C158.12 183.094 161.098 181.098 164.451 180.054L168.388 178.984L171.939 178.051C176.684 176.844 181.419 175.638 186.187 174.546C187.735 174.346 189.302 174.732 190.58 175.627C191.858 176.523 192.756 177.864 193.096 179.388C193.437 180.911 193.196 182.506 192.421 183.861C191.646 185.216 190.392 186.232 188.907 186.711V186.722Z" fill="#407BFF"/>
<path opacity="0.1" d="M188.907 186.722C184.081 187.758 179.234 188.68 174.386 189.579L170.744 190.239L167.501 190.796C166.096 191.096 164.804 191.781 163.768 192.776L158.659 198.011C156.952 199.787 155.245 201.562 153.503 203.303C150.089 206.808 146.562 210.302 143.011 213.738C142.451 214.279 141.709 214.592 140.931 214.616C140.153 214.639 139.393 214.372 138.802 213.865C138.21 213.359 137.828 212.65 137.731 211.878C137.634 211.105 137.829 210.324 138.277 209.687C141.099 205.647 143.967 201.721 146.926 197.715C148.371 195.712 149.85 193.755 151.33 191.798L155.882 185.8C158.12 183.094 161.098 181.098 164.451 180.054L168.388 178.984L171.939 178.051C176.684 176.844 181.419 175.638 186.187 174.546C187.735 174.346 189.302 174.732 190.58 175.627C191.858 176.523 192.756 177.864 193.096 179.388C193.437 180.911 193.196 182.506 192.421 183.861C191.646 185.216 190.392 186.232 188.907 186.711V186.722Z" fill="black"/>
<path d="M137.312 209.619L129.801 212.532L136.629 219.11L142.319 214.558C142.479 214.432 142.611 214.275 142.708 214.097C142.805 213.918 142.864 213.721 142.883 213.519C142.901 213.316 142.877 213.112 142.813 212.919C142.75 212.726 142.647 212.548 142.512 212.396C141.873 211.611 141.084 210.962 140.191 210.485C139.298 210.009 138.319 209.714 137.312 209.619Z" fill="#FF8B7B"/>
<path d="M129.798 212.533L128.66 214.718C128.377 215.244 128.287 215.852 128.408 216.437C128.529 217.022 128.852 217.546 129.32 217.916L131.733 219.805C132.093 220.089 132.524 220.27 132.979 220.329C133.434 220.387 133.896 220.32 134.316 220.135L136.592 219.111L129.798 212.533Z" fill="#FF8B7B"/>
<path d="M96.0718 242.314L93.3064 241.859L95.0248 239.777L129.631 227.35C135.139 225.37 138.735 221.66 135.89 214.923C133.262 208.664 127.344 206.809 121.847 208.766L87.2409 221.045L84.4414 220.522L86.1826 218.496L120.801 206.24C127.196 203.964 133.319 204.487 137.518 214.32C141.717 224.152 137.085 227.532 130.69 229.831L96.0718 242.314Z" fill="#263238"/>
<path d="M106.323 204.761L105.561 203.043C104.795 201.319 103.428 199.933 101.714 199.146C100.001 198.358 98.0585 198.222 96.2519 198.764L70.7266 206.434L75.2786 217.712L106.323 204.761Z" fill="#263238"/>
<path opacity="0.2" d="M106.323 204.761L105.561 203.043C104.795 201.319 103.428 199.933 101.714 199.146C100.001 198.358 98.0585 198.222 96.2519 198.764L70.7266 206.434L75.2786 217.712L106.323 204.761Z" fill="white"/>
<path d="M97.5484 246.366L96.49 243.828L130.05 229.034C135.387 226.69 138.824 222.627 136.001 215.924C133.373 209.654 127.592 208.095 122.254 210.417L88.6947 225.051L87.625 222.525L121.185 207.924C127.398 205.227 133.418 205.398 137.56 215.253C141.703 225.108 137.299 228.829 131.097 231.561L97.5484 246.366Z" fill="#263238"/>
<path d="M93.724 262.217L73.0352 212.213L98.0712 201.528C98.821 201.193 99.63 201.012 100.451 200.994C101.272 200.976 102.088 201.121 102.852 201.422C103.616 201.723 104.312 202.173 104.9 202.746C105.488 203.319 105.956 204.004 106.276 204.759L121.468 241.107C122.279 243.113 122.278 245.356 121.465 247.361C120.651 249.366 119.089 250.976 117.11 251.85L93.724 262.217Z" fill="#263238"/>
<g opacity="0.3">
<path d="M97.5497 246.366L94.8526 246.047L96.4913 243.771L130.051 228.977C135.388 226.633 138.825 222.57 136.003 215.868C133.374 209.597 127.593 208.038 122.256 210.36L88.696 225.051L85.9648 224.676L87.6263 222.525L121.186 207.924C127.399 205.227 133.419 205.398 137.562 215.253C141.704 225.108 137.3 228.829 131.098 231.561L97.5497 246.366Z" fill="white"/>
</g>
<path d="M101.976 220.1L100.246 215.946L101.794 215.264L103.535 219.429L101.976 220.1Z" fill="#263238"/>
<path d="M91.8935 224.504L90.1523 220.327L91.7114 219.645L93.4525 223.821L91.8935 224.504Z" fill="#263238"/>
<path d="M110.897 241.496L109.156 237.308L110.704 236.625L112.445 240.801L110.897 241.496Z" fill="#263238"/>
<path d="M100.804 245.945L99.0625 241.757L100.622 241.062L102.363 245.25L100.804 245.945Z" fill="#263238"/>
<path d="M228.136 167.73C228.466 167.889 228.534 168.424 228.284 168.868C228.033 169.312 227.578 169.642 227.26 169.483C226.941 169.323 226.873 168.788 227.112 168.288C227.351 167.787 227.817 167.559 228.136 167.73Z" fill="#263238"/>
<path d="M227.906 168.116C228.331 168.197 228.771 168.124 229.147 167.911C228.933 167.932 228.718 167.911 228.513 167.848C228.308 167.786 228.117 167.683 227.952 167.547C227.99 167.639 228.006 167.738 227.998 167.837C227.99 167.936 227.958 168.031 227.906 168.116Z" fill="#263238"/>
<path d="M225.074 172.862C225.428 173.165 225.843 173.387 226.291 173.513C226.739 173.639 227.209 173.665 227.669 173.591C227.33 171.806 227.234 169.984 227.384 168.174L225.074 172.862Z" fill="#FF5652"/>
<path d="M226.338 165.181C226.735 165.089 227.148 165.092 227.544 165.191C227.94 165.29 228.307 165.482 228.614 165.75L228.682 165.83C228.717 165.856 228.757 165.876 228.799 165.887C228.842 165.898 228.886 165.9 228.929 165.894C228.973 165.887 229.015 165.872 229.052 165.85C229.09 165.827 229.123 165.797 229.148 165.762C229.175 165.728 229.194 165.689 229.205 165.647C229.216 165.605 229.218 165.562 229.211 165.519C229.205 165.477 229.19 165.436 229.168 165.399C229.145 165.363 229.115 165.331 229.08 165.306C228.707 164.955 228.255 164.699 227.761 164.56C227.268 164.421 226.748 164.404 226.247 164.51C226.17 164.522 226.101 164.563 226.053 164.624C225.994 164.687 225.961 164.77 225.961 164.857C225.961 164.944 225.994 165.027 226.053 165.09C226.091 165.125 226.137 165.151 226.186 165.166C226.235 165.182 226.286 165.187 226.338 165.181Z" fill="#263238"/>
<path d="M203.623 188.442C196.249 182.752 198.274 177.881 198.274 177.881C202.132 177.472 205.318 173.659 207.594 169.824C207.539 171.11 207.72 172.394 208.129 173.614C208.96 176.14 214.206 177.289 214.206 177.289C214.206 177.289 213.694 177.938 213.068 178.905C211.384 181.284 208.732 185.677 210.314 187.93C210.257 187.93 211.737 194.712 203.623 188.442Z" fill="#FF8B7B"/>
<path d="M213.854 177.972C213.513 178.245 213.171 178.518 212.841 178.837C212.804 178.85 212.764 178.85 212.727 178.837C211.648 178.341 210.685 177.623 209.901 176.731C209.117 175.839 208.529 174.793 208.175 173.659C207.761 172.437 207.579 171.147 207.641 169.858C208.232 168.891 208.778 167.901 209.211 166.99L213.763 177.619L213.854 177.972Z" fill="#FF8B7B"/>
<path d="M223.798 176.139C222.783 177.382 221.471 178.347 219.982 178.944C218.493 179.541 216.877 179.75 215.285 179.553C214.455 179.46 213.645 179.237 212.884 178.893C212.847 178.906 212.807 178.906 212.77 178.893C211.691 178.397 210.728 177.679 209.944 176.787C209.16 175.896 208.572 174.849 208.218 173.715C207.804 172.493 207.622 171.203 207.683 169.914C207.809 166.819 209.277 163.735 211.166 159.24C211.757 157.771 212.714 156.478 213.947 155.484C215.179 154.49 216.645 153.827 218.206 153.561C219.767 153.294 221.37 153.431 222.862 153.959C224.355 154.487 225.688 155.388 226.734 156.577C231.422 161.846 227.803 171.291 223.798 176.139Z" fill="#FF8B7B"/>
<path opacity="0.2" d="M214.776 179.35C214.165 179.316 213.566 179.165 213.012 178.906C213.695 177.939 214.218 177.301 214.15 177.29L215.549 175.742C215.549 175.742 214.389 179.042 214.776 179.35Z" fill="black"/>
<path d="M229.738 164.658C228.407 165.136 225.903 164.453 226.142 164.294C227.075 163.759 228.202 162.211 226.962 161.79C226.757 162.61 223.991 167.753 223.195 168.004C222.762 168.152 219.781 171.6 215.673 173.569C212.452 175.139 211.826 175.924 211.826 175.924L206.136 172.954C204.452 171.247 200.389 155.964 209.004 153.05C211.826 152.094 213.988 149.705 218.472 150.991C221.237 151.787 224.481 151.298 227.201 152.242C228.588 152.648 229.856 153.386 230.895 154.391C231.934 155.396 232.712 156.639 233.164 158.012C233.471 159.378 233.107 163.474 229.738 164.658Z" fill="#263238"/>
<path d="M224.551 165.886C225.689 167.548 224.744 170.438 223.674 171.941C222.605 173.443 220.636 173.75 220.09 171.588C219.699 169.944 219.855 168.218 220.534 166.672C221.387 164.828 223.367 164.225 224.551 165.886Z" fill="#FF8B7B"/>
<path d="M194.098 178.859C194.098 178.859 198.001 176.253 200.584 176.503C203.168 176.754 209.779 183.832 210.599 185.22C211.418 186.609 210.451 190.262 210.451 190.262L194.098 178.859Z" fill="#407BFF"/>
<path opacity="0.3" d="M194.098 178.859C194.098 178.859 198.001 176.253 200.584 176.503C203.168 176.754 209.779 183.832 210.599 185.22C211.418 186.609 210.451 190.262 210.451 190.262L194.098 178.859Z" fill="white"/>
<path d="M212.443 190.923C211.675 189.974 210.854 189.07 209.984 188.215C206.102 184.838 202.029 181.688 197.785 178.781C196.237 177.765 194.608 176.878 192.914 176.129C191.258 175.363 189.382 175.21 187.623 175.698C185.864 176.186 184.336 177.282 183.31 178.792C177.426 187.486 176.038 194.235 172.123 199.925C167.015 207.222 161.047 213.878 154.348 219.749L159.218 224.961C166.801 230.834 175.49 235.119 184.766 237.558C184.766 237.558 193.631 223.401 198.718 219.794C212.613 209.928 211.783 205.979 213.945 201.711C214.821 199.974 215.146 198.01 214.878 196.083C214.61 194.155 213.76 192.355 212.443 190.923Z" fill="#407BFF"/>
<path d="M213.944 201.722C213.17 203.236 212.806 204.738 211.952 206.479C210.4 209.555 208.217 212.27 205.545 214.445C203.374 216.362 201.095 218.151 198.717 219.805C196.575 221.568 194.663 223.595 193.027 225.837C192.105 227.017 191.566 228.451 191.485 229.947C191.403 231.443 191.783 232.928 192.572 234.201C196.18 240.084 201.676 248.483 201.676 248.483C197.762 247.459 196.168 247.038 189.943 249.006C180.202 252.079 159.775 249.37 154.017 241.143C155.559 237.296 157.984 233.866 161.095 231.128C157.526 233.492 154.252 236.273 151.343 239.413C148.771 239.948 146.165 238.537 144.31 236.704C142.455 234.872 141.066 232.574 139.28 230.673C137.493 228.773 135.536 226.975 132.93 227.202C136.344 222.65 142.113 220.784 147.542 219.236C151.593 218.098 156.759 216.391 160.629 213.831C164.876 209.558 168.734 204.916 172.157 199.958C176.06 194.268 177.437 187.52 183.343 178.814C184.368 177.303 185.896 176.205 187.656 175.717C189.416 175.229 191.291 175.383 192.948 176.151C194.641 176.905 196.27 177.795 197.818 178.814C202.055 181.72 206.124 184.862 210.006 188.226C210.874 189.088 211.694 189.996 212.465 190.945C213.772 192.382 214.613 194.18 214.877 196.104C215.141 198.028 214.816 199.987 213.944 201.722Z" fill="#407BFF"/>
<path d="M267.782 186.872L273.642 184.334C273.885 184.228 274.114 184.094 274.325 183.935L276.965 181.876C277.149 181.735 277.285 181.543 277.356 181.323C277.427 181.104 277.43 180.868 277.364 180.647L274.689 176.391C274.611 176.076 274.418 175.802 274.149 175.621C273.88 175.44 273.554 175.366 273.233 175.412L269.272 176.891C268.975 176.998 268.708 177.178 268.499 177.415L264.527 181.739C264.367 181.942 264.265 182.185 264.231 182.441C264.197 182.697 264.233 182.958 264.334 183.196L266.086 185.972C266.201 186.31 266.44 186.591 266.756 186.758C267.071 186.925 267.438 186.966 267.782 186.872Z" fill="#FF8B7B"/>
<path opacity="0.2" d="M205.535 214.422L208.062 200.652L213.41 203.531C211.521 208.527 209.302 211.076 205.535 214.422Z" fill="black"/>
<path d="M244.19 204.908C251.496 199.833 260.668 192.663 267.36 186.894C267.986 184.686 265.903 181.784 263.786 182.672C258.517 184.88 242.779 193.608 240.002 193.688C238.09 193.745 218.38 190.9 211.939 189.966C210.659 189.767 209.35 190.047 208.263 190.752C204.701 193.164 203.791 195.804 203.996 198.126C204.202 199.891 205.023 201.527 206.315 202.747C207.608 203.966 209.289 204.691 211.063 204.795C220.064 205.466 233.561 206.217 238.819 206.445C240.73 206.539 242.618 205.999 244.19 204.908Z" fill="#407BFF"/>
<path d="M219.486 170.279C217.415 176.23 214.639 187.588 210.075 191.901C205.512 196.214 199.105 196.453 193.005 197.887C191.537 198.251 189.659 200.106 189.682 199.81C188.168 201.499 187.211 203.612 186.94 205.864L180.305 200.686C179.639 200.245 179.092 199.647 178.712 198.945C178.512 198.301 178.475 197.618 178.604 196.957C178.733 196.296 179.025 195.677 179.452 195.155C180.291 193.764 180.963 192.278 181.454 190.729C179.153 192.45 177.431 194.832 176.516 197.557C173.284 196.419 169.505 193.699 169.437 190.262C169.413 188.901 169.675 187.551 170.206 186.298C170.737 185.045 171.526 183.918 172.521 182.99C170.26 184.188 168.43 186.062 167.286 188.35C166.592 186.313 164.897 184.288 162.734 184.356C164.389 180.683 166.512 177.241 169.05 174.114C171.713 171.121 175.343 168.765 179.292 168.492C182.342 168.276 185.335 169.266 188.248 170.188C191.162 171.109 194.189 172.008 197.216 171.622C200.243 171.235 203.361 166.592 203.93 163.587C208.254 161.106 214.331 167.206 219.486 170.279Z" fill="#263238"/>
<path opacity="0.2" d="M239.651 164.862C239.348 170.774 236.71 176.324 232.316 180.291C227.922 184.258 222.132 186.318 216.22 186.017H216.14C215.212 185.962 214.289 185.848 213.375 185.676C209.038 179.552 203.194 174.653 196.407 171.451C196.095 170.596 195.837 169.721 195.634 168.834C194.906 165.724 194.855 162.495 195.482 159.364C196.11 156.233 197.402 153.273 199.272 150.684C201.142 148.095 203.545 145.938 206.32 144.357C209.095 142.777 212.177 141.811 215.358 141.524C218.538 141.237 221.743 141.636 224.756 142.694C227.769 143.752 230.52 145.444 232.823 147.656C235.126 149.869 236.927 152.55 238.105 155.518C239.283 158.486 239.811 161.673 239.651 164.862Z" fill="black"/>
<path d="M224.927 184.744C222.142 185.74 219.187 186.174 216.233 186.018H216.153C215.221 185.964 214.294 185.85 213.376 185.677C209.042 179.551 203.197 174.65 196.409 171.452C196.091 170.598 195.832 169.723 195.635 168.834C194.957 165.961 194.856 162.982 195.339 160.07C195.821 157.157 196.877 154.369 198.444 151.868C200.012 149.367 202.061 147.201 204.472 145.498C206.882 143.794 209.607 142.586 212.489 141.943C213.797 142.598 214.941 143.539 215.834 144.697C217.691 147.373 218.813 150.488 219.089 153.733C219.75 158.621 219.635 163.584 218.748 168.436C218.062 171.767 218.387 175.226 219.681 178.371C221.911 183.423 224.927 184.744 224.927 184.744Z" fill="#407BFF"/>
<path opacity="0.4" d="M224.927 184.744C222.142 185.74 219.187 186.174 216.233 186.018H216.153C215.221 185.964 214.294 185.85 213.376 185.677C209.042 179.551 203.197 174.65 196.409 171.452C196.091 170.598 195.832 169.723 195.635 168.834C194.957 165.961 194.856 162.982 195.339 160.07C195.821 157.157 196.877 154.369 198.444 151.868C200.012 149.367 202.061 147.201 204.472 145.498C206.882 143.794 209.607 142.586 212.489 141.943C213.797 142.598 214.941 143.539 215.834 144.697C217.691 147.373 218.813 150.488 219.089 153.733C219.75 158.621 219.635 163.584 218.748 168.436C218.062 171.767 218.387 175.226 219.681 178.371C221.911 183.423 224.927 184.744 224.927 184.744Z" fill="white"/>
<path d="M215.868 187.656C215.767 187.747 215.648 187.817 215.519 187.862C215.39 187.906 215.254 187.924 215.118 187.915C214.982 187.905 214.849 187.868 214.728 187.806C214.606 187.744 214.499 187.658 214.411 187.554C214.047 186.962 213.66 186.416 213.273 185.801C209.037 179.607 203.264 174.619 196.522 171.326C195.828 170.973 195.133 170.654 194.439 170.347C193.745 170.04 193.927 169.209 194.439 168.742C194.633 168.603 194.866 168.527 195.105 168.527C195.344 168.527 195.577 168.603 195.771 168.742C195.931 168.832 196.061 168.967 196.146 169.129C204.158 172.983 211.02 178.868 216.05 186.199C216.196 186.425 216.258 186.694 216.225 186.961C216.192 187.228 216.065 187.474 215.868 187.656Z" fill="#407BFF"/>
<path d="M220.543 165.602C220.543 165.991 220.427 166.372 220.211 166.695C219.995 167.019 219.687 167.271 219.328 167.42C218.968 167.569 218.572 167.608 218.19 167.532C217.808 167.456 217.457 167.269 217.182 166.994C216.907 166.718 216.719 166.368 216.643 165.986C216.567 165.604 216.606 165.208 216.755 164.848C216.904 164.488 217.157 164.181 217.48 163.965C217.804 163.748 218.185 163.633 218.574 163.633C219.096 163.633 219.597 163.84 219.966 164.209C220.336 164.579 220.543 165.079 220.543 165.602Z" fill="#263238"/>
<path d="M221.202 166.148C221.205 166.541 221.09 166.925 220.873 167.253C220.657 167.58 220.348 167.836 219.985 167.987C219.623 168.138 219.224 168.178 218.839 168.102C218.454 168.026 218.1 167.838 217.822 167.56C217.545 167.282 217.356 166.928 217.28 166.543C217.204 166.158 217.244 165.759 217.395 165.397C217.546 165.035 217.802 164.725 218.129 164.509C218.457 164.292 218.841 164.177 219.234 164.18C219.755 164.183 220.254 164.391 220.622 164.76C220.991 165.128 221.199 165.627 221.202 166.148Z" fill="#407BFF"/>
<path opacity="0.7" d="M221.202 166.148C221.205 166.541 221.09 166.925 220.873 167.253C220.657 167.58 220.348 167.836 219.985 167.987C219.623 168.138 219.224 168.178 218.839 168.102C218.454 168.026 218.1 167.838 217.822 167.56C217.545 167.282 217.356 166.928 217.28 166.543C217.204 166.158 217.244 165.759 217.395 165.397C217.546 165.035 217.802 164.725 218.129 164.509C218.457 164.292 218.841 164.177 219.234 164.18C219.755 164.183 220.254 164.391 220.622 164.76C220.991 165.128 221.199 165.627 221.202 166.148Z" fill="white"/>
<path d="M498.796 118.5C498.796 125.909 495.852 133.016 490.613 138.255C485.374 143.494 478.268 146.438 470.858 146.438C470.232 146.438 469.618 146.438 468.992 146.369C461.905 145.916 455.257 142.782 450.398 137.603C445.54 132.424 442.836 125.59 442.836 118.488C442.836 111.387 445.54 104.553 450.398 99.3738C455.257 94.1949 461.905 91.0604 468.992 90.6074C469.618 90.6074 470.232 90.6074 470.858 90.6074C478.26 90.6074 485.359 93.5446 490.597 98.7741C495.835 104.004 498.784 111.098 498.796 118.5Z" fill="#407BFF"/>
<path opacity="0.2" d="M495.031 118.5C494.698 123.595 492.882 128.482 489.806 132.558C486.731 136.634 482.531 139.721 477.722 141.44C472.914 143.159 467.709 143.433 462.746 142.231C457.784 141.028 453.282 138.4 449.795 134.67C446.307 130.941 443.987 126.273 443.119 121.241C442.251 116.209 442.874 111.034 444.911 106.351C446.948 101.669 450.31 97.6853 454.583 94.89C458.856 92.0946 463.853 90.6101 468.959 90.6192C476.032 91.09 482.661 94.2326 487.502 99.41C492.343 104.587 495.035 111.412 495.031 118.5Z" fill="white"/>
<path opacity="0.4" d="M488.256 126.495C492.675 115.828 487.609 103.599 476.943 99.1811C466.276 94.7628 454.047 99.8281 449.629 110.495C445.211 121.162 450.276 133.39 460.943 137.809C471.609 142.227 483.838 137.162 488.256 126.495Z" fill="white"/>
<path opacity="0.4" d="M472.546 133.391C480.847 131.432 485.988 123.115 484.029 114.814C482.07 106.513 473.752 101.372 465.452 103.332C457.151 105.291 452.01 113.608 453.969 121.909C455.928 130.209 464.246 135.35 472.546 133.391Z" fill="white"/>
<path d="M474.047 118.5C474.047 119.693 473.693 120.859 473.031 121.851C472.368 122.843 471.426 123.616 470.324 124.072C469.222 124.529 468.009 124.648 466.839 124.416C465.669 124.183 464.594 123.609 463.751 122.765C462.907 121.921 462.333 120.847 462.1 119.677C461.868 118.507 461.987 117.294 462.443 116.192C462.9 115.09 463.673 114.148 464.665 113.485C465.657 112.822 466.823 112.469 468.016 112.469C468.808 112.467 469.593 112.622 470.326 112.925C471.058 113.227 471.724 113.672 472.284 114.232C472.844 114.792 473.289 115.458 473.591 116.19C473.894 116.923 474.049 117.708 474.047 118.5Z" fill="#263238"/>
<path d="M426.113 139.222L431.701 140.133L439.894 135.296V135.285L435.718 133.441L426.113 139.222Z" fill="#407BFF"/>
<path d="M464.766 120.05L431.488 139.746L431.911 140.461L465.189 120.765L464.766 120.05Z" fill="#263238"/>
<path d="M430.984 145.129L439.064 140.338L439.895 135.297L431.701 140.133L430.984 145.129Z" fill="#407BFF"/>
<path opacity="0.2" d="M430.984 145.129L439.064 140.338L439.895 135.297L431.701 140.133L430.984 145.129Z" fill="black"/>
<path d="M467.139 118.193L461.586 119.616L466.65 122.404L468.937 118.774L467.139 118.193Z" fill="white"/>
<path d="M469.996 82.8238C469.723 82.8314 469.452 82.7848 469.198 82.6869C468.943 82.5889 468.711 82.4414 468.514 82.253C468.317 82.0646 468.16 81.839 468.051 81.5893C467.942 81.3396 467.883 81.0707 467.879 80.7982V71.6942C467.879 71.1449 468.097 70.6181 468.486 70.2297C468.874 69.8413 469.401 69.623 469.95 69.623C470.499 69.623 471.026 69.8413 471.415 70.2297C471.803 70.6181 472.021 71.1449 472.021 71.6942V80.7982C472.012 81.3327 471.796 81.8428 471.418 82.2208C471.04 82.5988 470.53 82.8151 469.996 82.8238Z" fill="#407BFF"/>
<path d="M469.993 167.479C469.721 167.48 469.451 167.428 469.199 167.324C468.947 167.221 468.718 167.068 468.525 166.875C468.333 166.683 468.18 166.454 468.076 166.202C467.973 165.95 467.92 165.68 467.922 165.408V156.304C467.922 155.754 468.14 155.227 468.529 154.839C468.917 154.451 469.444 154.232 469.993 154.232C470.542 154.232 471.069 154.451 471.458 154.839C471.846 155.227 472.064 155.754 472.064 156.304V165.408C472.066 165.68 472.013 165.95 471.91 166.202C471.806 166.454 471.654 166.683 471.461 166.875C471.268 167.068 471.039 167.221 470.787 167.324C470.536 167.428 470.265 167.48 469.993 167.479Z" fill="#407BFF"/>
<path d="M432.304 119.275H423.143C422.857 119.296 422.57 119.258 422.3 119.163C422.029 119.068 421.782 118.919 421.572 118.724C421.362 118.529 421.194 118.293 421.08 118.03C420.965 117.768 420.906 117.484 420.906 117.198C420.906 116.911 420.965 116.628 421.08 116.365C421.194 116.103 421.362 115.867 421.572 115.672C421.782 115.477 422.029 115.327 422.3 115.233C422.57 115.138 422.857 115.1 423.143 115.121H432.304C432.589 115.1 432.876 115.138 433.146 115.233C433.417 115.327 433.665 115.477 433.875 115.672C434.084 115.867 434.252 116.103 434.366 116.365C434.481 116.628 434.54 116.911 434.54 117.198C434.54 117.484 434.481 117.768 434.366 118.03C434.252 118.293 434.084 118.529 433.875 118.724C433.665 118.919 433.417 119.068 433.146 119.163C432.876 119.258 432.589 119.296 432.304 119.275Z" fill="#407BFF"/>
<path d="M517.949 119.275H508.776C508.252 119.236 507.762 119 507.404 118.615C507.046 118.23 506.848 117.724 506.848 117.198C506.848 116.672 507.046 116.166 507.404 115.781C507.762 115.396 508.252 115.16 508.776 115.121H517.949C518.473 115.16 518.963 115.396 519.321 115.781C519.679 116.166 519.877 116.672 519.877 117.198C519.877 117.724 519.679 118.23 519.321 118.615C518.963 119 518.473 119.236 517.949 119.275Z" fill="#407BFF"/>
</svg>
