<svg width="65" height="65" viewBox="0 0 65 65" fill="none" xmlns="http://www.w3.org/2000/svg">
<g clip-path="url(#clip0_3522_8313)">
<path d="M32.502 11.25C27.6217 11.2555 22.9428 13.1966 19.4918 16.6474C16.0408 20.0982 14.0995 24.7769 14.0938 29.6572C14.0938 45.7513 31.4051 53.6061 32.1419 53.9306C32.2553 53.9808 32.3779 54.0068 32.502 54.0068C32.626 54.0068 32.7486 53.9808 32.862 53.9306C33.5988 53.6041 50.9102 45.7492 50.9102 29.6572C50.9044 24.7769 48.9631 20.0982 45.5121 16.6474C42.0611 13.1966 37.3822 11.2555 32.502 11.25ZM32.502 52.137C30.0416 50.931 15.8711 43.3793 15.8711 29.6572C15.8711 25.2464 17.6233 21.0163 20.7422 17.8974C23.8611 14.7785 28.0912 13.0263 32.502 13.0263C36.9127 13.0263 41.1429 14.7785 44.2617 17.8974C47.3806 21.0163 49.1328 25.2464 49.1328 29.6572C49.1328 43.3605 34.9598 50.9289 32.502 52.137Z" fill="#004AAD"/>
<path d="M32.5009 16C29.7997 16 27.1592 16.801 24.9133 18.3017C22.6674 19.8024 20.9169 21.9354 19.8832 24.431C18.8496 26.9266 18.5792 29.6726 19.1062 32.3219C19.6333 34.9711 20.9341 37.4046 22.8442 39.3145C24.7543 41.2244 27.1878 42.5251 29.8371 43.0519C32.4864 43.5788 35.2324 43.3082 37.7279 42.2743C40.2234 41.2405 42.3563 39.4899 43.8568 37.2439C45.3574 34.9978 46.1582 32.3573 46.158 29.6561C46.1535 26.0355 44.7132 22.5644 42.1529 20.0043C39.5927 17.4442 36.1215 16.0042 32.5009 16ZM25.5819 39.3045V38.2148C25.5827 36.969 26.0778 35.7745 26.9585 34.8935C27.8392 34.0124 29.0335 33.5168 30.2792 33.5155H34.7225C35.9679 33.5168 37.1619 34.0121 38.0425 34.8928C38.9231 35.7734 39.4185 36.9674 39.4198 38.2127V39.3045C37.4046 40.7556 34.9842 41.5364 32.5009 41.5364C30.0176 41.5364 27.5971 40.7556 25.5819 39.3045ZM41.1743 37.7628C41.0592 36.1298 40.3301 34.601 39.1337 33.4837C37.9372 32.3663 36.3621 31.7434 34.7251 31.7402H30.2817C28.6447 31.7434 27.0696 32.3663 25.8731 33.4837C24.6767 34.601 23.9476 36.1298 23.8325 37.7628C22.2498 36.0718 21.1959 33.955 20.8005 31.6728C20.4052 29.3907 20.6855 27.0427 21.6071 24.9179C22.5288 22.793 24.0514 20.9838 25.9878 19.713C27.9242 18.4422 30.1898 17.7651 32.5059 17.7651C34.8221 17.7651 37.0877 18.4422 39.0241 19.713C40.9605 20.9838 42.4831 22.793 43.4047 24.9179C44.3264 27.0427 44.6067 29.3907 44.2113 31.6728C43.816 33.955 42.7621 36.0718 41.1794 37.7628H41.1743Z" fill="#004AAD"/>
<path d="M0.548438 16.8645C0.710784 16.9318 0.889459 16.9494 1.06184 16.9152C1.23423 16.8809 1.39258 16.7963 1.51684 16.672L6.67164 11.5177L13.746 18.592C13.9127 18.7588 14.1388 18.8525 14.3747 18.8525C14.4059 18.8526 14.4371 18.8509 14.4681 18.8475C14.5998 18.8337 14.7268 18.7905 14.8396 18.7212C14.9525 18.6519 15.0483 18.5581 15.1201 18.4468C16.0099 17.0737 17.0579 15.8099 18.2427 14.6814C18.3285 14.5996 18.3971 14.5015 18.4444 14.3928C18.4918 14.2841 18.5169 14.1671 18.5183 14.0485C18.5198 13.93 18.4974 13.8124 18.4527 13.7026C18.408 13.5928 18.3417 13.4931 18.2579 13.4093L11.5192 6.67012L16.6735 1.51531C16.7973 1.39114 16.8816 1.23309 16.9158 1.06108C16.9499 0.889069 16.9324 0.710802 16.8654 0.548748C16.7984 0.386694 16.6849 0.248105 16.5392 0.150451C16.3935 0.0527961 16.2222 0.000446327 16.0469 0L0.888672 0C0.653245 -3.45932e-07 0.427439 0.0934182 0.260824 0.259747C0.0942094 0.426076 0.000403589 0.651722 0 0.887148L0 16.0438C-4.97288e-07 16.2195 0.0521066 16.3913 0.14973 16.5373C0.247353 16.6834 0.386106 16.7972 0.548438 16.8645ZM1.77734 1.77734H13.8998L9.63422 6.04297C9.55163 6.12546 9.48611 6.22342 9.4414 6.33125C9.3967 6.43907 9.37369 6.55466 9.37369 6.67139C9.37369 6.78812 9.3967 6.9037 9.4414 7.01153C9.48611 7.11936 9.55163 7.21732 9.63422 7.2998L16.3704 14.0354C15.6009 14.8298 14.8906 15.6794 14.2452 16.5775L7.29981 9.6327C7.21732 9.5501 7.11936 9.48458 7.01153 9.43988C6.9037 9.39518 6.78812 9.37217 6.67139 9.37217C6.55466 9.37217 6.43908 9.39518 6.33125 9.43988C6.22342 9.48458 6.12546 9.5501 6.04297 9.6327L1.77734 13.8983V1.77734Z" fill="#004AAD"/>
<path d="M16.9655 44.6223C16.8892 44.5202 16.7919 44.4357 16.6801 44.3746C16.5682 44.3135 16.4446 44.2771 16.3175 44.2679C16.1904 44.2588 16.0628 44.2771 15.9434 44.3216C15.824 44.3661 15.7155 44.4357 15.6254 44.5258L6.67164 53.4801L1.51684 48.3253C1.39256 48.2011 1.23425 48.1165 1.06192 48.0822C0.889595 48.048 0.710982 48.0656 0.548653 48.1328C0.386324 48.2 0.247565 48.3139 0.149911 48.4599C0.0522562 48.606 8.89906e-05 48.7777 1.30592e-06 48.9534V64.1101C-0.000198975 64.2269 0.0226394 64.3427 0.0672097 64.4507C0.11178 64.5586 0.177207 64.6568 0.259748 64.7395C0.342289 64.8222 0.440323 64.8878 0.548241 64.9325C0.656159 64.9773 0.771843 65.0003 0.888673 65.0003H16.0469C16.2227 65.0005 16.3946 64.9484 16.5408 64.8508C16.687 64.7532 16.801 64.6144 16.8682 64.452C16.9355 64.2895 16.9531 64.1108 16.9187 63.9384C16.8843 63.766 16.7995 63.6076 16.675 63.4835L11.5207 58.3287L20.2348 49.6136C20.3176 49.5307 20.3833 49.4322 20.4279 49.3239C20.4725 49.2155 20.4953 49.0994 20.4949 48.9822C20.4945 48.865 20.4709 48.749 20.4254 48.641C20.38 48.533 20.3137 48.435 20.2302 48.3527C19.0501 47.1927 17.9588 45.9457 16.9655 44.6223ZM9.63422 57.699C9.55164 57.7814 9.48613 57.8793 9.44144 57.9871C9.39674 58.0949 9.37373 58.2104 9.37373 58.3271C9.37373 58.4438 9.39674 58.5594 9.44144 58.6672C9.48613 58.7749 9.55164 58.8729 9.63422 58.9553L13.8998 63.2209H1.77734V51.0994L6.04297 55.3651C6.12546 55.4477 6.22342 55.5132 6.33125 55.5579C6.43908 55.6026 6.55466 55.6256 6.67139 55.6256C6.78812 55.6256 6.9037 55.6026 7.01153 55.5579C7.11936 55.5132 7.21732 55.4477 7.29981 55.3651L16.1682 46.4966C16.8446 47.3442 17.5754 48.175 18.3518 48.9798L9.63422 57.699Z" fill="#004AAD"/>
<path d="M64.4504 48.1327C64.288 48.0653 64.1093 48.0477 63.9369 48.0819C63.7646 48.1162 63.6062 48.2008 63.482 48.3251L58.3272 53.4799L49.3729 44.5257C49.2825 44.4359 49.174 44.3665 49.0546 44.322C48.9353 44.2775 48.8078 44.259 48.6807 44.2677C48.5536 44.2769 48.4299 44.3134 48.3182 44.3748C48.2065 44.4361 48.1093 44.5208 48.0333 44.6232C47.0399 45.9457 45.9485 47.1919 44.7686 48.351C44.6851 48.4333 44.6188 48.5313 44.5734 48.6393C44.5279 48.7474 44.5043 48.8633 44.5039 48.9805C44.5035 49.0977 44.5262 49.2138 44.5709 49.3222C44.6155 49.4306 44.6811 49.529 44.764 49.6119L53.4796 58.328L48.3253 63.4818C48.2004 63.6058 48.1152 63.7641 48.0804 63.9367C48.0457 64.1092 48.063 64.2882 48.1301 64.4508C48.1973 64.6135 48.3112 64.7526 48.4575 64.8504C48.6039 64.9482 48.7759 65.0003 48.9519 65.0002H64.1101C64.3458 65.0002 64.5718 64.9065 64.7385 64.7399C64.9052 64.5732 64.9988 64.3472 64.9988 64.1115V48.9533C64.9987 48.7776 64.9466 48.6059 64.849 48.4598C64.7514 48.3138 64.6126 48.1999 64.4504 48.1327ZM63.2214 63.2228H51.0989L55.3646 58.9572C55.4471 58.8748 55.5127 58.7768 55.5574 58.6691C55.602 58.5613 55.6251 58.4457 55.6251 58.329C55.6251 58.2123 55.602 58.0968 55.5574 57.989C55.5127 57.8812 55.4471 57.7833 55.3646 57.7009L46.6459 48.9797C47.4234 48.1748 48.1541 47.344 48.8295 46.4965L57.698 55.3644C57.7805 55.447 57.8784 55.5125 57.9862 55.5572C58.0941 55.6019 58.2097 55.625 58.3264 55.625C58.4431 55.625 58.5587 55.6019 58.6665 55.5572C58.7744 55.5125 58.8723 55.447 58.9548 55.3644L63.2204 51.0988L63.2214 63.2228Z" fill="#004AAD"/>
<path d="M64.1102 3.45554e-07H48.952C48.7762 -0.000154701 48.6043 0.0518693 48.4581 0.149483C48.3118 0.247097 48.1979 0.385909 48.1306 0.548338C48.0634 0.710768 48.0458 0.889506 48.0802 1.06192C48.1146 1.23433 48.1994 1.39265 48.3238 1.51684L53.4781 6.67164L46.741 13.4093C46.6571 13.4931 46.5909 13.5928 46.5462 13.7026C46.5014 13.8124 46.4791 13.93 46.4805 14.0485C46.482 14.1671 46.5071 14.2841 46.5544 14.3928C46.6018 14.5015 46.6704 14.5996 46.7562 14.6814C47.9408 15.81 48.9888 17.0738 49.8787 18.4468C49.9506 18.5581 50.0464 18.6519 50.1592 18.7212C50.2721 18.7905 50.3991 18.8337 50.5308 18.8475C50.5618 18.8509 50.593 18.8526 50.6242 18.8525C50.86 18.8525 51.0862 18.7588 51.2529 18.592L58.3272 11.5177L63.482 16.672C63.6063 16.7962 63.7646 16.8807 63.9369 16.915C64.1093 16.9493 64.2879 16.9317 64.4502 16.8644C64.6125 16.7972 64.7513 16.6834 64.849 16.5373C64.9466 16.3913 64.9988 16.2195 64.9989 16.0438V0.887149C64.9985 0.651722 64.9047 0.426076 64.738 0.259747C64.5714 0.0934185 64.3456 -3.79643e-10 64.1102 3.45554e-07ZM63.2215 13.8983L58.9559 9.63269C58.8734 9.5501 58.7754 9.48458 58.6676 9.43988C58.5598 9.39517 58.4442 9.37217 58.3275 9.37217C58.2108 9.37217 58.0952 9.39517 57.9873 9.43988C57.8795 9.48458 57.7815 9.5501 57.6991 9.63269L50.7537 16.5775C50.1083 15.6794 49.398 14.8298 48.6285 14.0354L55.3646 7.29879C55.4472 7.2163 55.5128 7.11834 55.5575 7.01051C55.6022 6.90268 55.6252 6.7871 55.6252 6.67037C55.6252 6.55364 55.6022 6.43806 55.5575 6.33023C55.5128 6.2224 55.4472 6.12444 55.3646 6.04195L51.099 1.77633H63.2215V13.8983Z" fill="#004AAD"/>
<path d="M32.499 20.3124C31.5017 20.2568 30.5106 20.5018 29.6539 21.0157C28.7973 21.5295 28.1146 22.2886 27.6941 23.1947C27.2737 24.1008 27.1348 25.1123 27.2954 26.0982C27.4561 27.0841 27.9089 27.9991 28.5953 28.7248C29.2817 29.4506 30.1701 29.9536 31.1455 30.1689C32.121 30.3843 33.1386 30.3019 34.0667 29.9325C34.9948 29.5632 35.7907 28.9238 36.3515 28.0971C36.9122 27.2704 37.212 26.2945 37.212 25.2956C37.2454 24.0105 36.7681 22.7645 35.8848 21.8305C35.0014 20.8966 33.784 20.3507 32.499 20.3124ZM32.499 28.5009C31.853 28.5578 31.2049 28.4182 30.6396 28.1004C30.0743 27.7825 29.6182 27.3013 29.3311 26.7198C29.0441 26.1383 28.9394 25.4836 29.0308 24.8416C29.1223 24.1995 29.4056 23.6001 29.8436 23.1218C30.2816 22.6436 30.8539 22.3088 31.4854 22.1615C32.117 22.0141 32.7783 22.061 33.3828 22.296C33.9872 22.531 34.5066 22.9431 34.8727 23.4784C35.2389 24.0137 35.4347 24.6471 35.4347 25.2956C35.4678 26.1091 35.1776 26.9027 34.6276 27.5031C34.0776 28.1034 33.3124 28.4618 32.499 28.4999V28.5009Z" fill="#004AAD"/>
</g>
<defs>
<clipPath id="clip0_3522_8313">
<rect width="65" height="65" fill="white"/>
</clipPath>
</defs>
</svg>
