<svg width="65" height="65" viewBox="0 0 65 65" fill="none" xmlns="http://www.w3.org/2000/svg">
<circle cx="32.5" cy="32.5" r="32.5" fill="#FEFEFE"/>
<path d="M43.8283 31.2024C43.8864 37.4976 49.3395 39.5928 49.3996 39.6196C49.3535 39.7669 48.5285 42.6051 46.5271 45.5361C44.7969 48.0702 43.001 50.595 40.1726 50.6479C37.3933 50.6988 36.4995 48.9958 33.3215 48.9958C30.1446 48.9958 29.1519 50.595 26.5206 50.6988C23.7901 50.8026 21.7108 47.958 19.9663 45.4336C16.4018 40.2689 13.6776 30.8391 17.3353 24.4739C19.1524 21.3129 22.4001 19.3115 25.9249 19.2599C28.6059 19.2087 31.1366 21.0675 32.7756 21.0675C34.4135 21.0675 37.4888 18.832 40.7219 19.1602C42.0754 19.2168 45.8745 19.708 48.314 23.2869C48.1179 23.4091 43.7812 25.9392 43.8283 31.2024ZM38.6048 15.7437C40.0543 13.9854 41.0299 11.5369 40.764 9.10156C38.6743 9.18561 36.1476 10.4969 34.649 12.2545C33.3058 13.8106 32.1297 16.3019 32.4468 18.689C34.776 18.8698 37.155 17.503 38.6048 15.7437Z" fill="black"/>
</svg>
