<svg width="66" height="65" viewBox="0 0 66 65" fill="none" xmlns="http://www.w3.org/2000/svg">
<circle cx="33.2998" cy="32.5" r="32.5" fill="#FEFEFE"/>
<path d="M39.0821 31.4684L19.1668 51.3837C18.2148 50.4831 17.7002 49.2481 17.7002 47.9101V16.6735C17.7002 15.3098 18.2405 14.0747 19.2183 13.1484L39.0821 31.4684Z" fill="#2196F3"/>
<path d="M56.2976 32.2829C56.2976 34.084 55.3198 35.6793 53.6988 36.5798L48.0381 39.7189L41.0138 33.2349L39.084 31.4595L46.52 24.0234L53.6988 27.9859C55.3198 28.8865 56.2976 30.4817 56.2976 32.2829Z" fill="#FFC107"/>
<path d="M39.0825 31.4631L19.2188 13.1432C19.4761 12.8859 19.8105 12.6543 20.145 12.4484C21.7661 11.4707 23.7216 11.445 25.394 12.3713L46.5186 24.0271L39.0825 31.4631Z" fill="#4CAF50"/>
<path d="M48.0374 39.7204L25.3947 52.1996C24.5971 52.6627 23.6965 52.8686 22.8217 52.8686C21.8954 52.8686 20.9691 52.637 20.1457 52.1224C19.7884 51.9177 19.4597 51.6668 19.168 51.3762L39.0832 31.4609L41.013 33.2363L48.0374 39.7204Z" fill="#F44336"/>
</svg>
