<svg width="650" height="870" viewBox="0 0 650 870" fill="none" xmlns="http://www.w3.org/2000/svg">
<path d="M650 665.375H0V665.81H650V665.375Z" fill="#E0E0E0"/>
<path d="M493.13 681.418H448.41V681.853H493.13V681.418Z" fill="#E0E0E0"/>
<path d="M545.738 680.184H520.57V680.619H545.738V680.184Z" fill="#E0E0E0"/>
<path d="M321.54 681.211H288.156V681.646H321.54V681.211Z" fill="#E0E0E0"/>
<path d="M345.657 687.387H322.855V687.822H345.657V687.387Z" fill="#E0E0E0"/>
<path d="M188.071 676.809H119.184V677.244H188.071V676.809Z" fill="#E0E0E0"/>
<path d="M308.099 587.771H57.0819C55.1154 587.767 53.2307 586.718 51.8414 584.855C50.4522 582.992 49.6719 580.468 49.6719 577.836V105.548C49.689 102.931 50.4768 100.429 51.8643 98.5845C53.2517 96.7405 55.1266 95.7037 57.0819 95.6992H308.099C310.068 95.6992 311.956 96.746 313.348 98.6092C314.74 100.472 315.522 103 315.522 105.635V577.836C315.522 580.471 314.74 582.998 313.348 584.861C311.956 586.724 310.068 587.771 308.099 587.771ZM57.0819 96.0472C55.2016 96.0518 53.3996 97.0548 52.0712 98.836C50.7429 100.617 49.9969 103.031 49.9969 105.548V577.836C49.9969 580.352 50.7429 582.766 52.0712 584.547C53.3996 586.329 55.2016 587.332 57.0819 587.336H308.099C309.98 587.332 311.784 586.329 313.114 584.549C314.445 582.768 315.193 580.354 315.197 577.836V105.548C315.193 103.029 314.445 100.616 313.114 98.8349C311.784 97.0542 309.98 96.0518 308.099 96.0472H57.0819Z" fill="#E0E0E0"/>
<path d="M589.305 587.771H338.275C336.307 587.767 334.421 586.718 333.03 584.856C331.638 582.994 330.855 580.469 330.852 577.836V105.548C330.872 102.929 331.663 100.427 333.052 98.5834C334.442 96.7399 336.318 95.7037 338.275 95.6992H589.305C591.258 95.7083 593.129 96.7471 594.514 98.5906C595.898 100.434 596.684 102.934 596.702 105.548V577.836C596.702 580.465 595.923 582.987 594.537 584.849C593.15 586.711 591.269 587.762 589.305 587.771ZM338.275 96.0472C336.393 96.0518 334.59 97.0542 333.259 98.8349C331.929 100.616 331.18 103.029 331.177 105.548V577.836C331.18 580.354 331.929 582.768 333.259 584.549C334.59 586.329 336.393 587.332 338.275 587.336H589.305C591.186 587.332 592.989 586.329 594.32 584.549C595.65 582.768 596.399 580.354 596.403 577.836V105.548C596.399 103.029 595.65 100.616 594.32 98.8349C592.989 97.0542 591.186 96.0518 589.305 96.0472H338.275Z" fill="#E0E0E0"/>
<path d="M564.238 137.93H368.328V363.364H564.238V137.93Z" fill="#E0E0E0"/>
<path d="M568.594 137.93H372.684V363.364H568.594V137.93Z" fill="#F0F0F0"/>
<path d="M560.781 352.784V148.508L380.497 148.508V352.784H560.781Z" fill="#FAFAFA"/>
<path d="M503.164 352.784V148.508H491.386V352.784H503.164Z" fill="#E0E0E0"/>
<path d="M441.207 352.784V148.508H429.429V352.784H441.207Z" fill="#E0E0E0"/>
<path d="M507.312 359.482V140.625H495.534V359.482H507.312Z" fill="#F0F0F0"/>
<path d="M445.34 359.502V140.645H433.562V359.502H445.34Z" fill="#F0F0F0"/>
<path d="M560.781 352.768V148.492H557.492V352.768H560.781Z" fill="#E0E0E0"/>
<path d="M230.54 315.965C230.54 315.965 206.698 260.999 239.783 217.168C239.783 217.168 248.415 224.702 248.285 234.829C248.155 244.956 239.029 247.514 240.992 255.97C242.955 264.426 251.548 272.691 245.906 279.686C240.264 286.681 246.816 292.875 246.439 301.436C246.062 309.997 230.54 315.965 230.54 315.965Z" fill="#E0E0E0"/>
<path d="M234.285 324.963C234.285 324.963 243.957 262.706 202.253 235.109C202.253 235.109 195.831 245.897 198.353 255.45C200.875 265.003 210.118 263.576 210.248 272.432C210.378 281.289 204.177 292.773 211.171 297.019C218.165 301.264 213.42 309.929 215.799 317.899C218.178 325.868 234.285 324.963 234.285 324.963Z" fill="#E6E6E6"/>
<path d="M213.059 309.145C213.059 309.145 213.475 362.893 229.53 362.893C245.585 362.893 245.988 309.145 245.988 309.145H213.059Z" fill="#F0F0F0"/>
<path d="M116.598 342.676C116.598 342.676 117.495 362.895 151.776 362.895C186.057 362.895 186.967 342.676 186.967 342.676H116.598Z" fill="#E6E6E6"/>
<path d="M478.01 464.578H459.914C457.66 464.578 455.832 467.024 455.832 470.042V510.097C455.832 513.114 457.66 515.56 459.914 515.56H478.01C480.264 515.56 482.092 513.114 482.092 510.097V470.042C482.092 467.024 480.264 464.578 478.01 464.578Z" fill="#F0F0F0"/>
<path d="M526.006 481.25H513.825C512.31 481.25 511.082 482.894 511.082 484.921V511.891C511.082 513.919 512.31 515.563 513.825 515.563H526.006C527.521 515.563 528.749 513.919 528.749 511.891V484.921C528.749 482.894 527.521 481.25 526.006 481.25Z" fill="#E6E6E6"/>
<path d="M527.826 477.926H512.005C511.495 477.926 511.082 478.479 511.082 479.161V480.553C511.082 481.235 511.495 481.789 512.005 481.789H527.826C528.336 481.789 528.749 481.235 528.749 480.553V479.161C528.749 478.479 528.336 477.926 527.826 477.926Z" fill="#F0F0F0"/>
<path d="M413.945 487.199C413.945 487.199 414.595 515.561 439.412 515.561C464.229 515.561 464.892 487.199 464.892 487.199H413.945Z" fill="#E6E6E6"/>
<path d="M352.22 449.738H389.777V439.82H352.22V449.738Z" fill="#E0E0E0"/>
<path d="M576.496 439.836H389.777V449.754H576.496V439.836Z" fill="#F0F0F0"/>
<path d="M352.22 525.48H389.777V515.562H352.22V525.48Z" fill="#E0E0E0"/>
<path d="M576.496 515.562H389.777V525.481H576.496V515.562Z" fill="#F0F0F0"/>
<path d="M365.753 449.738H358.824V665.359H365.753V449.738Z" fill="#E0E0E0"/>
<path d="M396.706 449.738H389.777V665.359H396.706V449.738Z" fill="#F0F0F0"/>
<path d="M552.476 449.738H545.547V665.359H552.476V449.738Z" fill="#E0E0E0"/>
<path d="M576.499 449.738H569.57V665.359H576.499V449.738Z" fill="#F0F0F0"/>
<path d="M116.598 375.508H81.082V652.324H116.598V375.508Z" fill="#E6E6E6"/>
<path d="M263.042 652.309H87.9062V665.376H263.042V652.309Z" fill="#E6E6E6"/>
<path d="M116.598 652.309H269.855V375.492H116.598L116.598 652.309Z" fill="#F0F0F0"/>
<path d="M130.558 547.715H255.891V480.098H130.558V547.715Z" fill="#E6E6E6"/>
<path d="M130.558 627.652H255.891V560.036H130.558V627.652Z" fill="#E6E6E6"/>
<path d="M207.298 487.512H179.153C178.237 487.508 177.36 487.019 176.712 486.152C176.064 485.285 175.699 484.11 175.695 482.884C175.695 481.655 176.059 480.476 176.707 479.605C177.355 478.734 178.235 478.243 179.153 478.238H207.298C208.217 478.243 209.096 478.734 209.744 479.605C210.392 480.476 210.756 481.655 210.756 482.884C210.753 484.11 210.387 485.285 209.74 486.152C209.092 487.019 208.214 487.508 207.298 487.512Z" fill="#F0F0F0"/>
<path d="M130.558 467.762H255.891V400.145H130.558V467.762Z" fill="#E6E6E6"/>
<path d="M207.298 407.575H179.153C178.235 407.57 177.355 407.079 176.707 406.208C176.059 405.337 175.695 404.158 175.695 402.929C175.699 401.703 176.064 400.528 176.712 399.661C177.36 398.794 178.237 398.305 179.153 398.301H207.298C208.214 398.305 209.092 398.794 209.74 399.661C210.387 400.528 210.753 401.703 210.756 402.929C210.756 404.158 210.392 405.337 209.744 406.208C209.096 407.079 208.217 407.57 207.298 407.575Z" fill="#F0F0F0"/>
<path d="M207.298 567.45H179.153C178.237 567.445 177.36 566.956 176.712 566.089C176.064 565.222 175.699 564.048 175.695 562.822C175.695 561.592 176.059 560.413 176.707 559.543C177.355 558.672 178.235 558.18 179.153 558.176H207.298C208.217 558.18 209.096 558.672 209.744 559.543C210.392 560.413 210.756 561.592 210.756 562.822C210.753 564.048 210.387 565.222 209.74 566.089C209.092 566.956 208.214 567.445 207.298 567.45Z" fill="#F0F0F0"/>
<path d="M274.587 362.895H116.598V375.51H274.587V362.895Z" fill="#E6E6E6"/>
<path d="M76.1157 375.492H116.598V362.877H76.1157V375.492Z" fill="#E0E0E0"/>
<path d="M156.183 148.508H98.7227V232.967H156.183V148.508Z" fill="#E6E6E6"/>
<path d="M162.409 148.508H103.051V232.967H162.409V148.508Z" fill="#F0F0F0"/>
<path d="M157.43 226.305V155.156H108.017V226.305H157.43Z" fill="#FAFAFA"/>
<path d="M145.457 209.06V172.398H120.003V209.06H145.457Z" fill="#F0F0F0"/>
<path d="M216.764 123.574H173.188V186.232H216.764V123.574Z" fill="#E6E6E6"/>
<path d="M221.39 123.574H177.359V186.232H221.39V123.574Z" fill="#F0F0F0"/>
<path d="M217.699 181.29V128.516H181.052V181.29H217.699Z" fill="#FAFAFA"/>
<path d="M199.367 141.547L189.344 164.793H209.39L199.367 141.547Z" fill="#F0F0F0"/>
<path d="M324.998 743.956C464.206 743.956 577.055 735.138 577.055 724.259C577.055 713.381 464.206 704.562 324.998 704.562C185.791 704.562 72.9414 713.381 72.9414 724.259C72.9414 735.138 185.791 743.956 324.998 743.956Z" fill="#F5F5F5"/>
<path d="M545.738 253.727H418.208C411.481 253.727 406.027 261.026 406.027 270.03V316.454C406.027 325.458 411.481 332.757 418.208 332.757H545.738C552.466 332.757 557.919 325.458 557.919 316.454V270.03C557.919 261.026 552.466 253.727 545.738 253.727Z" fill="#90CAF9"/>
<path d="M520.442 267.055H420.823C419.646 267.055 418.691 268.332 418.691 269.908V273.04C418.691 274.616 419.646 275.894 420.823 275.894H520.442C521.62 275.894 522.574 274.616 522.574 273.04V269.908C522.574 268.332 521.62 267.055 520.442 267.055Z" fill="#90CAF9"/>
<path d="M488.891 288.352H420.823C419.646 288.352 418.691 289.629 418.691 291.205V294.337C418.691 295.913 419.646 297.191 420.823 297.191H488.891C490.069 297.191 491.023 295.913 491.023 294.337V291.205C491.023 289.629 490.069 288.352 488.891 288.352Z" fill="#90CAF9"/>
<path d="M470.639 309.648H420.823C419.646 309.648 418.691 310.926 418.691 312.502V315.634C418.691 317.21 419.646 318.488 420.823 318.488H470.639C471.817 318.488 472.771 317.21 472.771 315.634V312.502C472.771 310.926 471.817 309.648 470.639 309.648Z" fill="#90CAF9"/>
<path d="M532.374 309.648H482.558C481.38 309.648 480.426 310.926 480.426 312.502V315.634C480.426 317.21 481.38 318.488 482.558 318.488H532.374C533.551 318.488 534.506 317.21 534.506 315.634V312.502C534.506 310.926 533.551 309.648 532.374 309.648Z" fill="#90CAF9"/>
<g opacity="0.5">
<path d="M520.442 267.055H420.823C419.646 267.055 418.691 268.332 418.691 269.908V273.04C418.691 274.616 419.646 275.894 420.823 275.894H520.442C521.62 275.894 522.574 274.616 522.574 273.04V269.908C522.574 268.332 521.62 267.055 520.442 267.055Z" fill="white"/>
<path d="M488.891 288.352H420.823C419.646 288.352 418.691 289.629 418.691 291.205V294.337C418.691 295.913 419.646 297.191 420.823 297.191H488.891C490.069 297.191 491.023 295.913 491.023 294.337V291.205C491.023 289.629 490.069 288.352 488.891 288.352Z" fill="white"/>
<path d="M470.639 309.648H420.823C419.646 309.648 418.691 310.926 418.691 312.502V315.634C418.691 317.21 419.646 318.488 420.823 318.488H470.639C471.817 318.488 472.771 317.21 472.771 315.634V312.502C472.771 310.926 471.817 309.648 470.639 309.648Z" fill="white"/>
<path d="M532.378 309.648H482.562C481.384 309.648 480.43 310.926 480.43 312.502V315.634C480.43 317.21 481.384 318.488 482.562 318.488H532.378C533.555 318.488 534.51 317.21 534.51 315.634V312.502C534.51 310.926 533.555 309.648 532.378 309.648Z" fill="white"/>
</g>
<path d="M443.586 235.301H298.831C288.966 235.301 280.969 246.005 280.969 259.208V327.277C280.969 340.481 288.966 351.185 298.831 351.185H443.586C453.451 351.185 461.448 340.481 461.448 327.277V259.208C461.448 246.005 453.451 235.301 443.586 235.301Z" fill="#90CAF9"/>
<path d="M448.706 254.84H302.664C300.934 254.84 299.531 256.717 299.531 259.033V263.609C299.531 265.925 300.934 267.803 302.664 267.803H448.706C450.437 267.803 451.839 265.925 451.839 263.609V259.033C451.839 256.717 450.437 254.84 448.706 254.84Z" fill="#90CAF9"/>
<path d="M402.439 286.074H302.664C300.934 286.074 299.531 287.952 299.531 290.268V294.844C299.531 297.16 300.934 299.037 302.664 299.037H402.439C404.17 299.037 405.572 297.16 405.572 294.844V290.268C405.572 287.952 404.17 286.074 402.439 286.074Z" fill="#90CAF9"/>
<path d="M375.685 317.305H302.664C300.934 317.305 299.531 319.182 299.531 321.498V326.074C299.531 328.39 300.934 330.268 302.664 330.268H375.685C377.416 330.268 378.818 328.39 378.818 326.074V321.498C378.818 319.182 377.416 317.305 375.685 317.305Z" fill="#90CAF9"/>
<path d="M454.024 317.305H393.184C391.453 317.305 390.051 319.182 390.051 321.498V326.074C390.051 328.39 391.453 330.268 393.184 330.268H454.024C455.754 330.268 457.157 328.39 457.157 326.074V321.498C457.157 319.182 455.754 317.305 454.024 317.305Z" fill="#90CAF9"/>
<g opacity="0.5">
<path d="M448.706 254.84H302.664C300.934 254.84 299.531 256.717 299.531 259.033V263.609C299.531 265.925 300.934 267.803 302.664 267.803H448.706C450.437 267.803 451.839 265.925 451.839 263.609V259.033C451.839 256.717 450.437 254.84 448.706 254.84Z" fill="white"/>
<path d="M402.439 286.074H302.664C300.934 286.074 299.531 287.952 299.531 290.268V294.844C299.531 297.16 300.934 299.037 302.664 299.037H402.439C404.17 299.037 405.572 297.16 405.572 294.844V290.268C405.572 287.952 404.17 286.074 402.439 286.074Z" fill="white"/>
<path d="M375.685 317.305H302.664C300.934 317.305 299.531 319.182 299.531 321.498V326.074C299.531 328.39 300.934 330.268 302.664 330.268H375.685C377.416 330.268 378.818 328.39 378.818 326.074V321.498C378.818 319.182 377.416 317.305 375.685 317.305Z" fill="white"/>
<path d="M454.024 317.305H393.184C391.453 317.305 390.051 319.182 390.051 321.498V326.074C390.051 328.39 391.453 330.268 393.184 330.268H454.024C455.754 330.268 457.157 328.39 457.157 326.074V321.498C457.157 319.182 455.754 317.305 454.024 317.305Z" fill="white"/>
</g>
<path d="M353.588 372.184H283.869C279.26 372.184 275.523 377.185 275.523 383.354V523.146C275.523 529.315 279.26 534.317 283.869 534.317H353.588C358.198 534.317 361.934 529.315 361.934 523.146V383.354C361.934 377.185 358.198 372.184 353.588 372.184Z" fill="#90CAF9"/>
<path opacity="0.4" d="M353.588 372.184H283.869C279.26 372.184 275.523 377.185 275.523 383.354V523.146C275.523 529.315 279.26 534.317 283.869 534.317H353.588C358.198 534.317 361.934 529.315 361.934 523.146V383.354C361.934 377.185 358.198 372.184 353.588 372.184Z" fill="black"/>
<path d="M350.39 389.098H287.054C286.206 389.098 285.52 390.017 285.52 391.151V394.231C285.52 395.365 286.206 396.284 287.054 396.284H350.39C351.237 396.284 351.924 395.365 351.924 394.231V391.151C351.924 390.017 351.237 389.098 350.39 389.098Z" fill="#FAFAFA"/>
<path d="M330.227 406.395H287.054C286.206 406.395 285.52 407.314 285.52 408.448V411.528C285.52 412.661 286.206 413.581 287.054 413.581H330.227C331.074 413.581 331.761 412.661 331.761 411.528V408.448C331.761 407.314 331.074 406.395 330.227 406.395Z" fill="#FAFAFA"/>
<path d="M350.39 423.707H287.054C286.206 423.707 285.52 424.626 285.52 425.76V428.84C285.52 429.974 286.206 430.893 287.054 430.893H350.39C351.237 430.893 351.924 429.974 351.924 428.84V425.76C351.924 424.626 351.237 423.707 350.39 423.707Z" fill="#FAFAFA"/>
<path d="M310.597 441.004H287.054C286.206 441.004 285.52 441.923 285.52 443.057V446.137C285.52 447.271 286.206 448.19 287.054 448.19H310.597C311.444 448.19 312.131 447.271 312.131 446.137V443.057C312.131 441.923 311.444 441.004 310.597 441.004Z" fill="#FAFAFA"/>
<path d="M343.538 441.004H319.995C319.148 441.004 318.461 441.923 318.461 443.057V446.137C318.461 447.271 319.148 448.19 319.995 448.19H343.538C344.385 448.19 345.072 447.271 345.072 446.137V443.057C345.072 441.923 344.385 441.004 343.538 441.004Z" fill="#FAFAFA"/>
<path d="M350.39 458.316H287.054C286.206 458.316 285.52 459.236 285.52 460.37V463.449C285.52 464.583 286.206 465.503 287.054 465.503H350.39C351.237 465.503 351.924 464.583 351.924 463.449V460.37C351.924 459.236 351.237 458.316 350.39 458.316Z" fill="#FAFAFA"/>
<path d="M350.39 475.609H287.054C286.206 475.609 285.52 476.529 285.52 477.663V480.742C285.52 481.876 286.206 482.796 287.054 482.796H350.39C351.237 482.796 351.924 481.876 351.924 480.742V477.663C351.924 476.529 351.237 475.609 350.39 475.609Z" fill="#FAFAFA"/>
<path d="M339.158 492.922H287.054C286.206 492.922 285.52 493.841 285.52 494.975V498.055C285.52 499.189 286.206 500.108 287.054 500.108H339.158C340.005 500.108 340.692 499.189 340.692 498.055V494.975C340.692 493.841 340.005 492.922 339.158 492.922Z" fill="#FAFAFA"/>
<path d="M311.364 510.219H287.054C286.206 510.219 285.52 511.138 285.52 512.272V515.352C285.52 516.486 286.206 517.405 287.054 517.405H311.364C312.211 517.405 312.898 516.486 312.898 515.352V512.272C312.898 511.138 312.211 510.219 311.364 510.219Z" fill="#FAFAFA"/>
<path d="M372.449 371.191H275.742L318.499 416.727L384.058 449.787V386.695C384.051 382.58 382.825 378.637 380.649 375.73C378.472 372.824 375.524 371.191 372.449 371.191Z" fill="#90CAF9"/>
<path opacity="0.4" d="M372.449 371.191H275.742L318.499 416.727L384.058 449.787V386.695C384.051 382.58 382.825 378.637 380.649 375.73C378.472 372.824 375.524 371.191 372.449 371.191Z" fill="black"/>
<path d="M368.226 394.648H297.467C296.404 394.648 295.543 395.801 295.543 397.224V402.026C295.543 403.448 296.404 404.601 297.467 404.601H368.226C369.289 404.601 370.15 403.448 370.15 402.026V397.224C370.15 395.801 369.289 394.648 368.226 394.648Z" fill="#FAFAFA"/>
<path d="M539.695 494.454V403.418C539.695 396.441 535.47 390.785 530.257 390.785H412.152C406.94 390.785 402.714 396.441 402.714 403.418V494.454C402.714 501.431 406.94 507.087 412.152 507.087H530.257C535.47 507.087 539.695 501.431 539.695 494.454Z" fill="#90CAF9"/>
<path d="M561.262 465.607V374.57C561.262 367.593 557.036 361.938 551.824 361.938H433.719C428.506 361.938 424.281 367.593 424.281 374.57V465.607C424.281 472.583 428.506 478.239 433.719 478.239H551.824C557.036 478.239 561.262 472.583 561.262 465.607Z" fill="#90CAF9"/>
<path opacity="0.5" d="M561.262 465.607V374.57C561.262 367.593 557.036 361.938 551.824 361.938H433.719C428.506 361.938 424.281 367.593 424.281 374.57V465.607C424.281 472.583 428.506 478.239 433.719 478.239H551.824C557.036 478.239 561.262 472.583 561.262 465.607Z" fill="white"/>
<path d="M549.277 434.408V378.362C549.277 375.258 547.397 372.742 545.078 372.742H506.481C504.162 372.742 502.282 375.258 502.282 378.362V434.408C502.282 437.512 504.162 440.028 506.481 440.028H545.078C547.397 440.028 549.277 437.512 549.277 434.408Z" fill="#90CAF9"/>
<path opacity="0.7" d="M549.277 434.408V378.362C549.277 375.258 547.397 372.742 545.078 372.742H506.481C504.162 372.742 502.282 375.258 502.282 378.362V434.408C502.282 437.512 504.162 440.028 506.481 440.028H545.078C547.397 440.028 549.277 437.512 549.277 434.408Z" fill="white"/>
<path d="M494.922 461.516V418.573C494.922 416.19 493.478 414.258 491.698 414.258H462.123C460.342 414.258 458.899 416.19 458.899 418.573V461.516C458.899 463.899 460.342 465.831 462.123 465.831H491.698C493.478 465.831 494.922 463.899 494.922 461.516Z" fill="#90CAF9"/>
<path opacity="0.3" d="M494.922 461.516V418.573C494.922 416.19 493.478 414.258 491.698 414.258H462.123C460.342 414.258 458.899 416.19 458.899 418.573V461.516C458.899 463.899 460.342 465.831 462.123 465.831H491.698C493.478 465.831 494.922 463.899 494.922 461.516Z" fill="white"/>
<path d="M476.906 189.242V166.048C476.906 158.956 472.611 153.207 467.312 153.207L149.943 153.207C144.645 153.207 140.349 158.956 140.349 166.048V189.242C140.349 196.334 144.645 202.084 149.943 202.084L467.312 202.084C472.611 202.084 476.906 196.334 476.906 189.242Z" fill="#90CAF9"/>
<path opacity="0.5" d="M476.906 189.242V166.048C476.906 158.956 472.611 153.207 467.312 153.207L149.943 153.207C144.645 153.207 140.349 158.956 140.349 166.048V189.242C140.349 196.334 144.645 202.084 149.943 202.084L467.312 202.084C472.611 202.084 476.906 196.334 476.906 189.242Z" fill="white"/>
<path d="M416.859 210.259V193.434H325.534V210.259H416.859Z" fill="#90CAF9"/>
<path opacity="0.5" d="M416.859 210.259V193.434H325.534V210.259H416.859Z" fill="white"/>
<path d="M509.652 117.032V93.8373C509.652 86.7453 505.357 80.9961 500.058 80.9961L182.689 80.9961C177.391 80.9961 173.095 86.7453 173.095 93.8373V117.032C173.095 124.124 177.391 129.873 182.689 129.873H500.058C505.357 129.873 509.652 124.124 509.652 117.032Z" fill="#90CAF9"/>
<path d="M169.466 338.01C168.322 341.49 167.061 345.248 165.956 348.919C164.851 352.591 163.707 356.367 162.706 360.125C160.652 367.452 159.006 374.972 157.779 382.623L157.402 385.407L157.272 386.451C157.272 386.747 157.272 387.13 157.194 387.478C157.145 389.172 157.171 390.869 157.272 392.559C157.519 396.23 157.961 400.162 158.572 404.095C159.664 411.977 161.055 420.103 162.472 428.107L155.803 431.587C152.695 424.002 150.047 416.094 147.886 407.94C146.748 403.697 145.827 399.354 145.13 394.942C144.74 392.502 144.496 390.023 144.402 387.53C144.402 386.834 144.402 386.173 144.402 385.425C144.402 384.676 144.402 383.841 144.493 383.354L144.753 379.874C145.142 375.392 145.737 370.947 146.534 366.563C147.262 362.213 148.198 357.985 149.134 353.809C150.07 349.633 151.24 345.526 152.475 341.49C153.086 339.471 153.775 337.47 154.373 335.469C154.971 333.468 155.673 331.554 156.505 329.414L169.466 338.01Z" fill="#E4897B"/>
<path d="M162.121 425.758L167.191 432.387L156.128 439.347C156.128 439.347 153.45 433.066 155.309 427.393L162.121 425.758Z" fill="#E4897B"/>
<path d="M171.286 442.256L161.939 447.372L156.141 439.281L167.191 432.391L171.286 442.256Z" fill="#E4897B"/>
<path opacity="0.4" d="M360.633 435.122C342.239 432.357 324.87 422.356 310.723 406.381C296.575 390.407 286.284 369.177 281.15 345.375C276.015 321.573 276.269 296.268 281.878 272.659C287.487 249.05 298.2 228.197 312.662 212.735C327.125 197.274 344.687 187.9 363.13 185.796C381.572 183.693 400.067 188.955 416.275 200.919C432.483 212.882 445.678 231.008 454.19 253.007C462.703 275.005 466.151 299.888 464.1 324.51C462.737 340.868 458.979 356.707 453.04 371.12C447.102 385.534 439.1 398.24 429.491 408.512C419.882 418.785 408.855 426.422 397.04 430.988C385.225 435.553 372.854 436.958 360.633 435.122Z" fill="#FAFAFA"/>
<path opacity="0.4" d="M428.727 211.915L286.377 364.148C285.779 362.408 285.194 360.668 284.648 358.928C281.079 347.566 278.797 335.556 277.875 323.293L400.829 191.801C410.924 196.308 420.361 203.112 428.727 211.915Z" fill="#FAFAFA"/>
<path opacity="0.4" d="M461.575 278.609L327.74 421.724C315.026 412.853 304.007 400.183 295.539 384.697L441.672 228.41C451.092 242.882 457.901 260.056 461.575 278.609Z" fill="#FAFAFA"/>
<path d="M265.704 262.74L264.469 262.183C266.608 253.736 269.296 245.555 272.503 237.736L273.634 238.572C270.469 246.303 267.816 254.39 265.704 262.74ZM281.486 222.129L280.433 221.102C291.116 201.767 305.099 186.131 321.214 175.497L321.799 177.063C305.867 187.587 292.045 203.056 281.486 222.181V222.129ZM423.953 179.446C419.705 176.397 415.31 173.729 410.797 171.46L411.265 169.824C415.822 172.146 420.26 174.866 424.551 177.967L423.953 179.446Z" fill="#90CAF9"/>
<path opacity="0.3" d="M265.704 262.74L264.469 262.183C266.608 253.736 269.296 245.555 272.503 237.736L273.634 238.572C270.469 246.303 267.816 254.39 265.704 262.74ZM281.486 222.129L280.433 221.102C291.116 201.767 305.099 186.131 321.214 175.497L321.799 177.063C305.867 187.587 292.045 203.056 281.486 222.181V222.129ZM423.953 179.446C419.705 176.397 415.31 173.729 410.797 171.46L411.265 169.824C415.822 172.146 420.26 174.866 424.551 177.967L423.953 179.446Z" fill="black"/>
<path d="M467.83 246.627C455.792 213.211 434.609 187.276 408.671 174.199C382.734 161.123 354.031 161.907 328.514 176.39C302.997 190.872 282.622 217.943 271.613 251.988C260.605 286.034 259.807 324.445 269.385 359.257C260.701 363.328 252.121 367.696 243.593 372.202C231.295 378.733 219.109 385.554 207.037 392.665C194.973 399.816 182.961 407.107 171.066 414.728C165.099 418.469 159.21 422.419 153.269 426.247C150.178 428.024 147.378 430.596 145.027 433.816C143.754 435.599 142.634 437.566 141.686 439.68C140.529 442.18 139.653 444.894 139.086 447.736C138.108 452.856 138.531 458.276 140.278 463.015C142.026 467.754 144.983 471.5 148.615 473.575C150.631 474.707 152.759 475.445 154.933 475.767C156.769 476.046 158.622 476.046 160.458 475.767C163.794 475.225 167.018 473.812 169.948 471.609C175.837 467.624 181.765 463.779 187.615 459.69C199.315 451.703 211.015 443.368 222.572 434.912C234.129 426.456 245.699 417.599 256.983 408.516C264.783 402.2 272.661 395.745 280.383 388.993C295.211 420.325 318.477 442.82 345.359 451.817C372.241 460.814 400.679 455.624 424.78 437.322C448.881 419.02 466.797 389.009 474.817 353.507C482.836 318.006 480.344 279.735 467.856 246.627H467.83ZM408.732 412.849C393.624 422.83 376.644 426.591 359.94 423.656C343.235 420.722 327.556 411.223 314.884 396.362C302.212 381.501 293.117 361.944 288.75 340.165C284.382 318.386 284.937 295.362 290.345 274.005C295.752 252.648 305.77 233.917 319.131 220.18C332.492 206.443 348.597 198.317 365.408 196.83C382.219 195.343 398.982 200.561 413.578 211.825C428.174 223.089 439.946 239.893 447.407 260.112C452.362 273.539 455.291 288.141 456.029 303.085C456.767 318.028 455.298 333.019 451.707 347.203C448.116 361.386 442.472 374.484 435.098 385.748C427.724 397.011 418.765 406.22 408.732 412.849Z" fill="#90CAF9"/>
<path opacity="0.3" d="M467.83 246.627C455.792 213.211 434.609 187.276 408.671 174.199C382.734 161.123 354.031 161.907 328.514 176.39C302.997 190.872 282.622 217.943 271.613 251.988C260.605 286.034 259.807 324.445 269.385 359.257C260.701 363.328 252.121 367.696 243.593 372.202C231.295 378.733 219.109 385.554 207.037 392.665C194.973 399.816 182.961 407.107 171.066 414.728C165.099 418.469 159.21 422.419 153.269 426.247C150.178 428.024 147.378 430.596 145.027 433.816C143.754 435.599 142.634 437.566 141.686 439.68C140.529 442.18 139.653 444.894 139.086 447.736C138.108 452.856 138.531 458.276 140.278 463.015C142.026 467.754 144.983 471.5 148.615 473.575C150.631 474.707 152.759 475.445 154.933 475.767C156.769 476.046 158.622 476.046 160.458 475.767C163.794 475.225 167.018 473.812 169.948 471.609C175.837 467.624 181.765 463.779 187.615 459.69C199.315 451.703 211.015 443.368 222.572 434.912C234.129 426.456 245.699 417.599 256.983 408.516C264.783 402.2 272.661 395.745 280.383 388.993C295.211 420.325 318.477 442.82 345.359 451.817C372.241 460.814 400.679 455.624 424.78 437.322C448.881 419.02 466.797 389.009 474.817 353.507C482.836 318.006 480.344 279.735 467.856 246.627H467.83ZM408.732 412.849C393.624 422.83 376.644 426.591 359.94 423.656C343.235 420.722 327.556 411.223 314.884 396.362C302.212 381.501 293.117 361.944 288.75 340.165C284.382 318.386 284.937 295.362 290.345 274.005C295.752 252.648 305.77 233.917 319.131 220.18C332.492 206.443 348.597 198.317 365.408 196.83C382.219 195.343 398.982 200.561 413.578 211.825C428.174 223.089 439.946 239.893 447.407 260.112C452.362 273.539 455.291 288.141 456.029 303.085C456.767 318.028 455.298 333.019 451.707 347.203C448.116 361.386 442.472 374.484 435.098 385.748C427.724 397.011 418.765 406.22 408.732 412.849Z" fill="black"/>
<path d="M205.398 275.877C205.398 276.904 205.801 277.739 206.308 277.739C206.815 277.739 207.218 276.904 207.218 275.877C207.218 274.851 206.815 274.016 206.308 274.016C205.801 274.016 205.398 274.92 205.398 275.877Z" fill="#263238"/>
<path d="M205.762 277.738C206.682 280.89 207.92 283.858 209.441 286.56C208.915 287.064 208.313 287.407 207.678 287.566C207.042 287.726 206.388 287.697 205.762 287.482V277.738Z" fill="#DE5753"/>
<path d="M202.708 270.153C202.636 270.153 202.564 270.131 202.499 270.089C202.434 270.047 202.377 269.985 202.331 269.909C202.264 269.776 202.237 269.614 202.256 269.455C202.275 269.296 202.34 269.154 202.435 269.057C203.008 268.475 203.677 268.088 204.385 267.928C205.094 267.767 205.821 267.838 206.505 268.134C206.566 268.157 206.623 268.196 206.672 268.25C206.722 268.304 206.762 268.371 206.791 268.447C206.82 268.523 206.836 268.606 206.839 268.691C206.843 268.776 206.832 268.861 206.81 268.941C206.787 269.02 206.752 269.092 206.707 269.153C206.662 269.213 206.608 269.26 206.548 269.29C206.489 269.321 206.426 269.335 206.362 269.33C206.298 269.326 206.236 269.304 206.18 269.265C205.637 269.043 205.061 268.997 204.503 269.134C203.944 269.27 203.418 269.584 202.969 270.048C202.891 270.117 202.801 270.153 202.708 270.153Z" fill="#263238"/>
<path d="M179.138 283.617C180.438 292.961 181.868 310.1 176.98 316.347C176.98 316.347 178.891 325.83 191.878 325.83C206.178 325.83 198.69 316.347 198.69 316.347C190.89 313.841 191.111 306.115 192.463 298.842L179.138 283.617Z" fill="#E4897B"/>
<path d="M171.143 321.272C172.69 318.053 170.09 310.24 170.09 310.24C170.09 310.24 193.074 302.497 202.473 314.382C204.423 316.835 202.265 320.454 202.265 320.454L171.143 321.272Z" fill="#90CAF9"/>
<path opacity="0.1" d="M171.143 321.272C172.69 318.053 170.09 310.24 170.09 310.24C170.09 310.24 193.074 302.497 202.473 314.382C204.423 316.835 202.265 320.454 202.265 320.454L171.143 321.272Z" fill="black"/>
<path d="M133.119 676.283C131.91 676.283 129.973 673.586 129.401 672.577C129.376 672.528 129.363 672.471 129.363 672.412C129.363 672.353 129.376 672.295 129.401 672.247C129.422 672.198 129.452 672.158 129.489 672.13C129.526 672.103 129.567 672.089 129.609 672.09C129.752 672.09 132.937 672.473 133.808 673.987C133.903 674.146 133.97 674.332 134.006 674.53C134.042 674.728 134.046 674.935 134.016 675.135C134.005 675.394 133.934 675.642 133.813 675.844C133.691 676.047 133.526 676.194 133.34 676.266L133.119 676.283ZM130.103 672.803C131.052 674.265 132.573 675.918 133.223 675.709C133.223 675.709 133.483 675.622 133.561 675.065C133.578 674.949 133.575 674.829 133.553 674.715C133.53 674.6 133.489 674.494 133.431 674.404C132.468 673.428 131.309 672.858 130.103 672.768V672.803Z" fill="#90CAF9"/>
<path d="M130.244 672.772C130.01 672.803 129.775 672.803 129.542 672.772C129.501 672.767 129.462 672.747 129.429 672.713C129.397 672.679 129.373 672.633 129.36 672.58C129.342 672.532 129.332 672.478 129.332 672.424C129.332 672.369 129.342 672.316 129.36 672.267C129.451 672.163 131.362 669.5 132.805 669.5C132.978 669.495 133.149 669.539 133.308 669.629C133.467 669.719 133.61 669.853 133.728 670.022C133.857 670.167 133.946 670.367 133.979 670.589C134.012 670.81 133.988 671.04 133.91 671.24C133.533 672.215 131.544 672.772 130.244 672.772ZM130.075 672.163C131.375 672.163 133.26 671.623 133.572 670.858C133.572 670.858 133.663 670.631 133.455 670.353C133.379 670.243 133.286 670.156 133.183 670.099C133.08 670.042 132.968 670.016 132.857 670.022C131.791 670.35 130.823 671.095 130.075 672.163Z" fill="#90CAF9"/>
<path d="M218.907 715.784C217.922 715.775 216.939 715.653 215.969 715.419C215.921 715.407 215.877 715.372 215.846 715.321C215.816 715.27 215.799 715.206 215.8 715.14C215.793 715.08 215.799 715.019 215.817 714.963C215.836 714.907 215.866 714.86 215.904 714.827C216.047 714.723 219.375 712.165 220.974 712.757C221.122 712.802 221.262 712.886 221.385 713.006C221.508 713.126 221.611 713.278 221.689 713.453C221.791 713.646 221.845 713.877 221.845 714.114C221.845 714.351 221.791 714.582 221.689 714.775C221.312 715.558 220.129 715.784 218.907 715.784ZM216.71 714.966C218.478 715.314 220.896 715.297 221.338 714.462C221.403 714.357 221.455 714.166 221.338 713.801C221.239 713.584 221.08 713.428 220.896 713.366C219.882 713.018 217.867 714.166 216.71 714.966Z" fill="#90CAF9"/>
<path d="M216.019 715.436C215.977 715.452 215.932 715.452 215.889 715.436C215.853 715.405 215.825 715.36 215.809 715.307C215.792 715.254 215.789 715.196 215.798 715.14C215.886 713.329 216.406 711.603 217.28 710.216C217.457 710.011 217.665 709.861 217.889 709.774C218.113 709.686 218.349 709.665 218.58 709.711C219.204 709.711 219.386 710.216 219.425 710.546C219.594 711.99 217.319 714.757 216.162 715.453L216.019 715.436ZM218.346 710.216C218.06 710.213 217.783 710.349 217.566 710.598C216.831 711.697 216.376 713.081 216.266 714.548C217.436 713.591 218.996 711.434 218.866 710.564C218.866 710.564 218.866 710.268 218.424 710.216H218.346Z" fill="#90CAF9"/>
<path d="M205.516 715.121H215.071L216.02 685.523H206.465L205.516 715.121Z" fill="#E4897B"/>
<path d="M120.43 664.315L128.412 671.31L146.04 651.387L138.045 644.375L120.43 664.315Z" fill="#E4897B"/>
<path d="M129.725 670.646L121.431 661.546C121.285 661.385 121.101 661.297 120.911 661.297C120.721 661.297 120.538 661.385 120.391 661.546L113.553 668.732C113.388 668.908 113.254 669.132 113.163 669.387C113.071 669.641 113.023 669.92 113.023 670.203C113.023 670.485 113.071 670.764 113.163 671.019C113.254 671.273 113.388 671.497 113.553 671.673C116.491 674.788 118.038 676.11 121.691 680.112C123.94 682.565 129.491 690.082 132.624 693.475C135.757 696.868 138.63 693.214 137.59 691.457C132.923 683.54 131.09 676.771 130.557 672.578C130.465 671.82 130.169 671.133 129.725 670.646Z" fill="#263238"/>
<path d="M215.007 713.645H204.607C204.417 713.645 204.233 713.732 204.085 713.89C203.936 714.047 203.831 714.268 203.788 714.515L201.903 725.877C201.855 726.152 201.855 726.438 201.903 726.713C201.95 726.989 202.044 727.246 202.177 727.466C202.31 727.685 202.478 727.862 202.669 727.981C202.861 728.101 203.07 728.161 203.281 728.156C207.038 728.069 212.472 727.773 217.204 727.773C222.729 727.773 227.513 728.173 233.987 728.173C237.887 728.173 239.005 722.867 237.354 722.397C229.892 720.204 223.782 719.978 217.334 714.636C216.642 714.023 215.836 713.68 215.007 713.645Z" fill="#263238"/>
<path d="M158.156 320.16C149.875 325.38 145.156 360.354 145.156 360.354L165.397 371.159C168.36 361.476 170.755 351.499 172.56 341.318C175.342 325.206 166.632 314.766 158.156 320.16Z" fill="#263238"/>
<path d="M168.896 339.873C163.891 346.659 161.603 359.953 160.602 368.6L165.451 371.193C168.329 361.785 170.676 352.101 172.471 342.222C172.042 338.533 170.976 337.054 168.896 339.873Z" fill="#203048"/>
<path d="M213.382 319.916C213.382 319.916 223.548 335.298 213.954 430.406H162.877C162.526 419.966 167.453 368.723 159.887 319.273C165.531 317.808 171.242 316.843 176.982 316.384C184.212 315.809 191.461 315.809 198.692 316.384C203.649 317.052 208.561 318.233 213.382 319.916Z" fill="#263238"/>
<path d="M218.048 356.838L209.442 336.984C207.78 346.248 207.102 355.778 207.427 365.294C207.661 372.115 212.328 397.38 216.527 401.069C217.641 386.374 218.149 371.608 218.048 356.838Z" fill="#203048"/>
<path d="M219.243 333.504C220.543 341.96 221.843 350.626 223.234 359.117C224.625 367.608 226.068 376.134 227.745 384.364C228.174 386.4 228.577 388.488 229.045 390.437L229.396 391.933L229.565 392.681V392.594C229.474 392.438 229.37 392.42 229.448 392.594C229.982 393.375 230.665 393.947 231.424 394.247C232.653 394.859 233.918 395.331 235.207 395.657C241.353 396.961 247.576 397.502 253.797 397.275L255.032 406.741C253.29 407.489 251.665 408.028 249.949 408.568C248.233 409.107 246.543 409.559 244.814 409.907C241.237 410.704 237.61 411.031 233.985 410.882C231.97 410.809 229.966 410.459 228.005 409.838C225.511 409.108 223.168 407.652 221.141 405.575C219.817 404.144 218.725 402.368 217.93 400.355C217.722 399.833 217.54 399.241 217.371 398.737L217.137 397.919L216.656 396.179C215.993 393.969 215.447 391.794 214.849 389.619C212.652 380.919 210.819 372.132 209.207 363.362C207.595 354.593 206.204 345.841 205.047 336.845L219.243 333.504Z" fill="#E4897B"/>
<path d="M200.626 329.241C197.935 340.917 208.842 375.734 208.842 375.734L230.565 368.426C230.565 368.426 229.733 350.33 224.78 335.975C217.318 314.329 203.85 315.234 200.626 329.241Z" fill="#263238"/>
<path d="M253.616 397.276L264.432 396.91L259.232 411.979C259.232 411.979 254.825 412.762 251.211 404.81L247.402 398.72L251.783 397.554C252.386 397.384 253 397.291 253.616 397.276Z" fill="#E4897B"/>
<path d="M271.255 399.712L265.067 412.205L259.23 411.979L264.43 396.91L271.255 399.712Z" fill="#E4897B"/>
<path d="M216.018 685.523L215.524 700.783H205.969L206.463 685.523H216.018Z" fill="#CE6F64"/>
<path d="M138.044 644.375L146.039 651.387L136.939 661.653L128.957 654.658L138.044 644.375Z" fill="#CE6F64"/>
<path d="M179.737 273.668C180.309 286.317 180.166 293.782 184.937 300.272C192.113 310.068 203.8 304.274 206.062 291.572C208.103 280.193 206.829 261.401 197.573 256.355C195.531 255.251 193.312 254.861 191.126 255.219C188.94 255.577 186.858 256.673 185.075 258.404C183.292 260.135 181.867 262.443 180.933 265.113C179.999 267.783 179.588 270.727 179.737 273.668Z" fill="#E4897B"/>
<path d="M168.607 271.438C170.96 282.974 176.498 296.268 183.661 297.121C192.553 298.165 196.57 285.863 197.74 273.161C203.07 268.271 200.275 262.895 205.618 262.216C212.482 261.346 210.285 244.538 201.25 241.841C201.25 241.841 204.279 249.41 197.922 245.582C191.876 241.736 185.16 240.178 178.5 241.075C178.5 241.075 186.612 246.504 178.682 248.923C170.752 251.341 168.386 257.884 172.039 261.833C172.039 261.851 167.06 263.852 168.607 271.438Z" fill="#263238"/>
<path d="M192.318 275.772C192.493 278.916 193.439 281.895 195.009 284.246C197.089 287.326 199.26 285.412 199.624 281.671C199.962 278.312 199.273 272.657 196.725 270.952C194.177 269.247 192.149 271.979 192.318 275.772Z" fill="#E4897B"/>
<path d="M195.831 430.404C195.831 430.404 205.139 520.623 197.807 556.78C186.185 614.026 141.751 662.346 141.751 662.346L126.684 649.122C126.684 649.122 164.527 608.319 169.155 560.382C173.315 517.352 162.876 465.309 162.876 430.387L195.831 430.404Z" fill="#90CAF9"/>
<path opacity="0.1" d="M195.831 430.404C195.831 430.404 205.139 520.623 197.807 556.78C186.185 614.026 141.751 662.346 141.751 662.346L126.684 649.122C126.684 649.122 164.527 608.319 169.155 560.382C173.315 517.352 162.876 465.309 162.876 430.387L195.831 430.404Z" fill="black"/>
<path d="M199.678 481.979C197.2 478.179 194.472 474.685 191.527 471.539C193.113 500.823 194.413 544.201 192.97 575.017C194.911 569.109 196.527 563.021 197.806 556.799C201.381 539.138 201.004 508.636 199.678 481.979Z" fill="#90CAF9"/>
<path opacity="0.3" d="M199.678 481.979C197.2 478.179 194.472 474.685 191.527 471.539C193.113 500.823 194.413 544.201 192.97 575.017C194.911 569.109 196.527 563.021 197.806 556.799C201.381 539.138 201.004 508.636 199.678 481.979Z" fill="black"/>
<path d="M147.822 657.841C147.887 657.841 141.985 663.061 141.985 663.061L125.527 648.619L130.727 642.859L147.822 657.841Z" fill="#90CAF9"/>
<path opacity="0.3" d="M147.822 657.841C147.887 657.841 141.985 663.061 141.985 663.061L125.527 648.619L130.727 642.859L147.822 657.841Z" fill="black"/>
<path d="M213.954 430.406C213.954 430.406 228.332 512.012 229.346 551.006C230.49 594.714 219.089 697.827 219.089 697.827H202.904C202.904 697.827 200.915 593.914 200.2 554.103C199.407 510.69 180.375 430.406 180.375 430.406H213.954Z" fill="#90CAF9"/>
<path opacity="0.1" d="M213.954 430.406C213.954 430.406 228.332 512.012 229.346 551.006C230.49 594.714 219.089 697.827 219.089 697.827H202.904C202.904 697.827 200.915 593.914 200.2 554.103C199.407 510.69 180.375 430.406 180.375 430.406H213.954Z" fill="black"/>
<path d="M222.195 689.215C222.273 689.215 221.285 698.193 221.285 698.193H201.603L201.07 690.172L222.195 689.215Z" fill="#90CAF9"/>
<path opacity="0.3" d="M222.195 689.215C222.273 689.215 221.285 698.193 221.285 698.193H201.603L201.07 690.172L222.195 689.215Z" fill="black"/>
<path d="M462.8 351.988C463.905 353.38 464.776 354.563 465.686 355.886C466.596 357.208 467.454 358.496 468.286 359.836C469.976 362.498 471.562 365.299 473.096 368.118C476.16 373.773 478.886 379.742 481.247 385.971L481.728 387.241C481.963 387.856 482.159 388.496 482.313 389.155C482.627 390.428 482.819 391.749 482.885 393.087C482.97 395.446 482.727 397.806 482.17 400.047C481.221 403.77 479.81 407.252 477.997 410.348C474.731 415.963 470.878 420.921 466.557 425.068L463.32 420.092C464.841 417.708 466.427 415.15 467.844 412.592C469.286 410.114 470.59 407.497 471.744 404.762C472.823 402.376 473.621 399.782 474.11 397.072C474.278 396.102 474.309 395.099 474.201 394.114C474.155 393.782 474.076 393.461 473.967 393.157C473.919 393.023 473.862 392.895 473.798 392.774L473.382 391.834C470.875 386.363 468.154 381.071 465.231 375.983C463.788 373.425 462.241 370.972 460.681 368.553C459.914 367.335 459.121 366.152 458.328 364.969C457.535 363.785 456.677 362.602 455.988 361.68L462.8 351.988Z" fill="#E4897B"/>
<path d="M464.566 418.627L454.855 416.504L459.938 427.884C459.938 427.884 466.191 427.588 467.972 422.664L464.566 418.627Z" fill="#E4897B"/>
<path d="M447.68 421.759L452.308 430.998L459.939 427.884L454.856 416.504L447.68 421.759Z" fill="#E4897B"/>
<path d="M464.098 715.627C463.438 715.703 462.779 715.462 462.239 714.948C462.076 714.742 461.956 714.484 461.89 714.197C461.824 713.91 461.814 713.606 461.862 713.313C461.871 713.126 461.919 712.946 461.999 712.793C462.079 712.64 462.189 712.519 462.317 712.443C463.448 711.764 466.412 714.305 466.75 714.6C466.789 714.632 466.818 714.68 466.835 714.737C466.851 714.793 466.853 714.855 466.841 714.914C466.836 714.973 466.817 715.029 466.787 715.073C466.756 715.117 466.716 715.146 466.672 715.157C465.83 715.443 464.966 715.601 464.098 715.627ZM462.798 712.93C462.703 712.91 462.607 712.91 462.512 712.93C462.455 712.966 462.406 713.022 462.372 713.093C462.337 713.164 462.318 713.246 462.317 713.33C462.283 713.524 462.286 713.727 462.327 713.919C462.368 714.111 462.445 714.286 462.551 714.426C463.045 715.018 464.319 715.105 466.022 714.653C465.046 713.79 463.949 713.204 462.798 712.93Z" fill="#90CAF9"/>
<path d="M466.701 715.142H466.584C465.661 714.428 463.88 711.662 464.101 710.148C464.143 709.909 464.242 709.695 464.382 709.538C464.523 709.382 464.698 709.29 464.881 709.278C465.056 709.244 465.235 709.264 465.404 709.336C465.573 709.409 465.728 709.531 465.856 709.695C466.922 710.948 466.935 714.707 466.935 714.915C466.932 714.968 466.92 715.019 466.9 715.065C466.88 715.11 466.852 715.149 466.818 715.176L466.701 715.142ZM465.037 709.922H464.933C464.647 709.922 464.582 710.13 464.556 710.287C464.426 711.174 465.531 713.297 466.454 714.289C466.477 712.829 466.163 711.396 465.557 710.183C465.479 710.085 465.387 710.012 465.286 709.967C465.185 709.922 465.078 709.906 464.972 709.922H465.037Z" fill="#90CAF9"/>
<path d="M419.794 715.63C418.964 715.736 418.133 715.453 417.441 714.83C417.285 714.645 417.165 714.412 417.09 714.152C417.016 713.891 416.989 713.611 417.012 713.334C417.021 713.164 417.061 713.001 417.129 712.858C417.197 712.715 417.291 712.597 417.402 712.516C418.611 711.611 422.485 714.256 422.927 714.586C422.968 714.621 423 714.671 423.021 714.729C423.041 714.788 423.049 714.853 423.044 714.917C423.037 714.978 423.015 715.034 422.982 715.078C422.95 715.122 422.908 715.15 422.862 715.161C421.853 715.447 420.826 715.605 419.794 715.63ZM418.065 712.933C417.916 712.92 417.768 712.962 417.636 713.055C417.589 713.085 417.55 713.132 417.522 713.19C417.495 713.249 417.48 713.316 417.48 713.386C417.46 713.567 417.473 713.752 417.519 713.925C417.564 714.097 417.64 714.253 417.74 714.378C418.338 715.091 419.937 715.213 422.095 714.726C420.837 713.828 419.474 713.222 418.065 712.933Z" fill="#90CAF9"/>
<path d="M422.824 715.143H422.72C421.563 714.447 419.262 711.663 419.444 710.149C419.444 709.801 419.678 709.366 420.315 709.279C420.548 709.245 420.783 709.276 421.006 709.369C421.23 709.461 421.437 709.614 421.615 709.818C422.837 711.175 423.071 714.69 423.071 714.847C423.076 714.9 423.07 714.954 423.054 715.003C423.038 715.052 423.012 715.094 422.98 715.125C422.931 715.153 422.876 715.16 422.824 715.143ZM420.497 709.923H420.354C419.938 709.923 419.912 710.201 419.899 710.271C419.795 711.158 421.355 713.368 422.499 714.325C422.386 712.837 421.932 711.433 421.199 710.305C421.002 710.08 420.755 709.946 420.497 709.923Z" fill="#90CAF9"/>
<path d="M438.19 311.984C437.813 319.849 436.799 335.822 441.31 340.242C441.31 340.242 440.491 348.298 429.844 350.177C418.144 352.213 423.487 343.374 423.487 343.374C429.688 340.207 428.895 333.891 427.205 328.114L438.19 311.984Z" fill="#E4897B"/>
<path d="M413.972 298.083C413.908 298.083 413.844 298.065 413.786 298.029C413.728 297.993 413.676 297.94 413.634 297.874C413.263 297.284 412.792 296.819 412.262 296.517C411.731 296.214 411.155 296.083 410.579 296.134C410.519 296.149 410.456 296.147 410.396 296.129C410.336 296.11 410.279 296.075 410.229 296.027C410.179 295.978 410.137 295.916 410.106 295.845C410.074 295.773 410.054 295.694 410.046 295.612C410.032 295.449 410.066 295.284 410.141 295.153C410.216 295.023 410.327 294.938 410.449 294.916C411.183 294.833 411.921 294.989 412.601 295.371C413.28 295.753 413.88 296.349 414.349 297.109C414.406 297.199 414.442 297.31 414.453 297.426C414.465 297.543 414.452 297.662 414.415 297.77C414.378 297.877 414.32 297.968 414.246 298.033C414.172 298.097 414.086 298.133 413.998 298.135L413.972 298.083Z" fill="#263238"/>
<path d="M411.943 305.789C411.482 308.285 410.769 310.685 409.824 312.923C410.258 313.236 410.738 313.416 411.23 313.453C411.722 313.489 412.214 313.379 412.671 313.132L411.943 305.789Z" fill="#DE5753"/>
<path d="M412.462 303.874C412.566 304.918 412.241 305.823 411.734 305.928C411.227 306.032 410.72 305.232 410.629 304.188C410.538 303.144 410.85 302.239 411.357 302.152C411.864 302.065 412.371 302.761 412.462 303.874Z" fill="#263238"/>
<path d="M411.593 302.17L409.656 301.77C409.656 301.77 410.8 303.562 411.593 302.17Z" fill="#263238"/>
<path d="M433.537 714.865H423.787L423.137 684.676H432.887L433.537 714.865Z" fill="#E4897B"/>
<path d="M477.801 714.865H468.051L464.918 684.676H474.668L477.801 714.865Z" fill="#E4897B"/>
<path d="M467.454 713.402H478.4C478.587 713.4 478.767 713.489 478.909 713.652C479.05 713.816 479.142 714.042 479.167 714.29L480.467 725.896C480.491 726.188 480.468 726.484 480.4 726.764C480.333 727.044 480.222 727.302 480.074 727.521C479.927 727.739 479.747 727.913 479.546 728.032C479.344 728.151 479.127 728.212 478.907 728.21C475.098 728.123 473.252 727.827 468.442 727.827C465.478 727.827 461.149 728.227 457.067 728.227C452.985 728.227 452.764 722.816 454.467 722.329C462.098 720.136 463.307 717.109 465.868 714.203C466.315 713.706 466.873 713.425 467.454 713.402Z" fill="#263238"/>
<path d="M423.46 713.402H434.393C434.581 713.4 434.764 713.488 434.907 713.651C435.05 713.814 435.145 714.041 435.173 714.29L436.473 725.896C436.497 726.188 436.474 726.484 436.407 726.764C436.339 727.044 436.228 727.302 436.081 727.521C435.933 727.739 435.753 727.913 435.552 728.032C435.351 728.151 435.133 728.212 434.913 728.21C431.104 728.123 429.258 727.827 424.448 727.827C421.484 727.827 415.348 728.227 411.266 728.227C407.184 728.227 406.963 722.816 408.666 722.329C416.297 720.136 419.3 717.109 421.874 714.203C422.321 713.706 422.88 713.425 423.46 713.402Z" fill="#263238"/>
<path d="M423.137 684.676L423.475 700.249H433.225L432.887 684.676H423.137Z" fill="#CE6F64"/>
<path d="M474.668 684.676H464.918L466.543 700.249H476.28L474.668 684.676Z" fill="#CE6F64"/>
<path d="M438.319 295.696C438.982 308.606 439.463 314.053 435.277 321.482C428.972 332.636 416.986 330.913 413.45 318.524C410.265 307.371 409.719 288.144 418.585 281.393C420.535 279.897 422.739 279.092 424.987 279.056C427.235 279.02 429.452 279.753 431.429 281.185C433.406 282.618 435.076 284.703 436.282 287.243C437.488 289.782 438.189 292.692 438.319 295.696Z" fill="#E4897B"/>
<path d="M443.935 307.686C449.343 311.723 453.36 301.77 453.36 301.77C453.36 301.77 443.662 303.179 444.533 295.454C445.677 285.205 440.191 272.747 426.437 274.348C425.67 274.435 424.942 274.556 424.227 274.713C422.787 273.799 421.159 273.564 419.606 274.044C418.053 274.524 416.667 275.691 415.673 277.358C411.773 277.793 406.508 284.022 410.083 292.252C410.334 291.306 410.723 290.437 411.227 289.694C411.526 294.514 414.672 302.17 418.598 302.675C419.443 309.269 416.167 316.908 417.298 323.798C418.975 333.734 431.494 335.978 431.494 335.978C431.062 334.738 430.901 333.359 431.03 332.001C431.159 330.643 431.572 329.362 432.222 328.305C440.724 333.525 446.327 328.427 446.327 328.427C440.529 325.538 442.284 320.388 442.284 320.388C444.286 321.578 446.554 321.682 448.613 320.68C450.671 319.677 452.359 317.645 453.321 315.011C451.395 315.134 449.484 314.507 447.818 313.207C446.153 311.907 444.804 309.99 443.935 307.686Z" fill="#263238"/>
<path d="M421.992 304.658C422.015 305.897 421.854 307.13 421.52 308.286C421.185 309.441 420.683 310.497 420.042 311.392C418.326 313.776 416.22 312.105 415.648 309.06C415.141 306.311 415.427 301.77 417.663 300.517C418.155 300.258 418.688 300.168 419.213 300.255C419.737 300.342 420.237 300.603 420.668 301.014C421.098 301.426 421.444 301.975 421.676 302.611C421.907 303.247 422.016 303.951 421.992 304.658Z" fill="#E4897B"/>
<path d="M430.09 424.943C430.09 424.943 432.56 510.829 438.436 561.254C443.168 602.005 464.189 697.218 464.189 697.218H477.475C477.475 697.218 466.516 605.259 464.111 564.978C458.027 463.031 473.822 441.142 458.911 419.914L430.09 424.943Z" fill="#263238"/>
<path d="M441.192 452.107C441.192 452.107 435.186 450.715 431.676 466.027C432.976 495.033 435.199 533.522 438.436 561.257C439.151 567.434 440.243 574.882 441.582 583.042C439.047 534.044 441.192 452.107 441.192 452.107Z" fill="#161F33"/>
<path d="M419.73 426.756C419.73 426.756 408.784 521.777 409.421 561.536C410.084 602.896 421.407 697.256 421.407 697.256H434.576C434.576 697.256 432.496 605.349 433.653 564.738C434.953 520.455 448.46 421.762 448.46 421.762L419.73 426.756Z" fill="#263238"/>
<path d="M479.4 698.055H461.733L460.355 690.121L479.27 690.295L479.4 698.055Z" fill="#90CAF9"/>
<path opacity="0.2" d="M479.4 698.055H461.733L460.355 690.121L479.27 690.295L479.4 698.055Z" fill="black"/>
<path d="M458.248 340.26C463.331 340.921 471.053 360.252 471.053 360.252L458.222 373.424C458.222 373.424 447.601 360.948 448.862 353.936C450.175 346.646 453.373 339.651 458.248 340.26Z" fill="#90CAF9"/>
<path opacity="0.1" d="M458.248 340.26C463.331 340.921 471.053 360.252 471.053 360.252L458.222 373.424C458.222 373.424 447.601 360.948 448.862 353.936C450.175 346.646 453.373 339.651 458.248 340.26Z" fill="black"/>
<path d="M454.415 348.576C453.119 348.108 451.778 347.909 450.437 347.984C449.755 349.887 449.227 351.882 448.864 353.935C447.564 360.895 458.224 373.423 458.224 373.423L459.173 372.449L454.415 348.576Z" fill="#90CAF9"/>
<path opacity="0.3" d="M454.415 348.576C453.119 348.108 451.778 347.909 450.437 347.984C449.755 349.887 449.227 351.882 448.864 353.935C447.564 360.895 458.224 373.423 458.224 373.423L459.173 372.449L454.415 348.576Z" fill="black"/>
<path d="M415.376 367.142C411.671 379.687 407.771 392.441 404.664 405.022C404.456 405.822 404.287 406.588 404.105 407.371L403.663 409.302C403.542 409.871 403.542 410.473 403.663 411.042C404.396 413.217 405.561 415.083 407.03 416.436C410.916 420.169 415.151 423.205 419.627 425.467L418.457 431.87C412.951 430.898 407.627 428.574 402.753 425.014C399.753 422.869 397.309 419.557 395.746 415.514C394.848 412.93 394.536 410.05 394.849 407.231C394.878 406.886 394.922 406.544 394.979 406.205L395.109 405.474L395.33 404.152C395.486 403.264 395.642 402.412 395.811 401.542C397.111 394.582 398.775 387.97 400.53 381.41C402.285 374.85 404.118 368.377 406.185 361.922L415.376 367.142Z" fill="#E4897B"/>
<path d="M407.486 349.534C407.486 349.534 403.092 352.51 419.732 426.755L458.966 419.9C456.21 398.637 454.91 385.465 458.251 340.26C452.625 339.721 446.977 339.721 441.351 340.26C435.361 340.726 429.404 341.773 423.528 343.392C416.001 345.637 407.486 349.534 407.486 349.534Z" fill="#90CAF9"/>
<path opacity="0.1" d="M407.486 349.534C407.486 349.534 403.092 352.51 419.732 426.755L458.966 419.9C456.21 398.637 454.91 385.465 458.251 340.26C452.625 339.721 446.977 339.721 441.351 340.26C435.361 340.726 429.404 341.773 423.528 343.392C416.001 345.637 407.486 349.534 407.486 349.534Z" fill="black"/>
<path d="M459.252 416.716L461.501 421.083C461.67 421.431 461.384 421.849 460.942 421.936L419.797 429.139C419.446 429.139 419.121 429.018 419.069 428.722L418.263 424.076C418.198 423.763 418.484 423.432 418.874 423.363L458.602 416.403C458.721 416.377 458.844 416.392 458.957 416.447C459.071 416.502 459.172 416.594 459.252 416.716Z" fill="#90CAF9"/>
<path opacity="0.2" d="M459.252 416.716L461.501 421.083C461.67 421.431 461.384 421.849 460.942 421.936L419.797 429.139C419.446 429.139 419.121 429.018 419.069 428.722L418.263 424.076C418.198 423.763 418.484 423.432 418.874 423.363L458.602 416.403C458.721 416.377 458.844 416.392 458.957 416.447C459.071 416.502 459.172 416.594 459.252 416.716Z" fill="black"/>
<path d="M454.494 423.587L455.56 423.395C455.768 423.395 455.911 423.187 455.885 423.013L454.793 416.992C454.751 416.889 454.685 416.809 454.604 416.765C454.524 416.72 454.434 416.714 454.351 416.749L453.285 416.923C453.064 416.923 452.921 417.131 452.96 417.323L454.052 423.326C454.078 423.517 454.286 423.622 454.494 423.587Z" fill="#263238"/>
<path d="M428.7 428.041L429.766 427.85C429.974 427.85 430.13 427.641 430.091 427.467L428.999 421.447C428.956 421.345 428.89 421.265 428.811 421.218C428.731 421.171 428.642 421.159 428.557 421.186L427.491 421.377C427.283 421.377 427.127 421.586 427.166 421.76L428.258 427.78C428.284 428.041 428.492 428.146 428.7 428.041Z" fill="#263238"/>
<path d="M409.316 374.727C410.395 381.443 411.916 389.952 414.139 400.722L414.62 373.422L409.316 374.727Z" fill="#90CAF9"/>
<path opacity="0.3" d="M409.316 374.727C410.395 381.443 411.916 389.952 414.139 400.722L414.62 373.422L409.316 374.727Z" fill="black"/>
<path d="M407.483 349.533C402.608 352.161 398.383 374.485 398.383 374.485L415.153 385.412C415.153 385.412 423.252 358.111 419.625 352.787C415.998 347.463 413.099 346.523 407.483 349.533Z" fill="#90CAF9"/>
<path opacity="0.1" d="M407.483 349.533C402.608 352.161 398.383 374.485 398.383 374.485L415.153 385.412C415.153 385.412 423.252 358.111 419.625 352.787C415.998 347.463 413.099 346.523 407.483 349.533Z" fill="black"/>
<path d="M436.826 698.055H419.159L417.781 690.121L437.45 690.295L436.826 698.055Z" fill="#90CAF9"/>
<path opacity="0.2" d="M436.826 698.055H419.159L417.781 690.121L437.45 690.295L436.826 698.055Z" fill="black"/>
<path d="M419.899 423.31L418.482 422.527C418.134 422.337 417.754 422.274 417.382 422.344C417.009 422.414 416.657 422.615 416.362 422.926C416.066 423.237 415.837 423.647 415.698 424.115C415.559 424.583 415.515 425.091 415.57 425.589L416.597 434.654C416.646 435.108 416.77 435.542 416.96 435.923C417.15 436.305 417.4 436.626 417.694 436.862C417.987 437.099 418.316 437.245 418.657 437.29C418.998 437.336 419.342 437.279 419.665 437.125C420.18 436.875 420.663 436.516 421.095 436.064C421.565 435.542 421.937 434.88 422.181 434.13C422.425 433.381 422.534 432.565 422.499 431.749L422.356 427.99C422.331 426.975 422.086 425.991 421.649 425.159C421.213 424.328 420.604 423.685 419.899 423.31Z" fill="#E4897B"/>
</svg>
